<?xml version="1.0" encoding="UTF-8" standalone="no"?>
<!-- Created with Inkscape (http://www.inkscape.org/) -->

<svg
   xmlns:dc="http://purl.org/dc/elements/1.1/"
   xmlns:cc="http://creativecommons.org/ns#"
   xmlns:rdf="http://www.w3.org/1999/02/22-rdf-syntax-ns#"
   xmlns:svg="http://www.w3.org/2000/svg"
   xmlns="http://www.w3.org/2000/svg"
   xmlns:sodipodi="http://sodipodi.sourceforge.net/DTD/sodipodi-0.dtd"
   xmlns:inkscape="http://www.inkscape.org/namespaces/inkscape"
   width="210mm"
   height="297mm"
   viewBox="0 0 744.09448819 1052.3622047"
   id="svg2"
   version="1.1"
   inkscape:version="0.91 r13725"
   sodipodi:docname="eos.svg">
  <defs
     id="defs4" />
  <sodipodi:namedview
     id="base"
     pagecolor="#ffffff"
     bordercolor="#666666"
     borderopacity="1.0"
     inkscape:pageopacity="0.0"
     inkscape:pageshadow="2"
     inkscape:zoom="0.49497475"
     inkscape:cx="122.20114"
     inkscape:cy="481.16412"
     inkscape:document-units="px"
     inkscape:current-layer="layer1"
     showgrid="false"
     inkscape:window-width="1920"
     inkscape:window-height="1056"
     inkscape:window-x="0"
     inkscape:window-y="24"
     inkscape:window-maximized="1" />
  <metadata
     id="metadata7">
    <rdf:RDF>
      <cc:Work
         rdf:about="">
        <dc:format>image/svg+xml</dc:format>
        <dc:type
           rdf:resource="http://purl.org/dc/dcmitype/StillImage" />
        <dc:title></dc:title>
      </cc:Work>
    </rdf:RDF>
  </metadata>
  <g
     inkscape:label="Layer 1"
     inkscape:groupmode="layer"
     id="layer1">
    <path
       style="fill:#000000"
       d="M 195.74315,943.14628 C 106.78014,890.18871 31.752239,844.61982 29.014467,841.88204 L 24.036701,836.90429 82.171004,587.56796 140.30531,338.23159 201.21564,251.55138 C 234.71633,203.87725 284.41532,133.3816 311.65785,94.894342 l 49.53186,-69.976813 7.02646,-2.696303 7.02645,-2.696304 7.82301,4.379616 c 4.3027,2.408789 56.24857,72.152423 115.4354,154.985852 l 107.61233,150.60624 57.76601,251.27476 57.76595,251.27476 -8.7152,8.53058 c -4.79336,4.69188 -79.14539,51.381 -165.22667,103.7536 l -156.51153,95.22297 -16.84893,-0.06 -16.84892,-0.06 -161.75092,-96.28649 z m 145.6908,34.68023 c -4.18759,-13.72437 -15.55613,-49.77546 -25.26342,-80.11353 l -17.64963,-55.16015 -109.72709,-1.21635 -109.727098,-1.21636 7.88002,5.0057 c 8.104986,5.1486 259.223188,156.34008 261.070828,157.18368 0.5666,0.259 -2.39603,-10.75863 -6.58361,-24.48299 z m 101.33449,-2.17898 c 19.5539,-12.03353 77.75966,-47.49362 129.34611,-78.8002 l 93.79345,-56.92116 -107.92228,0 -107.92228,0 -14.01325,45.96678 c -7.70723,25.28172 -18.45784,60.15081 -23.89017,77.48685 -5.43233,17.33605 -9.90744,32.11109 -9.94474,32.83342 -0.18702,3.62433 7.95378,-0.50432 40.55316,-20.56569 z m -43.14621,-63.6858 21.5944,-69.4089 -44.34271,-1.5275 c -24.38846,-0.84012 -45.42568,-0.44444 -46.74936,0.87914 -1.32367,1.32368 7.64359,34.51454 19.92727,73.75746 l 22.33394,71.35073 2.82102,-2.82104 c 1.55156,-1.55158 12.53852,-34.05503 24.41544,-72.22989 z M 267.73774,746.67927 C 255.05452,706.95084 237.15796,650.13994 227.96761,620.43289 l -16.70973,-54.01291 -3.97026,4.10613 c -3.28119,3.39339 -67.66463,111.93557 -132.53288,223.43327 l -14.517639,24.9534 115.280529,0 115.28052,0 -23.06041,-72.23351 z m 181.09768,5.25335 c 11.48013,-36.8391 31.71461,-102.15842 44.96544,-145.15406 l 24.09247,-78.17393 -71.94483,-123.06308 -71.94488,-123.06308 -5.2909,9.48985 c -2.90999,5.21942 -35.75325,61.4281 -72.98504,124.9082 l -67.69414,115.41836 37.78075,118.35552 c 20.77942,65.09558 41.1346,129.58462 45.23374,143.30898 l 7.45297,24.9534 54.73071,0 54.73075,0 20.87296,-66.98016 z m 236.08664,57.7868 c -4.28337,-5.05634 -39.39095,-63.35819 -78.01687,-129.55965 l -70.22893,-120.36625 -1.4628,4.79263 c -0.8045,2.63597 -18.91883,60.93782 -40.25403,129.55965 l -38.79128,124.76698 118.2709,0 118.27095,0 -7.78794,-9.19336 z M 177.37274,462.18797 155.99096,396.0184 l -2.79333,7.88002 c -2.20289,6.21437 -62.100516,262.47315 -74.902572,320.45413 L 75.395243,737.48591 137.07488,632.92173 198.75452,528.35755 177.37274,462.18797 Z M 632.27839,564.10594 C 611.95403,474.54712 593.65831,399.45404 591.62116,397.2324 l -3.70387,-4.03933 -20.08186,65.52775 -20.08191,65.52776 59.82825,102.25661 c 32.9055,56.24117 60.23813,101.84678 60.73909,101.34577 0.50117,-0.50117 -15.71817,-74.18624 -36.04247,-163.74502 z M 290.64359,372.7422 360.3801,252.72591 358.93709,164.88772 357.49407,77.049529 273.44052,196.62608 c -46.22944,65.76712 -88.51489,126.4517 -93.96767,134.85465 l -9.91413,15.27808 22.74152,73.22325 c 12.50784,40.27279 24.06121,73.12271 25.67417,72.99984 1.61296,-0.12287 34.31409,-54.23074 72.66918,-120.2397 z M 553.81704,412.25231 576.77952,336.65903 491.1558,216.61834 C 444.06275,150.59597 401.22456,90.939839 395.95975,84.049166 l -9.57228,-12.528485 0,88.910179 0,88.91017 69.60684,119.26322 c 38.28377,65.59478 70.78885,119.2583 72.23351,119.25227 1.44468,-0.005 12.95981,-34.02791 25.58922,-75.60421 z"
       id="path9504"
       inkscape:connector-curvature="0" />
  </g>
</svg>
