<!-- Generated by IcoMoon.io -->
<svg version="1.1" xmlns="http://www.w3.org/2000/svg" width="1024" height="1024" viewBox="0 0 1024 1024">
<title></title>
<g id="icomoon-ignore">
</g>
<path fill="#556577" opacity="0.97" d="M706.042 830.726h-412.454c-30.541 0-33.784 12.303-7.198 27.34l169.304 95.78c26.58 15.037 69.905 14.737 96.275-0.669l161.654-94.441c26.37-15.407 22.96-28.009-7.582-28.009z"></path>
<path fill="#556577" opacity="0.97" d="M724.559 348.43c-6.709-29.795-27.138-74.201-45.403-98.681l-141.037-189.063c-18.259-24.48-48.047-24.404-66.18 0.168l-139.321 188.735c-18.141 24.571-38.932 68.942-46.206 98.605l-98.59 401.923c-7.274 29.662 11.759 53.933 42.3 53.933h541.488c30.542 0 50.042-24.376 43.332-54.177z"></path>
</svg>
