<svg width="16" height="24" viewBox="0 0 16 24" fill="none" xmlns="http://www.w3.org/2000/svg">
    <path d="M10 7.38638C10 3.94044 8.36681 0.977038 7.12447 0.0121525C7.11941 0.00899386 7.02938 -0.0428458 7.03698 0.0948357C7.03716 0.0966938 7.03553 0.0972512 7.03553 0.0989234C6.93212 6.75241 3.62507 8.55565 1.80694 10.9849C-2.38884 16.5906 1.51335 22.7367 5.48677 23.8725C7.71021 24.5081 4.97334 22.7478 4.62082 19.03C4.19471 14.5363 10 11.1064 10 7.38638Z" fill="#151516"/>
    <path d="M12.6038 10.0281C12.5245 10.8446 11.5603 12.5905 10.338 14.1938C6.19271 19.6324 8.55501 22.2537 9.88342 23.6619C10.6546 24.4793 9.88342 23.6619 11.8111 22.8265C11.9624 22.7611 15.5726 21.0102 15.9637 17.0211C16.3422 13.1584 13.6591 10.7235 12.7041 10.016C12.6746 9.99862 12.6328 9.98667 12.6038 10.0281Z" fill="#3F7FFF"/>
</svg>
