<svg width="48" height="48" viewBox="0 0 48 48" fill="none" xmlns="http://www.w3.org/2000/svg">
<path d="M19.5826 13.688V16.7376C17.1246 17.6586 15.0726 19.4126 13.7676 21.6548V12.5547H18.4516C19.0757 12.5547 19.5826 13.0616 19.5826 13.688Z" fill="#2873FB"/>
<path d="M27.6653 17.5491V20.4712C27.6653 22.0824 26.3592 23.3885 24.7479 23.3885H23.7967C21.4768 23.3885 19.5941 25.2666 19.5895 27.5889V35.7552H14.8996C14.2732 35.7552 13.7675 35.2483 13.7675 34.623V27.706C13.7628 27.5854 13.7605 27.4647 13.7605 27.3429C13.7605 21.9304 18.1487 17.541 23.5624 17.541C23.6842 17.541 23.8049 17.5433 23.9267 17.548H27.6653V17.5491Z" fill="#2873FB"/>
<path d="M29.1768 34.6203V31.5707C31.6359 30.6485 33.688 28.8946 34.9918 26.6523V35.7536H30.3077C29.6848 35.7536 29.1768 35.2467 29.1768 34.6203Z" fill="#2873FB"/>
<path d="M21.095 30.7607V27.8387C21.095 26.2275 22.4011 24.9214 24.0123 24.9214H24.9635C27.2835 24.9214 29.1662 23.0433 29.1708 20.721V12.5547H33.8607C34.4871 12.5547 34.9928 13.0616 34.9928 13.6868V20.6039C34.9986 20.7245 34.9998 20.8451 34.9998 20.9681C34.9998 26.3806 30.6115 30.77 25.1979 30.77C25.0761 30.77 24.9554 30.7677 24.8336 30.7631H21.095V30.7607Z" fill="#2873FB"/>
<path fill-rule="evenodd" clip-rule="evenodd" d="M24 46C36.1503 46 46 36.1503 46 24C46 11.8497 36.1503 2 24 2C11.8497 2 2 11.8497 2 24C2 36.1503 11.8497 46 24 46ZM24 48C37.2548 48 48 37.2548 48 24C48 10.7452 37.2548 0 24 0C10.7452 0 0 10.7452 0 24C0 37.2548 10.7452 48 24 48Z" fill="#2873FB"/>
</svg>
