<svg width="17" height="19" viewBox="0 0 17 19" fill="none" xmlns="http://www.w3.org/2000/svg">
    <path d="M4.59463 0.894321V3.30084C2.65495 4.02765 1.03566 5.41169 0.00585938 7.18111V0H3.70214C4.19461 0 4.59463 0.400019 4.59463 0.894321Z" fill="#3E8445"/>
    <path d="M10.9726 3.94195V6.24778C10.9726 7.51924 9.94188 8.54995 8.67042 8.54995H7.91982C6.08907 8.54995 4.60342 10.0319 4.59975 11.8645V18.3088H0.898897C0.404595 18.3088 0.00549224 17.9087 0.00549224 17.4153V11.957C0.00183075 11.8618 0 11.7666 0 11.6705C0 7.39932 3.46286 3.93555 7.73491 3.93555C7.83103 3.93555 7.92622 3.93738 8.02234 3.94104H10.9726V3.94195Z" fill="#3E8445"/>
    <path d="M12.1653 17.4127V15.0062C14.1059 14.2785 15.7252 12.8944 16.7541 11.125V18.307H13.0578C12.5662 18.307 12.1653 17.907 12.1653 17.4127Z" fill="#3E8445"/>
    <path d="M5.78784 14.3668V12.061C5.78784 10.7895 6.81855 9.7588 8.09001 9.7588H8.84061C10.6714 9.7588 12.157 8.27681 12.1607 6.44423V0H15.8615C16.3558 0 16.7549 0.400019 16.7549 0.893405V6.35178C16.7595 6.44698 16.7604 6.54218 16.7604 6.63921C16.7604 10.9103 13.2976 14.3741 9.02552 14.3741C8.92941 14.3741 8.83421 14.3723 8.73809 14.3686H5.78784V14.3668Z" fill="#3E8445"/>
</svg>
