<svg width="48" height="48" viewBox="0 0 48 48" fill="none" xmlns="http://www.w3.org/2000/svg">
    <path d="M26.3334 18.6174C26.3334 14.5972 24.428 11.1399 22.9786 10.0142C22.9727 10.0105 22.8677 9.95001 22.8766 10.1106C22.8768 10.1128 22.8749 10.1135 22.8749 10.1154C22.7542 17.8778 18.896 19.9816 16.7748 22.8157C11.8798 29.3557 16.4323 36.5261 21.068 37.8512C23.662 38.5928 20.469 36.5391 20.0577 32.2017C19.5606 26.959 26.3334 22.9575 26.3334 18.6174Z" fill="#2873FB"/>
    <path d="M29.3711 21.6988C29.2786 22.6514 28.1537 24.6883 26.7277 26.5588C21.8915 32.9038 24.6475 35.962 26.1973 37.6049C27.097 38.5585 26.1973 37.6049 28.4463 36.6303C28.6228 36.554 32.8347 34.5113 33.291 29.8573C33.7326 25.3508 30.6023 22.5101 29.4881 21.6847C29.4537 21.6644 29.4049 21.6505 29.3711 21.6988Z" fill="#2873FB"/>
    <path fill-rule="evenodd" clip-rule="evenodd" d="M24 46C36.1503 46 46 36.1503 46 24C46 11.8497 36.1503 2 24 2C11.8497 2 2 11.8497 2 24C2 36.1503 11.8497 46 24 46ZM24 48C37.2548 48 48 37.2548 48 24C48 10.7452 37.2548 0 24 0C10.7452 0 0 10.7452 0 24C0 37.2548 10.7452 48 24 48Z" fill="#2873FB"/>
</svg>
