<svg width="47" height="37" viewBox="0 0 47 37" fill="none" xmlns="http://www.w3.org/2000/svg">
<path d="M23.1328 17.9821V26.9524L30.831 22.4776V13.4866L23.1328 17.9821Z" fill="#2BBDF7"/>
<path d="M38.5545 8.99113L30.8359 4.49561V13.4866V32.5046L38.5545 37.0001V8.99113Z" fill="#2891F9"/>
<path d="M38.5508 8.99113V36.9172L46.2693 32.4217V4.49561L38.5508 8.99113Z" fill="#2BBDF7"/>
<path d="M38.5545 0L30.8359 4.49552L38.5545 8.99104L46.2731 4.49552L38.5545 0Z" fill="#2B6DEF"/>
<path d="M23.1353 17.9822L0 4.49561V32.4217L7.71857 36.9172V17.9822L15.4168 22.4777L23.1353 26.9525V17.9822Z" fill="#2891F9"/>
<path d="M7.71857 0L0 4.49552L23.1353 17.9821L26.6179 15.9518L30.8335 13.4866L7.71857 0Z" fill="#2B6DEF"/>
<path d="M7.71875 17.9821V36.9171L15.417 32.4216V22.4776L7.71875 17.9821Z" fill="#2BBDF7"/>
</svg>
