<svg width="48" height="48" viewBox="0 0 48 48" fill="none" xmlns="http://www.w3.org/2000/svg">
    <path fill-rule="evenodd" clip-rule="evenodd" d="M24 46C36.1503 46 46 36.1503 46 24C46 11.8497 36.1503 2 24 2C11.8497 2 2 11.8497 2 24C2 36.1503 11.8497 46 24 46ZM24 48C37.2548 48 48 37.2548 48 24C48 10.7452 37.2548 0 24 0C10.7452 0 0 10.7452 0 24C0 37.2548 10.7452 48 24 48Z" fill="white"/>
    <path d="M13.9238 31.9226C13.5134 31.9226 13.1819 31.5859 13.1819 31.169V26.2946C13.1819 25.8777 13.5134 25.541 13.9238 25.541C14.3342 25.541 14.6657 25.8777 14.6657 26.2946V31.169C14.6657 31.5859 14.3342 31.9226 13.9238 31.9226Z" fill="white"/>
    <path d="M16.7497 32.4523C16.3393 32.4523 16.0078 32.1156 16.0078 31.6987V24.82C16.0078 24.4031 16.3393 24.0664 16.7497 24.0664C17.1602 24.0664 17.4916 24.4031 17.4916 24.82V31.6987C17.5074 32.1156 17.1602 32.4523 16.7497 32.4523Z" fill="white"/>
    <path d="M22.4167 31.5537C22.0063 31.5537 21.6748 31.217 21.6748 30.8001V25.7653C21.6748 25.3484 22.0063 25.0117 22.4167 25.0117C22.8271 25.0117 23.1586 25.3484 23.1586 25.7653V30.8001C23.1586 31.217 22.8271 31.5537 22.4167 31.5537Z" fill="white"/>
    <path d="M25.2422 29.5343C24.8317 29.5343 24.5002 29.1976 24.5002 28.7807V27.6423C24.5002 27.2254 24.8317 26.8887 25.2422 26.8887C25.6526 26.8887 25.9841 27.2254 25.9841 27.6423V28.7807C25.9841 29.1816 25.6526 29.5343 25.2422 29.5343Z" fill="white"/>
    <path d="M19.5913 39.3149C19.1809 39.3149 18.8494 38.9782 18.8494 38.5613V24.82C18.8494 24.4031 19.1809 24.0664 19.5913 24.0664C20.0017 24.0664 20.3332 24.4031 20.3332 24.82V38.5613C20.3332 38.9782 20.0017 39.3149 19.5913 39.3149Z" fill="white"/>
    <path d="M28.0678 36.3966C27.6574 36.3966 27.3259 36.0598 27.3259 35.6429V28.652C27.3259 28.2352 27.6574 27.8984 28.0678 27.8984C28.4783 27.8984 28.8098 28.2352 28.8098 28.652V35.6429C28.8256 36.0598 28.4783 36.3966 28.0678 36.3966Z" fill="white"/>
    <path d="M30.9094 35.6284C30.499 35.6284 30.1675 35.2917 30.1675 34.8748V29.0544C30.1675 28.6375 30.499 28.3008 30.9094 28.3008C31.3198 28.3008 31.6513 28.6375 31.6513 29.0544V34.8748C31.6513 35.2917 31.3198 35.6284 30.9094 35.6284Z" fill="white"/>
    <path d="M33.7351 31.505C33.3247 31.505 32.9932 31.1682 32.9932 30.7514V28.3142C32.9932 27.8973 33.3247 27.5605 33.7351 27.5605C34.1455 27.5605 34.477 27.8973 34.477 28.3142V30.7514C34.477 31.1682 34.1455 31.505 33.7351 31.505Z" fill="white"/>
    <path d="M29.9621 26.744C26.9944 26.744 25.4948 25.7018 24.0583 24.6916C22.7323 23.7616 21.4853 22.8958 18.9596 22.8958C16.4339 22.8958 15.1869 23.7616 13.8609 24.6916C13.6083 24.868 13.3558 25.0444 13.0874 25.2208C12.7559 25.4292 12.3139 25.333 12.1087 25.0123C11.9035 24.6756 11.9982 24.2266 12.3139 24.0182C12.5665 23.8578 12.8033 23.6975 13.0558 23.5211C14.4923 22.511 15.9919 21.4688 18.9596 21.4688C21.9273 21.4688 23.4269 22.511 24.8634 23.5211C26.1894 24.4511 27.4364 25.317 29.9621 25.317C32.2984 25.317 33.4981 24.6115 34.824 23.6975C35.1555 23.473 35.5975 23.5532 35.8185 23.8899C36.0395 24.2266 35.9606 24.6756 35.6291 24.9001C34.1926 25.8621 32.693 26.744 29.9621 26.744Z" fill="white"/>
    <path d="M18.9438 19.4645C24.4529 19.4645 24.4529 23.3127 29.9463 23.3127C32.5351 23.3127 33.9085 22.4628 35.2029 21.5649L35.2502 21.5329C35.3449 20.9396 35.3923 20.3143 35.3923 19.6889C35.4081 13.2271 30.2462 8 23.9005 8C17.5389 8 12.3928 13.2271 12.3928 19.6889C12.3928 20.4425 12.4717 21.1801 12.598 21.9016C14.1766 20.8274 15.9288 19.4645 18.9438 19.4645Z" fill="white"/>
</svg>
