<svg width="18" height="24" viewBox="0 0 18 24" fill="none" xmlns="http://www.w3.org/2000/svg">
    <path d="M1.4131 17.57C1.11164 17.57 0.868164 17.3227 0.868164 17.0165V13.4363C0.868164 13.1301 1.11164 12.8828 1.4131 12.8828C1.71455 12.8828 1.95803 13.1301 1.95803 13.4363V17.0165C1.95803 17.3227 1.71455 17.57 1.4131 17.57Z" fill="#65C7C7"/>
    <path d="M3.48878 17.9601C3.18733 17.9601 2.94385 17.7128 2.94385 17.4066V12.3543C2.94385 12.0481 3.18733 11.8008 3.48878 11.8008C3.79023 11.8008 4.03371 12.0481 4.03371 12.3543V17.4066C4.04531 17.7128 3.79023 17.9601 3.48878 17.9601Z" fill="#65C7C7"/>
    <path d="M7.65089 17.3011C7.34944 17.3011 7.10596 17.0538 7.10596 16.7476V13.0496C7.10596 12.7434 7.34944 12.4961 7.65089 12.4961C7.95234 12.4961 8.19582 12.7434 8.19582 13.0496V16.7476C8.19582 17.0538 7.95234 17.3011 7.65089 17.3011Z" fill="#65C7C7"/>
    <path d="M9.72633 15.8163C9.42488 15.8163 9.1814 15.5689 9.1814 15.2627V14.4266C9.1814 14.1204 9.42488 13.873 9.72633 13.873C10.0278 13.873 10.2713 14.1204 10.2713 14.4266V15.2627C10.2713 15.5572 10.0278 15.8163 9.72633 15.8163Z" fill="#65C7C7"/>
    <path d="M5.57569 23.0007C5.27424 23.0007 5.03076 22.7534 5.03076 22.4472V12.3543C5.03076 12.0481 5.27424 11.8008 5.57569 11.8008C5.87715 11.8008 6.12063 12.0481 6.12063 12.3543V22.4472C6.12063 22.7534 5.87715 23.0007 5.57569 23.0007Z" fill="#65C7C7"/>
    <path d="M11.8018 20.857C11.5003 20.857 11.2568 20.6097 11.2568 20.3035V15.1688C11.2568 14.8626 11.5003 14.6152 11.8018 14.6152C12.1032 14.6152 12.3467 14.8626 12.3467 15.1688V20.3035C12.3583 20.6097 12.1032 20.857 11.8018 20.857Z" fill="#65C7C7"/>
    <path d="M13.8887 20.2922C13.5872 20.2922 13.3438 20.0449 13.3438 19.7387V15.4637C13.3438 15.1575 13.5872 14.9102 13.8887 14.9102C14.1901 14.9102 14.4336 15.1575 14.4336 15.4637V19.7387C14.4336 20.0449 14.1901 20.2922 13.8887 20.2922Z" fill="#65C7C7"/>
    <path d="M15.9641 17.2643C15.6627 17.2643 15.4192 17.017 15.4192 16.7108V14.9207C15.4192 14.6145 15.6627 14.3672 15.9641 14.3672C16.2656 14.3672 16.5091 14.6145 16.5091 14.9207V16.7108C16.5091 17.017 16.2656 17.2643 15.9641 17.2643Z" fill="#65C7C7"/>
    <path d="M13.193 13.7672C11.0133 13.7672 9.91182 13.0017 8.85674 12.2598C7.88282 11.5767 6.96687 10.9407 5.11178 10.9407C3.25668 10.9407 2.34073 11.5767 1.36681 12.2598C1.1813 12.3893 0.995791 12.5188 0.798688 12.6484C0.555207 12.8015 0.230566 12.7308 0.0798399 12.4953C-0.0708862 12.248 -0.00132031 11.9182 0.230566 11.7651C0.416075 11.6473 0.58999 11.5296 0.775499 11.4C1.83058 10.6581 2.93204 9.89258 5.11178 9.89258C7.29151 9.89258 8.39297 10.6581 9.44805 11.4C10.422 12.0831 11.3379 12.7191 13.193 12.7191C14.909 12.7191 15.7901 12.2009 16.7641 11.5296C17.0075 11.3647 17.3322 11.4236 17.4945 11.6709C17.6568 11.9182 17.5989 12.248 17.3554 12.4129C16.3003 13.1195 15.1988 13.7672 13.193 13.7672Z" fill="#65C7C7"/>
    <path d="M5.10022 8.42054C9.14663 8.42054 9.14663 11.247 13.1815 11.247C15.0829 11.247 16.0916 10.6228 17.0424 9.96333L17.0771 9.93977C17.1467 9.50402 17.1815 9.04472 17.1815 8.58542C17.1931 3.8393 13.4017 0 8.74083 0C4.06832 0 0.288574 3.8393 0.288574 8.58542C0.288574 9.13894 0.346546 9.68068 0.4393 10.2106C1.59873 9.42159 2.8857 8.42054 5.10022 8.42054Z" fill="#F1B71C"/>
</svg>
