<?xml version="1.0" encoding="UTF-8" standalone="no"?>
<svg
   xmlns:dc="http://purl.org/dc/elements/1.1/"
   xmlns:cc="http://creativecommons.org/ns#"
   xmlns:rdf="http://www.w3.org/1999/02/22-rdf-syntax-ns#"
   xmlns:svg="http://www.w3.org/2000/svg"
   xmlns="http://www.w3.org/2000/svg"
   xmlns:sodipodi="http://sodipodi.sourceforge.net/DTD/sodipodi-0.dtd"
   xmlns:inkscape="http://www.inkscape.org/namespaces/inkscape"
   width="68"
   height="47"
   viewBox="0 0 68 47"
   fill="none"
   version="1.1"
   id="svg12"
   sodipodi:docname="mwbnb2.svg"
   inkscape:version="0.92.4 (unknown)">
  <metadata
     id="metadata18">
    <rdf:RDF>
      <cc:Work
         rdf:about="">
        <dc:format>image/svg+xml</dc:format>
        <dc:type
           rdf:resource="http://purl.org/dc/dcmitype/StillImage" />
        <dc:title></dc:title>
      </cc:Work>
    </rdf:RDF>
  </metadata>
  <defs
     id="defs16" />
  <sodipodi:namedview
     pagecolor="#ffffff"
     bordercolor="#666666"
     borderopacity="1"
     objecttolerance="10"
     gridtolerance="10"
     guidetolerance="10"
     inkscape:pageopacity="0"
     inkscape:pageshadow="2"
     inkscape:window-width="1920"
     inkscape:window-height="1025"
     id="namedview14"
     showgrid="false"
     inkscape:zoom="5.0212766"
     inkscape:cx="33.800847"
     inkscape:cy="23.5"
     inkscape:window-x="0"
     inkscape:window-y="27"
     inkscape:window-maximized="1"
     inkscape:current-layer="svg12" />
  <path
     inkscape:connector-curvature="0"
     style="fill:#4c525d"
     d="m 24,28.120099 v -7.5 c 0,-1.5 1,-8 -4.5,-8 -5.5,0 -5,5.5 -5,8 0,2.5 0,7 0.5,11.5 0.5,4.5 3,6.5 4.5,8 1.5,1.5 1.5,3 1,4.5 -0.5,1.5 -3,3 -6,1.5 -3,-1.5 -5.5,-4 -7.5,-8 -2,-4 -2.5,-14.5 -2.5,-21 0,-6.5 5,-13.4999798 13.5,-13.4999798 6.8,0 10.1667,2.33333 11,3.5 0.5,-1.16667 3.3,-3.5 10.5,-3.5 9,0 13,9.4999798 13,12.9999798 0,3.5 0.5,8 0.5,11.5 0,3.5 -1.5,6 -5,6 -3.5,0 -4.5,-2.5 -4.5,-6 v -10 c 0,-1 0,-5.5 -4.5,-5.5 -4.5,0 -5,3 -5,6.5 v 9 c 0,4.5 -2,6 -5.5,6 -3.5,0 -4.5,-3.5 -4.5,-6 z"
     id="path2-3" />
  <path
     inkscape:connector-curvature="0"
     style="fill:#ffd800"
     d="m 23.9999,28.620099 v -8 c 0,-2 1,-8 -4.5,-8 -5.50002,0 -5.00001,5.5 -5.00001,8 0,2.5 -0.5,11.5 1.50001,15.5 2,4 6.5,7.5 13,7.5 6.5,0 8.1667,-2.3333 10,-3.5 1,1 6,4 11.5,3.5 5.5,-0.5 11,-5.5 12,-12 1,-6.5 -0.5,-16.5 -1.5,-20 -1,-3.4999798 -3.5,-10.4999798 -9,-11.49997877 -5.5,-1 -6.5,4.49999897 -4,6.99999897 2.5,2.5 4.3004,7.0066798 4.5,9.9999798 0.5,7.5 0.5,8 0.5,11.5 0,3.5 -2.5,5.5 -5,5.5 -2.5,0 -4.5,-2 -4.5,-5.5 v -10.5 c 0,-1.5 0,-5.5 -4.5,-5.5 -4.5,0 -5,3.5 -5,5 v 9 c 0,6 -2,7.5 -5.5,7.5 -3.5,0 -4.5,-3.5 -4.5,-5.5 z"
     id="path4-6" />
  <circle
     style="fill:#ffffff;fill-opacity:0.9;stroke:#526478"
     cx="48.5"
     cy="32"
     r="14.5"
     id="circle6-7" />
  <path
     inkscape:connector-curvature="0"
     style="fill:#f5bc00"
     d="m 51.0317,31.603999 h -0.0012 l 0.0027,0.0015 -0.0015,0.0016 -2.9485,2.9485 -2.9458,-2.9459 -0.0041,-0.0042 0.0041,-0.0041 0.5164,-0.5165 0.2504,-0.2504 2.179,-2.179 z"
     id="path8-5" />
  <path
     inkscape:connector-curvature="0"
     style="fill:#f5bc00"
     d="m 43.0777,29.519299 4.9937,-4.9935 4.9963,4.9961 2.9057,-2.9056 -7.902,-7.9022 -7.8993,7.8995 z m -4.9577,-0.8542 2.9057,2.9054 -2.9057,2.9059 -2.9056,-2.9057 z m 4.9577,4.9577 4.9937,4.9935 4.9961,-4.9959 2.9073,2.904 -0.0014,0.0016 -7.902,7.902 -7.8995,-7.8993 -0.0041,-0.0041 z m 17.8509,-2.0508 -2.9054,2.9056 -2.9059,-2.9054 2.9057,-2.9059 z"
     id="path10-3" />
</svg>
