<svg width="68" height="47" viewBox="0 0 68 47" fill="none" xmlns="http://www.w3.org/2000/svg">
<path d="M19.5 28.1201V20.6201C19.5 19.1201 20.5 12.6201 15 12.6201C9.5 12.6201 10 18.1201 10 20.6201C10 23.1201 10 27.6201 10.5 32.1201C11 36.6201 13.5 38.6201 15 40.1201C16.5 41.6201 16.5 43.1201 16 44.6201C15.5 46.1201 13 47.6201 10 46.1201C7 44.6201 4.5 42.1201 2.5 38.1201C0.5 34.1201 0 23.6201 0 17.1201C0 10.6201 5 3.62012 13.5 3.62012C20.3 3.62012 23.6667 5.95345 24.5 7.12012C25 5.95345 27.8 3.62012 35 3.62012C44 3.62012 48 13.1201 48 16.6201C48 20.1201 48.5 24.6201 48.5 28.1201C48.5 31.6201 47 34.1201 43.5 34.1201C40 34.1201 39 31.6201 39 28.1201V18.1201C39 17.1201 39 12.6201 34.5 12.6201C30 12.6201 29.5 15.6201 29.5 19.1201V28.1201C29.5 32.6201 27.5 34.1201 24 34.1201C20.5 34.1201 19.5 30.6201 19.5 28.1201Z" fill="#4C525D"/>
<path d="M19.4999 28.6201V20.6201C19.4999 18.6201 20.4999 12.6201 14.9999 12.6201C9.49988 12.6201 9.99989 18.1201 9.99989 20.6201C9.99989 23.1201 9.49989 32.1201 11.4999 36.1201C13.4999 40.1201 17.9999 43.6201 24.4999 43.6201C30.9999 43.6201 32.6666 41.2868 34.4999 40.1201C35.4999 41.1201 40.4999 44.1201 45.9999 43.6201C51.4999 43.1201 56.9999 38.1201 57.9999 31.6201C58.9999 25.1201 57.4999 15.1201 56.4999 11.6201C55.4999 8.12012 52.9999 1.12012 47.4999 0.120121C41.9999 -0.879879 40.9999 4.62012 43.4999 7.12012C45.9999 9.62012 47.8003 14.1268 47.9999 17.1201C48.4999 24.6201 48.4999 25.1201 48.4999 28.6201C48.4999 32.1201 45.9999 34.1201 43.4999 34.1201C40.9999 34.1201 38.9999 32.1201 38.9999 28.6201V18.1201C38.9999 16.6201 38.9999 12.6201 34.4999 12.6201C29.9999 12.6201 29.4999 16.1201 29.4999 17.6201V26.6201C29.4999 32.6201 27.4999 34.1201 23.9999 34.1201C20.4999 34.1201 19.4999 30.6201 19.4999 28.6201Z" fill="#FFD800"/>
<circle cx="55.5" cy="34.5" r="12.5" fill="white" fill-opacity="0.9"/>
<path d="M57.6097 34.17H57.6087L57.6109 34.1712L57.6097 34.1725L55.1526 36.6296L52.6977 34.1747L52.6943 34.1712L52.6977 34.1678L53.1281 33.7374L53.3368 33.5287L55.1526 31.7129L57.6097 34.17Z" fill="#F5BC00"/>
<path d="M50.9815 32.4328L55.1429 28.2716L59.3065 32.435L61.7279 30.0136L55.1429 23.4285L48.5601 30.0114L50.9815 32.4328ZM46.8501 31.7209L49.2715 34.1422L46.8501 36.5637L44.4287 34.1423L46.8501 31.7209ZM50.9815 35.8524L55.1429 40.0136L59.3063 35.8503L61.7291 38.2704L61.7279 38.2717L55.1429 44.8567L48.56 38.2739L48.5566 38.2705L50.9815 35.8524ZM65.8573 34.1433L63.4361 36.5647L61.0145 34.1435L63.4359 31.722L65.8573 34.1433Z" fill="#F5BC00"/>
</svg>
