<svg width="177" height="50" viewBox="0 0 177 50" fill="none" xmlns="http://www.w3.org/2000/svg">
<path d="M19.5 28.1201V20.6201C19.5 19.1201 20.5 12.6201 15 12.6201C9.5 12.6201 10 18.1201 10 20.6201C10 23.1201 10 27.6201 10.5 32.1201C11 36.6201 13.5 38.6201 15 40.1201C16.5 41.6201 16.5 43.1201 16 44.6201C15.5 46.1201 13 47.6201 10 46.1201C7 44.6201 4.5 42.1201 2.5 38.1201C0.5 34.1201 0 23.6201 0 17.1201C0 10.6201 5 3.62012 13.5 3.62012C20.3 3.62012 23.6667 5.95345 24.5 7.12012C25 5.95345 27.8 3.62012 35 3.62012C44 3.62012 48 13.1201 48 16.6201C48 20.1201 48.5 24.6201 48.5 28.1201C48.5 31.6201 47 34.1201 43.5 34.1201C40 34.1201 39 31.6201 39 28.1201V18.1201C39 17.1201 39 12.6201 34.5 12.6201C30 12.6201 29.5 15.6201 29.5 19.1201V28.1201C29.5 32.6201 27.5 34.1201 24 34.1201C20.5 34.1201 19.5 30.6201 19.5 28.1201Z" fill="#4C525D"/>
<path d="M19.4999 28.6201V20.6201C19.4999 18.6201 20.4999 12.6201 14.9999 12.6201C9.49988 12.6201 9.99989 18.1201 9.99989 20.6201C9.99989 23.1201 9.49989 32.1201 11.4999 36.1201C13.4999 40.1201 17.9999 43.6201 24.4999 43.6201C30.9999 43.6201 32.6666 41.2868 34.4999 40.1201C35.4999 41.1201 40.4999 44.1201 45.9999 43.6201C51.4999 43.1201 56.9999 38.1201 57.9999 31.6201C58.9999 25.1201 57.4999 15.1201 56.4999 11.6201C55.4999 8.12012 52.9999 1.12012 47.4999 0.120121C41.9999 -0.879879 40.9999 4.62012 43.4999 7.12012C45.9999 9.62012 47.8003 14.1268 47.9999 17.1201C48.4999 24.6201 48.4999 25.1201 48.4999 28.6201C48.4999 32.1201 45.9999 34.1201 43.4999 34.1201C40.9999 34.1201 38.9999 32.1201 38.9999 28.6201V18.1201C38.9999 16.6201 38.9999 12.6201 34.4999 12.6201C29.9999 12.6201 29.4999 16.1201 29.4999 17.6201V26.6201C29.4999 32.6201 27.4999 34.1201 23.9999 34.1201C20.4999 34.1201 19.4999 30.6201 19.4999 28.6201Z" fill="#FFD800"/>
<circle cx="44" cy="32" r="14.5" fill="white" fill-opacity="0.9" stroke="#526478"/>
<path d="M46.5317 31.604H46.5305L46.5332 31.6055L46.5317 31.6071L43.5832 34.5556L40.6374 31.6097L40.6333 31.6055L40.6374 31.6014L41.1538 31.0849L41.4042 30.8345L43.5832 28.6555L46.5317 31.604Z" fill="#F5BC00"/>
<path d="M38.5777 29.5193L43.5714 24.5258L48.5677 29.5219L51.4734 26.6163L43.5714 18.7141L35.6721 26.6136L38.5777 29.5193ZM33.62 28.6651L36.5257 31.5705L33.62 34.4764L30.7144 31.5707L33.62 28.6651ZM38.5777 33.6228L43.5714 38.6163L48.5675 33.6204L51.4748 36.5244L51.4734 36.526L43.5714 44.428L35.6719 36.5287L35.6678 36.5246L38.5777 33.6228ZM56.4286 31.572L53.5232 34.4776L50.6173 31.5722L53.523 28.6663L56.4286 31.572Z" fill="#F5BC00"/>
<path d="M88.514 1.818C88.8073 1.818 89.0273 1.906 89.174 2.082C89.3207 2.258 89.394 2.49267 89.394 2.786C89.394 3.006 89.3647 3.21133 89.306 3.402L84.884 18.076C84.7813 18.3547 84.6273 18.582 84.422 18.758C84.2313 18.9193 84.004 19 83.74 19C83.476 19 83.2413 18.9193 83.036 18.758C82.8307 18.582 82.684 18.362 82.596 18.098L79.318 5.426L75.996 18.076C75.8933 18.3547 75.7393 18.582 75.534 18.758C75.3433 18.9193 75.116 19 74.852 19C74.588 19 74.3533 18.9193 74.148 18.758C73.9427 18.5967 73.796 18.3767 73.708 18.098L69.286 3.402C69.2273 3.21133 69.198 3.01333 69.198 2.808C69.198 2.5 69.2787 2.258 69.44 2.082C69.616 1.906 69.8507 1.818 70.144 1.818C70.408 1.818 70.6353 1.89133 70.826 2.038C71.0313 2.18467 71.178 2.39733 71.266 2.676L74.874 15.216L78.196 2.808C78.2547 2.588 78.3867 2.40467 78.592 2.258C78.7973 2.11133 79.032 2.038 79.296 2.038C79.5453 2.038 79.7727 2.104 79.978 2.236C80.1833 2.368 80.3153 2.55133 80.374 2.786L83.74 15.304L87.392 2.566C87.4653 2.302 87.59 2.11133 87.766 1.994C87.9567 1.87667 88.206 1.818 88.514 1.818ZM91.8465 2.962C91.8465 2.62467 91.9565 2.35333 92.1765 2.148C92.3965 1.928 92.6678 1.818 92.9905 1.818C93.3278 1.818 93.5992 1.928 93.8045 2.148C94.0245 2.35333 94.1345 2.62467 94.1345 2.962V17.856C94.1345 18.1787 94.0245 18.45 93.8045 18.67C93.5992 18.89 93.3278 19 92.9905 19C92.6678 19 92.3965 18.89 92.1765 18.67C91.9565 18.45 91.8465 18.1787 91.8465 17.856V2.962ZM104.292 1.62C105.553 1.62 106.617 1.87667 107.482 2.39C108.347 2.90333 109.081 3.63667 109.682 4.59C109.858 4.86867 109.946 5.13267 109.946 5.382C109.946 5.70467 109.799 5.96867 109.506 6.174C109.345 6.27667 109.154 6.328 108.934 6.328C108.714 6.328 108.509 6.27667 108.318 6.174C108.127 6.05667 107.981 5.90267 107.878 5.712C107.482 5.052 106.983 4.55333 106.382 4.216C105.795 3.864 105.047 3.688 104.138 3.688C103.023 3.688 102.121 3.908 101.432 4.348C100.743 4.77333 100.398 5.39667 100.398 6.218C100.398 6.98067 100.706 7.61867 101.322 8.132C101.938 8.64533 103.038 8.98267 104.622 9.144C106.382 9.32 107.746 9.85533 108.714 10.75C109.682 11.63 110.166 12.796 110.166 14.248C110.166 15.304 109.88 16.2133 109.308 16.976C108.736 17.724 107.973 18.2887 107.02 18.67C106.081 19.0367 105.069 19.22 103.984 19.22C102.561 19.22 101.263 18.8973 100.09 18.252C98.9315 17.6067 98.1321 16.7633 97.6921 15.722C97.6188 15.546 97.5821 15.3993 97.5821 15.282C97.5821 15.062 97.6628 14.8713 97.8241 14.71C97.9855 14.534 98.2055 14.4167 98.4841 14.358C98.5281 14.3433 98.6015 14.336 98.7041 14.336C98.9388 14.336 99.1588 14.4093 99.3641 14.556C99.5841 14.688 99.7455 14.8713 99.8481 15.106C100.112 15.678 100.633 16.162 101.41 16.558C102.187 16.954 103.045 17.152 103.984 17.152C105.084 17.152 106.015 16.9027 106.778 16.404C107.541 15.8907 107.922 15.194 107.922 14.314C107.922 13.478 107.599 12.7667 106.954 12.18C106.309 11.5787 105.326 11.212 104.006 11.08C102.187 10.904 100.757 10.376 99.7161 9.496C98.6748 8.60133 98.1541 7.48667 98.1541 6.152C98.1541 5.21333 98.4181 4.40667 98.9461 3.732C99.4888 3.04267 100.222 2.522 101.146 2.17C102.085 1.80333 103.133 1.62 104.292 1.62ZM126.171 2.962C126.171 2.62467 126.281 2.35333 126.501 2.148C126.721 1.928 126.992 1.818 127.315 1.818C127.637 1.818 127.901 1.928 128.107 2.148C128.327 2.35333 128.437 2.62467 128.437 2.962V17.856C128.437 18.1933 128.327 18.472 128.107 18.692C127.901 18.8973 127.637 19 127.315 19C126.992 19 126.721 18.89 126.501 18.67C126.281 18.45 126.171 18.1787 126.171 17.856V11.3H115.963V17.856C115.963 18.1787 115.853 18.45 115.633 18.67C115.427 18.89 115.156 19 114.819 19C114.496 19 114.225 18.89 114.005 18.67C113.785 18.45 113.675 18.1787 113.675 17.856V2.962C113.675 2.62467 113.785 2.35333 114.005 2.148C114.225 1.928 114.496 1.818 114.819 1.818C115.156 1.818 115.427 1.928 115.633 2.148C115.853 2.35333 115.963 2.62467 115.963 2.962V9.276H126.171V2.962ZM77.602 26.818C78.5847 26.818 79.4573 27.016 80.22 27.412C80.9827 27.7933 81.5767 28.336 82.002 29.04C82.442 29.7293 82.662 30.514 82.662 31.394C82.662 32.1127 82.464 32.758 82.068 33.33C81.6867 33.902 81.1587 34.364 80.484 34.716C81.4813 34.9507 82.266 35.42 82.838 36.124C83.41 36.828 83.696 37.7227 83.696 38.808C83.696 39.8053 83.454 40.7 82.97 41.492C82.5007 42.284 81.8333 42.9 80.968 43.34C80.1173 43.78 79.1493 44 78.064 44H72.344C72.0213 44 71.75 43.89 71.53 43.67C71.31 43.45 71.2 43.1787 71.2 42.856V27.962C71.2 27.6247 71.31 27.3533 71.53 27.148C71.75 26.928 72.0213 26.818 72.344 26.818H77.602ZM77.602 33.88C78.4673 33.88 79.1567 33.6673 79.67 33.242C80.198 32.8167 80.462 32.2007 80.462 31.394C80.462 30.5873 80.198 29.9787 79.67 29.568C79.1567 29.1427 78.4673 28.93 77.602 28.93H73.488V33.88H77.602ZM78.064 41.888C79.0907 41.888 79.9193 41.624 80.55 41.096C81.1807 40.5533 81.496 39.7907 81.496 38.808C81.496 37.8987 81.1807 37.202 80.55 36.718C79.934 36.234 79.1053 35.992 78.064 35.992H73.488V41.888H78.064ZM87.0984 27.962C87.0984 27.6247 87.2084 27.3533 87.4284 27.148C87.6484 26.928 87.9198 26.818 88.2424 26.818C88.5798 26.818 88.8511 26.928 89.0564 27.148C89.2764 27.3533 89.3864 27.6247 89.3864 27.962V42.856C89.3864 43.1787 89.2764 43.45 89.0564 43.67C88.8511 43.89 88.5798 44 88.2424 44C87.9198 44 87.6484 43.89 87.4284 43.67C87.2084 43.45 87.0984 43.1787 87.0984 42.856V27.962ZM105.374 27.962C105.374 27.6247 105.484 27.3533 105.704 27.148C105.924 26.928 106.195 26.818 106.518 26.818C106.841 26.818 107.105 26.928 107.31 27.148C107.53 27.3533 107.64 27.6247 107.64 27.962V42.856C107.64 43.1933 107.53 43.472 107.31 43.692C107.105 43.8973 106.841 44 106.518 44C106.357 44 106.188 43.9707 106.012 43.912C105.851 43.8387 105.726 43.736 105.638 43.604L96.0461 30.844V42.856C96.0461 43.1787 95.9361 43.45 95.7161 43.67C95.5107 43.89 95.2394 44 94.9021 44C94.5794 44 94.3081 43.8973 94.0881 43.692C93.8827 43.472 93.7801 43.1933 93.7801 42.856V27.962C93.7801 27.6247 93.8827 27.3533 94.0881 27.148C94.3081 26.928 94.5794 26.818 94.9021 26.818C95.0634 26.818 95.2247 26.862 95.3861 26.95C95.5474 27.0233 95.6794 27.1187 95.7821 27.236L105.374 39.996V27.962ZM124.89 42.394C124.963 42.5847 125 42.746 125 42.878C125 43.186 124.89 43.45 124.67 43.67C124.45 43.89 124.178 44 123.856 44C123.636 44 123.423 43.9413 123.218 43.824C123.027 43.692 122.888 43.516 122.8 43.296L121.568 40.216H113.67L112.416 43.296C112.313 43.516 112.166 43.692 111.976 43.824C111.785 43.9413 111.58 44 111.36 44C111.037 44 110.766 43.89 110.546 43.67C110.34 43.4353 110.238 43.164 110.238 42.856C110.238 42.7093 110.274 42.5407 110.348 42.35L116.53 27.588C116.75 27.0747 117.109 26.818 117.608 26.818C118.136 26.818 118.495 27.0747 118.686 27.588L124.89 42.394ZM120.798 38.324L117.652 30.492L114.44 38.324H120.798ZM139.105 27.962C139.105 27.6247 139.215 27.3533 139.435 27.148C139.655 26.928 139.926 26.818 140.249 26.818C140.571 26.818 140.835 26.928 141.041 27.148C141.261 27.3533 141.371 27.6247 141.371 27.962V42.856C141.371 43.1933 141.261 43.472 141.041 43.692C140.835 43.8973 140.571 44 140.249 44C140.087 44 139.919 43.9707 139.743 43.912C139.581 43.8387 139.457 43.736 139.369 43.604L129.777 30.844V42.856C129.777 43.1787 129.667 43.45 129.447 43.67C129.241 43.89 128.97 44 128.633 44C128.31 44 128.039 43.8973 127.819 43.692C127.613 43.472 127.511 43.1933 127.511 42.856V27.962C127.511 27.6247 127.613 27.3533 127.819 27.148C128.039 26.928 128.31 26.818 128.633 26.818C128.794 26.818 128.955 26.862 129.117 26.95C129.278 27.0233 129.41 27.1187 129.513 27.236L139.105 39.996V27.962ZM153.472 26.598C154.587 26.598 155.548 26.7447 156.354 27.038C157.176 27.3313 158.004 27.8153 158.84 28.49C159.016 28.622 159.134 28.7613 159.192 28.908C159.251 29.04 159.28 29.2013 159.28 29.392C159.28 29.6853 159.17 29.9273 158.95 30.118C158.745 30.3087 158.503 30.404 158.224 30.404C157.946 30.404 157.689 30.3087 157.454 30.118C156.853 29.6047 156.266 29.238 155.694 29.018C155.122 28.7833 154.382 28.666 153.472 28.666C152.328 28.666 151.272 28.9667 150.304 29.568C149.351 30.1693 148.588 30.9907 148.016 32.032C147.459 33.0587 147.18 34.1807 147.18 35.398C147.18 36.63 147.459 37.7593 148.016 38.786C148.588 39.8127 149.351 40.6267 150.304 41.228C151.272 41.8293 152.328 42.13 153.472 42.13C154.88 42.13 156.23 41.646 157.52 40.678C157.77 40.502 158.012 40.414 158.246 40.414C158.525 40.414 158.752 40.5167 158.928 40.722C159.119 40.9127 159.214 41.1693 159.214 41.492C159.214 41.8 159.097 42.0713 158.862 42.306C157.278 43.582 155.482 44.22 153.472 44.22C151.903 44.22 150.466 43.8313 149.16 43.054C147.87 42.2767 146.85 41.2133 146.102 39.864C145.354 38.5147 144.98 37.026 144.98 35.398C144.98 33.7847 145.354 32.3107 146.102 30.976C146.85 29.6267 147.87 28.5633 149.16 27.786C150.466 26.994 151.903 26.598 153.472 26.598ZM173.962 41.888C174.299 41.888 174.57 41.9833 174.776 42.174C174.981 42.3647 175.084 42.614 175.084 42.922C175.084 43.2447 174.981 43.5087 174.776 43.714C174.57 43.9047 174.299 44 173.962 44H164.018C163.695 44 163.424 43.89 163.204 43.67C162.984 43.45 162.874 43.1787 162.874 42.856V27.962C162.874 27.6247 162.984 27.3533 163.204 27.148C163.424 26.928 163.695 26.818 164.018 26.818H173.962C174.299 26.818 174.57 26.9207 174.776 27.126C174.981 27.3167 175.084 27.5733 175.084 27.896C175.084 28.204 174.981 28.4533 174.776 28.644C174.57 28.8347 174.299 28.93 173.962 28.93H165.162V34.276H171.476C171.798 34.276 172.062 34.3787 172.268 34.584C172.488 34.7747 172.598 35.024 172.598 35.332C172.598 35.64 172.488 35.8967 172.268 36.102C172.062 36.2927 171.798 36.388 171.476 36.388H165.162V41.888H173.962Z" fill="#4C525D"/>
</svg>
