<svg width="68" height="47" viewBox="0 0 68 47" fill="none" xmlns="http://www.w3.org/2000/svg">
<path d="M19.5 28.1201V20.6201C19.5 19.1201 20.5 12.6201 15 12.6201C9.5 12.6201 10 18.1201 10 20.6201C10 23.1201 10 27.6201 10.5 32.1201C11 36.6201 13.5 38.6201 15 40.1201C16.5 41.6201 16.5 43.1201 16 44.6201C15.5 46.1201 13 47.6201 10 46.1201C7 44.6201 4.5 42.1201 2.5 38.1201C0.5 34.1201 0 23.6201 0 17.1201C0 10.6201 5 3.62012 13.5 3.62012C20.3 3.62012 23.6667 5.95345 24.5 7.12012C25 5.95345 27.8 3.62012 35 3.62012C44 3.62012 48 13.1201 48 16.6201C48 20.1201 48.5 24.6201 48.5 28.1201C48.5 31.6201 47 34.1201 43.5 34.1201C40 34.1201 39 31.6201 39 28.1201V18.1201C39 17.1201 39 12.6201 34.5 12.6201C30 12.6201 29.5 15.6201 29.5 19.1201V28.1201C29.5 32.6201 27.5 34.1201 24 34.1201C20.5 34.1201 19.5 30.6201 19.5 28.1201Z" fill="#4C525D"/>
<path d="M19.4999 28.6201V20.6201C19.4999 18.6201 20.4999 12.6201 14.9999 12.6201C9.49988 12.6201 9.99989 18.1201 9.99989 20.6201C9.99989 23.1201 9.49989 32.1201 11.4999 36.1201C13.4999 40.1201 17.9999 43.6201 24.4999 43.6201C30.9999 43.6201 32.6666 41.2868 34.4999 40.1201C35.4999 41.1201 40.4999 44.1201 45.9999 43.6201C51.4999 43.1201 56.9999 38.1201 57.9999 31.6201C58.9999 25.1201 57.4999 15.1201 56.4999 11.6201C55.4999 8.12012 52.9999 1.12012 47.4999 0.120121C41.9999 -0.879879 40.9999 4.62012 43.4999 7.12012C45.9999 9.62012 47.8003 14.1268 47.9999 17.1201C48.4999 24.6201 48.4999 25.1201 48.4999 28.6201C48.4999 32.1201 45.9999 34.1201 43.4999 34.1201C40.9999 34.1201 38.9999 32.1201 38.9999 28.6201V18.1201C38.9999 16.6201 38.9999 12.6201 34.4999 12.6201C29.9999 12.6201 29.4999 16.1201 29.4999 17.6201V26.6201C29.4999 32.6201 27.4999 34.1201 23.9999 34.1201C20.4999 34.1201 19.4999 30.6201 19.4999 28.6201Z" fill="#FFD800"/>
<circle cx="55.5" cy="34.5" r="12.5" fill="white" fill-opacity="0.9"/>
<path fill-rule="evenodd" clip-rule="evenodd" d="M49.4287 33.9631L55.143 37.7142V23.4285L49.4287 33.9631Z" fill="#526478"/>
<path fill-rule="evenodd" clip-rule="evenodd" d="M55.1431 23.4285V37.7142L61.5716 33.9631L55.1431 23.4285Z" fill="#526478"/>
<path fill-rule="evenodd" clip-rule="evenodd" d="M49.4287 35.5715L55.143 44.8572V39.4656L49.4287 35.5715Z" fill="#526478"/>
<path fill-rule="evenodd" clip-rule="evenodd" d="M55.1431 39.4656V44.8572L61.5716 35.5715L55.1431 39.4656Z" fill="#526478"/>
</svg>
