<svg width="204" height="50" viewBox="0 0 204 50" fill="none" xmlns="http://www.w3.org/2000/svg">
<path d="M19.5 28.1201V20.6201C19.5 19.1201 20.5 12.6201 15 12.6201C9.5 12.6201 10 18.1201 10 20.6201C10 23.1201 10 27.6201 10.5 32.1201C11 36.6201 13.5 38.6201 15 40.1201C16.5 41.6201 16.5 43.1201 16 44.6201C15.5 46.1201 13 47.6201 10 46.1201C7 44.6201 4.5 42.1201 2.5 38.1201C0.5 34.1201 0 23.6201 0 17.1201C0 10.6201 5 3.62012 13.5 3.62012C20.3 3.62012 23.6667 5.95345 24.5 7.12012C25 5.95345 27.8 3.62012 35 3.62012C44 3.62012 48 13.1201 48 16.6201C48 20.1201 48.5 24.6201 48.5 28.1201C48.5 31.6201 47 34.1201 43.5 34.1201C40 34.1201 39 31.6201 39 28.1201V18.1201C39 17.1201 39 12.6201 34.5 12.6201C30 12.6201 29.5 15.6201 29.5 19.1201V28.1201C29.5 32.6201 27.5 34.1201 24 34.1201C20.5 34.1201 19.5 30.6201 19.5 28.1201Z" fill="#4C525D"/>
<path d="M19.4999 28.6201V20.6201C19.4999 18.6201 20.4999 12.6201 14.9999 12.6201C9.49988 12.6201 9.99989 18.1201 9.99989 20.6201C9.99989 23.1201 9.49989 32.1201 11.4999 36.1201C13.4999 40.1201 17.9999 43.6201 24.4999 43.6201C30.9999 43.6201 32.6666 41.2868 34.4999 40.1201C35.4999 41.1201 40.4999 44.1201 45.9999 43.6201C51.4999 43.1201 56.9999 38.1201 57.9999 31.6201C58.9999 25.1201 57.4999 15.1201 56.4999 11.6201C55.4999 8.12012 52.9999 1.12012 47.4999 0.120121C41.9999 -0.879879 40.9999 4.62012 43.4999 7.12012C45.9999 9.62012 47.8003 14.1268 47.9999 17.1201C48.4999 24.6201 48.4999 25.1201 48.4999 28.6201C48.4999 32.1201 45.9999 34.1201 43.4999 34.1201C40.9999 34.1201 38.9999 32.1201 38.9999 28.6201V18.1201C38.9999 16.6201 38.9999 12.6201 34.4999 12.6201C29.9999 12.6201 29.4999 16.1201 29.4999 17.6201V26.6201C29.4999 32.6201 27.4999 34.1201 23.9999 34.1201C20.4999 34.1201 19.4999 30.6201 19.4999 28.6201Z" fill="#FFD800"/>
<circle cx="44" cy="32" r="14.5" fill="white" fill-opacity="0.9" stroke="#526478"/>
<path fill-rule="evenodd" clip-rule="evenodd" d="M36.7144 31.3556L43.5715 35.857V18.7141L36.7144 31.3556Z" fill="#526478"/>
<path fill-rule="evenodd" clip-rule="evenodd" d="M43.5718 18.7141V35.857L51.2861 31.3556L43.5718 18.7141Z" fill="#526478"/>
<path fill-rule="evenodd" clip-rule="evenodd" d="M36.7144 33.2859L43.5715 44.4287V37.9588L36.7144 33.2859Z" fill="#526478"/>
<path fill-rule="evenodd" clip-rule="evenodd" d="M43.5718 37.9588V44.4287L51.2861 33.2859L43.5718 37.9588Z" fill="#526478"/>
<path d="M88.514 1.818C88.8073 1.818 89.0273 1.906 89.174 2.082C89.3207 2.258 89.394 2.49267 89.394 2.786C89.394 3.006 89.3647 3.21133 89.306 3.402L84.884 18.076C84.7813 18.3547 84.6273 18.582 84.422 18.758C84.2313 18.9193 84.004 19 83.74 19C83.476 19 83.2413 18.9193 83.036 18.758C82.8307 18.582 82.684 18.362 82.596 18.098L79.318 5.426L75.996 18.076C75.8933 18.3547 75.7393 18.582 75.534 18.758C75.3433 18.9193 75.116 19 74.852 19C74.588 19 74.3533 18.9193 74.148 18.758C73.9427 18.5967 73.796 18.3767 73.708 18.098L69.286 3.402C69.2273 3.21133 69.198 3.01333 69.198 2.808C69.198 2.5 69.2787 2.258 69.44 2.082C69.616 1.906 69.8507 1.818 70.144 1.818C70.408 1.818 70.6353 1.89133 70.826 2.038C71.0313 2.18467 71.178 2.39733 71.266 2.676L74.874 15.216L78.196 2.808C78.2547 2.588 78.3867 2.40467 78.592 2.258C78.7973 2.11133 79.032 2.038 79.296 2.038C79.5453 2.038 79.7727 2.104 79.978 2.236C80.1833 2.368 80.3153 2.55133 80.374 2.786L83.74 15.304L87.392 2.566C87.4653 2.302 87.59 2.11133 87.766 1.994C87.9567 1.87667 88.206 1.818 88.514 1.818ZM91.8465 2.962C91.8465 2.62467 91.9565 2.35333 92.1765 2.148C92.3965 1.928 92.6678 1.818 92.9905 1.818C93.3278 1.818 93.5992 1.928 93.8045 2.148C94.0245 2.35333 94.1345 2.62467 94.1345 2.962V17.856C94.1345 18.1787 94.0245 18.45 93.8045 18.67C93.5992 18.89 93.3278 19 92.9905 19C92.6678 19 92.3965 18.89 92.1765 18.67C91.9565 18.45 91.8465 18.1787 91.8465 17.856V2.962ZM104.292 1.62C105.553 1.62 106.617 1.87667 107.482 2.39C108.347 2.90333 109.081 3.63667 109.682 4.59C109.858 4.86867 109.946 5.13267 109.946 5.382C109.946 5.70467 109.799 5.96867 109.506 6.174C109.345 6.27667 109.154 6.328 108.934 6.328C108.714 6.328 108.509 6.27667 108.318 6.174C108.127 6.05667 107.981 5.90267 107.878 5.712C107.482 5.052 106.983 4.55333 106.382 4.216C105.795 3.864 105.047 3.688 104.138 3.688C103.023 3.688 102.121 3.908 101.432 4.348C100.743 4.77333 100.398 5.39667 100.398 6.218C100.398 6.98067 100.706 7.61867 101.322 8.132C101.938 8.64533 103.038 8.98267 104.622 9.144C106.382 9.32 107.746 9.85533 108.714 10.75C109.682 11.63 110.166 12.796 110.166 14.248C110.166 15.304 109.88 16.2133 109.308 16.976C108.736 17.724 107.973 18.2887 107.02 18.67C106.081 19.0367 105.069 19.22 103.984 19.22C102.561 19.22 101.263 18.8973 100.09 18.252C98.9315 17.6067 98.1321 16.7633 97.6921 15.722C97.6188 15.546 97.5821 15.3993 97.5821 15.282C97.5821 15.062 97.6628 14.8713 97.8241 14.71C97.9855 14.534 98.2055 14.4167 98.4841 14.358C98.5281 14.3433 98.6015 14.336 98.7041 14.336C98.9388 14.336 99.1588 14.4093 99.3641 14.556C99.5841 14.688 99.7455 14.8713 99.8481 15.106C100.112 15.678 100.633 16.162 101.41 16.558C102.187 16.954 103.045 17.152 103.984 17.152C105.084 17.152 106.015 16.9027 106.778 16.404C107.541 15.8907 107.922 15.194 107.922 14.314C107.922 13.478 107.599 12.7667 106.954 12.18C106.309 11.5787 105.326 11.212 104.006 11.08C102.187 10.904 100.757 10.376 99.7161 9.496C98.6748 8.60133 98.1541 7.48667 98.1541 6.152C98.1541 5.21333 98.4181 4.40667 98.9461 3.732C99.4888 3.04267 100.222 2.522 101.146 2.17C102.085 1.80333 103.133 1.62 104.292 1.62ZM126.171 2.962C126.171 2.62467 126.281 2.35333 126.501 2.148C126.721 1.928 126.992 1.818 127.315 1.818C127.637 1.818 127.901 1.928 128.107 2.148C128.327 2.35333 128.437 2.62467 128.437 2.962V17.856C128.437 18.1933 128.327 18.472 128.107 18.692C127.901 18.8973 127.637 19 127.315 19C126.992 19 126.721 18.89 126.501 18.67C126.281 18.45 126.171 18.1787 126.171 17.856V11.3H115.963V17.856C115.963 18.1787 115.853 18.45 115.633 18.67C115.427 18.89 115.156 19 114.819 19C114.496 19 114.225 18.89 114.005 18.67C113.785 18.45 113.675 18.1787 113.675 17.856V2.962C113.675 2.62467 113.785 2.35333 114.005 2.148C114.225 1.928 114.496 1.818 114.819 1.818C115.156 1.818 115.427 1.928 115.633 2.148C115.853 2.35333 115.963 2.62467 115.963 2.962V9.276H126.171V2.962ZM82.288 41.888C82.6253 41.888 82.8967 41.9833 83.102 42.174C83.3073 42.3647 83.41 42.614 83.41 42.922C83.41 43.2447 83.3073 43.5087 83.102 43.714C82.8967 43.9047 82.6253 44 82.288 44H72.344C72.0213 44 71.75 43.89 71.53 43.67C71.31 43.45 71.2 43.1787 71.2 42.856V27.962C71.2 27.6247 71.31 27.3533 71.53 27.148C71.75 26.928 72.0213 26.818 72.344 26.818H82.288C82.6253 26.818 82.8967 26.9207 83.102 27.126C83.3073 27.3167 83.41 27.5733 83.41 27.896C83.41 28.204 83.3073 28.4533 83.102 28.644C82.8967 28.8347 82.6253 28.93 82.288 28.93H73.488V34.276H79.802C80.1247 34.276 80.3887 34.3787 80.594 34.584C80.814 34.7747 80.924 35.024 80.924 35.332C80.924 35.64 80.814 35.8967 80.594 36.102C80.3887 36.2927 80.1247 36.388 79.802 36.388H73.488V41.888H82.288ZM97.5603 26.818C97.8683 26.818 98.1176 26.9207 98.3083 27.126C98.5136 27.3167 98.6163 27.566 98.6163 27.874C98.6163 28.182 98.5136 28.4387 98.3083 28.644C98.1176 28.8347 97.8683 28.93 97.5603 28.93H92.8303V42.856C92.8303 43.1787 92.7203 43.45 92.5003 43.67C92.2803 43.89 92.009 44 91.6863 44C91.3636 44 91.0923 43.89 90.8723 43.67C90.6523 43.45 90.5423 43.1787 90.5423 42.856V28.93H85.7903C85.4823 28.93 85.2256 28.8347 85.0203 28.644C84.8296 28.4387 84.7343 28.182 84.7343 27.874C84.7343 27.566 84.8296 27.3167 85.0203 27.126C85.2256 26.9207 85.4823 26.818 85.7903 26.818H97.5603ZM113.645 27.962C113.645 27.6247 113.755 27.3533 113.975 27.148C114.195 26.928 114.467 26.818 114.789 26.818C115.112 26.818 115.376 26.928 115.581 27.148C115.801 27.3533 115.911 27.6247 115.911 27.962V42.856C115.911 43.1933 115.801 43.472 115.581 43.692C115.376 43.8973 115.112 44 114.789 44C114.467 44 114.195 43.89 113.975 43.67C113.755 43.45 113.645 43.1787 113.645 42.856V36.3H103.437V42.856C103.437 43.1787 103.327 43.45 103.107 43.67C102.902 43.89 102.631 44 102.293 44C101.971 44 101.699 43.89 101.479 43.67C101.259 43.45 101.149 43.1787 101.149 42.856V27.962C101.149 27.6247 101.259 27.3533 101.479 27.148C101.699 26.928 101.971 26.818 102.293 26.818C102.631 26.818 102.902 26.928 103.107 27.148C103.327 27.3533 103.437 27.6247 103.437 27.962V34.276H113.645V27.962ZM131.401 41.888C131.739 41.888 132.01 41.9833 132.215 42.174C132.421 42.3647 132.523 42.614 132.523 42.922C132.523 43.2447 132.421 43.5087 132.215 43.714C132.01 43.9047 131.739 44 131.401 44H121.457C121.135 44 120.863 43.89 120.643 43.67C120.423 43.45 120.313 43.1787 120.313 42.856V27.962C120.313 27.6247 120.423 27.3533 120.643 27.148C120.863 26.928 121.135 26.818 121.457 26.818H131.401C131.739 26.818 132.01 26.9207 132.215 27.126C132.421 27.3167 132.523 27.5733 132.523 27.896C132.523 28.204 132.421 28.4533 132.215 28.644C132.01 28.8347 131.739 28.93 131.401 28.93H122.601V34.276H128.915C129.238 34.276 129.502 34.3787 129.707 34.584C129.927 34.7747 130.037 35.024 130.037 35.332C130.037 35.64 129.927 35.8967 129.707 36.102C129.502 36.2927 129.238 36.388 128.915 36.388H122.601V41.888H131.401ZM146.872 42.24C147.018 42.4747 147.092 42.7167 147.092 42.966C147.092 43.2593 146.989 43.5087 146.784 43.714C146.593 43.9047 146.329 44 145.992 44C145.566 44 145.236 43.8167 145.002 43.45L141.218 37.378H140.822H138.006V42.856C138.006 43.1787 137.896 43.45 137.676 43.67C137.47 43.89 137.199 44 136.862 44C136.539 44 136.268 43.89 136.048 43.67C135.828 43.45 135.718 43.1787 135.718 42.856V27.962C135.718 27.6247 135.828 27.3533 136.048 27.148C136.268 26.928 136.539 26.818 136.862 26.818H140.822C141.907 26.818 142.875 27.0453 143.726 27.5C144.591 27.9547 145.258 28.5927 145.728 29.414C146.212 30.2353 146.454 31.174 146.454 32.23C146.454 33.2713 146.19 34.1953 145.662 35.002C145.134 35.8087 144.415 36.4173 143.506 36.828L146.872 42.24ZM140.822 35.266C141.819 35.266 142.64 34.9873 143.286 34.43C143.931 33.858 144.254 33.1247 144.254 32.23C144.254 31.262 143.931 30.47 143.286 29.854C142.64 29.238 141.819 28.93 140.822 28.93H138.006V35.266H140.822ZM160.706 41.888C161.043 41.888 161.315 41.9833 161.52 42.174C161.725 42.3647 161.828 42.614 161.828 42.922C161.828 43.2447 161.725 43.5087 161.52 43.714C161.315 43.9047 161.043 44 160.706 44H150.762C150.439 44 150.168 43.89 149.948 43.67C149.728 43.45 149.618 43.1787 149.618 42.856V27.962C149.618 27.6247 149.728 27.3533 149.948 27.148C150.168 26.928 150.439 26.818 150.762 26.818H160.706C161.043 26.818 161.315 26.9207 161.52 27.126C161.725 27.3167 161.828 27.5733 161.828 27.896C161.828 28.204 161.725 28.4533 161.52 28.644C161.315 28.8347 161.043 28.93 160.706 28.93H151.906V34.276H158.22C158.543 34.276 158.807 34.3787 159.012 34.584C159.232 34.7747 159.342 35.024 159.342 35.332C159.342 35.64 159.232 35.8967 159.012 36.102C158.807 36.2927 158.543 36.388 158.22 36.388H151.906V41.888H160.706ZM165.022 27.962C165.022 27.6247 165.132 27.3533 165.352 27.148C165.572 26.928 165.844 26.818 166.166 26.818C166.504 26.818 166.775 26.928 166.98 27.148C167.2 27.3533 167.31 27.6247 167.31 27.962V38.236C167.31 39.0133 167.516 39.71 167.926 40.326C168.352 40.942 168.931 41.426 169.664 41.778C170.412 42.1153 171.263 42.284 172.216 42.284C173.126 42.284 173.94 42.1153 174.658 41.778C175.377 41.426 175.934 40.942 176.33 40.326C176.741 39.71 176.946 39.0133 176.946 38.236V27.962C176.946 27.6247 177.056 27.3533 177.276 27.148C177.496 26.928 177.768 26.818 178.09 26.818C178.413 26.818 178.677 26.928 178.882 27.148C179.102 27.3533 179.212 27.6247 179.212 27.962V38.236C179.212 39.4093 178.912 40.4653 178.31 41.404C177.724 42.328 176.895 43.054 175.824 43.582C174.768 44.0953 173.566 44.352 172.216 44.352C170.823 44.352 169.576 44.0953 168.476 43.582C167.391 43.054 166.54 42.328 165.924 41.404C165.323 40.48 165.022 39.424 165.022 38.236V27.962ZM199.666 26.818C199.989 26.818 200.26 26.928 200.48 27.148C200.7 27.368 200.81 27.6393 200.81 27.962V42.856C200.81 43.1787 200.693 43.45 200.458 43.67C200.238 43.89 199.974 44 199.666 44C199.344 44 199.072 43.89 198.852 43.67C198.632 43.45 198.522 43.1787 198.522 42.856V31.922L193.198 42.768C192.949 43.1493 192.619 43.34 192.208 43.34C191.724 43.34 191.372 43.1127 191.152 42.658L185.894 32.12V42.856C185.894 43.1787 185.784 43.45 185.564 43.67C185.344 43.89 185.073 44 184.75 44C184.428 44 184.156 43.89 183.936 43.67C183.716 43.45 183.606 43.1787 183.606 42.856V27.962C183.606 27.6393 183.716 27.368 183.936 27.148C184.156 26.928 184.428 26.818 184.75 26.818C185.19 26.818 185.528 27.0233 185.762 27.434L192.296 40.524L198.654 27.434C198.889 27.0233 199.226 26.818 199.666 26.818Z" fill="#4C525D"/>
</svg>
