<svg width="91" height="90" viewBox="0 0 91 90" fill="none" xmlns="http://www.w3.org/2000/svg">
<path d="M72.24 4.57019L53.42 32.5002C53.115 32.9033 52.974 33.407 53.0253 33.9098C53.0767 34.4127 53.3165 34.8775 53.6966 35.2107C54.0767 35.5439 54.5689 35.7209 55.0741 35.7059C55.5794 35.691 56.0602 35.4853 56.42 35.1302L74.94 19.1302C75.0468 19.0323 75.1799 18.9678 75.323 18.9449C75.466 18.922 75.6127 18.9415 75.7447 19.0012C75.8768 19.0608 75.9884 19.1579 76.0658 19.2804C76.1431 19.4028 76.1829 19.5453 76.18 19.6902V69.9802C76.1785 70.1329 76.1304 70.2815 76.0422 70.4061C75.954 70.5307 75.8298 70.6255 75.6863 70.6776C75.5428 70.7298 75.3868 70.737 75.2392 70.6981C75.0915 70.6592 74.9592 70.5762 74.86 70.4602L18.86 3.46019C17.966 2.38456 16.8475 1.51751 15.583 0.919808C14.3185 0.322109 12.9386 0.00823404 11.54 0.000187712H9.59C7.04657 0.000187712 4.60732 1.01056 2.80885 2.80903C1.01037 4.60751 0 7.04676 0 9.59019V80.4102C0 82.9536 1.01037 85.3929 2.80885 87.1913C4.60732 88.9898 7.04657 90.0002 9.59 90.0002C11.2288 90 12.8402 89.5798 14.2705 88.7798C15.7008 87.9798 16.9021 86.8265 17.76 85.4302L36.58 57.5002C36.885 57.0971 37.026 56.5934 36.9747 56.0905C36.9233 55.5877 36.6835 55.1229 36.3034 54.7897C35.9233 54.4564 35.4311 54.2795 34.9259 54.2944C34.4206 54.3094 33.9398 54.5151 33.58 54.8702L15.06 70.8702C14.9532 70.9681 14.8201 71.0325 14.677 71.0555C14.534 71.0784 14.3873 71.0588 14.2553 70.9992C14.1232 70.9396 14.0116 70.8425 13.9342 70.72C13.8569 70.5975 13.8171 70.455 13.82 70.3102V20.0702C13.8215 19.9175 13.8696 19.7689 13.9578 19.6443C14.046 19.5197 14.1702 19.4249 14.3137 19.3727C14.4572 19.3206 14.6132 19.3134 14.7608 19.3523C14.9085 19.3911 15.0408 19.4741 15.14 19.5902L71.14 86.5902C72.0408 87.6561 73.1634 88.5126 74.4294 89.0999C75.6955 89.6871 77.0744 89.991 78.47 89.9902H80.47C81.7294 89.9902 82.9764 89.7421 84.1399 89.2602C85.3034 88.7783 86.3606 88.0719 87.2512 87.1813C88.1417 86.2908 88.8481 85.2336 89.33 84.0701C89.8119 82.9066 90.06 81.6596 90.06 80.4002V9.59019C90.06 8.32575 89.81 7.07378 89.3243 5.90634C88.8386 4.7389 88.1269 3.67903 87.23 2.78773C86.3331 1.89643 85.2688 1.19129 84.0984 0.712891C82.9279 0.234492 81.6744 -0.00772329 80.41 0.000187712C78.7712 0.000384321 77.1598 0.420549 75.7295 1.22059C74.2992 2.02062 73.0979 3.17384 72.24 4.57019Z" fill="black"/>
</svg>
