<svg width="56" height="56" viewBox="0 0 56 56" fill="none" xmlns="http://www.w3.org/2000/svg">
<path d="M28 0C24.1515 0 20.5258 0.724802 17.1234 2.23095C10.3746 5.13131 5.13131 10.3746 2.23095 17.1234C0.724802 20.5258 0 24.1515 0 28C0 31.8485 0.724802 35.4742 2.23095 38.8766C5.13131 45.6254 10.3746 50.871 17.1234 53.769C20.5258 55.2752 24.1515 56 28 56C31.8485 56 35.4742 55.2752 38.8766 53.769C45.6254 50.8687 50.871 45.6254 53.769 38.8766C55.2752 35.4742 56 31.8513 56 28C56 24.1487 55.2752 20.5258 53.769 17.1234C50.8687 10.3746 45.6254 5.12902 38.8766 2.23095C35.4742 0.724802 31.8485 0 28 0ZM28 53.6577C24.4862 53.6577 21.1392 52.9883 18.0161 51.6495C11.823 48.9165 7.08239 44.1753 4.35053 37.9822C3.01173 34.8608 2.34176 31.5138 2.34176 28C2.34176 24.4862 3.01116 21.1392 4.34996 18.0161C7.08239 11.823 11.823 7.08239 18.0161 4.35053C21.1392 3.01173 24.4862 2.34176 28 2.34176C31.5138 2.34176 34.8608 3.01173 37.9822 4.35053C44.1753 7.08239 48.9165 11.823 51.6495 18.0161C52.9883 21.1392 53.6577 24.4862 53.6577 28C53.6577 31.5138 52.9883 34.8608 51.6495 37.9822C48.9165 44.1753 44.1753 48.9165 37.9822 51.6495C34.8591 52.9883 31.5121 53.6577 27.9983 53.6577H28Z" fill="white"/>
<path d="M36.4746 15.4218L30.6195 24.1111C30.5247 24.2366 30.4808 24.3933 30.4968 24.5497C30.5127 24.7062 30.5873 24.8508 30.7056 24.9544C30.8238 25.0581 30.977 25.1131 31.1342 25.1085C31.2913 25.1038 31.4409 25.0398 31.5529 24.9294L37.3146 19.9516C37.3479 19.9211 37.3893 19.9011 37.4338 19.894C37.4783 19.8868 37.5239 19.8929 37.565 19.9115C37.6061 19.93 37.6408 19.9602 37.6649 19.9983C37.689 20.0364 37.7013 20.0808 37.7004 20.1258V35.7716C37.7 35.8191 37.685 35.8653 37.6576 35.9041C37.6301 35.9428 37.5915 35.9723 37.5468 35.9885C37.5022 36.0048 37.4537 36.007 37.4077 35.9949C37.3618 35.9828 37.3206 35.957 37.2898 35.9209L19.8675 15.0765C19.5894 14.7419 19.2415 14.4721 18.8481 14.2862C18.4547 14.1002 18.0253 14.0026 17.5902 14.0001H16.9836C16.1923 14.0001 15.4334 14.3144 14.8739 14.8739C14.3143 15.4334 14 16.1923 14 16.9836V39.0165C14 39.8077 14.3143 40.5666 14.8739 41.1261C15.4334 41.6857 16.1923 42 16.9836 42V42C17.4934 41.9999 17.9947 41.8692 18.4397 41.6203C18.8847 41.3714 19.2584 41.0126 19.5253 40.5782L25.3804 31.8889C25.4753 31.7635 25.5192 31.6068 25.5032 31.4504C25.4873 31.2939 25.4126 31.1493 25.2944 31.0456C25.1761 30.942 25.023 30.8869 24.8658 30.8916C24.7086 30.8962 24.559 30.9602 24.4471 31.0707L18.6853 36.0485C18.6521 36.0789 18.6107 36.099 18.5662 36.1061C18.5217 36.1132 18.4761 36.1071 18.435 36.0886C18.3939 36.07 18.3592 36.0398 18.3351 36.0017C18.311 35.9636 18.2987 35.9193 18.2996 35.8742V20.244C18.3 20.1965 18.315 20.1503 18.3424 20.1115C18.3699 20.0728 18.4085 20.0433 18.4531 20.0271C18.4978 20.0108 18.5463 20.0086 18.5923 20.0207C18.6382 20.0328 18.6793 20.0586 18.7102 20.0947L36.1324 40.9391C36.4127 41.2707 36.7619 41.5372 37.1558 41.7199C37.5497 41.9026 37.9787 41.9971 38.4129 41.9969H39.0351C39.4269 41.9969 39.8149 41.9197 40.1768 41.7698C40.5388 41.6198 40.8677 41.4001 41.1448 41.123C41.4218 40.846 41.6416 40.5171 41.7915 40.1551C41.9415 39.7931 42.0186 39.4051 42.0186 39.0133V16.9836C42.0186 16.5902 41.9409 16.2007 41.7898 15.8375C41.6387 15.4743 41.4172 15.1446 41.1382 14.8673C40.8592 14.59 40.528 14.3706 40.1639 14.2218C39.7998 14.073 39.4098 13.9976 39.0164 14.0001V14.0001C38.5066 14.0001 38.0052 14.1308 37.5603 14.3797C37.1153 14.6286 36.7415 14.9874 36.4746 15.4218Z" fill="white"/>
</svg>
