<svg width="48" height="48" viewBox="0 0 48 48" fill="none" xmlns="http://www.w3.org/2000/svg">
<path fill-rule="evenodd" clip-rule="evenodd" d="M24 46C36.1503 46 46 36.1503 46 24C46 11.8497 36.1503 2 24 2C11.8497 2 2 11.8497 2 24C2 36.1503 11.8497 46 24 46ZM24 48C37.2548 48 48 37.2548 48 24C48 10.7452 37.2548 0 24 0C10.7452 0 0 10.7452 0 24C0 37.2548 10.7452 48 24 48Z" fill="#2873FB"/>
<path d="M12.7051 16.2755V32.6243L23.3328 36.4316V19.9403L34.7953 15.7258L24.3915 12L12.7051 16.2755Z" fill="#2873FB"/>
<path d="M24.188 20.5524V29.3682L34.7953 33.1551V16.623L24.188 20.5524Z" fill="#2873FB"/>
</svg>
