<svg width="39" height="21" viewBox="0 0 39 21" fill="none" xmlns="http://www.w3.org/2000/svg">
<path d="M0 3.675V17.7275L9.13502 21V6.82499L18.9875 3.2025L10.045 0L0 3.675Z" fill="#00E599"/>
<path d="M9.86987 7.35014V14.9276L18.9873 18.1826V3.97266L9.86987 7.35014Z" fill="#00AF92"/>
<path d="M28.4357 16.0002C28.0957 15.4302 27.7157 14.8202 27.2957 14.1702C26.8757 13.5102 26.4407 12.8502 25.9907 12.1902C25.5407 11.5202 25.0807 10.8752 24.6107 10.2552C24.1507 9.62523 23.7107 9.06023 23.2907 8.56023V16.0002H21.4307V5.60523H22.9757C23.3757 6.02523 23.8057 6.52523 24.2657 7.10523C24.7257 7.67523 25.1857 8.27023 25.6457 8.89023C26.1157 9.51023 26.5657 10.1352 26.9957 10.7652C27.4357 11.3852 27.8257 11.9652 28.1657 12.5052V5.60523H30.0407V16.0002H28.4357Z" fill="black"/>
<path d="M34.8292 16.2252C34.5592 16.2252 34.2792 16.2052 33.9892 16.1652C33.7092 16.1352 33.4392 16.0902 33.1792 16.0302C32.9292 15.9802 32.6992 15.9252 32.4892 15.8652C32.2792 15.7952 32.1192 15.7302 32.0092 15.6702L32.3692 14.1252C32.5792 14.2252 32.8842 14.3402 33.2842 14.4702C33.6842 14.5902 34.1792 14.6502 34.7692 14.6502C35.5592 14.6502 36.1292 14.5002 36.4792 14.2002C36.8292 13.8902 37.0042 13.4802 37.0042 12.9702C37.0042 12.6402 36.9342 12.3652 36.7942 12.1452C36.6642 11.9252 36.4792 11.7502 36.2392 11.6202C36.0092 11.4802 35.7392 11.3852 35.4292 11.3352C35.1292 11.2752 34.8092 11.2452 34.4692 11.2452H33.8542V9.77523H34.6042C34.8342 9.77523 35.0642 9.75523 35.2942 9.71523C35.5342 9.66523 35.7492 9.58523 35.9392 9.47523C36.1292 9.35523 36.2842 9.20023 36.4042 9.01023C36.5242 8.82023 36.5842 8.57523 36.5842 8.27523C36.5842 8.03523 36.5392 7.83023 36.4492 7.66023C36.3592 7.49023 36.2392 7.35023 36.0892 7.24023C35.9492 7.13023 35.7842 7.05023 35.5942 7.00023C35.4042 6.95023 35.2042 6.92523 34.9942 6.92523C34.5442 6.92523 34.1442 6.99523 33.7942 7.13523C33.4442 7.26523 33.1342 7.41523 32.8642 7.58523L32.2042 6.23523C32.3442 6.14523 32.5142 6.05023 32.7142 5.95023C32.9142 5.85023 33.1342 5.75524 33.3742 5.66523C33.6242 5.57523 33.8892 5.50523 34.1692 5.45524C34.4492 5.39523 34.7442 5.36523 35.0542 5.36523C35.6342 5.36523 36.1342 5.43523 36.5542 5.57523C36.9742 5.71523 37.3192 5.91523 37.5892 6.17523C37.8692 6.42523 38.0742 6.72523 38.2042 7.07523C38.3442 7.41523 38.4142 7.79023 38.4142 8.20023C38.4142 8.68023 38.2792 9.11023 38.0092 9.49023C37.7492 9.87023 37.4092 10.1602 36.9892 10.3602C37.5292 10.5502 37.9742 10.8652 38.3242 11.3052C38.6842 11.7452 38.8642 12.3102 38.8642 13.0002C38.8642 13.4602 38.7842 13.8902 38.6242 14.2902C38.4642 14.6802 38.2192 15.0202 37.8892 15.3102C37.5592 15.5902 37.1392 15.8152 36.6292 15.9852C36.1292 16.1452 35.5292 16.2252 34.8292 16.2252Z" fill="black"/>
</svg>
