<svg width="22" height="19" viewBox="0 0 22 19" fill="none" xmlns="http://www.w3.org/2000/svg">
    <path d="M16.6471 5.82703C16.2548 5.6061 15.7223 5.6061 15.2739 5.82703L12.051 7.67732L9.86497 8.86483L6.72611 10.7427C6.33376 10.9637 5.80127 10.9637 5.35287 10.7427L2.88662 9.27907C2.49427 9.05814 2.18599 8.58866 2.18599 8.09157V5.24709C2.18599 4.80523 2.41019 4.33576 2.88662 4.05959L5.32484 2.65116C5.7172 2.43023 6.24968 2.43023 6.69809 2.65116L9.16433 4.11483C9.55669 4.33576 9.86497 4.80523 9.86497 5.30232V7.18023L12.051 5.9375V4.00436C12.051 3.5625 11.8268 3.09302 11.3503 2.81686L6.78217 0.165698C6.38981 -0.0552326 5.85732 -0.0552326 5.40892 0.165698L0.700637 2.87209C0.224204 3.09302 0 3.5625 0 4.00436V9.3343C0 9.77616 0.224204 10.2456 0.700637 10.5218L5.32484 13.173C5.7172 13.3939 6.24968 13.3939 6.69809 13.173L9.86497 11.3503L12.051 10.1076L15.2178 8.28488C15.6102 8.06395 16.1427 8.06395 16.5911 8.28488L19.0573 9.69331C19.4497 9.91424 19.758 10.3837 19.758 10.8808V13.6977C19.758 14.1395 19.5338 14.609 19.0573 14.8852L16.6471 16.2936C16.2548 16.5145 15.7223 16.5145 15.2739 16.2936L12.8076 14.8852C12.4153 14.6642 12.107 14.1948 12.107 13.6977V11.875L9.92102 13.1177V14.9956C9.92102 15.4375 10.1452 15.907 10.6217 16.1831L15.2739 18.8343C15.6662 19.0552 16.1987 19.0552 16.6471 18.8343L21.2994 16.2108C21.6917 15.9898 22 15.5203 22 15.0233V9.6657C22 9.22384 21.7758 8.75436 21.2994 8.4782L16.6471 5.82703Z" fill="#8248E5"/>
</svg>
