<svg width="48" height="48" viewBox="0 0 48 48" fill="#206eff" xmlns="http://www.w3.org/2000/svg">
    <path fill-rule="evenodd" clip-rule="evenodd" d="M24 46C36.1503 46 46 36.1503 46 24C46 11.8497 36.1503 2 24 2C11.8497 2 2 11.8497 2 24C2 36.1503 11.8497 46 24 46ZM24 48C37.2548 48 48 37.2548 48 24C48 10.7452 37.2548 0 24 0C10.7452 0 0 10.7452 0 24C0 37.2548 10.7452 48 24 48Z" fill="#206eff"/>
    <path d="M31.1873 19.6672C30.6879 19.3765 30.0102 19.3765 29.4395 19.6672L25.3376 22.1017L22.5554 23.6642L18.5605 26.1352C18.0611 26.4259 17.3834 26.4259 16.8127 26.1352L13.6739 24.2093C13.1745 23.9186 12.7822 23.3009 12.7822 22.6468V18.9041C12.7822 18.3227 13.0675 17.7049 13.6739 17.3416L16.7771 15.4884C17.2764 15.1977 17.9541 15.1977 18.5248 15.4884L21.6637 17.4142C22.1631 17.7049 22.5554 18.3227 22.5554 18.9767V21.4477L25.3376 19.8125V17.2689C25.3376 16.6875 25.0522 16.0698 24.4459 15.7064L18.6318 12.218C18.1325 11.9273 17.4548 11.9273 16.8841 12.218L10.8917 15.7791C10.2854 16.0698 10 16.6875 10 17.2689V24.282C10 24.8634 10.2854 25.4811 10.8917 25.8445L16.7771 29.3328C17.2764 29.6235 17.9541 29.6235 18.5248 29.3328L22.5554 26.9346L25.3376 25.2994L29.3682 22.9012C29.8675 22.6105 30.5452 22.6105 31.1159 22.9012L34.2548 24.7544C34.7541 25.0451 35.1465 25.6628 35.1465 26.3169V30.0233C35.1465 30.6047 34.8611 31.2224 34.2548 31.5858L31.1873 33.439C30.6879 33.7297 30.0102 33.7297 29.4395 33.439L26.3006 31.5858C25.8013 31.2951 25.4089 30.6773 25.4089 30.0233V27.625L22.6268 29.2602V31.7311C22.6268 32.3125 22.9121 32.9302 23.5185 33.2936L29.4395 36.782C29.9389 37.0727 30.6166 37.0727 31.1873 36.782L37.1083 33.3299C37.6076 33.0392 38 32.4215 38 31.7674V24.718C38 24.1366 37.7146 23.5189 37.1083 23.1555L31.1873 19.6672Z" fill="#206eff"/>
</svg>
