<svg width="42" height="47" viewBox="0 0 50 50" fill="none" xmlns="http://www.w3.org/2000/svg">
    <path d="M20.9081 12.1631C19.4183 12.1662 17.9451 12.4787 16.5805 13.081C13.8476 14.2283 11.7976 16.294 10.6567 19.05C10.0602 20.4245 9.75103 21.9082 9.74857 23.4083C9.74214 24.9104 10.0526 26.3966 10.6595 27.7685C11.7981 30.5223 13.8481 32.5419 16.5833 33.7812C17.95 34.3782 19.4076 34.6531 20.9109 34.6531C22.4595 34.6531 23.9171 34.3782 25.2381 33.7812C27.9681 32.5419 29.9724 30.5223 31.2047 27.7685C31.7971 26.4375 32.07 24.9688 32.07 23.4083C32.07 21.8935 31.7971 20.4248 31.2047 19.0477C29.9724 16.294 27.9681 14.2283 25.2343 13.081C23.8728 12.4695 22.3978 12.1566 20.9072 12.1631H20.9081ZM20.9081 33.1388C19.5872 33.1388 18.3114 32.9094 17.1729 32.4041C14.8043 31.349 12.9819 29.5588 12.0257 27.2177C11.5164 26.0132 11.2531 24.7176 11.2514 23.4083C11.2486 22.1138 11.5123 20.8327 12.0257 19.646C12.4891 18.4744 13.1845 17.4102 14.0694 16.5183C14.9543 15.6264 16.0103 14.9254 17.1729 14.4581C18.3509 13.9402 19.6228 13.6743 20.9081 13.677C22.2067 13.679 23.4916 13.9443 24.6863 14.4572C27.0096 15.4207 28.7858 17.257 29.8334 19.6437C30.3348 20.7909 30.5625 22.0764 30.5625 23.4074C30.5625 24.7385 30.3348 26.0234 29.8334 27.2168C28.7881 29.5588 27.0119 31.349 24.6886 32.4041C23.5043 32.9094 22.2291 33.1388 20.9104 33.1388H20.9081ZM7.88281 5.73729C7.88281 6.97668 6.92615 7.98624 5.6509 7.98624V11.4746C7.24519 11.4746 8.56615 10.9237 9.65948 9.82206C10.7981 8.67479 11.3447 7.34375 11.3447 5.73729H7.88281ZM5.64857 7.98624C5.0569 7.98537 4.48971 7.74815 4.07133 7.32658C3.65295 6.90501 3.41753 6.33348 3.41666 5.73729H0C0 7.34375 0.546666 8.67479 1.64 9.82206C2.77904 10.9237 4.1 11.4746 5.64857 11.4746V7.98624ZM3.41666 5.73729C3.41753 5.1411 3.65295 4.56957 4.07133 4.148C4.48971 3.72643 5.0569 3.48921 5.64857 3.48834V0C4.1 0 2.77904 0.55084 1.64 1.69811C0.546666 2.79979 0 4.13083 0 5.73729H3.41666ZM5.64857 3.48834C6.92382 3.48834 7.88048 4.4979 7.88048 5.73729H11.3424C11.3424 4.13083 10.7957 2.79979 9.65715 1.69811C8.56381 0.55084 7.24286 0 5.64857 0V3.48834ZM8.70048 7.52752C8.33619 7.15998 7.83477 7.15998 7.47048 7.48052C7.10619 7.80106 7.06048 8.35237 7.42384 8.71991L8.69955 7.52658L8.70048 7.52752ZM13.7567 15.698C14.0753 16.0195 14.6219 16.0655 14.941 15.745C15.3053 15.3779 15.351 14.8732 15.0319 14.5056L13.7567 15.698ZM7.88281 9.22563C8.20186 9.54664 8.74806 9.5927 9.0671 9.27263C9.43139 8.90509 9.4771 8.40031 9.11374 8.03324L7.88281 9.22563ZM11.3904 10.5106C11.0714 10.1435 10.5247 10.1435 10.1604 10.4636C10.0001 10.6267 9.9063 10.8445 9.89766 11.0739C9.88902 11.3033 9.96615 11.5277 10.1138 11.7025L11.3895 10.5092L11.3904 10.5106ZM11.0257 12.6679C11.1001 12.7558 11.191 12.8281 11.2932 12.8804C11.3954 12.9328 11.5069 12.9642 11.6213 12.973C11.7356 12.9817 11.8505 12.9676 11.9594 12.9313C12.0683 12.8951 12.169 12.8375 12.2557 12.7619C12.62 12.3948 12.62 11.8901 12.3023 11.523L11.0266 12.6703L11.0257 12.6679ZM14.5785 13.999C14.2143 13.6319 13.7133 13.6319 13.349 13.952C12.9847 14.272 12.939 14.8238 13.3024 15.1909L14.5776 13.9975L14.5785 13.999ZM7.42477 8.72085L7.88281 9.22563L9.11281 8.0323L8.70281 7.52752L7.4271 8.72085H7.42477ZM10.1124 11.703L11.0233 12.667L12.2991 11.5197L11.3881 10.5097L10.1124 11.703ZM13.301 15.1913L13.7567 15.698L15.0319 14.5047L14.5762 13.9999L13.301 15.1932V15.1913ZM34.1177 5.73729C34.1177 6.97668 35.0743 7.98624 36.3496 7.98624V11.4746C34.7553 11.4746 33.4343 10.9237 32.2957 9.82206C31.2024 8.67479 30.6557 7.34375 30.6557 5.73729H34.1177ZM36.3496 7.98624C36.9412 7.98537 37.5084 7.74815 37.9268 7.32658C38.3452 6.90501 38.5806 6.33348 38.5815 5.73729H41.9981C41.9981 7.34375 41.4515 8.67479 40.3124 9.82206C39.2191 10.9237 37.8975 11.4746 36.3477 11.4746V7.98624H36.3496ZM38.5815 5.73729C38.5806 5.1411 38.3452 4.56957 37.9268 4.148C37.5084 3.72643 36.9412 3.48921 36.3496 3.48834V0C37.8981 0 39.2191 0.55084 40.3143 1.69811C41.4533 2.79979 42 4.13083 42 5.73729H38.5815ZM36.3496 3.48834C35.0743 3.48834 34.1177 4.4979 34.1177 5.73729H30.6557C30.6557 4.13083 31.2024 2.79979 32.2957 1.69811C33.4343 0.55084 34.7553 0 36.3496 0V3.48834ZM33.2977 7.52752C33.6619 7.15998 34.1634 7.15998 34.5277 7.48052C34.8919 7.80106 34.9377 8.35237 34.5743 8.71991L33.2986 7.52658L33.2977 7.52752ZM28.2415 15.698C27.9229 16.0195 27.3762 16.0655 27.0572 15.745C26.6929 15.3779 26.6472 14.8732 26.9639 14.5056L28.2415 15.698ZM34.1186 9.22657C33.7995 9.54758 33.2533 9.59364 32.9343 9.27357C32.57 8.90603 32.5243 8.40125 32.8877 8.03418L34.1177 9.22751L34.1186 9.22657ZM30.611 10.5115C30.93 10.1445 31.4767 10.1445 31.841 10.4646C32.0013 10.6276 32.0951 10.8454 32.1037 11.0749C32.1124 11.3043 32.0353 11.5286 31.8876 11.7035L30.6119 10.5101L30.611 10.5115ZM30.9757 12.6688C30.9013 12.7568 30.8104 12.829 30.7082 12.8814C30.606 12.9337 30.4945 12.9652 30.3801 12.9739C30.2658 12.9826 30.1509 12.9685 30.042 12.9323C29.9331 12.896 29.8324 12.8385 29.7457 12.7628C29.3814 12.3958 29.3814 11.891 29.6991 11.5239L30.9748 12.6712L30.9757 12.6688ZM27.4219 13.999C27.7862 13.6319 28.2872 13.6319 28.6515 13.952C29.0157 14.272 29.0615 14.8238 28.6981 15.1909L27.4219 13.999ZM34.5734 8.72085L34.1177 9.22563L32.8877 8.0323L33.2977 7.52752L34.5734 8.72085ZM31.8857 11.703L30.9748 12.667L29.6991 11.5197L30.61 10.5097L31.8857 11.703ZM28.6972 15.1913L28.2415 15.698L26.9662 14.5047L27.4219 13.9999L28.6972 15.1932V15.1913ZM34.1177 41.2627C34.1177 40.0233 35.0743 39.0138 36.3496 39.0138V35.5254C34.7553 35.5254 33.4343 36.0763 32.2957 37.2235C31.2024 38.3252 30.6557 39.6562 30.6557 41.2627H34.1177ZM36.3496 39.0138C36.9412 39.0146 37.5084 39.2519 37.9268 39.6734C38.3452 40.095 38.5806 40.6665 38.5815 41.2627H41.9981C41.9981 39.6562 41.4515 38.3252 40.3124 37.2235C39.2191 36.0763 37.8981 35.5254 36.3477 35.5254V39.0138H36.3496ZM38.5815 41.2627C38.5806 41.8589 38.3452 42.4304 37.9268 42.852C37.5084 43.2736 36.9412 43.5108 36.3496 43.5117V47C37.8981 47 39.2191 46.4492 40.3143 45.3019C41.4533 44.2002 42 42.8692 42 41.2627H38.5815ZM36.3496 43.5117C35.0743 43.5117 34.1177 42.5021 34.1177 41.2627H30.6557C30.6557 42.8692 31.2024 44.2002 32.2957 45.3019C33.4343 46.4492 34.7553 47 36.3496 47V43.5117ZM33.2977 39.4725C33.6619 39.84 34.1634 39.84 34.5277 39.5195C34.8919 39.1989 34.9377 38.6476 34.5743 38.2801L33.2986 39.4734L33.2977 39.4725ZM28.2415 31.302C27.9229 30.9805 27.3762 30.9345 27.0572 31.255C26.6929 31.6221 26.6472 32.1269 26.9639 32.4944L28.2415 31.302ZM34.1186 37.7734C33.7995 37.4524 33.2533 37.4064 32.9343 37.7264C32.57 38.094 32.5243 38.5987 32.8877 38.9658L34.1177 37.7725L34.1186 37.7734ZM30.611 36.4884C30.93 36.8555 31.4767 36.8555 31.841 36.5354C32.0013 36.3724 32.0951 36.1546 32.1037 35.9251C32.1124 35.6957 32.0353 35.4714 31.8876 35.2965L30.6119 36.4899L30.611 36.4884ZM30.9757 34.3312C30.9013 34.2432 30.8104 34.171 30.7082 34.1186C30.606 34.0663 30.4945 34.0348 30.3801 34.0261C30.2658 34.0174 30.1509 34.0315 30.042 34.0677C29.9331 34.104 29.8324 34.1615 29.7457 34.2372C29.3814 34.6042 29.3814 35.109 29.6991 35.4761L30.9748 34.3288L30.9757 34.3312ZM27.4219 33.0011C27.7862 33.3681 28.2872 33.3681 28.6515 33.048C29.0157 32.728 29.0615 32.1762 28.6981 31.8091L27.4219 33.0011ZM34.5734 38.2791L34.1177 37.7744L32.8877 38.9677L33.2977 39.4725L34.5734 38.2791ZM31.8857 35.297L30.9748 34.333L29.6991 35.4803L30.61 36.4903L31.8857 35.297ZM28.6972 31.8087L28.2415 31.302L26.9662 32.4953L27.4219 33.0001L28.6972 31.8068V31.8087ZM7.88281 41.2627C7.88281 40.0233 6.92615 39.0138 5.6509 39.0138V35.5254C7.24519 35.5254 8.56615 36.0763 9.65948 37.2235C10.7981 38.3252 11.3447 39.6562 11.3447 41.2627H7.88281ZM5.64857 39.0138C5.0569 39.0146 4.48971 39.2519 4.07133 39.6734C3.65295 40.095 3.41753 40.6665 3.41666 41.2627H0C0 39.6562 0.546666 38.3252 1.64 37.2235C2.77904 36.0763 4.1 35.5254 5.64857 35.5254V39.0138ZM3.41666 41.2627C3.41753 41.8589 3.65295 42.4304 4.07133 42.852C4.48971 43.2736 5.0569 43.5108 5.64857 43.5117V47C4.1 47 2.77904 46.4492 1.64 45.3019C0.546666 44.2002 0 42.8692 0 41.2627H3.41666ZM5.64857 43.5117C6.92382 43.5117 7.88048 42.5021 7.88048 41.2627H11.3424C11.3424 42.8692 10.7957 44.2002 9.65715 45.3019C8.56381 46.4492 7.24286 47 5.64857 47V43.5117ZM8.70048 39.4725C8.33619 39.84 7.83477 39.84 7.47048 39.5195C7.10619 39.1989 7.06048 38.6476 7.42384 38.2801L8.69955 39.4734L8.70048 39.4725ZM13.7567 31.302C14.0753 30.9805 14.6219 30.9345 14.941 31.255C15.3053 31.6221 15.351 32.1269 15.0319 32.4944L13.7567 31.302ZM7.88281 37.7744C8.20186 37.4534 8.74806 37.4073 9.0671 37.7274C9.43139 38.0949 9.4771 38.5997 9.11374 38.9668L7.88281 37.7744ZM11.3904 36.4894C11.0714 36.8565 10.5247 36.8565 10.1604 36.5364C10.0001 36.3733 9.9063 36.1555 9.89766 35.9261C9.88902 35.6967 9.96615 35.4723 10.1138 35.2975L11.3895 36.4908L11.3904 36.4894ZM11.0257 34.3321C11.1001 34.2442 11.191 34.1719 11.2932 34.1196C11.3954 34.0672 11.5069 34.0358 11.6213 34.027C11.7356 34.0183 11.8505 34.0324 11.9594 34.0687C12.0683 34.1049 12.169 34.1625 12.2557 34.2381C12.62 34.6052 12.62 35.1099 12.3023 35.477L11.0266 34.3297L11.0257 34.3321ZM14.5785 33.0011C14.2143 33.3681 13.7133 33.3681 13.349 33.048C12.9847 32.728 12.939 32.1762 13.3024 31.8091L14.5776 33.0025L14.5785 33.0011ZM7.42477 38.2791L7.88281 37.7744L9.11281 38.9677L8.70281 39.4725L7.4271 38.2791H7.42477ZM10.1124 35.297L11.0233 34.333L12.2991 35.4803L11.3881 36.4903L10.1124 35.297ZM13.301 31.8087L13.7567 31.302L15.0319 32.4953L14.5762 33.0001L13.301 31.8068V31.8087Z" fill="#2873FB"/>
    <path d="M23.8369 21.6802C23.6051 21.5407 23.2904 21.5407 23.0255 21.6802L21.121 22.8488L19.8293 23.5988L17.9745 24.7849C17.7427 24.9244 17.428 24.9244 17.1631 24.7849L15.7057 23.8605C15.4739 23.7209 15.2917 23.4244 15.2917 23.1105V21.314C15.2917 21.0349 15.4242 20.7384 15.7057 20.564L17.1465 19.6744C17.3783 19.5349 17.693 19.5349 17.958 19.6744L19.4153 20.5988C19.6471 20.7384 19.8293 21.0349 19.8293 21.3488V22.5349L21.121 21.75V20.5291C21.121 20.25 20.9885 19.9535 20.707 19.7791L18.0076 18.1047C17.7758 17.9651 17.4611 17.9651 17.1962 18.1047L14.414 19.814C14.1325 19.9535 14 20.25 14 20.5291V23.8953C14 24.1744 14.1325 24.4709 14.414 24.6453L17.1465 26.3198C17.3783 26.4593 17.693 26.4593 17.958 26.3198L19.8293 25.1686L21.121 24.3837L22.9924 23.2326C23.2242 23.093 23.5389 23.093 23.8038 23.2326L25.2611 24.1221C25.493 24.2616 25.6752 24.5581 25.6752 24.8721V26.6512C25.6752 26.9302 25.5427 27.2267 25.2611 27.4012L23.8369 28.2907C23.6051 28.4302 23.2904 28.4302 23.0255 28.2907L21.5682 27.4012C21.3363 27.2616 21.1541 26.9651 21.1541 26.6512V25.5L19.8624 26.2849V27.4709C19.8624 27.75 19.9949 28.0465 20.2764 28.2209L23.0255 29.8953C23.2573 30.0349 23.572 30.0349 23.8369 29.8953L26.586 28.2384C26.8178 28.0988 27 27.8023 27 27.4884V24.1047C27 23.8256 26.8675 23.5291 26.586 23.3547L23.8369 21.6802Z" fill="#2873FB"/>
</svg>
