<svg width="37" height="47" viewBox="0 0 50 50" fill="none" xmlns="http://www.w3.org/2000/svg">
    <path d="M19.4247 33.5519C17.6683 33.5049 16.0918 34.1026 14.7855 35.3874C13.4793 36.6265 12.8022 38.1867 12.7584 40.0221C12.7123 41.9018 13.2542 43.5098 14.47 44.8406C15.6863 46.2175 17.2176 46.9515 18.9745 46.9975C20.7314 47.0436 22.2627 46.4449 23.5694 45.1588C24.8756 43.9196 25.5961 42.3595 25.6413 40.478C25.6874 38.6425 25.1459 37.0363 23.9296 35.7055C22.7133 34.3287 21.2272 33.5942 19.4251 33.5486L19.4247 33.5519ZM19.0197 46.0798C17.4879 46.0328 16.1817 45.4374 15.0992 44.2443C14.0632 43.0968 13.5679 41.6744 13.6131 40.0682C13.6583 38.462 14.2436 37.0852 15.3695 36.0298C16.4958 34.9283 17.8468 34.378 19.4233 34.4236C20.9551 34.4706 22.2613 35.112 23.2977 36.3032C24.3336 37.4508 24.829 38.8732 24.7843 40.4794C24.7395 42.0855 24.1086 43.4163 22.9822 44.5178C21.8559 45.6193 20.5501 46.124 19.0188 46.0779L19.0197 46.0798ZM36.6764 17.9931C36.7952 17.8754 36.8854 17.7313 36.9401 17.572C36.9948 17.4127 37.0124 17.2427 36.9914 17.0753C36.7664 14.7351 36.181 12.5782 35.1465 10.559C33.1632 6.475 29.875 3.35431 25.7307 1.51882C23.6589 0.601082 21.4518 0.0940452 19.0644 0.00429173C16.7223 -0.0417598 14.47 0.282011 12.353 1.01367C8.07403 2.5282 4.65025 5.41911 2.30854 9.31986C1.18021 11.2917 0.402606 13.4511 0.0115632 15.6985C-0.0345607 16.0659 0.0576872 16.4329 0.281388 16.6623L16.9474 34.651L18.8846 34.3301L21.1815 33.9631C20.7761 33.4579 20.4606 33.137 20.4606 33.137L21.1815 33.9631L36.6764 17.9931ZM20.4606 33.137L25.4143 15.6068C26.4503 14.1844 28.0715 13.3583 29.9183 13.4043C32.0806 13.4513 33.9274 14.8268 34.6931 16.6623L20.4606 33.137ZM14.0217 15.3315C14.5436 14.5908 15.2347 13.9908 16.0351 13.5831C16.8356 13.1753 17.7214 12.9722 18.6161 12.9913C20.4611 13.0383 22.0842 14.0467 23.0302 15.5608L19.3347 31.7601L14.0217 15.3315ZM2.26333 15.4691C3.20934 13.6797 5.10134 12.5322 7.21843 12.5782C8.09444 12.5994 8.95173 12.8409 9.71397 13.2812C10.4762 13.7216 11.1198 14.3471 11.5873 15.1021L17.6231 32.7239L2.2638 15.4691H2.26333Z" fill="#2873FB"/>
    <path d="M21.0535 39.1468C20.9108 39.0654 20.7172 39.0654 20.5541 39.1468L19.3822 39.8285L18.5873 40.266L17.4459 40.9578C17.3032 41.0392 17.1096 41.0392 16.9465 40.9578L16.0497 40.4186C15.907 40.3372 15.7949 40.1642 15.7949 39.9811V38.9331C15.7949 38.7703 15.8764 38.5974 16.0497 38.4956L16.9363 37.9767C17.079 37.8953 17.2726 37.8953 17.4357 37.9767L18.3325 38.516C18.4752 38.5974 18.5873 38.7703 18.5873 38.9535V39.6453L19.3822 39.1875V38.4753C19.3822 38.3125 19.3006 38.1395 19.1274 38.0378L17.4662 37.061C17.3236 36.9797 17.1299 36.9797 16.9669 37.061L15.2548 38.0581C15.0815 38.1395 15 38.3125 15 38.4753V40.439C15 40.6017 15.0815 40.7747 15.2548 40.8765L16.9363 41.8532C17.079 41.9346 17.2726 41.9346 17.4357 41.8532L18.5873 41.1817L19.3822 40.7238L20.5338 40.0523C20.6764 39.9709 20.8701 39.9709 21.0331 40.0523L21.9299 40.5712C22.0726 40.6526 22.1847 40.8256 22.1847 41.0087V42.0465C22.1847 42.2093 22.1032 42.3823 21.9299 42.484L21.0535 43.0029C20.9108 43.0843 20.7172 43.0843 20.5541 43.0029L19.6573 42.484C19.5147 42.4026 19.4025 42.2297 19.4025 42.0465V41.375L18.6076 41.8328V42.5247C18.6076 42.6875 18.6892 42.8605 18.8624 42.9622L20.5541 43.939C20.6968 44.0203 20.8904 44.0203 21.0535 43.939L22.7452 42.9724C22.8879 42.891 23 42.718 23 42.5349V40.561C23 40.3983 22.9185 40.2253 22.7452 40.1235L21.0535 39.1468Z" fill="#2873FB"/>
</svg>
