<svg width="32" height="32" viewBox="0 0 32 32" fill="none" xmlns="http://www.w3.org/2000/svg">
<circle cx="16" cy="16" r="16" fill="white"/>
<path d="M9.22314 20.1702C9.30578 20.0851 9.47107 20 9.71901 20H25.6694C26 20 26.0826 20.3404 25.9174 20.5957L22.7769 23.8298C22.6942 23.9149 22.5289 24 22.281 24H6.33058C6 24 5.91736 23.6596 6.08264 23.4043L9.22314 20.1702Z" fill="#2873FB"/>
<path d="M9.22314 8.17021C9.30578 8.08511 9.47107 8 9.71901 8H25.6694C26 8 26.0826 8.34043 25.9174 8.59574L22.7769 11.8298C22.6942 11.9149 22.5289 12 22.281 12H6.33058C6 12 5.91736 11.6596 6.08264 11.4043L9.22314 8.17021Z" fill="#2873FB"/>
<path d="M22.6942 14.1702C22.6116 14.0851 22.4463 14 22.1983 14H6.33058C6 14 5.91736 14.3404 6.08264 14.5957L9.22314 17.8298C9.30578 17.9149 9.47107 18 9.71901 18H25.6694C26 18 26.0826 17.6596 25.9174 17.4043L22.6942 14.1702Z" fill="#2873FB"/>
</svg>
