<svg width="48" height="48" viewBox="0 0 48 48" fill="none" xmlns="http://www.w3.org/2000/svg">
    <path fill-rule="evenodd" clip-rule="evenodd" d="M24 46C36.1503 46 46 36.1503 46 24C46 11.8497 36.1503 2 24 2C11.8497 2 2 11.8497 2 24C2 36.1503 11.8497 46 24 46ZM24 48C37.2548 48 48 37.2548 48 24C48 10.7452 37.2548 0 24 0C10.7452 0 0 10.7452 0 24C0 37.2548 10.7452 48 24 48Z" fill="#2873FB"/>
    <path d="M15.2853 29.1465C15.3952 29.0352 15.6149 28.9238 15.9446 28.9238H37.1512C37.5907 28.9238 37.7006 29.3692 37.4808 29.7033L33.3054 33.9347C33.1956 34.046 32.9758 34.1574 32.6462 34.1574H11.4395C11 34.1574 10.8901 33.712 11.1099 33.3779L15.2853 29.1465Z" fill="#2873FB"/>
    <path d="M15.2853 13.2227C15.3952 13.1114 15.6149 13 15.9446 13H37.1512C37.5907 13 37.7006 13.4454 37.4808 13.7795L33.3054 18.0109C33.1956 18.1222 32.9758 18.2336 32.6462 18.2336H11.4395C11 18.2336 10.8901 17.7882 11.1099 17.4541L15.2853 13.2227Z" fill="#2873FB"/>
    <path d="M33.1956 21.129C33.0857 21.0176 32.8659 20.9062 32.5363 20.9062H11.4395C11 20.9062 10.8901 21.3517 11.1099 21.6857L15.2853 25.9171C15.3952 26.0285 15.6149 26.1398 15.9446 26.1398H37.1512C37.5907 26.1398 37.7006 25.6944 37.4808 25.3604L33.1956 21.129Z" fill="#2873FB"/>
</svg>
