<?xml version="1.0" encoding="UTF-8" standalone="no"?>
<!-- Created with Inkscape (http://www.inkscape.org/) -->

<svg
   xmlns:dc="http://purl.org/dc/elements/1.1/"
   xmlns:cc="http://creativecommons.org/ns#"
   xmlns:rdf="http://www.w3.org/1999/02/22-rdf-syntax-ns#"
   xmlns:svg="http://www.w3.org/2000/svg"
   xmlns="http://www.w3.org/2000/svg"
   xmlns:sodipodi="http://sodipodi.sourceforge.net/DTD/sodipodi-0.dtd"
   xmlns:inkscape="http://www.inkscape.org/namespaces/inkscape"
   width="128px"
   height="128px"
   viewBox="0 0 128 128"
   version="1.1"
   id="SVGRoot"
   inkscape:version="0.92.3 (unknown)"
   sodipodi:docname="tron.svg">
  <sodipodi:namedview
     id="base"
     pagecolor="#ffffff"
     bordercolor="#666666"
     borderopacity="1.0"
     inkscape:pageopacity="0.0"
     inkscape:pageshadow="2"
     inkscape:zoom="4"
     inkscape:cx="48.636074"
     inkscape:cy="54.003128"
     inkscape:document-units="px"
     inkscape:current-layer="g2000"
     showgrid="false"
     inkscape:window-width="1920"
     inkscape:window-height="1025"
     inkscape:window-x="0"
     inkscape:window-y="27"
     inkscape:window-maximized="1"
     inkscape:grid-bbox="true" />
  <defs
     id="defs1382" />
  <metadata
     id="metadata1385">
    <rdf:RDF>
      <cc:Work
         rdf:about="">
        <dc:format>image/svg+xml</dc:format>
        <dc:type
           rdf:resource="http://purl.org/dc/dcmitype/StillImage" />
        <dc:title></dc:title>
      </cc:Work>
    </rdf:RDF>
  </metadata>
  <g
     id="layer1"
     inkscape:groupmode="layer"
     inkscape:label="Layer 1">
    <g
       id="g2000"
       transform="matrix(0.1,0,0,0.1,30.2,-3.8999999)">
      <path
         style="fill:#e60815;fill-opacity:1;stroke-width:0.59590077"
         d="M 237.55735,1309.0118 C 237.2389,1308.1924 126.4464,1029.445 -8.648157,689.57292 -143.74274,349.70094 -254.8514,70.014906 -255.55631,68.048433 c -0.70492,-1.966472 -1.55165,-3.772418 -1.88161,-4.013214 -0.32996,-0.240786 -0.0191,-0.441903 0.6912,-0.446926 0.7101,-0.0058 1.38048,0.213841 1.48975,0.486341 0.1092,0.272513 211.236896,39.304136 469.17256,86.736956 257.93566,47.4328 469.44017,86.42756 470.00996,86.65501 1.75027,0.69867 244.22071,231.55986 244.04447,232.35988 -0.14917,0.67718 -683.44759,833.59452 -687.94039,838.57582 l -1.89329,2.0992 z M 553.71967,824.85255 C 691.13155,657.4318 803.55943,520.0903 803.55943,519.64926 c 0,-0.44104 -0.59715,-0.80188 -1.32707,-0.80188 -1.60315,0 -432.15417,77.90691 -434.27641,78.58102 -0.81936,0.26026 -1.70029,1.1217 -1.95766,1.91424 -0.74649,2.29917 -64.22976,529.15636 -63.83688,529.79216 0.19509,0.3156 0.66151,0.4714 1.03656,0.3464 0.37507,-0.125 113.10984,-137.20795 250.5217,-304.62865 z M 237.13403,1127.113 c 1.06637,-4.7822 67.43297,-558.07963 67.03181,-558.84286 -0.82377,-1.56731 -431.37852,-358.38349 -432.70492,-358.59814 -1.02383,-0.1657 -1.1887,0.0428 -0.94248,1.1918 0.16415,0.76594 82.010921,206.93369 181.881754,458.15054 99.870756,251.21689 181.821126,457.36126 182.111816,458.09866 0.29073,0.7376 0.93235,1.3408 1.42581,1.3408 0.49346,0 1.0318,-0.6032 1.19621,-1.3408 z M 617.63838,486.69807 c 107.00889,-19.36465 194.8968,-35.3294 195.30649,-35.47723 0.40968,-0.1478 0.74488,-0.67408 0.74488,-1.16947 0,-0.79687 -141.2891,-135.75863 -143.39895,-136.9771 -0.52283,-0.30193 -1.38648,-0.077 -2.28617,0.59591 -4.81405,3.59963 -247.58784,206.21863 -247.8669,206.86969 -0.52719,1.23008 0.25051,2.01237 1.66326,1.67305 0.70169,-0.16852 88.82851,-16.15019 195.83739,-35.51485 z M 466.15188,397.95744 C 551.98056,326.45321 597.35862,288.27638 597.24206,287.67058 597.09852,286.92414 531.14742,274.6135 258.00927,224.34821 71.529265,190.03052 -81.257477,162.16455 -81.51678,162.42385 c -0.259302,0.25931 -0.306175,0.8515 -0.104167,1.31599 0.347728,0.79954 409.360617,340.23274 413.330287,343.01607 1.0325,0.72399 2.16908,1.14658 2.52571,0.93911 0.35664,-0.20749 59.71922,-49.58939 131.91683,-109.73758 z"
         id="path2006"
         inkscape:connector-curvature="0"
         sodipodi:nodetypes="cscsccscccccsssscccsccccscscsssccccsscsscccs" />
    </g>
  </g>
</svg>
