<svg width="32" height="32" viewBox="0 0 32 32" fill="none" xmlns="http://www.w3.org/2000/svg">
<g clip-path="url(#clip0)">
<path fill-rule="evenodd" clip-rule="evenodd" d="M10.7914 9.54029C10.7914 8.08615 9.60844 6.90724 8.149 6.90724C6.68957 6.90724 5.50643 8.08615 5.50537 9.54029V11.0249V15.9865C5.50537 15.9865 5.61064 17.9005 5.85802 18.3286C6.85778 21.5598 9.87081 23.9074 13.4329 23.9074C14.1516 23.9074 14.848 23.8118 15.51 23.6327C15.5214 19.8891 18.0199 16.7309 21.4398 15.7233V15.6194C21.4275 15.6127 21.415 15.6062 21.4026 15.5997C21.3887 15.5925 21.3747 15.5853 21.361 15.5776V11.0249V9.54029C21.361 8.08615 20.1778 6.90724 18.7186 6.90724C17.2593 6.90724 16.0762 8.08615 16.0762 9.54029V15.5032V16.0438C16.0762 17.4982 14.8932 18.6771 13.4338 18.6771C11.9745 18.6771 10.7914 17.4982 10.7914 16.0438V15.6217V9.54029ZM26.4879 15.8403C28.4573 16.522 30.0891 17.9268 31.0657 19.7372C31.3059 19.2916 31.5046 18.8203 31.6567 18.3286C31.9041 17.9005 32.0094 15.9865 32.0094 15.9865C32.0094 15.9865 31.7607 10.6448 31.2995 7.61642C30.8465 4.64201 29.4853 2.34362 26.8034 0.533477C24.1215 -1.27667 22.0707 1.98515 23.4116 3.40174L23.4577 3.45045C24.776 4.84294 25.7815 5.90499 26.0935 7.61642C26.4091 9.34775 26.4879 15.5052 26.4879 15.5052V15.8403Z" fill="#FCD600"/>
<path fill-rule="evenodd" clip-rule="evenodd" d="M26.5036 15.8458C25.6511 15.5487 24.735 15.3873 23.7812 15.3873C22.8866 15.3873 22.0251 15.5293 21.2181 15.7921V10.1201V9.698C21.2181 8.24368 20.035 7.06495 18.5756 7.06495C17.1161 7.06495 16.1924 8.24386 16.1924 9.698V10.2386V16.2014C16.1924 17.6555 14.75 18.8344 13.2908 18.8344C11.8314 18.8344 10.6484 17.6555 10.6484 16.2014V14.7167V10.164C10.6346 10.1564 10.6207 10.1492 10.6068 10.1419C10.5943 10.1355 10.5819 10.129 10.5696 10.1222V9.698C10.5696 8.24368 9.62307 7.06495 8.16381 7.06495C6.70437 7.06495 5.52142 8.24386 5.52142 9.698V10.2367C5.52142 10.2367 5.60023 16.3941 5.91585 18.1254C6.22785 19.8368 7.23332 20.8989 8.55163 22.2914L8.59774 22.3401C9.93869 23.7567 7.88786 27.0185 5.20597 25.2084C2.52408 23.3982 1.16286 21.0998 0.709881 18.1254C0.248617 15.097 0 9.75531 0 9.75531C0 9.75531 0.105266 7.84131 0.352648 7.41319C1.35223 4.18205 4.36526 1.83447 7.92754 1.83447C9.97695 1.83447 11.8448 2.61171 13.252 3.88706C14.6591 2.61171 16.5269 1.83447 18.5763 1.83447C22.1384 1.83447 25.1514 4.18205 26.151 7.41319C26.3984 7.84131 26.5036 9.75531 26.5036 9.75531V14.7169V15.8458Z" fill="#4D525D"/>
<path d="M30.6335 23.6583C30.6335 27.4427 27.5657 30.5105 23.7814 30.5105C19.997 30.5105 16.9292 27.4427 16.9292 23.6583C16.9292 19.874 19.997 16.8062 23.7814 16.8062C27.5657 16.8062 30.6335 19.874 30.6335 23.6583Z" fill="#526478"/>
<circle cx="24" cy="23" r="7.70954" fill="#FCD600" stroke="white" stroke-width="1.41909"/>
<path fill-rule="evenodd" clip-rule="evenodd" d="M20 23.0727L23.8914 24.879V18L20 23.0727ZM23.8924 18V24.879L28 23.0727L23.8924 18ZM20 23.5775L23.8914 27.9998V25.4321L20 23.5775ZM23.8924 25.4321V27.9998L28 23.5775L23.8924 25.4321Z" fill="#536478"/>
</g>
<defs>
<clipPath id="clip0">
<rect width="32" height="32" fill="white"/>
</clipPath>
</defs>
</svg>
