<svg width="305" height="245" viewBox="0 0 305 245" fill="none" xmlns="http://www.w3.org/2000/svg">
<path fill-rule="evenodd" clip-rule="evenodd" d="M227.256 179.255C213.366 179.255 202.107 168.035 202.107 154.195V96.3155V92.298C202.107 78.4565 190.847 67.238 176.957 67.238C163.066 67.238 154.275 78.4582 154.275 92.298V97.4432V154.194C154.275 168.033 140.547 179.254 126.659 179.254C112.769 179.254 101.51 168.033 101.51 154.194V140.063V96.7334C101.262 96.5957 101.008 96.4716 100.76 96.3356V92.298C100.76 78.4565 91.7514 67.238 77.8629 67.238C63.9728 67.238 52.714 78.4582 52.714 92.298V97.4248C52.714 97.4248 53.4641 156.028 56.4681 172.506C59.472 188.984 69.2305 199.136 81.9929 212.619C94.7553 226.101 75.2366 257.145 49.7118 239.917C24.187 222.689 11.2315 200.815 6.92034 172.506C2.53027 143.683 0.164062 92.8434 0.164062 92.8434C0.164062 92.8434 1.16592 74.6269 3.52038 70.5524C13.0339 39.8001 41.7103 17.457 75.6142 17.457C95.1195 17.457 112.896 24.8544 126.29 36.9925C139.681 24.8544 157.458 17.457 176.963 17.457C210.866 17.457 239.542 39.8001 249.055 70.5524C251.41 74.6269 252.412 92.8434 252.412 92.8434V140.065V154.195C252.405 168.035 241.146 179.255 227.256 179.255Z" fill="#4D525D"/>
<path fill-rule="evenodd" clip-rule="evenodd" d="M77.7227 65.7395C91.6128 65.7395 102.872 76.9597 102.872 90.7995V148.679V152.697C102.872 166.538 114.132 177.758 128.021 177.758C141.911 177.758 153.169 166.538 153.169 152.697V147.552V90.7995C153.169 76.9597 164.43 65.7395 178.318 65.7395C192.207 65.7395 203.467 76.9597 203.467 90.7995V104.93V148.26C203.716 148.397 203.969 148.521 204.217 148.657V152.697C204.217 166.538 213.226 177.758 227.114 177.758C241.004 177.758 252.263 166.538 252.263 152.697V147.57C252.263 147.57 251.513 88.9669 248.509 72.4891C245.505 56.0112 235.747 45.8583 222.984 32.376C210.222 18.8936 229.741 -12.1506 255.265 5.07735C280.79 22.3054 293.746 44.1802 298.057 72.4891C302.447 101.311 304.813 152.151 304.813 152.151C304.813 152.151 303.811 170.368 301.457 174.442C291.943 205.195 263.267 227.538 229.363 227.538C209.858 227.538 192.081 220.14 178.688 208.002C165.294 220.14 147.519 227.538 128.012 227.538C94.1099 227.538 65.4335 205.195 55.9183 174.442C53.5639 170.368 52.562 152.151 52.562 152.151V104.93V90.7995C52.5721 76.9597 63.8326 65.7395 77.7227 65.7395Z" fill="#FCD600"/>
</svg>
