<svg width="48" height="48" viewBox="0 0 66 62" fill="none" xmlns="http://www.w3.org/2000/svg">
    <rect width="66" height="62" fill="none"/>
    <path d="M44 26.7607C39.2535 8.7358 17.5003 13.6121 16.0103 26.7607C19.0286 28.459 19.7135 28.8583 19.7135 28.8583C19.7135 28.8583 18.547 29.6039 16 31.2217C19.238 48.5503 42.709 45.2199 43.9952 31.2006C41.6265 29.7159 40.2293 28.8507 40.2293 28.8507C40.2293 28.8507 43.4231 27.0655 44 26.7607ZM32.2033 34.651L29.7192 30.3808L27.1907 34.651L25.2833 34.5202L28.8761 28.4634L25.6382 23.2349L27.5898 23.0604L29.8964 26.9385L32.2033 23.2349L34.0219 23.2783L31.0054 28.4199L34.3323 34.6072L32.2033 34.651Z" fill="white"/>
    <path fill-rule="evenodd" clip-rule="evenodd" d="M30 51C42.1503 51 52 41.1503 52 29C52 16.8497 42.1503 7 30 7C17.8497 7 8 16.8497 8 29C8 41.1503 17.8497 51 30 51ZM30 53C43.2548 53 54 42.2548 54 29C54 15.7452 43.2548 5 30 5C16.7452 5 6 15.7452 6 29C6 42.2548 16.7452 53 30 53Z" fill="white"/>
</svg>
