<svg width="24" height="24" viewBox="0 0 24 24" fill="none" xmlns="http://www.w3.org/2000/svg">
    <path d="M24 10.0806C19.9316 -5.36932 1.28594 -1.1896 0.00880547 10.0806C2.59596 11.5362 3.18302 11.8785 3.18302 11.8785C3.18302 11.8785 2.18311 12.5177 0 13.9043C2.77545 28.7574 22.8934 25.9028 23.9959 13.8862C21.9656 12.6136 20.768 11.872 20.768 11.872C20.768 11.872 23.5056 10.3419 24 10.0806ZM13.8886 16.8437L11.7593 13.1835L9.59204 16.8437L7.9571 16.7316L11.0366 11.5401L8.26134 7.05845L9.93415 6.9089L11.9112 10.233L13.8886 7.05845L15.4473 7.09573L12.8618 11.5028L15.7134 16.8061L13.8886 16.8437Z" fill="#244B81"/>
</svg>
