<svg width="55" height="47" viewBox="0 0 55 47" version="1.1" xmlns="http://www.w3.org/2000/svg" xmlns:xlink="http://www.w3.org/1999/xlink">
<title>49773262776ac5092b82b4e930c5aaa3</title>
<desc>Created using Figma</desc>
<g id="Canvas" transform="translate(-3849 -496)">
<g id="49773262776ac5092b82b4e930c5aaa3">
<g id="Group">
<g id="Group">
<g id="Vector">
<use xlink:href="#path0_fill" transform="matrix(0.1 0 0 -0.1 3868.12 518.449)" fill="#FFFFFF"/>
</g>
<g id="Vector">
<use xlink:href="#path1_fill" transform="matrix(0.1 0 0 -0.1 3875.41 514.51)" fill="#FFFFFF"/>
</g>
<g id="Vector">
<use xlink:href="#path2_fill" transform="matrix(0.1 0 0 -0.1 3849 543)" fill="#FFFFFF"/>
</g>
</g>
</g>
</g>
</g>
<defs>
<path id="path0_fill" d="M 100.563 224.001C 73.6227 221.746 48.6607 209.194 29.2017 188.321C 18.0578 176.475 10.3062 163.359 4.65966 146.575C 0.289383 134.022 0.0075976 131.906 0.0075976 113.431C -0.136052 90.5853 1.69825 81.983 10.4443 63.6459C 25.5331 31.9164 51.9094 10.7615 86.4628 2.44102C 102.541 -1.36563 128.773 -0.658446 143.718 4.13164C 182.222 16.2588 209.72 44.7452 220.72 83.8118C 225.516 100.596 225.234 125.558 220.013 143.044C 203.935 196.36 155.989 228.934 100.563 224.001ZM 135.254 199.321C 158.244 193.398 181.935 173.934 192.371 152.077C 202.526 130.923 204.642 107.933 198.576 87.3477C 189.692 57.0215 163.741 32.06 133.138 24.4412C 119.602 21.0544 94.7779 22.3251 82.0815 26.9826C 54.8653 37.1374 34.13 58.4304 25.8093 84.5245C 21.5772 97.6406 20.7319 117.95 23.6933 131.63C 28.7707 153.912 42.5888 174.365 61.0644 186.774C 83.4959 201.575 109.021 205.945 135.254 199.321Z"/>
<path id="path1_fill" d="M 34.9054 141.734C 34.9054 138.773 34.1982 138.209 31.0987 138.209C 26.3031 138.209 13.8941 132.568 10.651 128.9C 9.24211 127.347 6.84429 122.977 5.15367 119.17C 1.06522 109.86 1.91052 96.8875 7.2697 88.8485C 11.22 82.782 22.7837 75.3066 30.3971 73.8977L 34.9109 73.0524L 34.9109 49.7808L 34.9109 26.5092L 31.1043 27.4982C 24.0545 29.1889 15.1704 40.6147 15.1704 47.8084C 15.1704 51.7588 13.8996 52.1787 6.28628 50.488C -0.34364 49.0791 -0.481774 49.0791 0.36354 44.7088C 0.927083 42.1673 2.89949 36.8135 4.87742 32.7194C 8.96587 23.9732 16.7229 18.194 28.0048 15.5144L 34.9165 13.8237L 34.9165 6.91185C 34.9165 0.143649 35.0546 -1.34889e-06 39.1486 -1.34889e-06C 43.237 -1.34889e-06 43.3807 0.14365 43.3807 6.7682L 43.3807 13.68L 51.8393 15.9343C 67.9169 20.4483 77.3645 33.0012 77.3645 49.7808C 77.3645 67.2676 69.4694 77.2846 51.4139 82.5002L 43.3751 84.7544L 43.3751 105.91C 43.3751 117.474 43.795 126.922 44.2205 126.922C 45.773 126.922 51.2703 123.678 54.3753 120.855C 56.0659 119.303 58.1819 115.64 58.8891 112.816L 60.298 107.601L 66.6461 108.59C 70.171 109.153 73.4142 109.998 73.9777 110.424C 75.6684 112.258 71.4418 122.695 66.9279 127.911C 61.9942 133.552 53.2482 138.066 47.3255 138.204C 44.0823 138.204 43.3751 138.767 43.3751 141.729C 43.3751 144.69 42.668 145.254 39.143 145.254C 35.6126 145.259 34.9054 144.696 34.9054 141.734ZM 34.9054 107.181C 34.9054 94.346 34.3419 87.4341 33.4966 87.4341C 30.817 87.4341 24.4688 91.2409 20.9439 95.0476C 15.8665 100.407 15.303 110.562 19.6732 117.048C 22.4909 121.281 30.5352 126.922 33.9165 126.922C 34.4855 126.927 34.9054 118.043 34.9054 107.181ZM 54.3697 65.9969C 56.9057 64.4443 59.8726 61.3448 60.9996 59.2287C 65.9334 49.7808 61.845 35.3935 52.8228 29.7525C 43.5132 23.9677 43.3751 24.2495 43.3751 48.7918L 43.3751 70.6545L 46.6183 69.8092C 48.3034 69.2401 51.8338 67.5494 54.3697 65.9969Z"/>
<path id="path2_fill" d="M 182.634 198.588C 176.43 198.025 158.236 195.489 142.158 193.229C 113.528 189.14 111.555 188.997 56.4102 188.997L 0 188.997L 0 106.491L 0 23.9844L 45.2718 23.9844L 90.6817 23.9844L 95.1956 18.7632C 99.2841 14.1111 100.555 13.4039 105.914 13.4039C 110.992 13.4039 114.091 14.6746 123.119 20.8793C 129.185 24.8298 135.81 28.6365 137.644 29.0564C 142.158 30.1836 144.13 29.9018 198.85 20.592C 277.542 7.33732 333.251 -5.02504e-14 356.804 -5.02504e-14C 365.97 -5.02504e-14 371.047 0.988989 381.909 4.514C 399.396 10.2932 455.386 38.2226 484.442 55.7095C 522.802 78.6994 534.648 89.4181 539.443 104.933C 542.549 115.088 542.123 121.149 537.609 129.895C 532.25 140.47 523.366 145.973 511.377 145.973C 503.901 145.973 500.52 144.846 485.851 137.934C 463.569 127.359 450.591 123.265 425.91 119.038C 414.628 117.066 404.617 115.088 403.485 114.806C 401.65 114.242 401.932 108.883 404.192 96.8935C 405.037 92.9431 405.181 92.9431 412.231 93.7884C 426.474 95.6227 454.961 101.689 465.398 105.214C 471.177 107.187 483.31 112.264 492.332 116.497C 509.962 124.817 513.062 125.381 516.592 121.574C 523.786 113.679 514.62 101.126 489.94 85.1859C 459.624 65.7375 404.761 37.1065 378.39 26.9514C 368.517 23.2827 364.854 22.581 354.417 22.581C 330.019 22.581 253.155 33.1561 174.181 47.4053C 141.887 53.3282 135.539 53.1845 122.705 46.8417C 117.771 44.3057 114.24 43.1731 114.24 44.1621C 114.24 45.4328 122.561 168.554 122.705 168.554C 125.24 168.554 134.55 169.681 156.551 172.643C 211.27 179.974 222.414 179.974 254.989 172.643C 287.001 165.449 371.622 140.625 375.009 137.525C 376.279 136.398 376.561 134.282 375.998 132.028C 372.898 119.756 331.433 115.524 287.57 123.143C 276.145 125.121 265.288 127.232 263.454 127.657C 259.365 128.646 258.802 127.519 257.249 114.121L 256.404 106.364L 273.045 103.258C 302.095 97.8991 309.151 97.0537 329.317 97.0537C 361.473 97.0537 381.075 102.557 391.086 114.403C 405.893 131.608 398.844 155.443 376.981 161.648C 372.467 162.918 355.119 167.996 338.477 173.068C 302.234 183.93 259.641 194.931 241.309 198.03C 226.922 200.423 201.253 200.704 182.634 198.588ZM 99.5714 157.686C 99.146 152.752 97.4553 128.492 95.9028 103.673C 94.3503 78.8541 92.6596 55.8642 92.2342 52.6154L 91.527 46.5489L 56.9737 46.5489L 22.5641 46.5489L 22.5641 106.491L 22.5641 166.432L 61.4876 166.432L 100.411 166.432L 99.5714 157.686Z"/>
</defs>
</svg>
