<svg width="48" height="47" viewBox="0 0 48 47" version="1.1" xmlns="http://www.w3.org/2000/svg" xmlns:xlink="http://www.w3.org/1999/xlink">
<title>Vector</title>
<desc>Created using Figma</desc>
<g id="Canvas" transform="translate(175 -3949)">
<g id="Vector">
<use xlink:href="#path0_fill" transform="translate(-175 3949)" fill="#FFFFFF"/>
</g>
</g>
<defs>
<path id="path0_fill" d="M 21.5621 21.586C 21.7347 21.586 21.9074 21.5237 22.0465 21.4038L 38.6678 6.83078L 37.6988 5.7275L 21.0776 20.3005C 20.7706 20.5691 20.7418 21.0296 21.0104 21.3366C 21.1591 21.5045 21.3606 21.586 21.5621 21.586ZM 14.9615 47C 23.9797 47 29.3714 39.9054 29.3714 33.0458C 29.3714 31.0695 28.8965 28.8917 28.201 27.4766L 34.8399 24.1572C 35.0893 24.0325 35.2476 23.7782 35.2476 23.5L 35.2476 17.6238L 39.6511 17.6238C 39.6655 17.6238 39.7999 17.6142 39.819 17.6142C 40.7976 17.547 41.0902 17.2353 41.1238 16.1559L 41.1238 10.2845L 45.5274 10.2845C 45.7144 10.2845 45.8487 10.3037 45.9351 10.3181C 46.1126 10.3469 46.4436 10.3997 46.7314 10.1406C 47.0288 9.87681 47.0144 9.54103 47.0048 9.24842C 47 9.14289 46.9952 9.00378 46.9952 8.82149L 46.9952 2.1586C 46.9952 0.968973 46.0262 1.82987e-08 44.8366 1.82987e-08L 39.1475 1.82987e-08C 38.6294 1.82987e-08 38.1209 0.187079 37.7228 0.532456L 18.3577 17.5135C 17.4031 17.3216 15.9641 17.0722 14.9615 17.0722C 6.71086 17.077 0 23.7878 0 32.0337C 0 40.2795 6.71086 47 14.9615 47ZM 14.9615 18.5448C 15.6954 18.5448 16.957 18.7223 18.4201 19.0245C 18.6455 19.0725 18.8806 19.0101 19.0533 18.8566L 38.6918 1.64534C 38.8213 1.53501 38.9844 1.47265 39.1475 1.47265L 44.8366 1.47265C 45.2156 1.47265 45.5274 1.77965 45.5274 2.1634L 45.5274 8.8167L 40.3851 8.8167C 39.9773 8.8167 39.6511 9.14768 39.6511 9.55062L 39.6511 16.1607L 34.5137 16.1607C 34.1059 16.1607 33.7798 16.4917 33.7798 16.8947L 33.7798 23.0491L 26.8434 26.5173C 26.6516 26.6132 26.5124 26.7907 26.4597 26.9969C 26.4069 27.2032 26.4501 27.4287 26.5748 27.6013C 27.2224 28.4936 27.9036 30.7049 27.9036 33.0458C 27.9036 39.1811 23.0635 45.5274 14.9615 45.5274C 7.52153 45.5274 1.46785 39.4737 1.46785 32.0337C 1.46785 24.5937 7.52153 18.5448 14.9615 18.5448ZM 12.4815 39.6559C 15.3165 39.6559 17.6238 37.3486 17.6238 34.5137C 17.6238 31.6787 15.3165 29.3714 12.4815 29.3714C 9.64656 29.3714 7.33925 31.6787 7.33925 34.5137C 7.34405 37.3486 9.64656 39.6559 12.4815 39.6559ZM 12.4815 30.844C 14.5058 30.844 16.1512 32.4942 16.1512 34.5137C 16.1512 36.5332 14.501 38.1833 12.4815 38.1833C 10.462 38.1833 8.8119 36.5332 8.8119 34.5137C 8.8119 32.4942 10.4572 30.844 12.4815 30.844Z"/>
</defs>
</svg>
