<svg width="40" height="47" viewBox="0 0 40 47" version="1.1" xmlns="http://www.w3.org/2000/svg" xmlns:xlink="http://www.w3.org/1999/xlink">
<title>Vector</title>
<desc>Created using Figma</desc>
<g id="Canvas" transform="translate(-108 -3945)">
<g id="Vector">
<use xlink:href="#path0_fill" transform="translate(108 3945)" fill="#FFFFFF"/>
</g>
</g>
<defs>
<path id="path0_fill" d="M 19.5817 36.8087C 17.6682 32.2861 12.2248 33.3412 12.1864 38.588C 12.1672 41.4703 14.7762 42.5494 16.5171 43.7004C 18.2053 44.8179 19.4043 46.3478 19.5913 47C 19.7544 46.3621 21.0877 44.7891 22.6511 43.6716C 24.3585 42.4487 27.001 41.4415 26.9818 38.5592C 26.9483 33.2981 21.409 32.4684 19.5817 36.8087ZM 39.1635 32.1662C 39.1635 28.7515 36.425 25.9795 33.0439 25.9795L 6.11959 25.9795C 2.74327 25.9795 -7.31799e-08 28.7515 -7.31799e-08 32.1662L -7.31799e-08 40.8277L 0.0335716 40.8277C 0.0143879 40.9284 -7.31799e-08 41.0291 -7.31799e-08 41.1346C -7.31799e-08 41.9883 0.685816 42.6837 1.5299 42.6837C 2.37398 42.6837 3.0598 41.9883 3.0598 41.1346C 3.0598 41.0291 3.0502 40.9284 3.03102 40.8277L 3.0598 40.8277L 3.0598 32.171C 3.0598 30.4637 4.42663 29.0777 6.11959 29.0777L 33.0439 29.0777C 34.732 29.0777 36.1037 30.4589 36.1037 32.171L 36.1037 40.8325L 36.1372 40.8325C 36.1181 40.9332 36.1037 41.0339 36.1037 41.1394C 36.1037 41.9931 36.7895 42.6885 37.6336 42.6885C 38.4777 42.6885 39.1635 41.9931 39.1635 41.1394C 39.1635 41.0339 39.1539 40.9332 39.1347 40.8325L 39.1635 40.8325L 39.1635 32.1662ZM 19.5817 23.5096C 26.0035 23.5096 31.207 18.2437 31.207 11.7548C 31.2118 5.26592 26.0035 0 19.5817 0C 13.16 0 7.95643 5.26592 7.95643 11.7548C 7.95643 18.2437 13.16 23.5096 19.5817 23.5096ZM 19.5817 3.09337C 24.3153 3.09337 28.1472 6.97327 28.1472 11.7548C 28.1472 16.5411 24.3153 20.4162 19.5817 20.4162C 14.8482 20.4162 11.0162 16.5411 11.0162 11.7548C 11.0162 6.96847 14.853 3.09337 19.5817 3.09337Z"/>
</defs>
</svg>
