<svg width="47" height="47" viewBox="0 0 47 47" version="1.1" xmlns="http://www.w3.org/2000/svg" xmlns:xlink="http://www.w3.org/1999/xlink">
<title>Vector</title>
<desc>Created using Figma</desc>
<g id="Canvas" transform="translate(451 -3947)">
<g id="Vector">
<use xlink:href="#path0_fill" transform="translate(-451 3947)" fill="#FFFFFF"/>
</g>
</g>
<defs>
<path id="path0_fill" d="M 46.6378 9.37522L 37.6402 0.363902C 37.3285 0.0518424 36.8728 -0.0729815 36.446 0.0422405L 24.1534 3.34047C 24.1246 3.35007 24.1007 3.35967 24.0719 3.36928C 24.0383 3.37888 24.0095 3.38848 23.976 3.40288C 23.9328 3.42209 23.8896 3.44609 23.8465 3.47009C 23.8225 3.4845 23.7985 3.4941 23.7745 3.5085C 23.7074 3.55171 23.6498 3.59972 23.5923 3.65733C 23.5923 3.65733 23.5923 3.66213 23.5875 3.66213C 23.5347 3.71494 23.4868 3.77255 23.4436 3.83496C 23.4292 3.85897 23.4148 3.88297 23.4004 3.90698C 23.3764 3.95019 23.3525 3.98859 23.3333 4.0366C 23.3189 4.06541 23.3093 4.09421 23.2997 4.12302C 23.2853 4.16623 23.2709 4.20944 23.2613 4.25264C 23.2517 4.28145 23.247 4.31506 23.2422 4.34386C 23.2374 4.38707 23.2326 4.43028 23.2278 4.47349C 23.2278 4.50709 23.223 4.5407 23.2278 4.57431C 23.2278 4.58871 23.2278 4.60791 23.2278 4.62231L 23.7505 11.9053C 17.2805 9.70648 10.1583 11.3388 5.26138 16.2405C 1.8705 19.6444 0 24.1668 0 28.9822C 0 33.7927 1.8705 38.3199 5.27097 41.7238C 8.67144 45.1276 13.1894 47 18 47C 22.8057 47 27.3285 45.1276 30.729 41.7238C 35.621 36.8269 37.2469 29.7311 35.0743 23.2643L 42.3836 23.7876C 42.4124 23.7876 42.4412 23.7924 42.4699 23.7924C 42.5467 23.7924 42.6186 23.7828 42.6906 23.7732C 42.7145 23.7684 42.7337 23.7636 42.7577 23.754C 42.8057 23.7396 42.8584 23.73 42.9064 23.7108C 42.9304 23.7012 42.9591 23.6868 42.9831 23.6772C 43.0263 23.6579 43.0695 23.6339 43.1078 23.6099C 43.1318 23.5955 43.1558 23.5811 43.1798 23.5667C 43.2277 23.5331 43.2661 23.4995 43.3093 23.4611C 43.3189 23.4515 43.3332 23.4419 43.3428 23.4323C 43.3476 23.4275 43.3476 23.4227 43.3524 23.4227C 43.4052 23.3699 43.4531 23.3075 43.4963 23.2451C 43.5059 23.2307 43.5107 23.2163 43.5203 23.2019C 43.5491 23.1538 43.5778 23.101 43.6018 23.0482C 43.6114 23.0194 43.621 22.9954 43.6306 22.9666C 43.6402 22.9378 43.6546 22.909 43.6594 22.8802L 46.9543 10.5755C 47.0742 10.1386 46.9543 9.68728 46.6378 9.37522ZM 41.832 20.1629L 35.8273 14.1569L 44.0766 11.7853L 41.832 20.1629ZM 28.2925 20.2973L 33.3812 15.2035L 39.2565 21.0847L 28.2925 20.2973ZM 43.2277 9.45684L 35.1846 11.7661L 37.2421 3.46529L 43.2277 9.45684ZM 32.8009 11.1228L 26.8585 5.17442L 34.8009 3.04761L 32.8009 11.1228ZM 31.6306 13.4512L 26.705 18.3865L 25.9424 7.75731L 31.6306 13.4512ZM 24.5659 22.3185C 28.2206 25.9768 28.2206 31.9251 24.5659 35.5834C 22.7961 37.355 20.4412 38.3295 17.9424 38.3295C 15.4436 38.3295 13.0887 37.355 11.3189 35.5834C 7.66425 31.9251 7.66425 25.9768 11.3189 22.3185C 13.0887 20.547 15.4436 19.5724 17.9424 19.5724C 20.4412 19.5724 22.8009 20.547 24.5659 22.3185ZM 28.9784 39.9715C 26.0431 42.9048 22.1438 44.5227 18 44.5227C 13.8561 44.5227 9.95202 42.9048 7.02157 39.9715C 4.08632 37.0381 2.47002 33.1302 2.47002 28.9822C 2.47002 24.8294 4.08632 20.9262 7.01677 17.9929C 11.4916 13.5136 18.1199 12.203 23.952 14.6274L 24.2589 18.9338C 22.3836 17.7432 20.211 17.1047 17.9376 17.1047C 14.7769 17.1047 11.8033 18.3385 9.56353 20.5758C 4.94483 25.199 4.94483 32.7173 9.56353 37.3406C 11.7985 39.5778 14.7722 40.8116 17.9376 40.8116C 21.1031 40.8116 24.0767 39.5778 26.3117 37.3406C 30.2589 33.3894 30.8297 27.3258 28.0335 22.765L 32.3596 23.077C 34.7577 28.8957 33.4484 35.497 28.9784 39.9715Z"/>
</defs>
</svg>
