<svg xmlns="http://www.w3.org/2000/svg" viewBox="0 0 452.76 271.75"><defs><style>.cls-1{fill:#1418ff;}.cls-2{fill:#fff;}.cls-3{fill:none;stroke:#e6e6e6;stroke-miterlimit:10;stroke-width:10px;}</style></defs><title>45Asset 1SVG</title><g id="Layer_2" data-name="Layer 2"><g id="Layer_1-2" data-name="Layer 1"><path class="cls-1" d="M312.85,259.75H131.91C67.48,259.82,12,204.34,12,135.91h0A123.91,123.91,0,0,1,135.91,12H316.85A123.91,123.91,0,0,1,440.76,135.91h0C440.76,204.34,385.29,259.82,312.85,259.75Z"/><path class="cls-2" d="M316.85,12A123.91,123.91,0,0,1,440.76,135.91h0c0,68.39-55.4,123.84-127.76,123.84H131.78C67.4,259.75,12,204.3,12,135.91h0A123.91,123.91,0,0,1,135.91,12H316.85m0-12H135.91A135.92,135.92,0,0,0,0,135.91a136.55,136.55,0,0,0,39.17,96A133.65,133.65,0,0,0,81.07,261a125.31,125.31,0,0,0,50.71,10.75H313c37.95,0,73.26-14.1,99.41-39.7a133.47,133.47,0,0,0,40.35-96.14A135.9,135.9,0,0,0,316.85,0Z"/><path class="cls-3" d="M312.85,259.75H131.91C67.48,259.82,12,204.34,12,135.91h0A123.91,123.91,0,0,1,135.91,12H316.85A123.91,123.91,0,0,1,440.76,135.91h0C440.76,204.34,385.29,259.82,312.85,259.75Z"/><path class="cls-2" d="M111.56,70.1a68.82,68.82,0,0,1,21.54-3.43l186.7.19A69.11,69.11,0,0,1,361.56,191l27,13A96.75,96.75,0,0,0,319.83,39.2L133.13,39A96.26,96.26,0,0,0,80,54.85Z"/><path class="cls-2" d="M334.08,203.64a68.56,68.56,0,0,1-14.42,1.51L133,205A69.11,69.11,0,0,1,87.1,84.19L60.78,71.47a96.75,96.75,0,0,0,72.16,161.15l186.69.19A96.24,96.24,0,0,0,367.85,220Z"/><path class="cls-2" d="M91.07,119q11.76-5.16,20.57-5.16,10,0,14.46,4.25,4.23,3.88,4.22,12.35l0,24.33c0,2,.7,2.94,2.12,2.94a16.08,16.08,0,0,0,3.52-.58l1.88,7.05A24.3,24.3,0,0,1,126.87,167q-6.47,0-9.4-4.94Q110.89,167,105.12,167q-18.57,0-18.55-17.89,0-8.1,5.89-12.57,5.06-3.63,14.11-3.63a42.73,42.73,0,0,1,10.11,1.42V131q0-8.34-9-8.35A34.73,34.73,0,0,0,94,125.61Zm25.6,23.3a35.87,35.87,0,0,0-8.35-1.3q-7.51,0-7.53,8.69,0,8.1,7.4,8.11,3.77,0,8.47-2.93Z"/><path class="cls-2" d="M157,147.3c0,3.53.58,5.92,1.76,7.18q1.53,1.76,5.17,1.77,5.29,0,11.64-4.58l0-36.32h14.22l-.05,50.31H175.54v-4.58q-8.46,6-15.29,6-17.38,0-17.38-17.18l0-34.56H157Z"/><path class="cls-2" d="M215.4,150.42q0,6.93,5.28,6.94A25.68,25.68,0,0,0,228,156l1.76,7.64q-7.29,3.53-12.7,3.51-15.87,0-15.85-17.06l0-47,14.22,0v12.34H228.6v10.23H215.43Z"/><path class="cls-2" d="M235.37,165.72l.08-79.93h14.11l0,32.8q8.82-4.57,15.76-4.57,17,0,17,17.77l0,34-14.34,0,0-32.09c0-3.13-.58-5.39-1.75-6.76s-3.25-2.06-6.23-2.06a21.7,21.7,0,0,0-10.47,3l0,37.85Z"/><path class="cls-2" d="M292.1,98.07a7.93,7.93,0,0,1,2.53-5.88,8.94,8.94,0,0,1,12.34,0,7.89,7.89,0,0,1,2.52,5.88A7.71,7.71,0,0,1,307,103.9a9,9,0,0,1-12.28,0A7.62,7.62,0,0,1,292.1,98.07Zm1.46,67.71.05-50.31H308l-.05,50.31Z"/><path class="cls-2" d="M324.36,159.34q-7-7.51-7-18.69,0-12.7,7.19-19.74,6.83-6.81,18.94-6.8t19,6.83q7,7.06,7,19.76,0,11.18-7.08,18.68-7.41,7.88-19.05,7.86T324.36,159.34Zm19-1.15q11.3,0,11.31-17.51t-11.27-17.4q-11.29,0-11.3,17.38T343.4,158.19Z"/></g></g></svg>