<svg width="1023" height="104" viewBox="0 0 1023 104" fill="none" xmlns="http://www.w3.org/2000/svg">
<path fill-rule="evenodd" clip-rule="evenodd" d="M160.457 101.619H186.485V70.548H200.2L216.66 101.619H244.025L224.155 65.656L225.961 64.623C227.425 63.7773 228.775 62.7469 229.976 61.557C231.738 59.8875 233.35 58.0661 234.793 56.114C236.602 53.5736 237.992 50.7591 238.908 47.778C240.068 44.2082 240.644 40.4745 240.614 36.721C240.721 32.2334 239.899 27.7722 238.201 23.617C236.503 19.4618 233.964 15.7022 230.745 12.574C224.166 6.07467 215.813 2.825 205.688 2.825H160.457V101.619ZM214.587 36.686C214.622 37.9981 214.384 39.3031 213.889 40.5186C213.394 41.7342 212.652 42.8338 211.71 43.748C210.726 44.6941 209.561 45.4319 208.284 45.9173C207.008 46.4027 205.647 46.6257 204.283 46.573H186.483V26.873H204.283C205.644 26.8196 207.003 27.0389 208.278 27.5181C209.554 27.9972 210.72 28.7265 211.71 29.663C212.652 30.5685 213.395 31.661 213.891 32.8705C214.386 34.0799 214.623 35.3795 214.587 36.686ZM276.214 67.034C276.118 63.1587 277.52 59.3955 280.128 56.528C281.232 55.1819 282.621 54.0975 284.194 53.353C285.768 52.6084 287.487 52.2222 289.228 52.2222C290.969 52.2222 292.688 52.6084 294.262 53.353C295.835 54.0975 297.224 55.1819 298.328 56.528C300.937 59.3955 302.339 63.1587 302.242 67.034C302.338 70.9093 300.936 74.6724 298.328 77.54C297.224 78.8861 295.835 79.9705 294.262 80.715C292.688 81.4596 290.969 81.8458 289.228 81.8458C287.487 81.8458 285.768 81.4596 284.194 80.715C282.621 79.9705 281.232 78.8861 280.128 77.54C277.52 74.6724 276.118 70.9093 276.214 67.034ZM326.195 67.034C326.195 57.434 322.571 49.0403 315.322 41.853C308.386 34.9478 298.998 31.0711 289.211 31.0711C279.424 31.0711 270.036 34.9478 263.1 41.853C255.829 49.041 252.193 57.4347 252.194 67.034C252.195 76.6333 255.83 85.027 263.1 92.215C270.036 99.1202 279.424 102.997 289.211 102.997C298.998 102.997 308.386 99.1202 315.322 92.215C322.574 85.027 326.2 76.6333 326.2 67.034H326.195ZM335.767 67.034C335.767 76.634 339.402 85.0277 346.673 92.215C350.065 95.6873 354.127 98.4339 358.613 100.288C363.099 102.142 367.915 103.065 372.768 103C376.283 103.008 379.779 102.485 383.138 101.45C385.959 100.639 388.677 99.5066 391.238 98.074C393.286 96.8606 395.213 95.4542 396.993 93.874C398.224 92.8476 399.366 91.7182 400.405 90.498C400.896 89.8313 401.275 89.3147 401.542 88.948L387.889 74.13L386.484 75.921C385.13 77.5611 383.457 78.9091 381.566 79.883C379.318 81.1787 376.767 81.856 374.173 81.846C372.26 81.8946 370.358 81.5427 368.589 80.8131C366.82 80.0834 365.223 78.9921 363.9 77.609C362.542 76.2109 361.478 74.5547 360.771 72.7383C360.064 70.922 359.729 68.9823 359.785 67.034C359.729 65.0857 360.064 63.146 360.771 61.3297C361.478 59.5133 362.542 57.8571 363.9 56.459C365.222 55.0762 366.819 53.985 368.588 53.2553C370.357 52.5257 372.258 52.1737 374.171 52.222C376.837 52.2307 379.447 52.9934 381.698 54.422C383.395 55.3555 384.95 56.527 386.315 57.901C386.875 58.5736 387.399 59.2745 387.887 60.001L401.536 45.189L400.466 43.742C399.436 42.4067 398.245 41.2036 396.92 40.16C395.115 38.6708 393.215 37.3012 391.232 36.06C388.682 34.5264 385.937 33.3443 383.07 32.546C376.726 30.6912 370 30.5757 363.597 32.2119C357.193 33.848 351.347 37.1755 346.67 41.846C339.401 49.0387 335.766 57.4347 335.767 67.034ZM459.083 62.142L483.706 32.449H457.006L437.137 56.493V2.825H413.853V101.619H437.137V83.982L443.293 76.955L459.083 101.619H484.442L459.083 62.142ZM502.176 0L487.122 34.585L501.507 43.059L521.379 11.3L502.176 0ZM554.9 32.449H531.618V101.619H554.9V67.034C554.9 62.9007 555.926 59.6397 557.978 57.251C558.938 56.0963 560.147 55.1741 561.514 54.5537C562.882 53.9333 564.372 53.6308 565.873 53.669C567.175 53.6309 568.469 53.8832 569.661 54.4075C570.853 54.9317 571.913 55.7149 572.765 56.7C574.549 58.7207 575.441 61.4763 575.441 64.967V101.619H598.726V60.7C598.726 51.8813 596.429 44.7393 591.834 39.274C589.704 36.6402 586.998 34.5311 583.923 33.1093C580.849 31.6876 577.489 30.9912 574.103 31.074C570.425 31.0807 566.81 32.0295 563.603 33.83C560.258 35.6673 558.106 37.1257 557.147 38.205C556.188 39.2843 555.439 40.1903 554.9 40.923V32.449ZM625.428 0L610.374 34.585L624.759 43.059L644.631 11.3L625.428 0ZM704.182 101.619C714.396 101.619 722.771 98.7253 729.306 92.938C735.841 87.1507 739.108 80.399 739.106 72.683C739.138 69.5338 738.511 66.4127 737.266 63.52C736.279 61.098 734.888 58.8614 733.151 56.906C731.593 55.2638 729.84 53.8177 727.932 52.6C726.614 51.708 725.24 50.9026 723.817 50.189C723.037 49.8443 722.424 49.5803 721.977 49.397L723.249 48.708C724.38 48.0741 725.425 47.2985 726.36 46.4C727.643 45.2126 728.84 43.9346 729.94 42.576C731.303 40.8078 732.344 38.8138 733.017 36.685C733.871 34.1906 734.301 31.5706 734.289 28.934C734.289 21.9067 731.278 15.798 725.256 10.608C719.234 5.418 711.294 2.823 701.436 2.823H658.282V101.617H704.182V101.619ZM684.31 80.469V60.7H702.11C703.474 60.6473 704.835 60.8704 706.111 61.3558C707.387 61.8412 708.552 62.579 709.536 63.525C711.381 65.4122 712.415 67.9469 712.415 70.5865C712.415 73.2261 711.381 75.7608 709.536 77.648C708.552 78.594 707.387 79.3318 706.111 79.8172C704.835 80.3026 703.474 80.5257 702.11 80.473H684.31V80.469ZM698.7 24.044C699.88 23.9831 701.061 24.1557 702.175 24.5517C703.289 24.9477 704.313 25.5595 705.19 26.352C705.999 27.1483 706.631 28.1056 707.046 29.162C707.461 30.2184 707.649 31.3502 707.599 32.484C707.649 33.6178 707.461 34.7496 707.046 35.806C706.631 36.8623 705.999 37.8197 705.19 38.616C704.313 39.4085 703.289 40.0203 702.175 40.4163C701.061 40.8124 699.88 40.9849 698.7 40.924H684.31V24.044H698.7ZM776.113 2.825H752.829V101.619H776.113V2.825ZM813.785 67.035C813.689 63.1592 815.091 59.3956 817.7 56.528C818.804 55.1818 820.193 54.0972 821.766 53.3526C823.34 52.6079 825.059 52.2216 826.8 52.2216C828.541 52.2216 830.26 52.6079 831.834 53.3526C833.407 54.0972 834.796 55.1818 835.9 56.528C838.509 59.3953 839.911 63.1586 839.814 67.034C839.911 70.9097 838.509 74.6734 835.9 77.541C834.796 78.8872 833.407 79.9718 831.834 80.7164C830.26 81.4611 828.541 81.8474 826.8 81.8474C825.059 81.8474 823.34 81.4611 821.766 80.7164C820.193 79.9718 818.804 78.8872 817.7 77.541C815.091 74.6733 813.689 70.9097 813.785 67.034V67.035ZM863.766 67.035C863.766 57.435 860.142 49.0413 852.893 41.854C845.957 34.9488 836.569 31.0721 826.782 31.0721C816.995 31.0721 807.607 34.9488 800.671 41.854C793.4 49.042 789.764 57.4357 789.764 67.035C789.764 76.6343 793.4 85.028 800.671 92.216C807.607 99.1212 816.995 102.998 826.782 102.998C836.569 102.998 845.957 99.1212 852.893 92.216C860.141 85.0273 863.765 76.6333 863.766 67.034V67.035ZM873.338 67.035C873.338 76.635 876.973 85.0287 884.244 92.216C887.636 95.688 891.698 98.4344 896.183 100.288C900.669 102.142 905.485 103.065 910.338 103C913.853 103.008 917.35 102.485 920.709 101.45C923.53 100.639 926.248 99.5064 928.809 98.074C930.857 96.8608 932.783 95.4544 934.563 93.874C935.794 92.8476 936.936 91.7181 937.976 90.498C938.466 89.8313 938.845 89.3147 939.113 88.948L925.46 74.13L924.055 75.921C922.701 77.561 921.028 78.9089 919.137 79.883C916.889 81.1788 914.338 81.8561 911.743 81.846C909.831 81.8943 907.929 81.5423 906.16 80.8126C904.392 80.083 902.795 78.9918 901.473 77.609C900.115 76.2109 899.051 74.5547 898.344 72.7383C897.637 70.922 897.302 68.9823 897.358 67.034C897.302 65.0857 897.637 63.146 898.344 61.3297C899.051 59.5133 900.115 57.8571 901.473 56.459C902.795 55.0762 904.392 53.985 906.16 53.2554C907.929 52.5257 909.831 52.1737 911.743 52.222C914.41 52.2307 917.019 52.9934 919.271 54.422C920.968 55.3551 922.523 56.5267 923.887 57.901C924.447 58.5734 924.972 59.2743 925.46 60.001L939.109 45.189L938.039 43.742C937.009 42.4065 935.817 41.2034 934.492 40.16C932.688 38.6706 930.788 37.301 928.805 36.06C926.255 34.5262 923.509 33.3442 920.642 32.546C914.298 30.6909 907.572 30.5754 901.169 32.2116C894.765 33.8477 888.919 37.1753 884.242 41.846C876.972 49.0387 873.337 57.4347 873.338 67.034V67.035ZM996.654 62.143L1021.28 32.45H994.58L974.708 56.493V2.825H951.424V101.619H974.708V83.982L980.864 76.955L996.654 101.619H1022.01L996.654 62.143Z" fill="black"/>
<path fill-rule="evenodd" clip-rule="evenodd" d="M0 10.125C0 5.70672 3.58172 2.125 8 2.125H91.094C95.5123 2.125 99.094 5.70672 99.094 10.125V93.375C99.094 97.7933 95.5123 101.375 91.094 101.375H8C3.58172 101.375 0 97.7933 0 93.375V10.125Z" fill="#FF0000"/>
<path fill-rule="evenodd" clip-rule="evenodd" d="M62.6001 10.6479L21.5391 53.415H47.1481L31.5331 91.7149L77.5461 40.042H51.9371L62.6001 10.6479Z" fill="white"/>
</svg>
