<svg width="23" height="22" viewBox="0 0 23 22" version="1.1" xmlns="http://www.w3.org/2000/svg" xmlns:xlink="http://www.w3.org/1999/xlink">
<title>calendar</title>
<desc>Created using Figma</desc>
<g id="Canvas" transform="translate(-1557 -2900)">
<g id="calendar">
<g id="Group">
<g id="Group">
<g id="Vector">
<use xlink:href="#path0_fill" transform="translate(1557 2900)" fill="#206EFF"/>
</g>
<g id="Vector">
<use xlink:href="#path1_fill" transform="translate(1560.59 2915.4)" fill="#206EFF"/>
</g>
<g id="Vector">
<use xlink:href="#path2_fill" transform="translate(1560.59 2911)" fill="#206EFF"/>
</g>
<g id="Vector">
<use xlink:href="#path3_fill" transform="translate(1564.91 2915.4)" fill="#206EFF"/>
</g>
<g id="Vector">
<use xlink:href="#path4_fill" transform="translate(1564.91 2911)" fill="#206EFF"/>
</g>
<g id="Vector">
<use xlink:href="#path5_fill" transform="translate(1569.22 2915.4)" fill="#206EFF"/>
</g>
<g id="Vector">
<use xlink:href="#path6_fill" transform="translate(1569.22 2911)" fill="#206EFF"/>
</g>
<g id="Vector">
<use xlink:href="#path7_fill" transform="translate(1573.53 2915.4)" fill="#206EFF"/>
</g>
<g id="Vector">
<use xlink:href="#path8_fill" transform="translate(1573.53 2911)" fill="#206EFF"/>
</g>
</g>
</g>
</g>
</g>
<defs>
<path id="path0_fill" d="M 19.4062 1.46673L 16.5313 1.46673L 16.5313 0.733364C 16.5313 0.293396 16.2438 -1.60761e-08 15.8125 -1.60761e-08C 15.3812 -1.60761e-08 15.0937 0.293312 15.0937 0.733364L 15.0937 1.46673L 7.90629 1.46673L 7.90629 0.733364C 7.90629 0.293396 7.61881 -1.60761e-08 7.1875 -1.60761e-08C 6.75628 -1.60761e-08 6.46872 0.293312 6.46872 0.733364L 6.46872 1.46673L 3.59375 1.46673C 1.58122 1.46673 0 3.08003 0 5.13338L 0 18.3333C 0 20.3867 1.58122 22 3.59375 22L 19.4062 22C 21.4188 22 23 20.3867 23 18.3333L 23 5.13338C 23 3.08003 21.4188 1.46673 19.4062 1.46673ZM 1.43748 5.13338C 1.43748 3.96005 2.44375 2.93337 3.59375 2.93337L 6.46872 2.93337L 6.46872 3.66674C 6.46872 4.1067 6.7562 4.4001 7.1875 4.4001C 7.61873 4.4001 7.90629 4.10679 7.90629 3.66674L 7.90629 2.93337L 15.0938 2.93337L 15.0938 3.66674C 15.0938 4.1067 15.3813 4.4001 15.8126 4.4001C 16.2439 4.4001 16.5314 4.10679 16.5314 3.66674L 16.5314 2.93337L 19.4063 2.93337C 20.5563 2.93337 21.5626 3.96005 21.5626 5.13338L 21.5626 7.33339L 1.43748 7.33339L 1.43748 5.13338ZM 21.5625 18.3333C 21.5625 19.5067 20.5563 20.5334 19.4062 20.5334L 3.59375 20.5334C 2.44375 20.5334 1.43748 19.5067 1.43748 18.3333L 1.43748 8.80003L 21.5625 8.80003L 21.5625 18.3333Z"/>
<path id="path1_fill" d="M 1.43748 2.93329C 1.8687 2.93329 2.15627 2.78663 2.44375 2.49332C 2.73123 2.20001 2.87497 1.75996 2.87497 1.46664C 2.87497 1.17333 2.73123 0.73328 2.44375 0.439968C 1.86879 -0.146656 1.00626 -0.146656 0.431221 0.439968C 0.14374 0.73328 -1.36136e-07 1.02659 -1.36136e-07 1.46664C -1.36136e-07 1.75996 0.14374 2.20001 0.431221 2.49332C 0.718701 2.78663 1.00626 2.93329 1.43748 2.93329Z"/>
<path id="path2_fill" d="M 1.43748 2.93329C 1.8687 2.93329 2.15627 2.78663 2.44375 2.49332C 2.73123 2.20001 2.87497 1.75996 2.87497 1.46664C 2.87497 1.17333 2.73123 0.733279 2.44375 0.439967C 1.86879 -0.146657 1.00626 -0.146657 0.431221 0.439967C 0.14374 0.733279 -1.36136e-07 1.02659 -1.36136e-07 1.46664C -1.36136e-07 1.9067 0.14374 2.20001 0.431221 2.49332C 0.718701 2.78663 1.00626 2.93329 1.43748 2.93329Z"/>
<path id="path3_fill" d="M 1.43748 2.93329C 1.86871 2.93329 2.15627 2.78663 2.44375 2.49332C 2.73123 2.20001 2.87497 1.75996 2.87497 1.46664C 2.87497 1.17333 2.73123 0.73328 2.44375 0.439968C 1.86879 -0.146656 1.00626 -0.146656 0.431221 0.439968C 0.14374 0.73328 6.05049e-08 1.17333 6.05049e-08 1.46664C 6.05049e-08 1.75996 0.14374 2.20001 0.431221 2.49332C 0.718701 2.78663 1.00626 2.93329 1.43748 2.93329Z"/>
<path id="path4_fill" d="M 1.43748 2.93329C 1.86871 2.93329 2.15627 2.78663 2.44375 2.49332C 2.73123 2.20001 2.87497 1.75996 2.87497 1.46664C 2.87497 1.17333 2.73123 0.733279 2.44375 0.439967C 1.86879 -0.146657 1.00626 -0.146657 0.431221 0.439967C 0.14374 0.733279 6.05049e-08 1.17333 6.05049e-08 1.46664C 6.05049e-08 1.75996 0.14374 2.20001 0.431221 2.49332C 0.718701 2.78663 1.00626 2.93329 1.43748 2.93329Z"/>
<path id="path5_fill" d="M 1.43748 2.93329C 1.86871 2.93329 2.15627 2.78663 2.44375 2.49332C 2.73123 2.20001 2.87497 1.9067 2.87497 1.46664C 2.87497 1.02659 2.73123 0.73328 2.44375 0.439968C 1.86879 -0.146656 1.00626 -0.146656 0.431221 0.439968C 0.143741 0.73328 3.02524e-07 1.17333 3.02524e-07 1.46664C 3.02524e-07 1.75996 0.143741 2.20001 0.431221 2.49332C 0.718701 2.78663 1.00626 2.93329 1.43748 2.93329Z"/>
<path id="path6_fill" d="M 1.43748 2.93329C 1.86871 2.93329 2.15627 2.78663 2.44375 2.49332C 2.73123 2.20001 2.87497 1.9067 2.87497 1.46664C 2.87497 1.17333 2.73123 0.733279 2.44375 0.439967C 1.86879 -0.146657 1.00626 -0.146657 0.431221 0.439967C 0.143741 0.733279 3.02524e-07 1.17333 3.02524e-07 1.46664C 3.02524e-07 1.75996 0.143741 2.20001 0.431221 2.49332C 0.718701 2.78663 1.00626 2.93329 1.43748 2.93329Z"/>
<path id="path7_fill" d="M 1.43748 2.93329C 1.8687 2.93329 2.15627 2.78663 2.44375 2.49332C 2.73123 2.20001 2.87497 1.75996 2.87497 1.46664C 2.87497 1.17333 2.73123 0.73328 2.44375 0.439968C 1.86879 -0.146656 1.00626 -0.146656 0.431221 0.439968C 0.14374 0.73328 -1.31094e-07 1.02659 -1.31094e-07 1.46664C -1.31094e-07 1.75996 0.14374 2.20001 0.431221 2.49332C 0.718701 2.78663 1.00626 2.93329 1.43748 2.93329Z"/>
<path id="path8_fill" d="M 1.43748 2.93329C 1.8687 2.93329 2.15627 2.78663 2.44375 2.49332C 2.73123 2.20001 2.87497 1.9067 2.87497 1.46664C 2.87497 1.17333 2.73123 0.733279 2.44375 0.439967C 1.86879 -0.146657 1.00626 -0.146657 0.431221 0.439967C 0.14374 0.733279 -1.31094e-07 1.17333 -1.31094e-07 1.46664C -1.31094e-07 1.75996 0.14374 2.20001 0.431221 2.49332C 0.718701 2.78663 1.00626 2.93329 1.43748 2.93329Z"/>
</defs>
</svg>
