<svg width="22" height="22" viewBox="0 0 22 22" version="1.1" xmlns="http://www.w3.org/2000/svg" xmlns:xlink="http://www.w3.org/1999/xlink">
<title>clock</title>
<desc>Created using Figma</desc>
<g id="Canvas" transform="translate(-1830 -2901)">
<g id="clock">
<g id="Group">
<g id="Group">
<g id="Vector">
<use xlink:href="#path0_fill" transform="translate(1830 2901)" fill="#206EFF"/>
</g>
<g id="Vector">
<use xlink:href="#path1_fill" transform="translate(1840.32 2904.98)" fill="#206EFF"/>
</g>
</g>
</g>
</g>
</g>
<defs>
<path id="path0_fill" d="M 21.1219 6.71559C 19.962 4.00994 17.991 2.0422 15.2642 0.878613C 13.9014 0.297055 12.4736 -8.14654e-11 10.9819 -8.14654e-11C 9.49052 -8.14654e-11 8.07325 0.29425 6.71191 0.878613C 4.00774 2.0391 2.02799 4.00559 0.866052 6.71559C 0.283807 8.07329 0 9.4957 0 10.9879C 0 12.4804 0.283807 13.9146 0.866052 15.2726C 2.02799 17.9826 4.00799 19.9609 6.71191 21.1217C 8.0735 21.706 9.49048 22 10.9819 22C 12.4734 22 13.9014 21.7029 15.264 21.1217C 17.9908 19.9581 19.9618 17.978 21.1219 15.2726C 21.7059 13.9103 22 12.4804 22 10.9879C 22 9.4957 21.7062 8.0779 21.1219 6.71559ZM 19.3659 15.8503C 18.5024 17.332 17.3194 18.5075 15.8295 19.3765C 14.3487 20.2405 12.7261 20.6762 10.9822 20.6762C 9.67116 20.6762 8.42018 20.4236 7.22923 19.906C 6.03832 19.3886 5.01007 18.7085 4.14991 17.8481C 3.28976 16.9875 2.60513 15.9486 2.0932 14.755C 1.58278 13.5657 1.33542 12.2999 1.33542 10.988C 1.33542 9.24281 1.76395 7.62758 2.6226 6.15C 3.4843 4.66703 4.66752 3.49032 6.14688 2.62375C 7.62598 1.75723 9.23802 1.32382 10.9819 1.32382C 12.7261 1.32382 14.3484 1.75978 15.8293 2.62375C 17.3192 3.49287 18.4996 4.66955 19.3656 6.14997C 20.2317 7.63014 20.6646 9.24281 20.6646 10.9879C 20.6646 12.7331 20.2345 14.3593 19.3659 15.8503Z"/>
<path id="path1_fill" d="M 1.35929 6.90816L 1.35929 0.673958C 1.35929 0.300904 1.03443 -8.56159e-08 0.661546 -8.56159e-08C 0.312817 -8.56159e-08 -4.65144e-07 0.300904 -4.65144e-07 0.673958L -4.65144e-07 7.00441C -4.65144e-07 7.0165 0.0241212 7.06476 0.0241212 7.10073C 2.72117e-07 7.3174 0.0603199 7.49792 0.204542 7.64247L 3.80122 11.2409C 4.04189 11.4817 4.48685 11.4817 4.72734 11.2409C 5.00392 10.9641 4.98573 10.5625 4.72734 10.3022L 1.35929 6.90816Z"/>
</defs>
</svg>
