<?xml version="1.0" encoding="UTF-8"?>
<svg width="205px" height="486px" viewBox="0 0 205 486" version="1.1" xmlns="http://www.w3.org/2000/svg" xmlns:xlink="http://www.w3.org/1999/xlink">
    <!-- Generator: Sketch 52.5 (67469) - http://www.bohemiancoding.com/sketch -->
    <title>sp_01</title>
    <desc>Created with Sketch.</desc>
    <g id="Page-1" stroke="none" stroke-width="1" fill="none" fill-rule="evenodd" opacity="0.3">
        <g id="Group-4" transform="translate(-1099.000000, -206.000000)" fill="#B7BCD3">
            <g id="sh_01-+-sp_02-Mask" transform="translate(48.000000, 64.000000)">
                <path d="M1077.248,261.017 C1060.614,312.833 1057.977,370.025 1056.746,404.78 L1056.745,404.806 L1056.741,404.831 C1043.155,501.799 1065.29,576.825 1123.6967,609.131 C1182.1394,641.456 1277.176,631.183 1409.812,556.83 C1476.111,519.664 1512.547,484.873 1529.024,452.814 C1545.483,420.794 1542.056,391.444 1528.48,365.041 C1514.889,338.61 1491.126,315.136 1466.928,294.949 C1454.832,284.859 1442.639,275.599 1431.566,267.206 L1430.892,266.696 C1420.094,258.512 1410.385,251.153 1402.935,244.67 C1393.486,236.446 1384.369,227.825 1375.294,219.243 L1375.294,219.242 L1375.293,219.242 L1375.292,219.241 L1375.291,219.24 C1369.79,214.038 1364.304,208.85 1358.769,203.774 C1344.088,190.311 1329.027,177.606 1312.295,167.382 C1278.858,146.9497 1238.7057,136.3991 1181.52718,149.6543 C1124.4694,162.881 1093.8821,209.199 1077.248,261.017 Z M1076.2959,260.711 C1092.976,208.751 1123.7417,162.024 1181.30134,148.6801 C1238.7402,135.3646 1279.16,145.9625 1312.816,166.529 C1329.631,176.803 1344.748,189.56 1359.445,203.037 C1365.004,208.135 1370.498,213.331 1376.001,218.535 L1376.005,218.539 L1376.006,218.54 C1385.067,227.109 1394.153,235.701 1403.592,243.916 C1411.014,250.375 1420.699,257.716 1431.513,265.911 L1431.515,265.913 L1432.17,266.409 C1443.242,274.801 1455.452,284.074 1467.568,294.181 C1491.792,314.389 1515.684,337.968 1529.369,364.584 C1543.069,391.228 1546.542,420.92 1529.914,453.272 C1513.305,485.586 1476.668,520.498 1410.301,557.702 C1277.605,632.089 1182.1403,642.6 1123.2127,610.006 C1064.255,577.395 1042.149,501.81 1055.747,404.718 C1056.979,369.965 1059.619,312.661 1076.2959,260.711 Z M1091.2303,272.439 C1076.0372,319.835 1073.6487,372.158 1072.5373,403.957 L1072.5364,403.983 L1072.5328,404.008 C1060.146,492.719 1080.4291,561.351 1133.854,590.922 C1187.3142,620.513 1274.236,611.164 1395.545,543.191 C1456.18,509.216 1489.491,477.404 1504.546,448.089 C1519.582,418.813 1516.437,391.972 1504.01,367.818 C1491.569,343.636 1469.825,322.153 1447.679,303.673 C1436.61,294.436 1425.451,285.959 1415.317,278.275 L1414.7,277.807 C1404.819,270.315 1395.932,263.577 1389.113,257.641 C1380.463,250.112 1372.116,242.217 1363.809,234.36 C1358.774,229.598 1353.754,224.849 1348.689,220.203 C1335.252,207.879 1321.47,196.25 1306.162,186.89 C1275.572,168.187 1238.8455,158.518 1186.552,170.619 C1134.3795,182.692 1106.424,225.041 1091.2303,272.439 Z M1090.2781,272.134 C1105.5177,224.592 1133.6517,181.834 1186.3266,169.645 C1238.8805,157.484 1275.875,167.2 1306.684,186.037 C1322.075,195.448 1335.912,207.128 1349.365,219.466 C1354.453,224.134 1359.482,228.89 1364.519,233.655 L1364.52,233.656 L1364.521,233.656 L1364.521,233.657 L1364.522,233.657 L1364.523,233.658 C1372.816,241.502 1381.13,249.367 1389.769,256.887 C1396.561,262.799 1405.424,269.519 1415.32,277.023 L1415.323,277.024 L1415.324,277.026 L1415.921,277.478 C1426.054,285.161 1437.23,293.652 1448.32,302.905 C1470.491,321.406 1492.364,342.995 1504.899,367.361 C1517.45,391.755 1520.641,418.939 1505.436,448.546 C1490.249,478.117 1456.738,510.05 1396.034,544.064 C1274.665,612.07 1187.3146,621.656 1133.3698,591.797 C1079.3949,561.921 1059.14,492.73 1071.539,403.896 C1072.6505,372.098 1075.042,319.664 1090.2781,272.134 Z M1093.3539,402.879 C1094.3079,374.921 1096.3695,328.926 1109.688,287.273 C1123.007,245.618 1147.5399,208.429 1193.3629,197.859 C1239.3072,187.261 1271.5828,195.785 1298.474,212.244 C1311.933,220.482 1324.052,230.714 1335.872,241.558 C1340.326,245.645 1344.742,249.823 1349.171,254.013 L1349.172,254.014 L1349.172,254.015 C1356.481,260.93 1363.826,267.879 1371.435,274.506 C1377.434,279.73 1385.251,285.66 1393.939,292.253 L1393.94,292.253 L1393.944,292.256 L1394.489,292.669 C1403.403,299.433 1413.217,306.894 1422.953,315.022 C1442.432,331.285 1461.555,350.184 1472.503,371.444 C1483.437,392.676 1486.218,416.256 1473.032,441.967 C1459.827,467.714 1430.581,495.653 1377.308,525.479 C1270.7236,585.154 1194.3466,593.296 1147.3597,567.257 C1100.4075,541.236 1082.5257,480.911 1093.3495,402.93 L1093.353,402.905 L1093.3539,402.879 Z M1193.1381,196.884 C1146.8118,207.57 1122.1004,245.17 1108.7355,286.968 C1095.3743,328.755 1093.3096,374.861 1092.3554,402.819 C1081.5202,480.924 1099.3741,541.807 1146.875,568.131 C1194.3463,594.439 1271.1516,586.06 1377.797,526.352 C1431.138,496.487 1460.585,468.427 1473.922,442.423 C1487.278,416.381 1484.449,392.457 1473.392,370.986 C1462.349,349.542 1443.099,330.538 1423.594,314.254 C1413.837,306.109 1404.006,298.635 1395.093,291.873 L1394.569,291.475 L1394.568,291.474 C1385.861,284.868 1378.066,278.954 1372.092,273.751 C1364.493,267.134 1357.18,260.215 1349.885,253.312 C1345.453,249.119 1341.027,244.931 1336.548,240.822 C1324.713,229.963 1312.537,219.68 1298.996,211.391 C1271.8863,194.799 1239.3432,186.226 1193.1381,196.884 Z M1127.2229,301.365 C1115.6853,337.561 1113.9341,377.545 1113.1297,401.854 L1113.1288,401.88 L1113.1253,401.906 C1103.787,469.693 1119.3869,522.127 1160.1901,544.774 C1201.0276,567.441 1267.3865,560.444 1359.983,508.653 C1406.261,482.769 1431.647,458.509 1443.094,436.15 C1454.523,413.828 1452.087,393.344 1442.571,374.888 C1433.041,356.404 1416.409,339.96 1399.463,325.803 C1390.994,318.728 1382.457,312.233 1374.702,306.344 L1374.227,305.984 L1374.226,305.983 C1366.667,300.243 1359.864,295.077 1354.642,290.527 C1348.02,284.757 1341.627,278.706 1335.266,272.686 C1331.412,269.038 1327.57,265.402 1323.696,261.846 C1313.413,252.407 1302.872,243.502 1291.17,236.331 C1267.793,222.004 1239.7457,214.566 1199.8332,223.736 C1160.0423,232.879 1138.761,265.166 1127.2229,301.365 Z M1126.2701,301.061 C1137.8539,264.719 1159.3139,232.02 1199.6092,222.762 C1239.7829,213.531 1268.0975,221.017 1291.692,235.478 C1303.476,242.7 1314.073,251.655 1324.373,261.109 C1328.272,264.688 1332.123,268.334 1335.98,271.984 L1335.981,271.985 C1342.327,277.992 1348.688,284.013 1355.299,289.773 C1360.495,294.3 1367.274,299.448 1374.85,305.201 L1375.307,305.547 C1383.06,311.436 1391.614,317.944 1400.104,325.036 C1417.076,339.214 1433.835,355.762 1443.46,374.429 C1453.099,393.124 1455.583,413.952 1443.984,436.606 C1432.405,459.222 1406.819,483.603 1360.471,509.526 C1267.8134,561.351 1201.0263,568.584 1159.7048,545.649 C1118.3544,522.697 1102.7814,469.707 1112.1311,401.795 C1112.9358,377.487 1114.6899,337.392 1126.2701,301.061 Z M1130.8238,400.938 C1131.4944,379.893 1132.9679,345.288 1142.912,313.973 C1152.8566,282.657 1171.22869,254.755 1205.6222,246.89 C1240.1378,238.997 1264.4019,245.462 1284.635,257.881 C1294.764,264.099 1303.893,271.816 1312.802,279.998 C1316.155,283.077 1319.482,286.227 1322.819,289.387 L1322.821,289.389 L1322.823,289.39 L1322.825,289.392 L1322.826,289.393 C1328.338,294.612 1333.879,299.859 1339.616,304.862 C1344.141,308.806 1350.033,313.285 1356.577,318.259 L1356.579,318.261 L1356.582,318.263 L1356.583,318.264 L1356.998,318.579 C1363.716,323.686 1371.11,329.317 1378.446,335.45 C1393.126,347.723 1407.529,361.969 1415.79,377.969 C1424.037,393.942 1426.163,411.656 1416.307,430.946 C1406.433,450.273 1384.502,471.24 1344.481,493.598 C1264.4009,538.335 1207.0054,544.307 1171.67006,524.659 C1136.3683,505.029 1122.8102,459.656 1130.8195,400.989 L1130.823,400.964 L1130.8238,400.938 Z M1205.3992,245.915 C1170.49992,253.896 1151.9491,282.21 1141.9589,313.67 C1131.9722,345.119 1130.496,379.836 1129.8252,400.88 C1121.8045,459.672 1135.337,505.6 1171.18408,525.533 C1207.0029,545.45 1264.8265,539.243 1344.969,494.471 C1385.059,472.075 1407.191,450.986 1417.198,431.401 C1427.224,411.778 1425.049,393.721 1416.679,377.51 C1408.323,361.327 1393.792,346.977 1379.087,334.683 C1371.731,328.533 1364.319,322.888 1357.603,317.783 L1357.21,317.484 L1357.209,317.484 C1350.645,312.494 1344.774,308.031 1340.274,304.108 C1334.547,299.115 1329.038,293.898 1323.54,288.692 L1323.539,288.691 L1323.536,288.688 C1320.195,285.524 1316.858,282.364 1313.479,279.261 C1304.554,271.065 1295.37,263.297 1285.158,257.029 C1264.7076,244.477 1240.1764,237.962 1205.3992,245.915 Z M1158.6011,326.581 C1150.2505,353.014 1149.0546,382.24 1148.5179,400.021 L1148.5171,400.047 L1148.5136,400.073 C1141.8334,449.618 1153.3495,487.931 1183.1501,504.543 C1212.9835,521.174 1261.4155,516.227 1328.979,478.543 C1362.742,459.712 1381.218,442.037 1389.521,425.742 C1397.804,409.483 1395.988,394.54 1389.009,381.051 C1382.017,367.534 1369.842,355.485 1357.429,345.097 C1351.226,339.906 1344.974,335.138 1339.293,330.814 L1338.943,330.547 C1333.407,326.334 1328.421,322.539 1324.591,319.196 C1319.737,314.961 1315.047,310.517 1310.383,306.098 L1310.377,306.093 C1307.555,303.419 1304.742,300.754 1301.908,298.149 C1294.374,291.225 1286.657,284.696 1278.1,279.432 C1261.0106,268.921 1240.5297,263.428 1211.411,270.043 C1182.4151,276.631 1166.95236,300.147 1158.6011,326.581 Z M1157.6476,326.28 C1166.04423,299.702 1181.68585,275.772 1211.1894,269.068 C1240.5702,262.393 1261.318,267.936 1278.623,278.58 C1287.263,283.895 1295.035,290.474 1302.585,297.413 C1305.445,300.042 1308.269,302.717 1311.095,305.395 L1311.097,305.397 L1311.098,305.398 C1315.748,309.803 1320.406,314.217 1325.248,318.443 C1329.052,321.763 1334.016,325.541 1339.568,329.766 L1339.899,330.018 C1345.579,334.341 1351.847,339.122 1358.07,344.33 C1370.509,354.739 1382.811,366.892 1389.897,380.591 C1396.998,394.318 1398.865,409.604 1390.412,426.196 C1381.977,442.75 1363.299,460.547 1329.466,479.417 C1261.8392,517.135 1212.9793,522.316 1182.6632,505.417 C1152.3197,488.502 1140.8276,449.637 1147.5191,399.965 C1148.0561,382.185 1149.2545,352.847 1157.6476,326.28 Z M1168.29379,398.996 C1168.68094,384.864 1169.56649,361.649 1176.13631,340.673 C1182.7067,319.695 1194.9178,301.081 1217.8806,295.921 C1240.9672,290.733 1257.22,295.139 1270.7953,303.518 C1277.596,307.716 1283.734,312.918 1289.732,318.437 C1291.987,320.511 1294.226,322.635 1296.474,324.767 L1296.478,324.77 C1300.193,328.294 1303.931,331.839 1307.797,335.217 C1310.849,337.884 1314.82,340.914 1319.224,344.273 L1319.506,344.488 C1324.028,347.938 1329.002,351.74 1333.939,355.878 C1343.819,364.16 1353.503,373.754 1359.078,384.495 C1364.638,395.21 1366.108,407.056 1359.582,419.925 C1353.038,432.832 1338.423,446.827 1311.654,461.717 C1258.0795,491.516 1219.6654,495.319 1195.9811,482.061 C1172.32816,468.822 1163.09476,438.399 1168.28967,399.048 L1168.29307,399.022 L1168.29379,398.996 Z M1217.6613,294.946 C1194.1877,300.221 1181.79751,319.252 1175.18202,340.374 C1168.57006,361.485 1167.6823,384.811 1167.29488,398.942 C1162.08879,438.422 1171.30089,469.393 1195.4927,482.934 C1219.6584,496.461 1258.5002,492.427 1312.14,462.591 C1338.979,447.662 1353.798,433.545 1360.474,420.378 C1367.17,407.173 1365.648,394.984 1359.965,384.035 C1354.297,373.112 1344.486,363.415 1334.581,355.112 C1329.625,350.957 1324.633,347.142 1320.113,343.693 L1319.852,343.494 L1319.851,343.494 C1315.43,340.121 1311.482,337.109 1308.455,334.464 C1304.6,331.096 1300.894,327.58 1297.192,324.069 C1294.94,321.933 1292.69,319.799 1290.41,317.701 C1284.396,312.167 1278.203,306.915 1271.3206,302.667 C1257.5301,294.155 1241.011,289.698 1217.6613,294.946 Z" id="sp_01"></path>
            </g>
        </g>
    </g>
</svg>