<?xml version="1.0" encoding="UTF-8"?>
<svg width="232px" height="389px" viewBox="0 0 232 389" version="1.1" xmlns="http://www.w3.org/2000/svg" xmlns:xlink="http://www.w3.org/1999/xlink">
    <!-- Generator: Sketch 52.5 (67469) - http://www.bohemiancoding.com/sketch -->
    <title>sp_02</title>
    <desc>Created with Sketch.</desc>
    <g id="Page-1" stroke="none" stroke-width="1" fill="none" fill-rule="evenodd" opacity="0.3">
        <g id="Group-4" transform="translate(-48.000000, -455.000000)" fill="#B7BCD3">
            <g id="sh_01-+-sp_02-Mask" transform="translate(48.000000, 64.000000)">
                <path d="M-147.084538,486.451098 C-160.673218,528.63619 -162.827441,575.198059 -163.833072,603.493235 L-163.833889,603.514403 L-163.837156,603.534756 C-174.935858,682.479561 -156.853291,743.56067 -109.139577,769.862036 C-61.3964536,796.17887 16.2410289,787.815287 124.594286,727.282089 C178.755393,697.024039 208.52076,668.699554 221.981183,642.599278 C235.426901,616.530754 232.627309,592.635964 221.536777,571.140422 C210.433991,549.622085 191.021475,530.511137 171.253599,514.076244 C161.372111,505.861646 151.411382,498.322779 142.365605,491.489764 L141.815,491.074557 C132.993877,484.411696 125.062382,478.420494 118.976314,473.142473 C111.257218,466.447047 103.809341,459.42841 96.3957746,452.441525 L96.3957746,452.440711 L96.3949577,452.440711 L96.3941408,452.439897 L96.3933239,452.439082 C91.8994364,448.203965 87.4178027,443.980245 82.8961398,439.847708 C70.902909,428.887042 58.5992478,418.543488 44.9305101,410.219797 C17.6150916,393.585196 -15.1862027,384.995609 -61.8965895,395.787099 C-108.508341,406.555386 -133.495777,444.264378 -147.084538,486.451098 Z M-148.028224,486.106188 C-134.389362,443.764146 -109.233089,405.68646 -62.1681439,394.812558 C-15.2019568,383.961798 17.8482097,392.597994 45.3678016,409.35757 C59.1169679,417.729821 71.4777259,428.12546 83.4950614,439.107826 C88.0405039,443.26217 92.5327976,447.496374 97.0324504,451.737097 L97.0357211,451.740357 L97.0365388,451.741172 C104.445471,458.724023 111.874845,465.725617 119.592858,472.419995 C125.661624,477.683414 133.580784,483.665572 142.423097,490.343652 L142.424732,490.345281 L142.960308,490.74947 C152.01358,497.588085 161.997363,505.144624 171.904285,513.380786 C191.711589,529.848222 211.247424,549.062676 222.437275,570.751971 C233.639391,592.464083 236.479168,616.660001 222.882907,643.023545 C209.302181,669.356123 179.345107,697.805802 125.078624,728.123226 C16.5767286,788.74096 -61.4821492,797.306341 -109.665638,770.745592 C-157.873739,744.17099 -175.949212,682.57701 -164.830499,603.457042 C-163.823126,575.136931 -161.66447,528.440081 -148.028224,486.106188 Z M-135.852123,495.378061 C-148.262756,534.018068 -150.213826,576.674856 -151.121684,602.599271 L-151.122419,602.620468 L-151.12536,602.64085 C-161.243639,674.963275 -144.67519,730.916119 -101.034535,755.024138 C-57.3650446,779.148462 13.6378825,771.526607 112.730332,716.111019 C162.260628,688.4126 189.471046,662.477586 201.768871,638.578274 C214.051175,614.710756 211.482151,592.828394 201.331034,573.136633 C191.168481,553.422044 173.406681,535.907838 155.316503,520.841855 C146.274681,513.31131 137.159342,506.40036 128.881285,500.135912 L128.377282,499.754371 C120.30589,493.646451 113.046457,488.153237 107.47629,483.313861 C100.410452,477.175777 93.5921231,470.739309 86.8064685,464.33382 C82.6935792,460.451558 78.5929428,456.579894 74.4555478,452.792201 C63.4794022,442.744951 52.2214399,433.264306 39.7169496,425.633484 C14.7292073,410.385698 -15.2711954,402.50296 -57.9876552,412.368408 C-100.605275,422.211027 -123.441,456.736423 -135.852123,495.378061 Z M-136.79609,495.034037 C-124.33496,456.235472 -101.330324,421.341083 -58.2590634,411.393759 C-15.2867417,401.469285 14.9629554,409.398418 40.154887,424.771111 C52.7398142,432.451337 64.0540652,441.983271 75.0543267,452.052193 C79.2146872,455.861703 83.3268046,459.743028 87.4454635,463.631698 L87.4462811,463.632515 L87.4470988,463.632515 L87.4470988,463.633331 L87.4479165,463.633331 L87.4487342,463.634147 C94.2297621,470.035559 101.027961,476.454109 108.091907,482.591108 C113.645596,487.415834 120.892702,492.899961 128.984472,499.023902 L128.986925,499.024718 L128.987743,499.02635 L129.475898,499.395223 C137.761459,505.665245 146.899861,512.594668 155.967943,520.145951 C174.096747,535.244438 191.981882,552.863011 202.231512,572.747867 C212.494225,592.655574 215.103445,614.840172 202.670607,639.002157 C190.252486,663.134763 162.851181,689.194975 113.214678,716.95347 C13.9735614,772.452506 -57.4511946,780.275548 -101.560829,755.907908 C-145.695075,731.526394 -162.25712,675.060291 -152.118695,602.563726 C-151.209842,576.613687 -149.254358,533.822808 -136.79609,495.034037 Z M-134.496892,601.735968 C-133.717249,578.972598 -132.032435,541.523525 -121.148078,507.609702 C-110.263312,473.694251 -90.2141432,443.415012 -52.7659389,434.808931 C-15.218604,426.180052 11.1581776,433.120283 33.1346337,446.521181 C44.1338128,453.22855 54.0378956,461.559433 63.6976249,470.388604 C67.3375939,473.716235 70.946508,477.117957 74.5660461,480.52945 L74.5668634,480.530265 L74.5668634,480.531079 C80.5400412,486.161263 86.5426394,491.819131 92.760988,497.214826 C97.6635866,501.468201 104.05192,506.2964 111.152066,511.664412 L111.152884,511.664412 L111.156153,511.666855 L111.601546,512.003119 C118.886388,517.51036 126.906742,523.585097 134.863351,530.202905 C150.782291,543.44422 166.410294,558.831763 175.357394,576.141629 C184.293052,593.428698 186.565785,612.627506 175.789712,633.561371 C164.998111,654.524547 141.097227,677.272448 97.5606149,701.556741 C10.4560084,750.144054 -51.9620239,756.773261 -90.3614091,735.572338 C-128.732436,714.386071 -143.346087,665.269529 -134.500488,601.777493 L-134.497627,601.757138 L-134.496892,601.735968 Z M-53.0369946,433.833919 C-90.9396896,442.544601 -111.157766,473.194202 -122.092499,507.265799 C-133.024205,541.328429 -134.713476,578.911688 -135.494172,601.701623 C-144.359186,665.368834 -129.751696,714.997549 -90.8879814,736.455531 C-52.048484,757.90047 10.7911526,751.070337 98.0450034,702.399422 C141.686901,678.054997 165.779494,655.181917 176.6914,633.984783 C187.618851,612.756674 185.304254,593.255049 176.257771,575.752986 C167.222742,558.272931 151.473008,542.78184 135.514642,529.507954 C127.531777,522.868566 119.488368,516.776142 112.196037,511.264105 L111.767317,510.939676 L111.766499,510.93886 C104.64271,505.553986 98.2650906,500.733195 93.3773551,496.491975 C87.1600967,491.098134 81.1768343,485.458119 75.208299,479.831145 C71.5821785,476.413225 67.960967,472.999382 64.2963927,469.649934 C54.6133747,460.798232 44.6513615,452.416055 33.5725489,445.659285 C11.3922606,432.134333 -15.2334615,425.146061 -53.0369946,433.833919 Z M-106.339092,518.573818 C-115.76664,548.082611 -117.197572,580.679573 -117.854859,600.497488 L-117.855595,600.518685 L-117.858455,600.539881 C-125.488921,655.803242 -112.742007,698.550067 -79.4010943,717.013037 C-46.032155,735.492312 8.19070647,729.788007 83.852708,687.565387 C121.667162,666.463453 142.410447,646.685484 151.763964,628.457307 C161.102773,610.259293 159.11228,593.55971 151.336613,578.513453 C143.549505,563.44437 129.959247,550.038396 116.112414,538.4969 C109.192265,532.729006 102.216554,527.433956 95.8798257,522.632948 L95.491696,522.339458 L95.4908789,522.338643 C89.3143056,517.659107 83.7554713,513.447525 79.4884961,509.738137 C74.0775596,505.034143 68.8537426,500.101065 63.6560732,495.193259 C60.5069115,492.219226 57.3675552,489.254977 54.2020511,486.355947 C45.7996562,478.660801 37.1864456,471.400999 27.6245643,465.55484 C8.52286377,453.874752 -14.3950095,447.810921 -47.0081173,455.286765 C-79.5218639,462.740597 -96.9111362,489.062578 -106.339092,518.573818 Z M-107.283881,518.230668 C-97.8061602,488.563406 -80.2478549,461.870054 -47.2787412,454.312421 C-14.4091191,446.776829 8.75753477,452.887916 28.0622615,464.692942 C37.7037838,470.588516 46.3741175,477.8988 54.8014495,485.616435 C57.9915629,488.5381 61.1424032,491.514458 64.2981527,494.494083 L64.2989709,494.494899 C69.4911892,499.398626 74.6956804,504.313781 80.1047184,509.015873 C84.356021,512.711424 89.9025146,516.913919 96.1011037,521.610296 L96.4750154,521.892748 C102.818424,526.700148 109.8172,532.012858 116.763613,537.802309 C130.649892,549.376313 144.361898,562.885031 152.236953,578.123564 C160.123463,593.384955 162.155841,610.387589 152.665683,628.880852 C143.191889,647.343093 122.257742,667.246167 84.3363845,688.40803 C8.52508768,730.714613 -46.1192876,736.619167 -79.9280254,717.896514 C-113.760409,699.159984 -126.502044,655.90237 -118.852236,600.463399 C-118.19384,580.619918 -116.758657,547.88895 -107.283881,518.230668 Z M-104.170546,600.430026 C-103.621365,583.269549 -102.414658,555.052 -94.2710455,529.517177 C-86.127023,503.981539 -71.0813981,481.229739 -42.9152064,474.816474 C-14.6490296,468.380378 5.22179228,473.652057 21.7914704,483.778736 C30.0865052,488.849007 37.5626009,495.14159 44.85853,501.813342 C47.604433,504.324015 50.3290436,506.892582 53.0618436,509.469304 L53.0634815,509.470935 L53.0651194,509.47175 L53.0667572,509.473381 L53.0675762,509.474196 C57.5815689,513.729864 62.1193108,518.008364 66.8175648,522.087901 C70.5232646,525.303911 75.3484542,528.956169 80.7075921,533.01206 L80.70923,533.013691 L80.7116868,533.015322 L80.7125057,533.016137 L81.0523655,533.272994 C86.5539988,537.437335 92.609235,542.028955 98.6169728,547.029915 C110.639,557.037543 122.434181,568.653992 129.199437,581.700684 C135.953228,594.72536 137.694293,609.169679 129.622829,624.899097 C121.536623,640.658686 103.576468,657.755561 70.8017039,675.986682 C5.22097334,712.466049 -41.7824497,717.335727 -70.7199413,701.314389 C-99.6299377,685.307728 -110.733197,648.309756 -104.174067,600.471613 L-104.171201,600.451227 L-104.170546,600.430026 Z M-43.1849193,473.841227 C-71.8080527,480.359074 -87.0227676,503.482281 -95.2163701,529.174734 C-103.407102,554.858203 -104.617828,583.210551 -105.167994,600.396565 C-111.746284,648.410254 -100.647414,685.918295 -71.2469293,702.196987 C-41.8696223,718.462613 5.55521331,713.393539 71.2852074,676.829569 C104.165583,658.539418 122.317452,641.316654 130.524834,625.322164 C138.747798,609.296639 136.963941,594.550021 130.099169,581.310976 C123.245878,568.094798 111.328075,556.375577 99.2675631,546.33543 C93.2344366,541.312907 87.155381,536.702802 81.6471595,532.533699 L81.3248351,532.289515 L81.3240149,532.289515 C75.9404583,528.214329 71.1252754,524.569529 67.4345374,521.365731 C62.7374581,517.288095 58.2191746,513.027526 53.7099129,508.775939 L53.7090927,508.775123 L53.7066322,508.772673 C50.9664643,506.188727 48.229577,503.608049 45.4582428,501.07392 C38.138279,494.380489 30.6058927,488.036593 22.2303779,482.917702 C5.45769581,472.666855 -14.6619115,467.346247 -43.1849193,473.841227 Z M-80.251386,539.460556 C-87.0772208,561.020502 -88.0547572,584.858545 -88.4934593,599.36153 L-88.4941132,599.382736 L-88.4969741,599.403943 C-93.957413,639.815078 -84.544078,671.064887 -60.1848738,684.614382 C-35.7988586,698.179375 3.78977308,694.144379 59.0166173,663.407611 C86.6147131,648.048199 101.717116,633.631672 108.504042,620.340736 C115.27462,607.079163 113.79021,594.890979 108.08553,583.888743 C102.370223,572.863669 92.4182992,563.035961 82.2718323,554.56304 C77.2014598,550.329027 72.0910343,546.440031 67.447348,542.913182 L67.1612557,542.695405 C62.6360933,539.259092 58.5605045,536.163719 55.4298376,533.437018 C51.4621464,529.982761 47.6285099,526.358034 43.816126,522.753699 L43.8112216,522.74962 C41.5045004,520.568585 39.2051359,518.394891 36.8886059,516.270136 C30.7302653,510.62261 24.4223393,505.297263 17.4277919,501.003707 C3.45880519,492.430462 -13.2824156,487.950124 -37.0842304,493.345616 C-60.7856676,498.719086 -73.4250118,517.899795 -80.251386,539.460556 Z M-81.1971371,539.119728 C-74.3213826,517.402161 -61.5129179,497.848342 -37.3533245,492.370332 C-13.2942475,486.916018 3.69551851,491.445345 17.8660764,500.142831 C24.9411195,504.485854 31.3053828,509.861725 37.4878567,515.53176 C39.829827,517.679983 42.1423179,519.865795 44.4564466,522.054057 L44.4580843,522.055691 L44.4589032,522.056509 C48.2666521,525.655947 52.0809519,529.26274 56.045924,532.715913 C59.1609082,535.428771 63.2257825,538.515872 67.7721528,541.968228 L68.043199,542.174144 C72.6943847,545.706578 77.8270664,549.613256 82.9228989,553.868847 C93.1088319,562.374308 103.18258,572.304837 108.985097,583.498642 C114.799899,594.715327 116.32873,607.20591 109.406816,620.76366 C102.499641,634.290359 87.2047739,648.832745 59.4999207,664.251907 C4.12231393,695.072255 -35.8876278,699.305783 -60.7125946,685.497176 C-85.5599985,671.675494 -94.9705427,639.917904 -89.4910693,599.329635 C-89.0513357,584.80114 -88.070001,560.828306 -81.1971371,539.119728 Z M-72.8501557,598.583677 C-72.5337626,587.098396 -71.8100589,568.231229 -66.4409628,551.18373 C-61.0714008,534.134606 -51.0920452,519.006738 -32.3260089,514.813131 C-13.4587987,510.596769 -0.176418745,514.177589 10.9178107,520.987323 C16.4755904,524.399099 21.4917875,528.626839 26.3935715,533.112211 C28.2364397,534.797781 30.066232,536.523986 31.9033794,538.256693 L31.9066484,538.259132 C34.9426817,541.123138 37.9975114,544.00421 41.1569474,546.74956 C43.6511529,548.917069 46.8963987,551.379594 50.4955079,554.109502 L50.7259685,554.284236 C54.4215116,557.088101 58.4864455,560.178041 62.5211417,563.541054 C70.5954375,570.271955 78.5095549,578.069138 83.0656479,586.798505 C87.6094824,595.50674 88.8108199,605.134156 83.477535,615.592979 C78.12954,626.082685 66.1856298,637.456624 44.3090282,649.557943 C0.525995953,673.776022 -30.8674054,676.866775 -50.2230778,666.091807 C-69.5531233,655.332279 -77.0989923,630.607067 -72.8535227,598.625939 L-72.8507441,598.604808 L-72.8501557,598.583677 Z M-32.5938923,513.837595 C-51.8205987,518.134632 -61.9691292,533.637363 -67.3877307,550.843431 C-72.8034408,568.040539 -73.5305854,587.041994 -73.8479126,598.553165 C-78.1121057,630.713736 -70.5666817,655.94284 -50.7517021,666.973394 C-30.9581119,677.992544 0.85634715,674.706431 44.7915206,650.401903 C66.7747516,638.240678 78.9126667,626.740912 84.3808306,616.015019 C89.865376,605.258172 88.6187395,595.328962 83.9639199,586.409862 C79.3213865,577.511941 71.2854135,569.612725 63.1724472,562.849067 C59.1130972,559.464386 55.0242605,556.356672 51.3220285,553.547102 L51.1082491,553.384996 L51.1074301,553.384996 C47.4862868,550.637336 44.2525673,548.183749 41.7732186,546.029121 C38.6156734,543.285534 35.5801708,540.421386 32.5479445,537.561311 C30.7033811,535.821316 28.8604559,534.082951 26.9929583,532.373912 C22.067024,527.865893 16.9944747,523.587592 11.3572531,520.127154 C0.0617597029,513.193243 -13.4686696,509.562553 -32.5938923,513.837595 Z" id="sp_02"></path>
            </g>
        </g>
    </g>
</svg>