<?xml version="1.0" encoding="UTF-8"?>
<svg width="243px" height="54px" viewBox="0 0 351 80" version="1.1" xmlns="http://www.w3.org/2000/svg" xmlns:xlink="http://www.w3.org/1999/xlink">
    <!-- Generator: Sketch 46.2 (44496) - http://www.bohemiancoding.com/sketch -->
    <title>Artboard</title>
    <desc>Created with Sketch.</desc>
    <defs>
        <linearGradient x1="0%" y1="50%" x2="100%" y2="50%" id="linearGradient-1">
            <stop stop-color="#FF004E" offset="0%"></stop>
            <stop stop-color="#8C1AB0" offset="43.9433195%"></stop>
            <stop stop-color="#4965CF" offset="63.0680006%"></stop>
            <stop stop-color="#05F3D2" offset="100%"></stop>
        </linearGradient>
    </defs>
    <g id="Page-1" stroke="none" stroke-width="1" fill="none" fill-rule="evenodd">
        <g id="Artboard">
            <polygon id="Fill-1" fill="#D53147" points="188.0856 68.4325 188.0856 31.1075 195.2636 31.1075 207.9226 59.4275 220.3206 31.1075 227.2376 31.1075 227.2376 68.4325 220.8436 68.4325 220.8436 42.4355 210.7156 68.4325 204.8166 68.4325 194.4806 42.4355 194.4806 68.4325"></polygon>
            <path d="M232.2229,41.0258 L239.5569,41.0258 L246.4739,60.7588 L253.2349,41.0258 L260.4389,41.0258 L249.0579,69.2418 C247.0399,74.2178 243.8119,77.7588 239.3749,79.8648 L236.0339,75.1408 C239.0959,73.8008 241.3239,71.6168 242.7159,68.5888 L232.2229,41.0258 Z" id="Fill-2" fill="#D53147"></path>
            <polygon id="Fill-4" fill="#FFFFFF" points="262.4211 31.1073 269.4421 31.1073 273.4361 57.9133 283.1461 31.1073 289.8011 31.1073 298.8851 56.8693 303.1131 31.1073 309.9261 31.1073 302.9041 68.4323 296.3271 68.4323 286.0691 39.1463 275.0541 68.4323 268.5551 68.4323"></polygon>
            <path d="M315.172,68.4329 L322.089,68.4329 L322.089,41.0259 L315.172,41.0259 L315.172,68.4329 Z M315.172,36.5889 L322.089,36.5889 L322.089,31.1079 L315.172,31.1079 L315.172,36.5889 Z" id="Fill-6" fill="#FFFFFF"></path>
            <polygon id="Fill-8" fill="#FFFFFF" points="329.683 68.4329 336.6 68.4329 336.6 31.1079 329.683 31.1079"></polygon>
            <polygon id="Fill-9" fill="#FFFFFF" points="344.195 68.4329 351.112 68.4329 351.112 31.1079 344.195 31.1079"></polygon>
            <path d="M66.047,1.0089 C59.378,1.9099 50.508,50.9979 44.969,50.3549 L44.969,50.3549 C39.097,49.6739 40.044,16.9479 30.179,16.9479 L30.179,16.9479 C19.889,17.1169 18.642,52.9209 13.414,52.9209 L13.414,52.9209 C8.185,52.9209 6.955,34.0649 6.955,34.0649 L6.955,34.0649 C6.551,32.1659 4.684,30.9539 2.786,31.3579 L2.786,31.3579 C1.146,31.7069 0.018,33.1449 0,34.7539 L0,34.7539 L0,34.8329 C0.003,35.0619 0.028,35.2949 0.077,35.5279 L0.077,35.5279 C0.077,35.5279 3.236,61.5739 12.692,61.5739 L12.692,61.5739 C25.277,61.5739 26.938,25.6899 30.183,25.6899 L30.183,25.6899 C33.429,25.6899 31.944,58.7039 45.022,58.7039 L45.022,58.7039 C57.659,59.4259 60.109,25.3359 65.157,16.6819 L65.157,16.6819 C65.698,17.2219 63.176,79.6319 75.797,79.9929 L75.797,79.9929 C92.204,79.9929 91.12,40.8409 95.447,40.4799 L95.447,40.4799 C97.249,40.1199 96.549,60.8459 106.824,60.8459 L106.824,60.8459 C125.403,60.3639 129.894,58.4969 148.465,58.4969 L148.465,58.4969 C167.035,58.4969 173.497,59.9219 173.497,59.9219 L173.497,59.9219 C175.348,60.5059 177.322,59.4779 177.906,57.6259 L177.906,57.6259 C178.49,55.7739 177.462,53.7989 175.61,53.2159 L175.61,53.2159 C175.61,53.2159 166.849,50.9049 148.82,50.9049 L148.82,50.9049 C130.79,50.9049 111.728,52.7089 108.426,52.7089 L108.426,52.7089 C103.378,52.7089 102.118,25.1559 94.906,24.2539 L94.906,24.2539 C91.002,23.6189 88.15,35.7299 85.498,47.8409 L85.498,47.8409 C82.885,59.7779 80.465,71.7159 77.423,71.4469 L77.423,71.4469 C71.332,70.9079 74.305,0.9949 66.204,0.9999 L66.204,0.9999 C66.152,0.9999 66.1,1.0029 66.047,1.0089" id="Fill-11" fill="url(#linearGradient-1)"></path>
        </g>
    </g>
</svg>