<?xml version="1.0" encoding="UTF-8"?>
<svg width="50px" height="50px" viewBox="0 0 50 50" version="1.1" xmlns="http://www.w3.org/2000/svg" xmlns:xlink="http://www.w3.org/1999/xlink">
    <!-- Generator: Sketch 46.2 (44496) - http://www.bohemiancoding.com/sketch -->
    <title>play_button</title>
    <desc>Created with Sketch.</desc>
    <defs>
        <linearGradient x1="2.42890995%" y1="112.652853%" x2="121.330717%" y2="-45.9748641%" id="linearGradient-1">
            <stop stop-color="#F7618B" offset="0%"></stop>
            <stop stop-color="#2A7AFF" offset="100%"></stop>
        </linearGradient>
    </defs>
    <g id="Page-1" stroke="none" stroke-width="1" fill="none" fill-rule="evenodd">
        <path d="M25,1 C11.7664,1 1,11.7664 1,25 C1,38.2336 11.7664,49 25,49 C38.2336,49 49,38.2336 49,25 C49,11.7664 38.2336,1 25,1 Z M37.4504,25.6608 L19.8504,37.6608 C19.7152,37.7528 19.5576,37.8 19.4,37.8 C19.272,37.8 19.1432,37.7696 19.0264,37.7072 C18.764,37.5688 18.6,37.2968 18.6,37 L18.6,13 C18.6,12.7032 18.764,12.4312 19.0264,12.2928 C19.2888,12.1536 19.6056,12.1728 19.8512,12.3392 L37.4512,24.3392 C37.6688,24.488 37.8,24.7352 37.8,25 C37.8,25.2648 37.6688,25.512 37.4504,25.6608 Z" id="play_button" stroke="url(#linearGradient-1)" fill="url(#linearGradient-1)" fill-rule="nonzero"></path>
    </g>
</svg>