<?xml version="1.0" encoding="UTF-8"?>
<svg width="92px" height="102px" viewBox="0 0 92 102" version="1.1" xmlns="http://www.w3.org/2000/svg" xmlns:xlink="http://www.w3.org/1999/xlink">
    <!-- Generator: Sketch 46.2 (44496) - http://www.bohemiancoding.com/sketch -->
    <title>play</title>
    <desc>Created with Sketch.</desc>
    <defs>
        <path d="M53.1394727,28.0511295 L61.6942948,69.4218162 L61.6942948,69.4218162 C62.4771604,73.2077144 60.0427214,76.9114293 56.2568232,77.6942948 C55.3217126,77.8876613 54.3569269,77.8876613 53.4218162,77.6942948 L12.0511295,69.1394727 L12.0511295,69.1394727 C8.26523129,68.3566071 5.83079232,64.6528923 6.61365788,60.8669941 C6.89036336,59.5288604 7.55266409,58.3009715 8.51888553,57.3347501 L41.3347501,24.5188855 L41.3347501,24.5188855 C44.0684202,21.7852155 48.500575,21.7852155 51.234245,24.5188855 C52.2004665,25.485107 52.8627672,26.7129958 53.1394727,28.0511295 Z" id="path-1"></path>
        <filter x="-61.4%" y="-57.8%" width="222.8%" height="222.8%" filterUnits="objectBoundingBox" id="filter-2">
            <feOffset dx="0" dy="2" in="SourceAlpha" result="shadowOffsetOuter1"></feOffset>
            <feGaussianBlur stdDeviation="11" in="shadowOffsetOuter1" result="shadowBlurOuter1"></feGaussianBlur>
            <feColorMatrix values="0 0 0 0 0.206260629   0 0 0 0 0.094393699   0 0 0 0 0.094393699  0 0 0 0.5 0" type="matrix" in="shadowBlurOuter1"></feColorMatrix>
        </filter>
    </defs>
    <g id="Page-1" stroke="none" stroke-width="1" fill="none" fill-rule="evenodd">
        <g id="play" transform="translate(34.153976, 50.153976) rotate(-45.000000) translate(-34.153976, -50.153976) ">
            <use fill="black" fill-opacity="1" filter="url(#filter-2)" xlink:href="#path-1"></use>
            <use fill="#FFFFFF" fill-rule="evenodd" xlink:href="#path-1"></use>
        </g>
    </g>
</svg>