<svg width="34" height="37" viewBox="0 0 34 37" version="1.1" xmlns="http://www.w3.org/2000/svg" xmlns:xlink="http://www.w3.org/1999/xlink">
    <title>support</title>
    <desc>Created using Figma</desc>
    <g id="Canvas" transform="translate(2087 1564)">
        <g id="support">
            <g id="Group">
                <g id="Vector">
                    <use xlink:href="#path0_fill" transform="translate(-2078.02 -1545.96)" fill="#FFD800"/>
                </g>
                <g id="Vector">
                    <use xlink:href="#path1_fill" transform="translate(-2087 -1564)" fill="#FFD800"/>
                </g>
                <g id="Vector">
                    <use xlink:href="#path2_fill" transform="translate(-2066.67 -1561)" fill="#FFD800"/>
                </g>
                <g id="Vector">
                    <use xlink:href="#path3_fill" transform="translate(-2064.21 -1551.12)" fill="#FFD800"/>
                </g>
            </g>
        </g>
    </g>
    <defs>
        <path id="path0_fill" d="M 4.99494 -4.46099e-08C 2.2407 -4.46099e-08 -3.57022e-07 2.23993 -3.57022e-07 4.99294C -3.57022e-07 7.7462 2.24082 9.986 4.99494 9.986C 7.74929 9.98588 9.98999 7.74595 9.98999 4.99294C 9.98999 2.23993 7.74954 -4.46099e-08 4.99494 -4.46099e-08ZM 4.99494 8.15878C 3.24863 8.15878 1.82795 6.73855 1.82795 4.99294C 1.82795 3.24734 3.24863 1.82722 4.99542 1.82722C 6.74148 1.82722 8.16204 3.24734 8.16204 4.99294C 8.16204 6.73855 6.74124 8.15878 4.99494 8.15878Z"/>
        <path id="path1_fill" d="M 29.8808 0L 18.6196 0C 16.3483 0 14.5006 1.84769 14.5006 4.11892L 14.5006 9.06375L 12.108 9.06375C 11.6031 9.06375 11.194 9.47268 11.194 9.97736L 11.194 11.5718C 10.0039 11.8579 8.87835 12.3242 7.83277 12.9643L 6.70456 11.8364C 6.34762 11.4798 5.76889 11.4796 5.41207 11.8364L 2.77373 14.4735C 2.60227 14.6449 2.506 14.8772 2.506 15.1196C 2.506 15.3619 2.60227 15.5942 2.77361 15.7657L 3.90194 16.8936C 3.26167 17.9388 2.7953 19.0638 2.50904 20.2534L 0.913975 20.2534C 0.409095 20.2534 0 20.6623 0 21.167L 0 24.8967C 0 25.4014 0.409095 25.8103 0.913975 25.8103L 2.50904 25.8103C 2.7953 26.9999 3.26179 28.1249 3.90194 29.1701L 2.77361 30.2979C 2.41667 30.6548 2.41667 31.2332 2.77361 31.5901L 5.41195 34.2274C 5.76901 34.5841 6.34762 34.5841 6.70456 34.2274L 7.83277 33.0995C 8.87823 33.7395 10.0039 34.2057 11.194 34.492L 11.194 36.0864C 11.194 36.5911 11.6031 37 12.108 37L 15.8392 37C 16.3441 37 16.7532 36.5911 16.7532 36.0864L 16.7532 34.492C 17.9434 34.2057 19.0689 33.7395 20.1143 33.0995L 21.2427 34.2274C 21.5995 34.5841 22.1783 34.5841 22.5353 34.2274L 25.1737 31.5901C 25.345 31.4187 25.4413 31.1863 25.4413 30.944C 25.4413 30.7017 25.345 30.4694 25.1737 30.2979L 24.0453 29.17C 24.6855 28.1249 25.152 26.9997 25.4382 25.8103L 27.0333 25.8103C 27.5382 25.8103 27.9473 25.4014 27.9473 24.8967L 27.9473 21.167C 27.9473 20.6623 27.5382 20.2534 27.0333 20.2534L 25.4382 20.2534C 25.3358 19.8279 25.2076 19.4118 25.0591 19.0036L 26.7918 17.7566L 29.8809 17.7566C 32.1522 17.7566 34 15.9086 34 13.6373L 34 4.11892C 33.9999 1.84769 32.1521 0 29.8808 0ZM 23.7935 21.3224C 23.8693 21.7605 24.2493 22.0805 24.6941 22.0805L 26.1193 22.0805L 26.1193 23.983L 24.6941 23.983C 24.2495 23.983 23.8693 24.303 23.7935 24.7411C 23.5416 26.1983 22.9804 27.5517 22.1258 28.7637C 21.8696 29.1269 21.9123 29.6218 22.2265 29.9361L 23.2348 30.9437L 21.889 32.2891L 20.8807 31.2813C 20.5663 30.967 20.0713 30.9245 19.7079 31.1807C 18.4957 32.035 17.1415 32.5957 15.6836 32.8477C 15.2453 32.9235 14.9252 33.3034 14.9252 33.748L 14.9252 35.1727L 13.022 35.1727L 13.022 33.748C 13.022 33.3035 12.7018 32.9235 12.2636 32.8477C 10.8056 32.5959 9.4516 32.035 8.2393 31.1807C 7.87603 30.9245 7.38102 30.9669 7.06637 31.2813L 6.05832 32.2891L 4.71246 30.9437L 5.72063 29.9361C 6.03492 29.6218 6.07757 29.1269 5.82141 28.7637C 4.96678 27.5517 4.40573 26.1982 4.15371 24.7411C 4.07791 24.303 3.69782 23.983 3.25302 23.983L 1.82795 23.983L 1.82795 22.0805L 3.25314 22.0805C 3.69782 22.0805 4.07804 21.7605 4.15383 21.3224C 4.40573 19.8653 4.96691 18.5118 5.82153 17.2995C 6.07769 16.9363 6.03504 16.4415 5.72075 16.1272L 4.71258 15.1195L 6.05844 13.7743L 7.06649 14.7821C 7.38114 15.0964 7.87615 15.1389 8.2393 14.8827C 9.45197 14.0284 10.806 13.4676 12.2637 13.2157C 12.7019 13.1399 13.0221 12.76 13.0221 12.3153L 13.0221 10.8908L 14.5008 10.8908L 14.5008 13.637C 14.5008 15.9084 16.3485 17.7563 18.6197 17.7563L 19.5391 17.7563L 19.5391 21.1928C 19.5391 21.5356 19.7311 21.8498 20.0364 22.006C 20.1678 22.0733 20.3106 22.1064 20.4529 22.1064C 20.6412 22.1064 20.8286 22.0483 20.9872 21.9342L 23.5076 20.1201C 23.6266 20.5124 23.7227 20.9131 23.7935 21.3224ZM 32.1719 13.637C 32.1719 14.9009 31.1441 15.9291 29.8808 15.9291L 26.4969 15.9291C 26.3052 15.9291 26.1185 15.9893 25.9627 16.1013L 21.3668 19.4092L 21.3668 16.8427C 21.3668 16.338 20.9576 15.9291 20.4528 15.9291L 18.6196 15.9291C 17.3564 15.9291 16.3286 14.9009 16.3286 13.637L 16.3286 4.11892C 16.3286 2.85534 17.3564 1.82722 18.6196 1.82722L 29.8808 1.82722C 31.1441 1.82722 32.1719 2.85534 32.1719 4.11892L 32.1719 13.637Z"/>
        <path id="path2_fill" d="M 3.81932 -3.90336e-08C 1.7134 -3.90336e-08 -4.31401e-07 1.71272 -4.31401e-07 3.81792C -4.31401e-07 4.32247 0.409095 4.73153 0.913975 4.73153C 1.41885 4.73153 1.82795 4.32247 1.82795 3.81792C 1.82795 2.72024 2.72121 1.82722 3.81932 1.82722C 4.91743 1.82722 5.81069 2.72024 5.81069 3.81792C 5.81069 4.91681 4.38976 6.32304 3.44946 7.25358C 3.35429 7.34786 3.2618 7.43935 3.17308 7.52803C 2.81614 7.88494 2.81614 8.46332 3.17308 8.82012C 3.35161 8.99845 3.58559 9.08762 3.81944 9.08762C 4.0533 9.08762 4.28727 8.99845 4.4658 8.82012C 4.55233 8.73351 4.64275 8.64409 4.73573 8.552C 5.96095 7.33958 7.63876 5.67888 7.63876 3.81792C 7.63864 1.71259 5.92536 -3.90336e-08 3.81932 -3.90336e-08Z"/>
        <path id="path3_fill" d="M 1.09677 -1.26395e-07C 0.807954 -1.26395e-07 0.525109 0.116942 0.321719 0.321591C 0.116988 0.525021 -3.2727e-07 0.807632 -3.2727e-07 1.09633C -3.2727e-07 1.38503 0.116988 1.66764 0.321719 1.87229C 0.525231 2.07572 0.807954 2.19266 1.09677 2.19266C 1.38559 2.19266 1.66819 2.07572 1.87304 1.87229C 2.07655 1.66752 2.19354 1.38503 2.19354 1.09633C 2.19354 0.807632 2.07655 0.525021 1.87304 0.321591C 1.66831 0.116942 1.38559 -1.26395e-07 1.09677 -1.26395e-07Z"/>
    </defs>
</svg>
