<?xml version="1.0" encoding="UTF-8"?>
<svg width="23px" height="24px" viewBox="0 0 23 24" version="1.1" xmlns="http://www.w3.org/2000/svg" xmlns:xlink="http://www.w3.org/1999/xlink">
    <!-- Generator: Sketch 46.2 (44496) - http://www.bohemiancoding.com/sketch -->
    <title>support</title>
    <desc>Created with Sketch.</desc>
    <defs>
        <linearGradient x1="2.42890995%" y1="112.652853%" x2="121.330717%" y2="-45.9748641%" id="linearGradient-1">
            <stop stop-color="#F7618B" offset="0%"></stop>
            <stop stop-color="#2A7AFF" offset="100%"></stop>
        </linearGradient>
    </defs>
    <g id="Page-1" stroke="none" stroke-width="1" fill="none" fill-rule="evenodd">
        <path d="M19.1386977,9.36554622 L19.1386977,8.5197479 C19.1386977,6.49537815 18.4116488,4.61428571 17.0935795,3.21848739 C15.7426757,1.78571429 13.885183,1 11.8588273,1 L11.150541,1 C9.12418528,1 7.26669257,1.78571429 5.91578878,3.21848739 C4.59771946,4.61428571 3.87067055,6.49537815 3.87067055,8.5197479 L3.87067055,9.36554622 C2.27116294,9.47184874 1,10.7844538 1,12.3882353 L1,13.710084 C1,15.3785714 2.37904762,16.737395 4.07236799,16.737395 L5.80321347,16.737395 C6.11279559,16.737395 6.36609005,16.4878151 6.36609005,16.1827731 L6.36609005,9.91092437 C6.36609005,9.60588235 6.11279559,9.35630252 5.80321347,9.35630252 L4.99642371,9.35630252 L4.99642371,8.5197479 C4.99642371,4.86386555 7.64194363,2.1092437 11.1458503,2.1092437 L11.8541367,2.1092437 C15.362734,2.1092437 18.0035633,4.86386555 18.0035633,8.5197479 L18.0035633,9.35630252 L17.1967735,9.35630252 C16.8871914,9.35630252 16.633897,9.60588235 16.633897,9.91092437 L16.633897,16.1781513 C16.633897,16.4831933 16.8871914,16.7327731 17.1967735,16.7327731 L17.9848008,16.7327731 C17.7549595,19.6260504 15.7332944,20.2962185 14.7951668,20.4487395 C14.5371817,19.6676471 13.7913702,19.1037815 12.9142209,19.1037815 L11.5070295,19.1037815 C10.4188014,19.1037815 9.5322708,19.9773109 9.5322708,21.0495798 C9.5322708,22.1218487 10.4188014,23 11.5070295,23 L12.9189115,23 C13.8288953,23 14.5934694,22.389916 14.8233106,21.5672269 C15.2829932,21.502521 16.0100421,21.3407563 16.7324004,20.9247899 C17.7502688,20.3378151 18.9557629,19.1407563 19.1152445,16.7281513 C20.7241334,16.6310924 21.999987,15.3138655 21.999987,13.7054622 L21.999987,12.3836134 C22.0046777,10.7844538 20.7382053,9.46722689 19.1386977,9.36554622 Z M5.24971817,15.6235294 L4.08174927,15.6235294 C3.00759313,15.6235294 2.13513443,14.7638655 2.13513443,13.7054622 L2.13513443,12.3836134 C2.13513443,11.3252101 3.00759313,10.4655462 4.08174927,10.4655462 L5.24971817,10.4655462 L5.24971817,15.6235294 Z M12.9189115,21.8907563 L11.5070295,21.8907563 C11.0379656,21.8907563 10.658024,21.5163866 10.658024,21.0542017 C10.658024,20.5920168 11.0379656,20.2176471 11.5070295,20.2176471 L12.9189115,20.2176471 C13.3879754,20.2176471 13.7679171,20.5920168 13.7679171,21.0542017 C13.7679171,21.5163866 13.3879754,21.8907563 12.9189115,21.8907563 Z M20.8789245,13.7054622 C20.8789245,14.7638655 20.0064658,15.6235294 18.9323097,15.6235294 L17.7643408,15.6235294 L17.7643408,10.4655462 L18.9323097,10.4655462 C20.0064658,10.4655462 20.8789245,11.3252101 20.8789245,12.3836134 L20.8789245,13.7054622 Z" id="support" stroke="url(#linearGradient-1)" fill="url(#linearGradient-1)" fill-rule="nonzero"></path>
    </g>
</svg>