<svg width="167" height="43" viewBox="0 0 167 43" version="1.1" xmlns="http://www.w3.org/2000/svg" xmlns:xlink="http://www.w3.org/1999/xlink">
<g id="Canvas" fill="none">
<g id="logo.hor.black">
<g id="Page 1">
<g id="logo.hor.black_2">
<g id="Rectangle path">
<path d="M 87.245 0L 3.90649 0C 1.749 0 0 1.69868 0 3.79412L 0 39.2059C 0 41.3013 1.749 43 3.90649 43L 87.245 43C 89.4025 43 91.1514 41.3013 91.1514 39.2059L 91.1514 3.79412C 91.1514 1.69868 89.4025 0 87.245 0Z" transform="translate(75.8486 0)" fill="#101934"/>
</g>
<g id="Shape">
<path d="M 6.83375 24.0294L 5.53159 24.0294L 5.53159 26.5588L 1.6251 26.5588L 1.6251 24.0294L -3.35297e-08 24.0294L -3.35297e-08 2.53953L 1.6251 2.53953L 1.6251 0L 5.53159 0L 5.53159 2.53953L 6.83375 2.53953L 6.83375 0L 10.7402 0L 10.7402 2.68118C 10.972 2.71406 11.2038 2.752 11.4382 2.79753C 12.2959 2.95568 13.1201 3.25327 13.8759 3.67776C 14.6051 4.09259 15.1989 4.65412 15.6572 5.36235C 16.1156 6.07059 16.3448 6.97106 16.3448 8.06377C 16.3448 9.25765 16.0114 10.2441 15.3447 11.0232C 14.678 11.8022 13.8029 12.3638 12.7195 12.7078L 12.7195 12.7685C 13.3446 12.8696 13.9332 13.0568 14.4853 13.33C 15.0245 13.5937 15.5112 13.9483 15.9229 14.3772C 16.3291 14.8021 16.6521 15.2979 16.8917 15.8645C 17.1313 16.4311 17.2511 17.0685 17.2511 17.7767C 17.2511 18.9504 17.0115 19.9368 16.5323 20.7361C 16.0683 21.5201 15.4138 22.1818 14.6259 22.6635C 13.7953 23.1644 12.8801 23.5189 11.9226 23.7107C 11.532 23.7929 11.1387 23.8587 10.7402 23.9093L 10.7402 26.5588L 6.83375 26.5588L 6.83375 24.0294ZM 11.1882 8.76188C 11.1882 8.03341 10.9017 7.50224 10.3288 7.16835C 9.75581 6.83447 8.9068 6.66753 7.78173 6.66753L 5.15657 6.66753L 5.15657 11.0991L 8.03174 11.0991C 9.03181 11.0991 9.8079 10.9018 10.36 10.5072C 10.9121 10.1126 11.1882 9.53082 11.1882 8.76188ZM 11.907 17.2911C 11.907 16.4007 11.5632 15.7835 10.8757 15.4395C 10.1881 15.0955 9.2714 14.9235 8.1255 14.9235L 5.15657 14.9235L 5.15657 19.8407L 8.15675 19.8407C 8.57344 19.8407 9.00576 19.8053 9.45371 19.7345C 9.90165 19.6636 10.3079 19.5372 10.6725 19.3551C 11.0371 19.1729 11.334 18.9149 11.5632 18.5811C 11.7924 18.2472 11.907 17.8172 11.907 17.2911ZM 20.7825 24.0294L 20.7825 2.53953L 35.6584 2.53953L 35.6584 6.94071L 25.9391 6.94071L 25.9391 10.9776L 35.1272 10.9776L 35.1272 15.136L 25.9391 15.136L 25.9391 19.5979L 36.221 19.5979L 36.221 24.0294L 20.7825 24.0294ZM 51.4407 8.12447C 50.9609 7.5417 50.3449 7.07862 49.6437 6.77376C 48.9041 6.43988 48.1905 6.27294 47.5029 6.27294C 47.1487 6.27294 46.7893 6.30329 46.4247 6.364C 46.0601 6.42471 45.732 6.54106 45.4403 6.71306C 45.1503 6.88357 44.9002 7.11101 44.7059 7.38082C 44.5079 7.654 44.409 8.00306 44.409 8.428C 44.409 8.79223 44.4871 9.09576 44.6434 9.33859C 44.7996 9.58141 45.0288 9.79388 45.3309 9.976C 45.633 10.1581 45.9924 10.3251 46.4091 10.4768C 46.8258 10.6286 47.2946 10.7854 47.8154 10.9473C 48.5655 11.1901 49.3468 11.4582 50.1593 11.7516C 50.9719 12.0451 51.7115 12.4346 52.3782 12.9202C 53.0449 13.4059 53.5971 14.0079 54.0346 14.7262C 54.4721 15.4446 54.6909 16.34 54.6909 17.4125C 54.6909 18.6468 54.4565 19.7142 53.9877 20.6147C 53.5412 21.4889 52.8944 22.2521 52.097 22.8456C 51.2833 23.443 50.3609 23.8859 49.378 24.1508C 48.3515 24.4349 47.289 24.5779 46.2216 24.5758C 44.6529 24.5783 43.0966 24.3058 41.6276 23.7714C 40.1483 23.2352 38.9191 22.4713 37.9398 21.4798L 41.44 18.0195C 41.9818 18.6671 42.6953 19.2084 43.5808 19.6434C 44.4663 20.0785 45.3465 20.296 46.2216 20.296C 46.6175 20.296 47.0029 20.2555 47.3779 20.1746C 47.7529 20.0936 48.0811 19.9621 48.3624 19.78C 48.6436 19.5979 48.8676 19.3551 49.0343 19.0515C 49.2009 18.748 49.2843 18.3838 49.2843 17.9588C 49.2843 17.5541 49.1801 17.2101 48.9718 16.9268C 48.7303 16.6143 48.4276 16.3513 48.0811 16.1528C 47.6275 15.8896 47.1454 15.6758 46.6435 15.5154C 46.0705 15.3232 45.4195 15.1158 44.6903 14.8932C 43.9819 14.6706 43.2879 14.4071 42.612 14.104C 41.9484 13.8092 41.3367 13.4149 40.7994 12.9354C 40.2584 12.4469 39.8229 11.8588 39.5181 11.2053C 39.1951 10.5274 39.0337 9.70282 39.0337 8.73153C 39.0337 7.53765 39.2837 6.51576 39.7837 5.66588C 40.2685 4.83217 40.9417 4.1161 41.7526 3.57153C 42.588 3.01515 43.5195 2.60906 44.5027 2.37259C 45.5236 2.11965 46.555 1.99318 47.5967 1.99318C 48.8468 1.99318 50.1229 2.21576 51.425 2.66094C 52.692 3.08579 53.8564 3.75711 54.8471 4.63388L 51.4407 8.12447ZM 67.2854 6.97106L 67.2854 24.0294L 61.9413 24.0294L 61.9413 6.97106L 55.6909 6.97106L 55.6909 2.53953L 73.5358 2.53953L 73.5358 6.97106L 67.2854 6.97106Z" transform="translate(0 7.58789)" fill="#101934"/>
</g>
<g id="Shape_2">
<path d="M 18.0402 21.4014L 27.2829 4.72798e-07L 32.4707 4.72798e-07L 41.6588 21.4899L 35.7209 21.4899L 34.0021 17.2708L 25.4391 17.2708L 23.814 21.4899L 11.8445 21.4899L 7.06293 12.9607L 5.25032 12.9607L 5.25032 21.4899L 8.74255e-07 21.4899L 8.74255e-07 4.72798e-07L 8.43801 4.72798e-07C 9.50058 4.72798e-07 10.5371 0.106236 11.5476 0.318706C 12.514 0.513651 13.4355 0.878852 14.2665 1.39624C 15.0686 1.90212 15.7093 2.56988 16.1885 3.39953C 16.6677 4.22918 16.9073 5.26118 16.9073 6.49553C 16.9073 7.95247 16.501 9.17671 15.6885 10.1682C 14.8759 11.1598 13.7508 11.868 12.3133 12.2929L 18.0389 21.4014L 18.0402 21.4014ZM 11.6257 6.58659C 11.6257 6.08071 11.5163 5.67094 11.2976 5.3573C 11.0847 5.0487 10.7943 4.79796 10.4538 4.62882C 10.0909 4.45102 9.70015 4.33305 9.29745 4.27977C 8.88878 4.22041 8.47621 4.18998 8.063 4.18871L 5.21907 4.18871L 5.21907 9.19694L 7.75047 9.19694C 8.188 9.19694 8.63595 9.16153 9.09431 9.09071C 9.55267 9.01988 9.96936 8.89341 10.3444 8.71129C 10.7194 8.52918 11.0267 8.26612 11.2663 7.92212C 11.5059 7.57812 11.6257 7.13294 11.6257 6.58659ZM 29.7831 5.73671L 26.9704 13.1125L 32.5333 13.1125L 29.7831 5.73671ZM 51.0969 4.43153L 51.0969 21.4899L 45.7528 21.4899L 45.7528 4.43153L 39.5024 4.43153L 39.5024 4.72798e-07L 57.3473 4.72798e-07L 57.3473 4.43153L 51.0969 4.43153ZM 59.7849 21.4899L 59.7849 4.72798e-07L 74.6608 4.72798e-07L 74.6608 4.40118L 64.9415 4.40118L 64.9415 8.43812L 74.1296 8.43812L 74.1296 12.5965L 64.9415 12.5965L 64.9415 17.0584L 75.2234 17.0584L 75.2234 21.4899L 59.7849 21.4899Z" transform="translate(85.0889 10.1274)" fill="white"/>
</g>
</g>
</g>
</g>
</g>
</svg>

