<svg width="553" height="157" viewBox="0 0 553 157" fill="none" xmlns="http://www.w3.org/2000/svg">
<path d="M356.8 132.1C359.9 136.2 364.6 139.2 369.6 140.4L368.3 146.1C361.9 144.6 356.1 140.9 352.1 135.7L356.8 132.1Z" fill="#C92839"/>
<path d="M324.3 41.2C326.1 40.6 327.8 39.2 328.8 37.6L330.7 38.7C329.4 40.8 327.4 42.5 325.1 43.3L324.3 41.2Z" fill="#FFF7FF"/>
<path d="M233 123C233.8 125.7 235.6 128.1 237.9 129.7L236.1 132.3C233.2 130.3 231 127.3 230 123.9L233 123Z" fill="#FFA648"/>
<path d="M285.082 73.8889L280.299 81.6302L282.851 83.207L287.634 75.4657L285.082 73.8889Z" fill="#C92839"/>
<path d="M389.5 134C387.8 134.7 386 134.9 384.2 134.5L384.5 132.9C385.9 133.2 387.5 133.1 388.8 132.5L389.5 134Z" fill="#FFF7FF"/>
<path d="M345.1 52.5H342.5V60.3H345.1V52.5Z" fill="#FFF7FF"/>
<path d="M383.528 94L377 100.049L379.039 102.25L385.567 96.2005L383.528 94Z" fill="#FFA648"/>
<path d="M280.527 150.635L272.688 154.174L273.882 156.817L281.72 153.278L280.527 150.635Z" fill="#FFF7FF"/>
<path d="M329.144 128.825L327.46 130.391L332.091 135.37L333.775 133.804L329.144 128.825Z" fill="#FFA648"/>
<path d="M368 30.1C372.7 27.7 376.6 23.7 379 19L384.3 21.6C381.4 27.5 376.6 32.4 370.7 35.4L368 30.1Z" fill="#FFA648"/>
<path d="M346.8 92.5C343.7 95.2 341.1 98.5 339.1 102.1L335.3 100C337.5 96 340.5 92.4 343.9 89.3L346.8 92.5Z" fill="#C92839"/>
<path d="M299.284 34.1194L294.721 34.6995L294.91 36.1875L299.473 35.6074L299.284 34.1194Z" fill="#C92839"/>
<path d="M316.1 0C317.1 2 318.3 3.9 319.7 5.7L317.9 7.2C316.4 5.3 315.1 3.2 314 1.1L316.1 0Z" fill="#FFA648"/>
<path d="M318.024 25.0947L315.712 27.4499L316.497 28.2205L318.809 25.8653L318.024 25.0947Z" fill="#FFF7FF"/>
<path d="M237.662 47.6853L229.895 49.6021L230.541 52.2235L238.309 50.3067L237.662 47.6853Z" fill="#FFF7FF"/>
<path d="M381.773 52.6616C384.277 54.4668 386.743 56.4685 388.976 58.6288L386.834 60.7629C384.681 58.7197 382.411 56.7558 379.986 55.0676L381.773 52.6616Z" fill="#C92839"/>
<path d="M349.391 139.538L344.077 143.939L345.544 145.71L350.858 141.309L349.391 139.538Z" fill="#FFF7FF"/>
<path d="M325.8 117.4C321.1 114.9 317.5 111.4 314.8 107.1C312.2 102.7 310.8 97.8 310.8 92.4C310.8 90.6 311.3 89.2 312.4 88C313.4 86.8 314.8 86.2 316.4 86.2C318 86.2 319.3 86.8 320.4 88C321.4 89.2 322 90.7 322 92.4C322 95.7 322.8 98.7 324.5 101.5C326.2 104.3 328.5 106.5 331.4 108.1C334.3 109.7 337.5 110.6 341.1 110.6C346.5 110.6 350.7 109.1 353.9 106.2C357.1 103.2 358.7 99.2 358.7 94C358.7 90.7 358 87.7 356.5 84.9C355.1 82.1 353.1 80 350.6 78.4C348.1 76.8 345.3 76.1 342.3 76.1C340.5 76.1 339.1 75.5 337.9 74.3C336.7 73.1 336.2 71.6 336.2 69.9C336.2 68.1 336.8 66.7 337.9 65.5C339.1 64.3 340.5 63.8 342.3 63.8C344.5 63.8 346.7 63.2 348.8 62.1C350.9 60.9 352.6 59.4 354 57.4C355.3 55.4 356 53.2 356 50.8C356 47.3 354.7 44.3 352.2 41.9C349.6 39.5 346.4 38.3 342.4 38.3C339.4 38.3 336.6 38.9 334.1 40.1C331.6 41.3 329.6 42.9 328.1 44.9C326.6 46.9 325.9 49.1 325.9 51.6C325.9 53.4 325.4 55 324.3 56.2C323.3 57.4 321.9 58.1 320.3 58.1C318.7 58.1 317.4 57.5 316.3 56.4C315.3 55.2 314.7 53.8 314.7 52C314.7 47.4 315.9 43.3 318.3 39.6C320.7 35.9 324 33 328.1 30.8C332.3 28.7 336.9 27.6 342 27.6C346.6 27.6 350.9 28.6 354.7 30.7C358.5 32.7 361.6 35.5 363.8 39C366 42.5 367.1 46.4 367.1 50.8C367.1 55.1 365.7 58.9 363 62C360.3 65.2 356.9 67.7 352.8 69.5C358.9 71.6 363.4 74.8 366.4 79C369.4 83.3 370.8 88.3 370.8 94.2C370.8 99.3 369.5 104 366.8 108.1C364.2 112.3 360.6 115.5 356.2 117.9C351.8 120.3 346.9 121.4 341.7 121.4C335.8 121.2 330.5 119.9 325.8 117.4Z" fill="#3471F6"/>
<path d="M38.0999 81.6C38.5999 82 38.7999 82.7 38.6999 83.5C38.6999 84.3 38.2999 84.9 37.5999 85.3C36.8999 85.7 36.0999 86 35.1999 86H31.1999L29.7999 94.5H33.6999C34.5999 94.5 35.2999 94.7 35.7999 95.1C36.2999 95.5 36.4999 96.1 36.4999 96.9C36.4999 97.6 36.1999 98.2 35.4999 98.7C34.7999 99.2 33.9999 99.5 32.8999 99.5H28.5999L26.5999 111C26.3999 111.9 26.0999 112.7 25.4999 113.2C24.9999 113.7 24.1999 114 23.2999 114C22.5999 114 21.9999 113.8 21.5999 113.3C21.1999 112.8 20.8999 112.2 20.8999 111.4C20.8999 111.1 20.8999 110.9 20.9999 110.7L22.8999 99.4H13.5999L11.6999 110.9C11.4999 111.8 11.1999 112.5 10.5999 113.1C9.9999 113.7 9.2999 113.9 8.4999 113.9C7.6999 113.9 7.0999 113.7 6.6999 113.3C6.2999 112.9 5.9999 112.2 5.9999 111.4C5.9999 111.1 5.9999 110.8 6.0999 110.7L7.9999 99.4H3.6999C2.8999 99.4 2.1999 99.2 1.6999 98.8C1.1999 98.4 0.899902 97.9 0.899902 97.3C0.899902 96.3 1.1999 95.6 1.7999 95.1C2.3999 94.6 3.2999 94.3 4.3999 94.3H8.9999L10.4999 86H6.0999C5.2999 86 4.5999 85.8 4.0999 85.4C3.5999 85 3.2999 84.5 3.2999 83.7C3.2999 82.8 3.5999 82.1 4.1999 81.6C4.7999 81.1 5.6999 80.9 6.7999 80.9H11.6999L13.6999 70C14.0999 68 15.1999 67 16.8999 67C17.6999 67 18.2999 67.2 18.6999 67.7C19.0999 68.2 19.3999 68.8 19.3999 69.5C19.3999 69.8 19.3999 70.1 19.2999 70.2L17.3999 80.8H26.6999L28.6999 69.9C28.8999 69 29.1999 68.3 29.7999 67.7C30.3999 67.1 31.0999 66.9 31.9999 66.9C32.7999 66.9 33.3999 67.1 33.7999 67.6C34.1999 68 34.3999 68.6 34.3999 69.3C34.3999 69.7 34.3999 69.9 34.2999 70.1L32.3999 80.7H35.9999C36.8999 80.9 37.5999 81.1 38.0999 81.6ZM25.4999 86H16.1999L14.7999 94.5H23.9999L25.4999 86Z" fill="#3471F6"/>
<path d="M93.5999 68C94.1999 68.6 94.4999 69.3 94.4999 70.2V110.9C94.4999 111.8 94.1999 112.5 93.5999 113.1C92.9999 113.7 92.1999 114 91.3999 114C90.4999 114 89.7999 113.7 89.1999 113.1C88.5999 112.5 88.2999 111.8 88.2999 110.9V81L73.6999 110.7C72.9999 111.7 72.0999 112.3 70.9999 112.3C69.6999 112.3 68.6999 111.7 68.0999 110.4L53.6999 81.6V111C53.6999 111.9 53.3999 112.6 52.7999 113.2C52.1999 113.8 51.4999 114.1 50.5999 114.1C49.6999 114.1 48.9999 113.8 48.3999 113.2C47.7999 112.6 47.4999 111.9 47.4999 111V70.2C47.4999 69.3 47.7999 68.6 48.3999 68C48.9999 67.4 49.6999 67.1 50.5999 67.1C51.7999 67.1 52.6999 67.7 53.3999 68.8L71.2999 104.6L88.6999 68.8C89.2999 67.7 90.2999 67.1 91.4999 67.1C92.1999 67.1 92.9999 67.4 93.5999 68Z" fill="#3471F6"/>
<path d="M132.9 83.8C132.9 84.2 132.8 84.7 132.5 85.2L114.1 126.6C113.6 127.8 112.8 128.5 111.8 128.5C111.4 128.5 110.9 128.4 110.4 128.1C109.2 127.6 108.6 126.8 108.6 125.8C108.6 125.3 108.7 124.8 109 124.4L115 110.9L101.5 85.2C101.3 84.8 101.2 84.4 101.2 83.9C101.2 83.4 101.4 82.9 101.7 82.5C102 82.1 102.4 81.7 103 81.5C103.4 81.3 103.8 81.3 104.2 81.3C105.3 81.3 106.2 81.9 106.7 83L117.7 104.9L127.4 83.1C127.9 81.9 128.7 81.4 129.7 81.4C130.2 81.4 130.7 81.5 131.1 81.7C132.3 81.9 132.9 82.7 132.9 83.8Z" fill="#3471F6"/>
<path d="M188.1 67.8C188.5 68.3 188.7 68.9 188.7 69.7C188.7 70.3 188.6 70.9 188.5 71.4L176.4 111.5C176.1 112.3 175.7 112.9 175.2 113.3C174.7 113.8 174 114 173.3 114C172.6 114 171.9 113.8 171.4 113.3C170.8 112.8 170.4 112.2 170.2 111.5L161.2 76.8L152.1 111.4C151.8 112.2 151.4 112.8 150.9 113.2C150.4 113.7 149.7 113.9 149 113.9C148.3 113.9 147.6 113.7 147.1 113.2C146.5 112.8 146.1 112.2 145.9 111.4L133.8 71.2C133.6 70.7 133.6 70.1 133.6 69.6C133.6 68.8 133.8 68.1 134.3 67.6C134.8 67.1 135.4 66.9 136.2 66.9C136.9 66.9 137.6 67.1 138.1 67.5C138.6 67.9 139 68.5 139.3 69.2L149.2 103.5L158.3 69.6C158.5 69 158.8 68.5 159.4 68.1C160 67.7 160.6 67.5 161.3 67.5C162 67.5 162.6 67.7 163.2 68C163.8 68.4 164.1 68.9 164.3 69.5L173.5 103.7L183.5 68.9C183.7 68.2 184.1 67.7 184.6 67.3C185.1 67 185.8 66.8 186.6 66.8C187.1 67.1 187.7 67.3 188.1 67.8Z" fill="#3471F6"/>
<path d="M195.7 74.6C194.9 73.8 194.5 72.9 194.5 71.8C194.5 70.7 194.9 69.8 195.7 69C196.5 68.2 197.4 67.8 198.5 67.8C199.6 67.8 200.5 68.2 201.3 69C202.1 69.8 202.5 70.7 202.5 71.8C202.5 72.9 202.1 73.8 201.3 74.6C200.5 75.4 199.6 75.8 198.5 75.8C197.4 75.8 196.4 75.4 195.7 74.6ZM196.3 113.2C195.7 112.6 195.4 111.9 195.4 111V84.2C195.4 83.3 195.7 82.5 196.3 82C196.9 81.4 197.6 81.2 198.5 81.2C199.4 81.2 200.2 81.5 200.7 82C201.3 82.6 201.5 83.3 201.5 84.2V111C201.5 111.9 201.2 112.6 200.7 113.2C200.1 113.8 199.4 114.1 198.5 114.1C197.6 114.1 196.8 113.8 196.3 113.2Z" fill="#3471F6"/>
<path d="M217.2 113C214.8 112.2 212.9 111.1 211.5 109.7C211 109.2 210.7 108.6 210.7 107.8C210.7 106.8 211.1 106.1 211.9 105.5C212.7 104.9 213.4 104.7 214 104.7C214.8 104.7 215.6 105.1 216.3 105.8C217.1 106.6 218.2 107.4 219.7 108C221.2 108.6 222.8 108.9 224.6 108.9C226.9 108.9 228.7 108.5 229.9 107.8C231.2 107 231.8 106 231.8 104.7C231.8 103.5 231.2 102.4 229.9 101.6C228.7 100.8 226.6 100.1 223.6 99.5C215.9 98 212 94.8 212 90C212 88 212.6 86.4 213.7 85C214.9 83.6 216.4 82.6 218.3 81.9C220.2 81.2 222.2 80.9 224.3 80.9C226.9 80.9 229.2 81.3 231.3 82.2C233.4 83 235 84.2 236.2 85.7C236.7 86.3 237 87 237 87.6C237 88.3 236.7 88.9 236 89.5C235.6 89.8 235 90 234.3 90C233.3 90 232.3 89.6 231.5 88.9C230.5 88 229.4 87.3 228.3 86.9C227.2 86.5 225.8 86.3 224.2 86.3C222.4 86.3 220.8 86.6 219.7 87.2C218.5 87.8 217.9 88.7 217.9 89.8C217.9 90.6 218.1 91.3 218.5 91.8C218.9 92.3 219.7 92.8 220.8 93.3C221.9 93.8 223.5 94.2 225.7 94.7C230.1 95.6 233.2 96.8 235 98.4C236.8 100 237.7 102 237.7 104.5C237.7 106.3 237.2 108 236.2 109.5C235.2 111 233.7 112.2 231.8 113C229.9 113.9 227.5 114.3 224.8 114.3C222.2 114.3 219.6 113.9 217.2 113Z" fill="#3471F6"/>
<path d="M269.5 82.7C271.7 83.9 273.4 85.7 274.7 88C275.9 90.3 276.6 93.1 276.6 96.3V111.1C276.6 112 276.3 112.7 275.7 113.3C275.1 113.9 274.4 114.2 273.5 114.2C272.6 114.2 271.9 113.9 271.3 113.3C270.7 112.7 270.4 112 270.4 111.1V96.3C270.4 93.1 269.5 90.6 267.8 88.9C266.1 87.2 263.7 86.4 260.9 86.4C259.2 86.4 257.7 86.7 256.3 87.4C254.9 88.1 253.8 89 253.1 90.2C252.3 91.4 251.9 92.7 251.9 94.1V111.1C251.9 112 251.6 112.7 251.1 113.3C250.5 113.9 249.8 114.2 248.9 114.2C248 114.2 247.3 113.9 246.7 113.3C246.1 112.7 245.8 112 245.8 111.1V70.1C245.8 69.2 246.1 68.4 246.7 67.9C247.3 67.3 248 67.1 248.9 67.1C249.8 67.1 250.6 67.4 251.1 67.9C251.7 68.5 251.9 69.2 251.9 70.1V84.8C253.2 83.5 254.7 82.5 256.5 81.8C258.3 81.1 260.1 80.7 262.2 80.7C264.8 80.9 267.2 81.5 269.5 82.7Z" fill="#3471F6"/>
<path d="M417.8 83.8C417.8 84.2 417.7 84.7 417.4 85.2L399 126.6C398.5 127.8 397.7 128.5 396.7 128.5C396.3 128.5 395.8 128.4 395.3 128.1C394.1 127.6 393.5 126.8 393.5 125.8C393.5 125.3 393.6 124.8 393.9 124.4L399.9 110.9L386.4 85.2C386.2 84.8 386.1 84.4 386.1 83.9C386.1 83.4 386.3 82.9 386.6 82.5C386.9 82.1 387.3 81.7 387.9 81.5C388.3 81.3 388.7 81.3 389.1 81.3C390.2 81.3 391.1 81.9 391.6 83L402.6 104.9L412.3 83.1C412.8 81.9 413.6 81.4 414.6 81.4C415.1 81.4 415.6 81.5 416 81.7C417.2 81.9 417.8 82.7 417.8 83.8Z" fill="#3471F6"/>
<path d="M450.8 99C450.3 99.5 449.6 99.8 448.8 99.8H425.9C426.3 102.6 427.6 104.9 429.7 106.6C431.8 108.3 434.4 109.2 437.4 109.2C438.6 109.2 439.9 109 441.2 108.5C442.5 108.1 443.6 107.5 444.4 106.9C445 106.5 445.6 106.2 446.4 106.2C447.2 106.2 447.8 106.4 448.2 106.8C448.9 107.4 449.3 108.1 449.3 108.8C449.3 109.5 449 110.1 448.3 110.6C446.9 111.7 445.2 112.6 443.2 113.2C441.2 113.9 439.2 114.2 437.4 114.2C434.1 114.2 431.2 113.5 428.6 112.1C426 110.7 424 108.7 422.5 106.2C421 103.7 420.3 100.8 420.3 97.6C420.3 94.4 421 91.5 422.4 89C423.8 86.5 425.7 84.5 428.2 83C430.7 81.6 433.5 80.9 436.6 80.9C439.7 80.9 442.4 81.6 444.6 82.9C446.8 84.3 448.6 86.2 449.8 88.6C451 91 451.6 93.9 451.6 97C451.5 97.9 451.3 98.5 450.8 99ZM429.4 88.5C427.6 90.1 426.4 92.3 425.9 94.9H445.9C445.5 92.2 444.5 90.1 442.9 88.5C441.3 86.9 439.1 86.1 436.5 86.1C433.6 86.1 431.3 86.9 429.4 88.5Z" fill="#3471F6"/>
<path d="M481.5 83.1C484 84.6 486 86.6 487.5 89.1C489 91.6 489.7 94.5 489.7 97.6V111C489.7 111.9 489.4 112.6 488.8 113.2C488.2 113.8 487.5 114.1 486.6 114.1C485.7 114.1 485 113.8 484.4 113.2C483.8 112.6 483.5 111.9 483.5 111V108.8C482.1 110.5 480.4 111.9 478.4 112.8C476.4 113.8 474.2 114.2 471.9 114.2C469 114.2 466.4 113.5 464 112C461.7 110.6 459.8 108.6 458.5 106C457.2 103.5 456.5 100.6 456.5 97.5C456.5 94.4 457.2 91.5 458.7 89C460.1 86.5 462.1 84.4 464.7 83C467.2 81.5 470.1 80.8 473.2 80.8C476.2 80.9 479 81.6 481.5 83.1ZM478.5 107.4C480.1 106.4 481.4 105.1 482.3 103.4C483.2 101.7 483.7 99.8 483.7 97.7C483.7 95.6 483.2 93.6 482.3 91.9C481.4 90.2 480.1 88.8 478.5 87.8C476.9 86.8 475.1 86.3 473.1 86.3C471.1 86.3 469.3 86.8 467.7 87.8C466.1 88.8 464.8 90.1 463.8 91.9C462.9 93.6 462.4 95.6 462.4 97.7C462.4 99.8 462.9 101.7 463.8 103.4C464.7 105.1 466 106.4 467.7 107.4C469.3 108.4 471.1 108.9 473.1 108.9C475.1 108.9 476.9 108.4 478.5 107.4Z" fill="#3471F6"/>
<path d="M519.9 81.8C521.1 82.4 521.7 83.2 521.7 84.2C521.7 84.5 521.7 84.7 521.6 84.8C521.2 86.1 520.4 86.7 519.2 86.7C519 86.7 518.7 86.7 518.3 86.6C516.7 86.3 515.4 86.2 514.4 86.2C511.5 86.2 509.2 86.9 507.4 88.2C505.6 89.5 504.8 91.3 504.8 93.6V111.2C504.8 112.2 504.5 112.9 504 113.4C503.5 113.9 502.7 114.2 501.7 114.2C500.7 114.2 500 114 499.5 113.4C499 112.9 498.7 112.1 498.7 111.1V84.2C498.7 83.2 499 82.5 499.5 82C500 81.5 500.8 81.2 501.7 81.2C503.7 81.2 504.7 82.2 504.7 84.2V85.3C505.9 83.9 507.4 82.8 509.2 82C511 81.2 512.8 80.8 514.9 80.8C517 80.8 518.7 81.1 519.9 81.8Z" fill="#3471F6"/>
<path d="M532.3 113C529.9 112.2 528 111.1 526.6 109.7C526.1 109.2 525.8 108.6 525.8 107.8C525.8 106.8 526.2 106.1 527 105.5C527.8 104.9 528.5 104.7 529.1 104.7C529.9 104.7 530.7 105.1 531.4 105.8C532.2 106.6 533.3 107.4 534.8 108C536.3 108.6 537.9 108.9 539.7 108.9C542 108.9 543.8 108.5 545 107.8C546.3 107 546.9 106 546.9 104.7C546.9 103.5 546.3 102.4 545 101.6C543.8 100.8 541.7 100.1 538.7 99.5C531 98 527.1 94.8 527.1 90C527.1 88 527.7 86.4 528.8 85C530 83.6 531.5 82.6 533.4 81.9C535.3 81.2 537.3 80.9 539.4 80.9C542 80.9 544.3 81.3 546.4 82.2C548.5 83 550.1 84.2 551.3 85.7C551.8 86.3 552.1 87 552.1 87.6C552.1 88.3 551.8 88.9 551.1 89.5C550.7 89.8 550.1 90 549.4 90C548.4 90 547.4 89.6 546.6 88.9C545.6 88 544.5 87.3 543.4 86.9C542.3 86.5 540.9 86.3 539.3 86.3C537.5 86.3 535.9 86.6 534.8 87.2C533.6 87.8 533 88.7 533 89.8C533 90.6 533.2 91.3 533.6 91.8C534 92.3 534.8 92.8 535.9 93.3C537 93.8 538.6 94.2 540.8 94.7C545.2 95.6 548.3 96.8 550.1 98.4C551.9 100 552.8 102 552.8 104.5C552.8 106.3 552.3 108 551.3 109.5C550.3 111 548.8 112.2 546.9 113C545 113.9 542.6 114.3 539.9 114.3C537.3 114.3 534.7 113.9 532.3 113Z" fill="#3471F6"/>
<path fill-rule="evenodd" clip-rule="evenodd" d="M304.7 63.6C304.4 63.6 303.7 63.6 303 64.7C302.3 65.8 303.3 67.2 302.8 68.5C302.3 69.8 301.9 69.3 301.3 70.4C300.7 71.6 301.2 72.6 301.3 72.6C301.4 72.6 306.7 72.1 306.7 72.1L304.7 63.6Z" fill="#3E242E"/>
<path fill-rule="evenodd" clip-rule="evenodd" d="M301.6 76C301.5 75.6 302 71.9 302 71.8C302 71.8 297.3 73.9 296.4 73.7C295.5 73.5 299.8 69 299.8 69L299.2 68.2C299.2 68.2 292.5 73 293.1 75.1C293.7 77.2 295.3 77.2 297.6 76.8C299.9 76.4 301.6 76 301.6 76Z" fill="#F23408"/>
<path fill-rule="evenodd" clip-rule="evenodd" d="M298.8 68.6C298.8 68.4 299.6 66.7 300 66.5C300.4 66.3 301.1 66.4 301.3 66.6C301.5 66.8 301 67.2 301 67.2C301 67.2 300.3 68.3 299.8 68.7C299.3 69.1 298.8 68.6 298.8 68.6Z" fill="#F23408"/>
<path fill-rule="evenodd" clip-rule="evenodd" d="M301.8 68.7C297.4 67.1 292.9 65.4 288.5 63.8L291.2 58.5C291.6 58.9 297.5 64.7 302.2 68.2L301.8 68.7Z" fill="#FFAE58"/>
<path fill-rule="evenodd" clip-rule="evenodd" d="M299.2 69.1C299.2 69.1 300.8 68.6 300.8 68.3C300.8 68 300.6 67.4 300.5 67.2C300.2 66.6 300.2 68 300.2 67.9C300.2 67.9 299.9 67.6 299.4 68C299 68.4 299.2 69.1 299.2 69.1Z" fill="#F23408"/>
<path fill-rule="evenodd" clip-rule="evenodd" d="M300.8 68.3C300.8 68.1 300.7 67.9 300.7 67.7L302 68.4L301.8 68.7C301.5 68.6 301.2 68.4 300.8 68.3Z" fill="#F7A173"/>
<path fill-rule="evenodd" clip-rule="evenodd" d="M300.3 67.4C300.3 67.6 300.3 67.9 300.3 67.9C300.3 67.9 300.1 67.7 299.7 67.9C299.5 67.8 299.4 67.8 299.2 67.7C295.7 66.4 292.1 65.1 288.5 63.8C288.6 63.8 288.7 63.8 288.7 63.8C289.4 63.8 290.1 63.1 290.7 62.2L299.5 67L300.3 67.4Z" fill="#F28F58"/>
<path fill-rule="evenodd" clip-rule="evenodd" d="M309.5 73.4L308 86.2C307.8 88.2 300.1 89.4 299.5 86.4C300 83.2 300.8 81.2 299.9 78.9C299.5 79.1 298.4 77.8 298.7 76.6C299 75.4 300.2 73.9 301.4 72.4C301.5 72.2 301.9 72 302 71.8C305 71.2 307.3 72.2 309.5 73.4Z" fill="#FFA648"/>
<path fill-rule="evenodd" clip-rule="evenodd" d="M307.5 89.6C307.5 89.6 306.5 101.2 306.1 102.5C305.8 103.8 302.7 117.1 302.7 117.1C302.7 117.1 302.9 117.5 303.7 118C304.4 118.5 304.7 118.9 304.5 119C304.3 119.2 301.5 119.1 301.3 119.1C301.2 119.1 301.1 118.7 301.1 118.3C301.1 118.1 301.4 117.2 301.3 117.2C301.3 117.2 301.1 107.3 301.8 104.1C301.7 96.5 301 89.6 301.5 89.7C302.5 89.8 307.5 89.6 307.5 89.6Z" fill="#F23408"/>
<path fill-rule="evenodd" clip-rule="evenodd" d="M302 119.1C301.7 119.1 301.4 119.1 301.4 119.1C301.3 119.1 301.2 118.7 301.2 118.3C301.2 118.1 301.5 117.2 301.4 117.2C301.4 117.2 301.2 108.4 301.8 104.8L303.8 104.6C303.8 104.6 302.5 112.6 302.1 115.3C301.9 116.7 302 118.2 302 119.1Z" fill="#E0755A"/>
<path fill-rule="evenodd" clip-rule="evenodd" d="M298.5 89L296.9 101.6L296.3 117.1C296.3 117.1 293.9 118.2 293.6 118.6C293.3 118.9 293.5 119 293.9 119.2C294.3 119.4 297.8 119.1 297.8 119.1L298 116.8C299.1 113.3 300.1 108.6 300.6 102.8C300.8 102.4 303.8 89.1 303.8 89.1L298.5 89Z" fill="#F23408"/>
<path fill-rule="evenodd" clip-rule="evenodd" d="M303.6 66.1L302.2 67.2L302.7 67.6C302.7 67.6 302.4 69 302.3 69.4C302.3 69.8 303.6 70.1 303.4 70.4C303.2 70.7 302.8 71.6 302.5 72.1C302.4 74 306.5 73 306.5 72.3C306.5 71.6 307.2 67.4 307.5 66.4C307.7 65.5 307.6 65 306.5 64.6C305.4 64.2 304.4 64.9 304.1 65.2C303.7 65.6 303.6 66.1 303.6 66.1Z" fill="#F23408"/>
<path fill-rule="evenodd" clip-rule="evenodd" d="M299.6 86.7C297.2 89.7 292.6 101.6 292.4 102.8C292.4 102.8 295.5 107.1 299.9 105.9C306 104.2 305.1 107.3 310 103.7C308.2 96.2 311.3 93.1 308.2 85.4C306.9 87.1 302.1 87.3 299.6 86.7Z" fill="#4F3968"/>
<path fill-rule="evenodd" clip-rule="evenodd" d="M307.2 75.4C308.2 74.3 309.4 73.3 309.4 73.3C309.4 73.3 311.9 76.2 313 80.9C314.1 85.6 313.2 89.8 313.2 89.8H312.2C312.2 89.8 311.9 86 310.2 81.6C308.5 77.1 307.2 75.4 307.2 75.4Z" fill="#F23408"/>
<path fill-rule="evenodd" clip-rule="evenodd" d="M305.7 72.1C305.4 71.9 305.1 71.7 304.8 71.6C304.3 71.3 304 70.9 304.3 70.1C304.9 68.5 305.6 68.3 304.9 66.3C305 66.7 305 67.2 304.8 67.8C304.4 69.5 303.6 69.6 303.7 71C303.7 71.2 303.8 71.4 303.9 71.6C304.1 71.9 304.3 72.1 304.6 72.3C305 72.6 305.3 72.8 305.5 73C305.8 72.9 306.1 72.8 306.3 72.7C306.1 72.5 305.9 72.3 305.7 72.1Z" fill="#E0755A"/>
<path fill-rule="evenodd" clip-rule="evenodd" d="M304.8 66.1C305.7 68.3 304.9 68.6 304.3 70.2C303.7 71.8 305.7 71.6 306.7 73.1C307.7 74.6 306.2 75.2 307.5 76.2C308.8 77.3 309.9 75.8 311 76.6C312.1 77.4 312.2 78.1 312.2 78.1C312.2 78.1 312.9 76.7 312.8 74.6C312.7 72.5 311.6 73.3 310.4 71.6C309.2 69.9 309.1 70.1 309.8 68.5C310.6 66.9 310 65.9 308.9 64.7C307.9 63.5 306.5 63.1 305.5 63.1C303.4 63.1 304.3 65.1 304.8 66.1Z" fill="#3E242E"/>
<path fill-rule="evenodd" clip-rule="evenodd" d="M312.5 89C312.4 89.3 312.1 90.2 312.1 90.2C312.1 90.2 311.9 91.6 312.1 92C312.3 92.3 313.4 92.5 313.6 92.2C313.8 91.9 313.8 91.4 313.7 91.3C313.6 91.2 313.3 91.6 313.3 91.6C313.3 91.6 313.5 91.3 313.5 90.9C313.5 90.4 313.2 90 313.2 90L312.5 89Z" fill="#F23408"/>
<path fill-rule="evenodd" clip-rule="evenodd" d="M294.6 117.9C294.7 118 295 118.5 295.8 118.6C296.6 118.7 297.9 118.5 297.9 118.6C297.9 118.7 297.9 119.2 297.9 119.2C297.9 119.2 293.9 119.3 293.6 119.2C293.2 119.1 293.1 118.9 293.3 118.6C293.6 118.3 294.6 117.9 294.6 117.9Z" fill="#3E242E" stroke="#3E242E" stroke-width="0.1773" stroke-miterlimit="10"/>
<path fill-rule="evenodd" clip-rule="evenodd" d="M303.6 117.8C303.4 117.8 302.9 117.7 302.3 118C301.7 118.3 301.5 118.5 301.5 118.5C301.5 118.5 301.1 118.5 301.1 118.6C301.1 118.7 301.1 119.2 301.1 119.2H304.6C304.6 119.2 304.8 119 304.6 118.5C304.4 118.1 303.6 117.8 303.6 117.8Z" fill="#3E242E" stroke="#3E242E" stroke-width="0.1773" stroke-miterlimit="10"/>
<path fill-rule="evenodd" clip-rule="evenodd" d="M306 77.4C306 77.4 300.2 78.2 299.1 77.1C299 76.9 298.8 76.8 298.7 76.6V76.5V76.6C298.3 78.3 299.4 78.9 300.2 79.8C302.6 81.2 304.4 81 304.9 83.1C305.2 84.5 303.2 86 301.5 86.9C304 87.1 307.2 86.6 308.2 85.2L309 78.4C308.6 77.6 308.3 77 308 76.5C307.8 76.4 307.7 76.3 307.5 76.2C307.3 76.1 307.2 75.9 307.1 75.8L306 77.4Z" fill="#F49E44"/>
<path fill-rule="evenodd" clip-rule="evenodd" d="M296.1 75.9C294.7 75.9 294 75.2 293.6 73.5C293.2 74.1 292.9 74.7 293.1 75.2C293.5 76.7 294.4 77.1 295.7 77.1C296.2 77.1 296.9 77 297.5 76.9C297.9 76.8 298.3 76.8 298.6 76.7V76.6C298.9 75.6 299.7 74.5 300.6 73.4C299.8 74.3 298.3 75.8 296.9 76C296.7 75.9 296.4 75.9 296.1 75.9Z" fill="#E0755A"/>
<path fill-rule="evenodd" clip-rule="evenodd" d="M310.3 79.7C309.9 78.5 309.5 77.5 309.2 76.7C309.2 76.7 309.2 76.7 309.2 76.6C308.8 76.7 308.5 76.7 308.1 76.6C308.4 77.1 308.7 77.7 309.1 78.5C309.4 79.2 309.8 79.9 310.1 80.8C310.2 81 310.3 81.3 310.4 81.6C312 85.7 312.4 89.3 312.4 89.8C312.3 90 312.3 90.2 312.3 90.2C312.3 90.2 312.1 91.6 312.3 92C312.4 92.2 312.7 92.3 313 92.3C312.9 92.1 312.8 91.9 312.7 91.6C312.6 91.2 312.7 90.6 312.7 89.8C312.7 89.5 312.7 89.3 312.7 89C312.7 88.3 312.7 87.6 312.6 86.7C312.2 85.5 311.2 82.4 310.3 79.7Z" fill="#E0755A"/>
<path fill-rule="evenodd" clip-rule="evenodd" d="M304.9 91.2C305.5 94.6 304.9 100.6 303.1 102.5C302.8 102.8 302.4 103.2 301.9 103.5C301.4 103.8 301 104.2 300.5 104.5C299.6 105.1 298.7 105.6 298 106C298.6 106 299.2 106 299.9 105.8C300 105.8 300.2 105.7 300.3 105.7C300.8 105.6 301.3 105.5 301.7 105.4C303.6 105.1 304.5 105.4 305.4 105.4C306.5 105.5 307.5 105.4 309.9 103.6C309.3 101.1 309.2 99.1 309.3 97.2C309.4 94.1 309.9 91.5 308.9 87.7C308.7 86.9 308.4 86.1 308.1 85.2C307.1 86.6 304 87.1 301.4 86.9C300.7 86.9 300.1 86.8 299.6 86.6C299.6 86.6 299.6 86.6 299.5 86.6C299.5 86.7 299.4 86.7 299.4 86.8C299.5 86.8 299.6 86.9 299.8 86.9C300.6 87.2 301.4 87.6 302.1 88C302.7 88.3 303.2 88.7 303.6 89.1C303.7 89.2 303.7 89.2 303.8 89.3C303.9 89.4 304 89.5 304.1 89.7C304.5 90.1 304.8 90.6 304.9 91.2Z" fill="#483260"/>
<path fill-rule="evenodd" clip-rule="evenodd" d="M298.4 109.7C297.9 113.1 297.3 117.2 297 117.6C296.9 117.8 296.5 118.2 296.1 118.5C296.8 118.5 297.7 118.4 297.9 118.4L298 116.7C298.5 115.1 299 113.2 299.4 111.2C299.8 109.5 300.1 107.6 300.3 105.6C300.2 105.6 300 105.7 299.9 105.7C299.6 105.8 299.2 105.9 298.9 105.9C298.8 106.9 298.6 108.2 298.4 109.7Z" fill="#E0755A"/>
<path d="M288.086 93L288 93.7953L290.287 94.0419L290.372 93.2466L288.086 93Z" fill="#C92839"/>
<path d="M286 102.7C287.3 102.1 288.5 101.1 289.4 100L290.7 101C289.7 102.4 288.3 103.5 286.7 104.2L286 102.7Z" fill="#FFA648"/>
</svg>
