<svg width="77" height="88" viewBox="5 0 77 54" fill="none" xmlns="http://www.w3.org/2000/svg">
<g opacity="0.5">
<path d="M21.3526 14.7184C21.3082 14.8811 21.2638 15.0438 21.2194 15.2065C20.8051 16.5821 20.598 21.6111 15.0345 26.0189C9.58935 30.3379 8.81993 38.0293 20.4352 42.5998C32.0505 47.1703 49.5548 48.8417 61.0665 37.7335C66.2157 32.7637 69.6485 26.6549 65.9494 21.0195C62.1171 15.1917 54.7928 18.6381 49.7619 15.5467C43.5326 11.7158 37.0073 5.00062 27.9814 7.33763C22.995 8.62446 21.5597 13.8753 21.3526 14.7184Z" fill="#536477" fill-opacity="0.15"/>
<path d="M21.3526 14.7184C21.3082 14.8811 21.2638 15.0438 21.2194 15.2065C20.8051 16.5821 20.598 21.6111 15.0345 26.0189C9.58935 30.3379 8.81993 38.0293 20.4352 42.5998C32.0505 47.1703 49.5548 48.8417 61.0665 37.7335C66.2157 32.7637 69.6485 26.6549 65.9494 21.0195C62.1171 15.1917 54.7928 18.6381 49.7619 15.5467C43.5326 11.7158 37.0073 5.00062 27.9814 7.33763C22.995 8.62446 21.5597 13.8753 21.3526 14.7184Z" fill="url(#paint0_linear)"/>
</g>
<path d="M55.6732 25.4236C59.2591 28.5866 64.7301 28.2439 67.8931 24.658C71.0562 21.0721 70.7134 15.6011 67.1275 12.4381C63.5417 9.27507 58.0706 9.61784 54.9076 13.2037C51.7446 16.7895 52.0874 22.2606 55.6732 25.4236Z" fill="#E59924"/>
<path d="M54.7333 24.5935C58.3191 27.7566 63.7902 27.4138 66.9532 23.8279C70.1162 20.2421 69.7734 14.771 66.1876 11.608C62.6017 8.44499 57.1307 8.78776 53.9677 12.3736C50.8047 15.9595 51.1474 21.4305 54.7333 24.5935Z" fill="#EEC83B"/>
<path d="M60.9016 25.0405C64.7365 24.8002 67.6506 21.4966 67.4103 17.6616C67.1701 13.8266 63.8664 10.9126 60.0315 11.1528C56.1965 11.3931 53.2824 14.6967 53.5227 18.5317C53.763 22.3667 57.0666 25.2807 60.9016 25.0405Z" fill="#EAB32B"/>
<path d="M55.3777 14.1257C57.9231 11.24 62.3122 10.965 65.1979 13.5104C66.2716 14.4575 66.9823 15.681 67.316 16.9598C67.0612 15.4225 66.3051 13.9799 65.0468 12.87C62.1611 10.3246 57.7721 10.5996 55.2267 13.4853C53.7912 15.1127 53.2586 17.2382 53.5727 19.2156C53.5262 18.22 53.6859 17.2273 54.039 16.2859C54.3557 15.5211 54.8006 14.78 55.3777 14.1257Z" fill="#E59924"/>
<path d="M47.5547 11.43C46.115 6.60564 41.0369 3.86183 36.2126 5.30154C31.3882 6.74124 28.6444 11.8193 30.0841 16.6436C31.5238 21.468 36.6018 24.2118 41.4262 22.7721C46.2506 21.3324 48.9944 16.2544 47.5547 11.43Z" fill="#E59924"/>
<path d="M47.9321 12.6956C46.4924 7.87126 41.4144 5.12746 36.59 6.56716C31.7656 8.00687 29.0218 13.0849 30.4615 17.9093C31.9012 22.7336 36.9793 25.4774 41.8036 24.0377C46.628 22.598 49.3718 17.52 47.9321 12.6956Z" fill="#EEC83B"/>
<path d="M42.6717 8.85608C39.1122 6.93279 34.6676 8.25918 32.7443 11.8187C30.821 15.3781 32.1474 19.8228 35.7068 21.7461C39.2663 23.6694 43.711 22.343 45.6343 18.7835C47.5576 15.224 46.2312 10.7794 42.6717 8.85608Z" fill="#EAB32B"/>
<path d="M41.5204 21.6864C37.6381 22.845 33.5643 20.6438 32.4057 16.7614C31.9746 15.3169 32.0219 13.8278 32.4367 12.4995C31.8073 14.0148 31.6785 15.7248 32.1837 17.4177C33.3423 21.3 37.416 23.5012 41.2984 22.3426C43.4878 21.6892 45.1485 20.0875 45.9703 18.1461C45.4568 19.0613 44.7607 19.859 43.9205 20.5031C43.2113 21.0097 42.4007 21.4237 41.5204 21.6864Z" fill="#E59924"/>
<path d="M59.1428 42.3567L59.1385 42.3524V42.7573C59.0398 42.5893 58.941 42.4256 58.838 42.2576C56.6738 38.7428 54.0587 35.9387 51.0658 33.9229C47.3085 31.3988 42.95 30.1152 38.1106 30.1152C33.2712 30.1152 28.9858 31.3988 25.3745 33.9315C22.5018 35.9517 20.0542 38.7601 18.1047 42.2791C17.9501 42.5591 17.7998 42.8434 17.6538 43.1234V41.5684V45.4063H18.5384L18.796 46.3539L17.6538 46.2548V46.6855L18.5856 46.7631C18.2206 47.4953 17.9157 48.2146 17.6538 48.8995V51.6433C18.1047 49.9204 18.8948 47.6547 20.2603 45.3977H56.4333C57.7387 47.3963 58.5932 49.4078 59.1385 51.036V52.2119L59.1428 52.2075V42.3567ZM57.67 42.1499L55.2868 42.4601L55.8493 39.6043C56.4848 40.3968 57.0903 41.2454 57.67 42.1499ZM54.8746 42.0939C54.2433 41.4134 53.5735 40.7845 52.865 40.203L55.4328 39.2597L54.8746 42.0939ZM55.2439 38.8634L52.4914 39.8757L53.0711 36.6107C53.8225 37.2999 54.5482 38.0536 55.2439 38.8634ZM46.995 32.6953C47.7679 33.0227 48.5194 33.3974 49.2537 33.8195L46.995 36.6064V32.6953ZM46.3724 32.4455L44.1094 35.8009L43.1218 31.485C44.2425 31.7219 45.3246 32.0406 46.3724 32.4455ZM46.5184 33.0528V36.6925C45.8528 36.4642 45.17 36.2661 44.4658 36.0981L46.5184 33.0528ZM42.3789 31.3428L40.4122 35.3099L38.583 30.981C39.8927 31.0069 41.1594 31.1275 42.3789 31.3428ZM38.1321 31.1188L39.9571 35.4391C39.3602 35.4046 38.7504 35.3831 38.1321 35.3831C37.6168 35.3831 37.1101 35.396 36.6077 35.4219L38.1321 31.1188ZM37.6812 30.981L36.1482 35.3142L33.1167 31.4893C34.5637 31.1791 36.0881 31.0069 37.6812 30.981ZM32.786 31.8166L35.6974 35.4865C34.6153 35.5769 33.5718 35.7234 32.567 35.9344L32.786 31.8166ZM32.3137 31.6788L32.0861 35.9344L28.7281 32.9753C29.8661 32.4326 31.0641 31.9975 32.3137 31.6788ZM28.419 33.2984L31.6438 36.1412C30.3427 36.4686 29.1146 36.8993 27.9552 37.4334L28.419 33.2984ZM27.9295 33.3802L27.47 37.498L24.3997 35.8095C25.499 34.8576 26.6799 34.0478 27.9295 33.3802ZM23.6741 36.4556L24.0691 39.7766L21.4154 38.9367C22.1282 38.0364 22.8797 37.2094 23.6741 36.4556ZM21.132 39.3071L23.7127 40.1212C22.9398 40.7716 22.2227 41.4823 21.5528 42.2576L20.9774 39.5181C21.0246 39.4492 21.0762 39.376 21.132 39.3071ZM18.9678 42.641C19.4788 41.7192 20.0241 40.8534 20.5952 40.0393L21.162 42.7228C21.1105 42.7874 21.0547 42.852 21.0032 42.9166H18.8132C18.869 42.8262 18.9163 42.7357 18.9678 42.641ZM18.0489 44.4371C18.0961 44.3337 18.1433 44.2347 18.1949 44.1313L18.2764 44.4371H18.0489ZM19.1224 45.7465L19.0322 45.4063H19.3199C19.2512 45.5226 19.1825 45.6346 19.1224 45.7465ZM19.9125 44.4371H18.766L18.5126 43.4938C18.5384 43.4464 18.5641 43.3947 18.5899 43.3474H20.6768C20.4106 43.7049 20.1572 44.0667 19.9125 44.4371ZM22.0123 44.4371H20.8872C21.2436 43.9159 21.6215 43.4163 22.0123 42.9425V44.4371ZM24.1249 44.4371H22.6091V42.2576C23.0901 41.7321 23.5968 41.2454 24.1249 40.7845V44.4371ZM24.1206 36.1584L27.1565 37.8297C26.8087 38.0106 26.4695 38.1958 26.1388 38.3939C25.5763 38.7299 25.0353 39.096 24.5157 39.488L24.1206 36.1584ZM26.2376 44.4371H24.7218V40.2935C25.207 39.9101 25.7137 39.5526 26.2376 39.2209V44.4371ZM28.3503 44.4371H26.8345V38.8634C27.324 38.5791 27.8307 38.3207 28.3503 38.0795V44.4371ZM30.4629 44.4371H28.9471V37.8167C29.441 37.61 29.9434 37.4248 30.4629 37.2568V44.4371ZM32.5713 44.4371H31.0555V37.0716C31.5493 36.9294 32.056 36.8002 32.5713 36.6925V44.4371ZM34.684 44.4371H33.1682V36.5762C33.662 36.4858 34.1687 36.4082 34.684 36.3436V44.4371ZM36.7966 44.4371H35.2809V36.279C35.779 36.2316 36.2814 36.1929 36.7966 36.1713V44.4371ZM41.022 44.4371H37.3935V36.1498C37.6383 36.1455 37.883 36.1412 38.1321 36.1412C38.394 36.1412 38.6517 36.1455 38.9093 36.1498V44.4156H39.5062V36.1713C40.0215 36.1929 40.5239 36.2316 41.022 36.279V44.4371ZM43.1304 44.4371H41.6146V36.3479C42.1299 36.4126 42.6323 36.4858 43.1304 36.5805V44.4371ZM40.8373 35.508L42.6967 31.7563L43.6499 35.9172C42.7396 35.732 41.8035 35.5985 40.8373 35.508ZM45.243 44.4371H43.7272V36.6968C44.2425 36.8045 44.7492 36.9294 45.243 37.0716V44.4371ZM47.3557 44.4371H45.8399V37.2525C46.3552 37.4162 46.8619 37.6014 47.3557 37.7995V44.4371ZM49.4684 38.8117V44.4371H47.9526V38.0536C48.4721 38.2862 48.9788 38.5361 49.4727 38.8117H49.4684ZM49.1978 37.8167C48.5838 37.5066 47.9483 37.2266 47.2956 36.9725L49.5027 34.246L49.1978 37.8167ZM49.9751 34.2546C50.8296 34.793 51.654 35.4003 52.4441 36.0723L49.653 38.0235L49.9751 34.2546ZM51.581 44.4371H50.0652V39.1563C50.5848 39.4708 51.0915 39.811 51.581 40.1729V44.4371ZM50.2585 38.3896C50.1941 38.3509 50.1254 38.3164 50.0609 38.2776L52.603 36.503L52.0577 39.5741C51.4823 39.1477 50.8811 38.7514 50.2585 38.3896ZM53.6894 44.4371H52.1736V40.6381C52.6975 41.0645 53.2042 41.5211 53.6894 42.0078V44.4371ZM54.2863 44.4371V42.628C54.8059 43.1923 55.2954 43.7996 55.7634 44.4371H54.2863ZM56.7597 44.4371C56.3732 43.8858 55.9695 43.3603 55.5487 42.8563L57.8503 42.5591L56.7811 44.4371H56.7597ZM58.1638 42.9425C58.4644 43.4421 58.7478 43.9418 59.014 44.4414H57.3136L58.1638 42.9425ZM59.1385 48.7229C58.6834 47.6719 58.1123 46.5434 57.3995 45.4063H59.1385V48.7229Z" fill="#7496B9"/>
<path d="M17.6883 36.5039H10.616V54.0003H17.6883V36.5039Z" fill="#C9D4E0"/>
<path d="M19.3714 36.6234C19.3714 37.1058 19.0537 37.4977 18.6672 37.4977H9.64113C9.25038 37.4977 8.93262 37.1058 8.93262 36.6234V34.9564C8.93262 34.474 9.25038 34.082 9.64113 34.082H18.6672C19.058 34.082 19.3714 34.474 19.3714 34.9564V36.6234Z" fill="#206EFF"/>
<path d="M16.2408 40.0751C16.2408 38.8863 15.4636 37.9258 14.5018 37.9258H13.8018C12.84 37.9258 12.0627 38.8863 12.0627 40.0751V43.0472H16.2408V40.0751Z" fill="white"/>
<path d="M17.0013 47.1828C17.0013 47.536 16.7694 47.8246 16.4817 47.8246H11.827C11.5393 47.8246 11.3074 47.536 11.3074 47.1828C11.3074 46.8296 11.5393 46.541 11.827 46.541H16.486C16.7694 46.541 17.0013 46.8296 17.0013 47.1828Z" fill="white"/>
<path d="M8.93262 44.9149C8.93262 45.1862 9.10867 45.4059 9.32767 45.4059H20.1487C20.3677 45.4059 20.5437 45.1862 20.5437 44.9149C20.5437 44.6435 20.3677 44.4238 20.1487 44.4238H9.32767C9.10867 44.4238 8.93262 44.6435 8.93262 44.9149Z" fill="#7496B9"/>
<path d="M66.1638 36.5039H59.0916V54.0003H66.1638V36.5039Z" fill="#C9D4E0"/>
<path d="M57.408 36.6234C57.408 37.1058 57.7257 37.4977 58.1165 37.4977H67.1425C67.5333 37.4977 67.851 37.1058 67.851 36.6234V34.9564C67.851 34.474 67.5333 34.082 67.1425 34.082H58.1165C57.7257 34.082 57.408 34.474 57.408 34.9564V36.6234Z" fill="#206EFF"/>
<path d="M60.5381 40.0751C60.5381 38.8863 61.3153 37.9258 62.2772 37.9258H62.9771C63.939 37.9258 64.7162 38.8863 64.7162 40.0751V43.0472H60.5381V40.0751Z" fill="white"/>
<path d="M59.7786 47.1828C59.7786 47.536 60.0104 47.8246 60.2981 47.8246H64.9572C65.2449 47.8246 65.4725 47.536 65.4725 47.1828C65.4725 46.8296 65.2406 46.541 64.9572 46.541H60.2981C60.0104 46.541 59.7786 46.8296 59.7786 47.1828Z" fill="white"/>
<path d="M67.8469 44.9149C67.8469 45.1862 67.6709 45.4059 67.4519 45.4059H56.6309C56.4119 45.4059 56.2358 45.1862 56.2358 44.9149C56.2358 44.6435 56.4119 44.4238 56.6309 44.4238H67.4519C67.6709 44.4238 67.8469 44.6435 67.8469 44.9149Z" fill="#7496B9"/>
<g opacity="0.5">
<g filter="url(#filter0_f)">
<ellipse cx="60.9601" cy="29.5863" rx="5.54677" ry="0.205436" fill="black" fill-opacity="0.3"/>
</g>
<g filter="url(#filter1_f)">
<ellipse cx="60.9601" cy="29.5851" rx="3.59513" ry="0.102718" fill="black"/>
</g>
</g>
<g opacity="0.4">
<g filter="url(#filter2_f)">
<ellipse cx="39.2675" cy="25.1332" rx="5.54677" ry="0.205436" fill="black" fill-opacity="0.3"/>
</g>
<g filter="url(#filter3_f)">
<ellipse cx="39.2672" cy="25.132" rx="3.59513" ry="0.102718" fill="black"/>
</g>
</g>
<path d="M18.402 7.65972C13.6649 6.22289 8.6599 8.89831 7.22307 13.6354C5.78623 18.3726 8.46165 23.3776 13.1988 24.8144C17.9359 26.2512 22.9409 23.5758 24.3777 18.8387C25.8146 14.1016 23.1392 9.09656 18.402 7.65972Z" fill="#E59924"/>
<path d="M19.6432 8.03668C14.9061 6.59984 9.90111 9.27527 8.46428 14.0124C7.02744 18.7495 9.70286 23.7545 14.44 25.1913C19.1771 26.6282 24.1821 23.9528 25.619 19.2156C27.0558 14.4785 24.3804 9.47351 19.6432 8.03668Z" fill="#EEC83B"/>
<path d="M13.6431 10.2691C10.1348 12.1445 8.81102 16.5088 10.6864 20.0171C12.5617 23.5254 16.926 24.8491 20.4343 22.9738C23.9426 21.0984 25.2663 16.7341 23.391 13.2258C21.5156 9.71754 17.1513 8.39379 13.6431 10.2691Z" fill="#EAB32B"/>
<path d="M23.5385 18.1745C22.3823 21.9866 18.3671 24.1329 14.5549 22.9766C13.1365 22.5464 11.9411 21.6998 11.0769 20.639C11.978 21.9772 13.3103 23.0106 14.9726 23.5148C18.7847 24.671 22.7999 22.5247 23.9562 18.7126C24.6083 16.5627 24.1958 14.3319 23.0497 12.6048C23.5216 13.5224 23.7981 14.526 23.8704 15.5644C23.901 16.4208 23.8007 17.3101 23.5385 18.1745Z" fill="#E59924"/>
<g opacity="0.4">
<g filter="url(#filter4_f)">
<ellipse cx="17.3248" cy="26.8656" rx="5.54677" ry="0.205436" fill="black" fill-opacity="0.3"/>
</g>
<g filter="url(#filter5_f)">
<ellipse cx="17.3246" cy="26.8664" rx="3.59513" ry="0.102718" fill="black"/>
</g>
</g>
<defs>
<filter id="filter0_f" x="49.4784" y="23.4459" width="22.9634" height="12.2807" filterUnits="userSpaceOnUse" color-interpolation-filters="sRGB">
<feFlood flood-opacity="0" result="BackgroundImageFix"/>
<feBlend mode="normal" in="SourceGraphic" in2="BackgroundImageFix" result="shape"/>
<feGaussianBlur stdDeviation="2.96746" result="effect1_foregroundBlur"/>
</filter>
<filter id="filter1_f" x="51.4301" y="23.5475" width="19.0601" height="12.0753" filterUnits="userSpaceOnUse" color-interpolation-filters="sRGB">
<feFlood flood-opacity="0" result="BackgroundImageFix"/>
<feBlend mode="normal" in="SourceGraphic" in2="BackgroundImageFix" result="shape"/>
<feGaussianBlur stdDeviation="2.96746" result="effect1_foregroundBlur"/>
</filter>
<filter id="filter2_f" x="27.7858" y="18.9928" width="22.9634" height="12.2807" filterUnits="userSpaceOnUse" color-interpolation-filters="sRGB">
<feFlood flood-opacity="0" result="BackgroundImageFix"/>
<feBlend mode="normal" in="SourceGraphic" in2="BackgroundImageFix" result="shape"/>
<feGaussianBlur stdDeviation="2.96746" result="effect1_foregroundBlur"/>
</filter>
<filter id="filter3_f" x="29.7372" y="19.0944" width="19.0601" height="12.0753" filterUnits="userSpaceOnUse" color-interpolation-filters="sRGB">
<feFlood flood-opacity="0" result="BackgroundImageFix"/>
<feBlend mode="normal" in="SourceGraphic" in2="BackgroundImageFix" result="shape"/>
<feGaussianBlur stdDeviation="2.96746" result="effect1_foregroundBlur"/>
</filter>
<filter id="filter4_f" x="5.84315" y="20.7252" width="22.9634" height="12.2807" filterUnits="userSpaceOnUse" color-interpolation-filters="sRGB">
<feFlood flood-opacity="0" result="BackgroundImageFix"/>
<feBlend mode="normal" in="SourceGraphic" in2="BackgroundImageFix" result="shape"/>
<feGaussianBlur stdDeviation="2.96746" result="effect1_foregroundBlur"/>
</filter>
<filter id="filter5_f" x="7.79457" y="20.8287" width="19.0601" height="12.0753" filterUnits="userSpaceOnUse" color-interpolation-filters="sRGB">
<feFlood flood-opacity="0" result="BackgroundImageFix"/>
<feBlend mode="normal" in="SourceGraphic" in2="BackgroundImageFix" result="shape"/>
<feGaussianBlur stdDeviation="2.96746" result="effect1_foregroundBlur"/>
</filter>
<linearGradient id="paint0_linear" x1="39.3586" y1="6.85547" x2="39.3586" y2="46.1086" gradientUnits="userSpaceOnUse">
<stop stop-color="white"/>
<stop offset="1" stop-color="white" stop-opacity="0"/>
</linearGradient>
</defs>
</svg>
