<svg width="29" height="30" viewBox="0 0 29 30" fill="none" xmlns="http://www.w3.org/2000/svg">
<path fill-rule="evenodd" clip-rule="evenodd" d="M14.25 29.25C22.1201 29.25 28.5 22.8701 28.5 15C28.5 11.8822 27.4987 8.9982 25.8001 6.65213L14.0217 19.7393C13.329 20.5089 12.1635 20.6226 11.3351 20.0013L5.73333 15.8C5.29151 15.4686 5.20196 14.8418 5.53333 14.4C5.8647 13.9582 6.4915 13.8686 6.93333 14.2L12.5351 18.4013L24.503 5.10363C21.9116 2.41937 18.2757 0.75 14.25 0.75C6.37994 0.75 0 7.12994 0 15C0 22.8701 6.37994 29.25 14.25 29.25Z" fill="white"/>
</svg>
