<svg width="22" height="22" viewBox="0 0 22 22" fill="none" xmlns="http://www.w3.org/2000/svg">
<path d="M1.29363 0.058891C1.16477 0.0932446 0.992811 0.162021 0.906831 0.21367C0.687728 0.342659 0.356827 0.669546 0.236501 0.880308C-0.012685 1.30156 0.000111 0.716729 0.000111 10.999C0.000111 21.2813 -0.012685 20.6965 0.236501 21.1179C0.472891 21.5264 0.945443 21.8706 1.38814 21.9652C1.54708 21.9953 3.17128 22.0081 6.81074 21.9953C11.9069 21.9825 12.0142 21.9825 12.3108 21.8964C12.951 21.7073 13.5138 21.4534 13.9866 21.1352C14.2917 20.933 16.1866 19.0709 16.5476 18.6196C16.9687 18.0949 17.3039 17.4067 17.4972 16.6628C17.5832 16.3317 17.5917 16.1811 17.6047 14.3406C17.6175 13.2613 17.609 12.3754 17.5875 12.3754C17.5659 12.3754 17.3641 12.5646 17.1362 12.7969L16.7193 13.2141L16.7065 14.8998L16.6937 16.5813L16.5649 16.7705C16.4874 16.8781 16.3543 16.994 16.2425 17.05C16.0578 17.1445 16.0104 17.1488 14.8332 17.1488C13.5053 17.1488 13.3336 17.1704 13.0886 17.3724C12.7835 17.6218 12.7878 17.6175 12.762 19.157L12.7405 20.5374L12.6116 20.7266C12.5386 20.8254 12.3925 20.9587 12.2892 21.0189L12.0959 21.1265L6.96116 21.135C3.40341 21.1438 1.75339 21.1308 1.58996 21.1006C1.39667 21.062 1.31496 21.0146 1.15602 20.8513C0.992811 20.6922 0.945443 20.6104 0.906831 20.417C0.872483 20.2449 0.859463 17.682 0.868219 10.87C0.881016 2.43684 0.889769 1.54668 0.949934 1.40919C1.04018 1.20696 1.26781 0.991969 1.45706 0.927491C1.58165 0.884575 3.09854 0.871542 8.83047 0.871542H16.049L16.221 0.96611C16.4358 1.08227 16.5646 1.21552 16.6507 1.41772C16.7065 1.55971 16.7151 1.96817 16.7151 4.60003V7.62325L17.1663 7.17167L17.6175 6.72006V4.20436C17.6175 2.1704 17.6047 1.63275 17.5531 1.3919C17.437 0.845683 17.1061 0.428697 16.595 0.17055L16.2683 0.0114728L8.89918 0.00294309C2.53956 -0.00558657 1.49545 0.00294309 1.29363 0.058891Z" fill="#2873FB"/>
<path d="M8.10072 1.80022C6.22735 2.07119 4.60742 3.52032 4.12611 5.35662C3.7566 6.7714 4.0444 8.3066 4.89949 9.45064C5.16596 9.81192 5.69868 10.3323 6.04686 10.5731C6.47228 10.8657 7.06516 11.1409 7.58507 11.2827C7.9804 11.3903 8.0792 11.4031 8.78811 11.4031C9.48427 11.4031 9.60033 11.3903 9.9784 11.2912C11.3536 10.9171 12.5008 10.0011 13.1197 8.7755C13.8416 7.34767 13.7858 5.50714 12.9778 4.15684C12.3418 3.09883 11.4223 2.35922 10.2837 1.98938C9.63469 1.77439 8.77959 1.70115 8.10072 1.80022ZM9.78083 2.76342C11.1731 3.11166 12.2558 4.19975 12.6384 5.62306C12.7802 6.14768 12.7802 7.03784 12.6426 7.55393C12.3376 8.68922 11.577 9.63106 10.5499 10.1514C9.99566 10.4266 9.10624 10.603 8.53041 10.5513C6.80744 10.388 5.45398 9.27427 4.97694 7.61438C4.89096 7.32635 4.87816 7.1758 4.87816 6.59097C4.87816 6.00187 4.89096 5.85562 4.97694 5.55882C5.57857 3.46011 7.67531 2.2388 9.78083 2.76342Z" fill="#2873FB"/>
<path d="M8.71863 4.6729L8.59404 4.79759V5.76932V6.74126H7.53691H6.47978L6.35518 6.86596C6.25641 6.96481 6.23059 7.02929 6.23059 7.17129C6.23059 7.31328 6.25641 7.37777 6.35518 7.47662L6.47978 7.60132H7.96658H9.45339V6.19934V4.79737L9.3288 4.67267C9.23002 4.57381 9.16559 4.54798 9.02371 4.54798C8.88183 4.54798 8.81741 4.57381 8.71863 4.6729Z" fill="#2873FB"/>
<path d="M20.2378 5.53341C20.0746 5.58508 19.8726 5.69675 19.8167 5.76145C19.7781 5.80863 19.9242 5.97647 20.5344 6.58714C21.0328 7.08165 21.3208 7.34407 21.3551 7.3225C21.3852 7.3052 21.4539 7.18927 21.5098 7.06884C21.7675 6.51412 21.5484 5.87761 20.9984 5.59385C20.848 5.51611 20.397 5.48173 20.2378 5.53341Z" fill="#2873FB"/>
<path d="M15.4043 10.1821L11.5372 14.0523L12.3106 14.8263L13.084 15.6003L16.9598 11.7215L20.8399 7.83825L20.0794 7.07705C19.6582 6.65556 19.306 6.31158 19.293 6.31158C19.2802 6.31158 17.5314 8.05328 15.4043 10.1821Z" fill="#2873FB"/>
<path d="M20.4405 9.01264L19.6799 9.77811L19.8732 9.96729L20.0665 10.1565L19.2844 10.9435L18.5027 11.7305L18.6917 11.924L18.885 12.1174L20.4405 10.5607L22.0003 8.99961L21.6265 8.62574C21.4202 8.41501 21.2397 8.2474 21.2269 8.2474C21.2139 8.24717 20.8616 8.59138 20.4405 9.01264Z" fill="#2873FB"/>
<path d="M2.75 14.4386V14.8687H5.50002H8.25003V14.4386V14.0086H5.50002H2.75V14.4386Z" fill="#2873FB"/>
<path d="M10.897 15.415C10.7639 15.9569 10.6564 16.4213 10.6564 16.4429C10.6564 16.4858 12.5987 16.0387 12.6501 15.9828C12.6631 15.97 12.3277 15.6172 11.9068 15.1957L11.1377 14.4303L10.897 15.415Z" fill="#2873FB"/>
<path d="M2.75 16.2025V16.6326H5.50002H8.25003V16.2025V15.7725H5.50002H2.75V16.2025Z" fill="#2873FB"/>
<path d="M2.75 17.9657V18.3958H5.50002H8.25003V17.9657V17.5357H5.50002H2.75V17.9657Z" fill="#2873FB"/>
</svg>
