<svg width="47" height="46" viewBox="0 0 47 46" fill="none" xmlns="http://www.w3.org/2000/svg">
    <path d="M45.6789 0.411248C45.4115 0.143471 45.0451 -0.00743849 44.6689 0.000282453C44.5043 0.00238817 40.5782 0.0659106 35.4027 1.34759C30.5974 2.53767 23.7728 5.05224 18.5513 10.2737C17.9445 10.8809 17.3756 11.5101 16.8394 12.1548C12.6055 11.5803 8.53655 12.7693 4.97087 15.6485C1.93127 18.1027 0.335139 20.9174 0.268809 21.036C0.0329694 21.4572 0.0301618 21.9695 0.260737 22.3935C0.491664 22.8171 0.924038 23.0922 1.4059 23.1224L9.37041 23.6197L7.18819 25.8019C6.92497 26.0652 6.77722 26.4221 6.77722 26.7944C6.77722 27.1664 6.92497 27.5234 7.18819 27.7866L8.29123 28.8896C8.27614 28.9047 8.26 28.9194 8.24491 28.9345C3.51477 33.665 3.36807 40.9947 3.36421 41.3046C3.3593 41.6829 3.50775 42.0472 3.77518 42.3146C4.03839 42.5778 4.39531 42.7256 4.76732 42.7256H4.78522C5.09511 42.7217 12.4247 42.575 17.1549 37.8445C17.1703 37.8294 17.1851 37.8136 17.1998 37.7982L18.3032 38.9016C18.5664 39.1648 18.9233 39.3125 19.2953 39.3125C19.6677 39.3125 20.0246 39.1648 20.2878 38.9016L22.4701 36.719L22.9674 44.6839C22.9972 45.1654 23.2727 45.5978 23.6966 45.8287C23.9058 45.9431 24.1367 45.9999 24.368 45.9999C24.6042 45.9999 24.8407 45.9403 25.0538 45.821C25.1724 45.7543 27.987 44.1585 30.4412 41.1189C33.3205 37.5529 34.5098 33.4843 33.9353 29.2504C34.5797 28.7145 35.2093 28.1452 35.8161 27.5385C41.0379 22.317 43.5521 15.4927 44.7422 10.6871C46.0239 5.51199 46.0874 1.58553 46.0895 1.42094C46.0944 1.04296 45.9463 0.678673 45.6789 0.411248ZM10.165 26.7944L12.562 24.3974L21.6924 33.5278L19.2953 35.9248L10.165 26.7944ZM10.2295 30.9195C10.245 30.9041 10.2601 30.889 10.2755 30.8739L15.2159 35.8146C15.2008 35.8297 15.1857 35.8451 15.1706 35.8602C12.4426 38.5882 8.48039 39.4849 6.31186 39.7783C6.60526 37.6087 7.50229 33.6471 10.2295 30.9195ZM24.0128 31.879L14.2104 22.0766C15.6054 18.665 17.6217 15.1726 20.536 12.2583C24.4171 8.37716 29.327 6.12194 33.4149 4.82342L41.2664 12.6753C39.9678 16.7628 37.713 21.6726 33.8314 25.5538C30.882 28.5032 27.3381 30.5135 24.0128 31.879ZM42.108 9.64129L36.4485 3.98184C39.2895 3.30415 41.7216 3.01601 43.1956 2.89423C43.0738 4.36859 42.7856 6.80068 42.108 9.64129ZM6.80354 17.7764C9.30548 15.7787 12.0068 14.7894 14.8663 14.8157C13.5302 16.8365 12.4739 18.931 11.6411 20.9493L4.08998 20.478C4.761 19.6564 5.67067 18.6811 6.80354 17.7764ZM28.3138 39.2862C27.4087 40.4191 26.4334 41.3291 25.6118 42.0001L25.1405 34.4487C27.1588 33.6155 29.2533 32.5595 31.2741 31.2234C31.3007 34.0834 30.3114 36.7846 28.3138 39.2862Z" fill="#2873FB"/>
    <path d="M33.5653 12.5249C32.4977 11.457 31.0777 10.8691 29.5679 10.8691C28.0578 10.8691 26.6378 11.457 25.5702 12.5249C23.3659 14.7293 23.3659 18.3156 25.5702 20.52C26.6378 21.5879 28.0578 22.1761 29.5679 22.1761C31.0777 22.1761 32.4973 21.5879 33.5653 20.52C34.6332 19.4524 35.2211 18.0324 35.2211 16.5226C35.2211 15.0125 34.6332 13.5925 33.5653 12.5249ZM31.5806 18.5353C31.043 19.0734 30.3281 19.3692 29.5679 19.3692C28.8074 19.3692 28.0925 19.0734 27.5545 18.5357C26.4448 17.4256 26.4448 15.6196 27.5545 14.5096C28.0925 13.9719 28.8074 13.6757 29.5679 13.6757C30.3281 13.6757 31.043 13.9719 31.5806 14.5096C32.1183 15.0472 32.4145 15.7621 32.4145 16.5226C32.4145 17.2831 32.1183 17.9977 31.5806 18.5353Z" fill="#2873FB"/>
</svg>
