<svg width="24" height="24" viewBox="0 0 24 24" fill="none" xmlns="http://www.w3.org/2000/svg">
<path d="M9.11003 4.50015C8.83003 4.50215 6.53603 4.56715 4.11403 6.37315C4.11403 6.37315 1.53003 11.0382 1.53003 16.7812C1.53003 16.7812 3.03703 19.3742 7.00303 19.5002C7.00303 19.5002 7.66703 18.7082 8.20503 18.0232C5.92703 17.3382 5.06503 15.9152 5.06503 15.9152C5.06503 15.9152 5.24503 16.0412 5.56703 16.2222C5.58503 16.2222 5.60203 16.2412 5.63703 16.2582C5.69203 16.2932 5.74503 16.3122 5.79903 16.3482C6.24703 16.6002 6.69503 16.7982 7.10903 16.9592C7.84503 17.2662 8.72403 17.5352 9.74803 17.7332C11.094 17.9852 12.673 18.0752 14.394 17.7522C15.2864 17.5861 16.1589 17.3266 16.997 16.9782C17.7228 16.704 18.4147 16.3474 19.059 15.9152C19.059 15.9152 18.163 17.3732 15.812 18.0402C16.35 18.7062 16.997 19.4792 16.997 19.4792C20.962 19.3532 22.47 16.7592 22.47 16.7792C22.47 11.0332 19.886 6.37015 19.886 6.37015C17.32 4.44615 14.861 4.50015 14.861 4.50015L14.61 4.78815C17.66 5.70615 19.078 7.05815 19.078 7.05815C17.4044 6.14675 15.5711 5.56586 13.678 5.34715C12.4723 5.21295 11.2548 5.22504 10.052 5.38315C9.94503 5.38315 9.85503 5.40215 9.74603 5.41815C9.11803 5.49015 7.59303 5.70615 5.67303 6.55315C5.01003 6.84115 4.61403 7.05815 4.61403 7.05815C4.61403 7.05815 6.08803 5.63515 9.31703 4.71715L9.13703 4.50015H9.10903H9.11003ZM8.65303 11.1452C9.67503 11.1452 10.502 12.0272 10.483 13.1262C10.483 14.2262 9.67503 15.1082 8.65303 15.1082C7.64803 15.1082 6.82303 14.2252 6.82303 13.1262C6.82303 12.0272 7.62903 11.1452 8.65303 11.1452ZM15.203 11.1452C16.207 11.1452 17.033 12.0272 17.033 13.1262C17.033 14.2262 16.224 15.1082 15.203 15.1082C14.197 15.1082 13.373 14.2252 13.373 13.1262C13.373 12.0272 14.179 11.1452 15.203 11.1452Z" fill="#2873FB"/>
</svg>
