<svg width="28" height="31" viewBox="0 0 28 31" fill="none" xmlns="http://www.w3.org/2000/svg">
<path d="M13.8503 16.2077C13.8503 13.9709 13.8503 11.794 13.8503 9.61713C13.8503 8.13923 13.6106 7.8796 12.1527 7.8796C11.8931 7.8796 11.6334 7.8796 11.3538 7.8796C10.495 7.85963 10.0956 8.27903 10.0956 9.13781C10.1156 11.5144 10.0756 13.891 10.1156 16.2677C10.1356 17.2063 9.79604 17.7056 8.71757 17.7655C8.71757 15.8882 8.71757 14.0109 8.71757 12.1535C8.71757 11.5344 8.8374 10.6956 8.07848 10.5758C7.21971 10.436 6.26107 10.5558 5.40229 10.7355C5.20257 10.7755 5.00286 11.4545 5.00286 11.834C4.96292 13.5515 5.00286 15.2691 4.98289 16.9866C4.98289 17.6257 5.1826 18.3647 4.28388 18.6243C3.02567 18.9838 2.10698 18.7841 1.54777 17.8854C0.589137 16.3675 0.169734 14.6699 0.029933 12.9124C-0.469357 5.68273 5.34238 -0.288771 12.612 0.0108024C17.3054 0.190547 21.779 3.46588 23.2369 7.89957C23.4167 8.43881 23.3368 9.31755 23.0172 9.71699C21.8789 11.0751 20.5607 12.2733 19.3225 13.5316C19.2226 13.4916 19.1427 13.4517 19.0429 13.3918C19.0229 13.1321 18.963 12.8525 18.963 12.5929C18.963 10.6756 18.963 8.75835 18.963 6.86105C18.963 5.64279 18.6435 5.34321 17.4452 5.34321C17.1456 5.34321 16.846 5.34321 16.5464 5.34321C15.6477 5.32324 15.2083 5.72267 15.2283 6.66134C15.2483 9.33753 15.2083 12.0137 15.2483 14.6699C15.2483 15.6086 14.7889 16.028 13.8503 16.2077Z" fill="#2873FB"/>
<path d="M23.9563 11.2948C24.3757 16.028 21.7794 20.4617 17.4256 22.7385C13.631 24.7356 8.29858 24.3362 5.14307 21.7199C8.85778 21.1008 12.3328 20.0822 15.5882 18.3847C18.8436 16.6871 21.6995 14.4702 23.9563 11.2948Z" fill="#2873FB"/>
<mask id="path-3-outside-1" maskUnits="userSpaceOnUse" x="12" y="15" width="16" height="16" fill="black">
<rect fill="white" x="12" y="15" width="16" height="16"/>
<path d="M13.9423 24.8352C14.1648 25.022 14.3489 25.2527 14.3297 25.4121C14.3187 25.5055 14.3132 25.6016 14.3132 25.7005C14.3132 27.1401 15.4478 28.3077 16.8462 28.3077C17.0192 28.3077 17.1868 28.2912 17.3516 28.2555C17.6264 28.1978 17.9505 28.3077 18.1456 28.5247C18.6071 29.0357 19.2665 29.3571 20 29.3571C20.7747 29.3571 21.467 29 21.9313 28.4368C22.1154 28.2143 22.4286 28.1209 22.706 28.2033C22.9313 28.2692 23.1676 28.3077 23.4148 28.3077C24.8132 28.3077 25.9478 27.1401 25.9478 25.7005C25.9478 25.5385 25.9341 25.3819 25.9066 25.2308C25.8599 24.9725 25.9863 24.6538 26.1951 24.4505C26.6896 23.9753 27 23.2995 27 22.5495C27 21.7308 26.6319 21.0027 26.0577 20.5247C25.8352 20.3379 25.6511 20.1071 25.6703 19.9478C25.6813 19.8544 25.6868 19.7582 25.6868 19.6593C25.6868 18.2198 24.5522 17.0522 23.1538 17.0522C22.9808 17.0522 22.8132 17.0714 22.6484 17.1044C22.3736 17.1621 22.0495 17.0522 21.8544 16.8352C21.3929 16.3214 20.7335 16 20 16C19.2665 16 18.6071 16.3214 18.1456 16.8324C17.9505 17.0467 17.6264 17.1593 17.3516 17.1016C17.1896 17.0687 17.0192 17.0495 16.8462 17.0495C15.4478 17.0495 14.3132 18.217 14.3132 19.6566C14.3132 19.794 14.3242 19.9313 14.3434 20.0632C14.3791 20.2857 14.2225 20.5604 13.9945 20.7418C13.3901 21.217 13 21.967 13 22.8104C13 23.6264 13.3681 24.3571 13.9423 24.8352Z"/>
</mask>
<path d="M13.9423 24.8352C14.1648 25.022 14.3489 25.2527 14.3297 25.4121C14.3187 25.5055 14.3132 25.6016 14.3132 25.7005C14.3132 27.1401 15.4478 28.3077 16.8462 28.3077C17.0192 28.3077 17.1868 28.2912 17.3516 28.2555C17.6264 28.1978 17.9505 28.3077 18.1456 28.5247C18.6071 29.0357 19.2665 29.3571 20 29.3571C20.7747 29.3571 21.467 29 21.9313 28.4368C22.1154 28.2143 22.4286 28.1209 22.706 28.2033C22.9313 28.2692 23.1676 28.3077 23.4148 28.3077C24.8132 28.3077 25.9478 27.1401 25.9478 25.7005C25.9478 25.5385 25.9341 25.3819 25.9066 25.2308C25.8599 24.9725 25.9863 24.6538 26.1951 24.4505C26.6896 23.9753 27 23.2995 27 22.5495C27 21.7308 26.6319 21.0027 26.0577 20.5247C25.8352 20.3379 25.6511 20.1071 25.6703 19.9478C25.6813 19.8544 25.6868 19.7582 25.6868 19.6593C25.6868 18.2198 24.5522 17.0522 23.1538 17.0522C22.9808 17.0522 22.8132 17.0714 22.6484 17.1044C22.3736 17.1621 22.0495 17.0522 21.8544 16.8352C21.3929 16.3214 20.7335 16 20 16C19.2665 16 18.6071 16.3214 18.1456 16.8324C17.9505 17.0467 17.6264 17.1593 17.3516 17.1016C17.1896 17.0687 17.0192 17.0495 16.8462 17.0495C15.4478 17.0495 14.3132 18.217 14.3132 19.6566C14.3132 19.794 14.3242 19.9313 14.3434 20.0632C14.3791 20.2857 14.2225 20.5604 13.9945 20.7418C13.3901 21.217 13 21.967 13 22.8104C13 23.6264 13.3681 24.3571 13.9423 24.8352Z" fill="#2873FB"/>
<path d="M13.9423 24.8352C14.1648 25.022 14.3489 25.2527 14.3297 25.4121C14.3187 25.5055 14.3132 25.6016 14.3132 25.7005C14.3132 27.1401 15.4478 28.3077 16.8462 28.3077C17.0192 28.3077 17.1868 28.2912 17.3516 28.2555C17.6264 28.1978 17.9505 28.3077 18.1456 28.5247C18.6071 29.0357 19.2665 29.3571 20 29.3571C20.7747 29.3571 21.467 29 21.9313 28.4368C22.1154 28.2143 22.4286 28.1209 22.706 28.2033C22.9313 28.2692 23.1676 28.3077 23.4148 28.3077C24.8132 28.3077 25.9478 27.1401 25.9478 25.7005C25.9478 25.5385 25.9341 25.3819 25.9066 25.2308C25.8599 24.9725 25.9863 24.6538 26.1951 24.4505C26.6896 23.9753 27 23.2995 27 22.5495C27 21.7308 26.6319 21.0027 26.0577 20.5247C25.8352 20.3379 25.6511 20.1071 25.6703 19.9478C25.6813 19.8544 25.6868 19.7582 25.6868 19.6593C25.6868 18.2198 24.5522 17.0522 23.1538 17.0522C22.9808 17.0522 22.8132 17.0714 22.6484 17.1044C22.3736 17.1621 22.0495 17.0522 21.8544 16.8352C21.3929 16.3214 20.7335 16 20 16C19.2665 16 18.6071 16.3214 18.1456 16.8324C17.9505 17.0467 17.6264 17.1593 17.3516 17.1016C17.1896 17.0687 17.0192 17.0495 16.8462 17.0495C15.4478 17.0495 14.3132 18.217 14.3132 19.6566C14.3132 19.794 14.3242 19.9313 14.3434 20.0632C14.3791 20.2857 14.2225 20.5604 13.9945 20.7418C13.3901 21.217 13 21.967 13 22.8104C13 23.6264 13.3681 24.3571 13.9423 24.8352Z" stroke="#F4F4F4" stroke-width="2" mask="url(#path-3-outside-1)"/>
<path d="M16.6126 22.9037C16.6675 22.8048 16.8131 22.802 16.9422 22.9174L18.2637 23.8487C18.3351 23.8927 18.4038 23.9147 18.4697 23.9147C18.6071 23.9147 18.7142 23.8158 18.8186 23.7224L23.0494 19.4888C23.3131 19.2004 23.5713 19.0987 23.7389 19.2114C23.8159 19.2636 23.8653 19.3377 23.879 19.4284C23.8955 19.5328 23.8571 19.6454 23.7746 19.7471L18.6895 25.9229C18.6153 26.0136 18.5219 26.063 18.4257 26.063C18.3104 26.063 18.206 25.9943 18.14 25.8735L16.6483 23.1811C16.5851 23.0795 16.5713 22.9751 16.6126 22.9037Z" fill="white"/>
</svg>
