<?xml version="1.0" encoding="UTF-8"?>
<svg width="53px" height="53px" viewBox="0 0 53 53" version="1.1" xmlns="http://www.w3.org/2000/svg" xmlns:xlink="http://www.w3.org/1999/xlink">
    <!-- Generator: Sketch 46.2 (44496) - http://www.bohemiancoding.com/sketch -->
    <title>Group</title>
    <desc>Created with Sketch.</desc>
    <defs></defs>
    <g id="Page-1" stroke="none" stroke-width="1" fill="none" fill-rule="evenodd">
        <g id="Group">
            <path d="M9.7642,46.627 C14.2642,50.26 19.9862,52.439 26.2202,52.439 C40.7012,52.439 52.4392,40.7 52.4392,26.22 C52.4392,25.052 52.3552,23.904 52.2072,22.777 C48.4092,30.695 38.0412,42.326 9.7642,46.627" id="Fill-1" fill="#959494"></path>
            <path d="M26.2197,0 C11.7397,0 -0.0003,11.739 -0.0003,26.22 C-0.0003,31.767 1.7267,36.907 4.6657,41.144 C6.6027,41.294 8.7857,41.338 11.1567,41.196 L11.1567,24.532 C11.1567,23.432 12.0567,22.532 13.1567,22.532 L16.9067,22.532 C18.0077,22.532 18.9077,23.432 18.9077,24.532 L18.9077,40.094 C19.9297,39.863 20.9717,39.593 22.0327,39.28 L22.0327,19.407 C22.0327,18.307 22.9317,17.407 24.0317,17.407 L27.7817,17.407 C28.8827,17.407 29.7827,18.307 29.7827,19.407 L29.7827,36.275 C30.8157,35.776 31.8577,35.23 32.9067,34.636 L32.9067,13.907 C32.9067,12.807 33.8067,11.907 34.9077,11.907 L38.6577,11.907 C39.7577,11.907 40.6577,12.807 40.6577,13.907 L40.6577,29.375 C44.2297,26.526 47.8237,23.046 51.3627,18.782 C48.1557,7.925 38.1157,0 26.2197,0" id="Fill-4" fill="#05598B"></path>
        </g>
    </g>
</svg>