<svg width="24" height="25" viewBox="0 0 24 25" fill="none" xmlns="http://www.w3.org/2000/svg">
<path d="M11.3229 13.2501C11.3229 11.4215 11.3229 9.64183 11.3229 7.86218C11.3229 6.65397 11.1269 6.44172 9.93504 6.44172C9.72279 6.44172 9.51054 6.44172 9.28196 6.44172C8.57989 6.42539 8.25335 6.76826 8.25335 7.47033C8.26968 9.41325 8.23702 11.3562 8.26968 13.2991C8.286 14.0665 8.00844 14.4747 7.12678 14.5236C7.12678 12.9889 7.12678 11.4541 7.12678 9.93572C7.12678 9.42958 7.22474 8.74384 6.60431 8.64588C5.90224 8.53159 5.11854 8.62955 4.41647 8.7765C4.2532 8.80915 4.08993 9.36427 4.08993 9.67449C4.05727 11.0786 4.08993 12.4828 4.0736 13.8869C4.0736 14.4094 4.23687 15.0135 3.50215 15.2257C2.47354 15.5196 1.72249 15.3563 1.26533 14.6216C0.481631 13.3807 0.138761 11.9929 0.0244708 10.5562C-0.383708 4.64573 4.36749 -0.236076 10.3106 0.00883119C14.1474 0.155775 17.8047 2.83342 18.9966 6.45804C19.1436 6.89888 19.0782 7.61727 18.817 7.94381C17.8864 9.05406 16.8088 10.0337 15.7965 11.0623C15.7149 11.0296 15.6495 10.997 15.5679 10.948C15.5516 10.7357 15.5026 10.5072 15.5026 10.2949C15.5026 8.72751 15.5026 7.16011 15.5026 5.60903C15.5026 4.61308 15.2414 4.36817 14.2617 4.36817C14.0168 4.36817 13.7719 4.36817 13.527 4.36817C12.7923 4.35185 12.4331 4.67839 12.4494 5.44576C12.4657 7.6336 12.4331 9.82143 12.4658 11.9929C12.4658 12.7603 12.0902 13.1032 11.3229 13.2501Z" fill="#2873FB"/>
<path d="M19.5848 9.23389C19.9276 13.1034 17.8051 16.728 14.2458 18.5893C11.1436 20.222 6.78428 19.8955 4.20459 17.7566C7.24144 17.2505 10.0824 16.4178 12.7437 15.03C15.405 13.6422 17.7398 11.8299 19.5848 9.23389Z" fill="#2873FB"/>
<path d="M14.1852 23.0994C14.4098 23.0522 14.6748 23.1421 14.8343 23.3195M14.1852 23.0994C14.0505 23.1286 13.9135 23.1421 13.772 23.1421C12.6288 23.1421 11.7012 22.1876 11.7012 21.0107C11.7012 20.9298 11.7057 20.8512 11.7147 20.7749C11.7304 20.6446 11.58 20.456 11.398 20.3032M14.1852 23.0994L14.288 23.5887C14.2882 23.5887 14.2884 23.5887 14.2885 23.5886M14.1852 23.0994L14.2911 23.5881C14.2903 23.5883 14.2894 23.5884 14.2885 23.5886M14.8343 23.3195L11.398 20.3032M14.8343 23.3195C15.2116 23.7373 15.7507 24 16.3503 24C16.9837 24 17.5496 23.7081 17.9292 23.2476L14.8343 23.3195ZM11.398 20.3032L11.0766 20.6862C11.0768 20.6864 11.0771 20.6866 11.0773 20.6868C11.0776 20.6871 11.0779 20.6873 11.0781 20.6875L11.398 20.3032ZM14.2885 23.5886C14.3305 23.5802 14.4167 23.6028 14.4624 23.6537L14.4633 23.6547C14.9293 24.1706 15.6004 24.5 16.3503 24.5C17.1419 24.5 17.8461 24.1343 18.3147 23.566M14.2885 23.5886L18.3147 23.566M18.3147 23.566C18.3358 23.5409 18.3829 23.525 18.4202 23.536L18.4221 23.5366C18.6468 23.6024 18.8873 23.6421 19.142 23.6421C20.5748 23.6421 21.7128 22.45 21.7128 21.0107C21.7128 20.85 21.6991 20.6921 21.6711 20.5377C21.6712 20.5382 21.6712 20.5381 21.6712 20.5374C21.6711 20.5334 21.6707 20.5092 21.6864 20.4675C21.704 20.4208 21.7328 20.3774 21.7629 20.3478C22.2613 19.8681 22.5729 19.1873 22.5729 18.4346C22.5729 17.6128 22.2029 16.8787 21.6233 16.3958C21.5653 16.347 21.5207 16.3007 21.4922 16.2648C21.497 16.2011 21.4994 16.1368 21.4994 16.0719C21.4994 14.6326 20.3614 13.4405 18.9286 13.4405C18.7497 13.4405 18.5796 13.4604 18.4173 13.4929L18.4173 13.4929L18.4126 13.4939C18.3708 13.5026 18.2842 13.48 18.2382 13.4289C17.7719 12.9098 17.1003 12.5803 16.3503 12.5803C15.6009 12.5803 14.9302 12.9093 14.4642 13.4247C14.4153 13.478 14.3269 13.4998 14.288 13.4916L14.2849 13.491C14.1229 13.458 13.9502 13.4383 13.772 13.4383C12.3392 13.4383 11.2012 14.6303 11.2012 16.0697C11.2012 16.1988 11.2108 16.3261 11.2274 16.4477L18.3147 23.566ZM11.2181 20.7165C11.2142 20.7501 11.2109 20.7838 11.2084 20.8178C11.2136 20.8243 11.2182 20.8305 11.2223 20.8363C11.2304 20.8477 11.2334 20.8535 11.2334 20.8535C11.2334 20.8535 11.2323 20.8513 11.2307 20.8469C11.2271 20.8375 11.2096 20.7895 11.2181 20.7165ZM11.1303 16.5648C11.1301 16.565 11.1298 16.5652 11.1295 16.5654L11.4407 16.9568L11.1316 16.5638C11.1312 16.5641 11.1308 16.5645 11.1303 16.5648ZM21.4823 16.3676L21.4825 16.3661L21.4823 16.3676Z" fill="#2873FB" stroke="#F4F4F4"/>
<path d="M13.5806 18.7244C13.6255 18.6436 13.7445 18.6413 13.8501 18.7357L14.9304 19.497C14.9888 19.533 15.0449 19.5509 15.0988 19.5509C15.2111 19.5509 15.2987 19.4701 15.3841 19.3937L18.8428 15.9327C19.0584 15.6969 19.2695 15.6138 19.4065 15.7059C19.4694 15.7486 19.5098 15.8092 19.5211 15.8833C19.5346 15.9687 19.5031 16.0608 19.4357 16.1439L15.2785 21.1927C15.2179 21.2668 15.1415 21.3073 15.0629 21.3073C14.9686 21.3073 14.8832 21.2511 14.8293 21.1523L13.6098 18.9513C13.5581 18.8682 13.5469 18.7828 13.5806 18.7244Z" fill="white"/>
</svg>
