<?xml version="1.0" encoding="iso-8859-1"?>
<!-- Generator: Adobe Illustrator 21.0.0, SVG Export Plug-In . SVG Version: 6.00 Build 0)  -->
<svg version="1.1" id="Layer_1" xmlns="http://www.w3.org/2000/svg" xmlns:xlink="http://www.w3.org/1999/xlink" x="0px" y="0px"
	 viewBox="0 0 648.693 150.258" style="enable-background:new 0 0 648.693 150.258;" xml:space="preserve">
<linearGradient id="SVGID_1_" gradientUnits="userSpaceOnUse" x1="0" y1="73.0224" x2="329.2215" y2="73.0224">
	<stop  offset="0" style="stop-color:#FF004E"/>
	<stop  offset="0.43" style="stop-color:#8C1AB0"/>
	<stop  offset="0.61" style="stop-color:#4965CF"/>
	<stop  offset="0.9987" style="stop-color:#05F3D2"/>
</linearGradient>
<path style="fill-rule:evenodd;clip-rule:evenodd;fill:url(#SVGID_1_);" d="M12.859,61.132c0,0,2.273,34.861,11.94,34.861
	c9.667,0,11.973-66.195,30.997-66.508c18.238,0,16.487,60.505,27.345,61.765c10.24,1.188,26.637-89.567,38.97-91.234
	c15.333-1.667,9.698,129.227,21.031,130.227c11.333,1,17.989-89.584,32.323-87.25c13.333,1.667,15.663,52.608,24.996,52.608
	c6.104,0,41.348-3.335,74.681-3.335c33.333,0,49.531,4.273,49.531,4.273c3.424,1.079,5.324,4.73,4.245,8.154
	c-1.079,3.424-4.73,5.324-8.154,4.245c0,0-11.946-2.634-46.28-2.634s-42.636,3.451-76.986,4.343
	c-18.996,0-17.701-38.319-21.034-37.653c-8,0.667-5.996,73.052-36.329,73.052c-23.333-0.667-18.671-116.052-19.671-117.052
	c-9.333,16-13.864,79.027-37.228,77.693c-24.179,0-21.434-61.04-27.434-61.04s-9.072,66.347-32.339,66.347
	c-17.482,0-23.322-48.157-23.322-48.157c-0.747-3.511,1.494-6.963,5.006-7.71C8.661,55.379,12.112,57.621,12.859,61.132z"/>
<g>
	<path style="fill:#D53247;" d="M345.632,129.005V59.618h13.344l23.533,52.647l23.048-52.647h12.858v69.387h-11.888V80.677
		l-18.827,48.328h-10.966l-19.215-48.328v48.328H345.632z"/>
	<path style="fill:#D53247;" d="M427.682,78.057h13.635l12.858,36.683l12.567-36.683h13.392l-21.156,52.453
		c-3.753,9.251-9.753,15.834-18.002,19.749l-6.21-8.783c5.693-2.491,9.833-6.55,12.421-12.179L427.682,78.057z"/>
	<path style="fill:#FFFFFF;" d="M483.82,59.618h13.053l7.424,49.833l18.05-49.833h12.373l16.886,47.892l7.861-47.892h12.664
		l-13.052,69.387h-12.228l-19.069-54.442l-20.477,54.442h-12.082L483.82,59.618z"/>
	<path style="fill:#FFFFFF;" d="M594.74,59.618v10.19h-12.858v-10.19H594.74z M594.74,78.057v50.948h-12.858V78.057H594.74z"/>
	<path style="fill:#FFFFFF;" d="M621.717,59.618v69.387h-12.858V59.618H621.717z"/>
	<path style="fill:#FFFFFF;" d="M648.693,59.618v69.387h-12.858V59.618H648.693z"/>
</g>
</svg>
