<svg width="165" height="48" viewBox="0 0 160 48" fill="none" xmlns="http://www.w3.org/2000/svg">
  <path fill-rule="evenodd" clip-rule="evenodd" d="M9.37417 17.6603C10.916 17.6603 12.1658 18.9424 12.1658 20.5238V27.1375V27.5966C12.1658 29.1782 13.4157 30.4603 14.9573 30.4603C16.4992 30.4603 17.7491 29.1782 17.7491 27.5966V27.0087V20.5238C17.7491 18.9424 18.9988 17.6603 20.5407 17.6603C22.0825 17.6603 23.3324 18.9424 23.3324 20.5238V22.1384V27.0896C23.36 27.1053 23.3881 27.1195 23.4157 27.135V27.5966C23.4157 29.1782 24.4157 30.4603 25.9573 30.4603C27.4991 30.4603 28.7489 29.1782 28.7489 27.5966V27.0108C28.7489 27.0108 28.6656 20.3144 28.3322 18.4315C27.9987 16.5487 26.9155 15.3885 25.4989 13.8479C24.0822 12.3074 26.2488 8.76002 29.0821 10.7286C31.9154 12.6972 33.3535 15.1968 33.8321 18.4315C34.3194 21.725 34.582 27.5343 34.582 27.5343C34.582 27.5343 34.4708 29.6158 34.2095 30.0814C33.1535 33.5954 29.9703 36.1484 26.2069 36.1484C24.0418 36.1484 22.0685 35.3032 20.582 33.9162C19.0955 35.3032 17.1223 36.1484 14.957 36.1484C11.1937 36.1484 8.01061 33.5954 6.95459 30.0814C6.69324 29.6158 6.58203 27.5343 6.58203 27.5343V22.1384V20.5238C6.58259 18.9424 7.83234 17.6603 9.37417 17.6603Z" fill="#FFD02F"/>
  <path fill-rule="evenodd" clip-rule="evenodd" d="M26.1317 30.6286C24.5899 30.6286 23.3401 29.3959 23.3401 27.8753L23.3401 21.5159L23.3401 21.0745C23.3401 19.5537 22.0902 18.3209 20.5485 18.3209C19.0067 18.3209 17.7568 19.5537 17.7568 21.0745L17.7568 21.6398L17.7568 27.8752C17.7568 29.3959 16.507 30.6286 14.9652 30.6286C13.4233 30.6286 12.1734 29.3959 12.1734 27.8752L12.1734 26.3227L12.0902 21.6914C12.0902 21.5183 12.1177 21.5332 12.0902 21.5183L12.0902 21.0745C12.0902 19.5537 11.0902 18.3209 9.54856 18.3209C8.00672 18.3209 6.75697 19.5537 6.75697 21.0745L6.75697 21.6378C6.75697 21.6378 6.84024 28.0766 7.17368 29.887C7.50712 31.6975 8.59033 32.813 10.007 34.2943C11.4236 35.7757 9.25703 39.1866 6.42372 37.2937C3.59041 35.4008 2.15234 32.9974 1.67379 29.887C1.18648 26.7203 0.923828 21.1344 0.923828 21.1344C0.923828 21.1344 1.03504 19.1329 1.29639 18.6852C2.3524 15.3064 5.53554 12.8516 9.29894 12.8516C11.4641 12.8516 13.4373 13.6643 14.9238 14.998C16.4103 13.6643 18.3836 12.8516 20.5489 12.8516C24.3121 12.8516 27.4953 15.3064 28.5513 18.6852C28.8126 19.1329 28.9238 21.1344 28.9238 21.1344L28.9238 26.3227L28.9238 27.8753C28.9233 29.3959 27.6735 30.6286 26.1317 30.6286Z" fill="#303030"/>
  <path d="M63.638 15.8012C61.6032 15.8012 59.9575 16.5193 58.97 17.9855C58.0424 16.5492 56.5164 15.8012 54.7808 15.8012C52.9855 15.8012 51.6689 16.5792 50.861 17.8958C50.831 16.6091 49.7838 15.9508 48.7664 15.9508C47.6892 15.9508 46.582 16.6689 46.582 18.0753V29.8349C46.582 31.2413 47.6592 31.9594 48.7365 31.9594C49.7838 31.9594 50.861 31.2413 50.861 29.8349V22.8629C50.8909 20.5589 51.9681 19.4517 53.4942 19.4517C54.6911 19.4517 55.9179 20.1998 55.9179 22.7732V29.7751C55.9179 31.2413 57.025 31.9893 58.0723 31.9893C59.1196 31.9893 60.2268 31.2413 60.2268 29.7751V22.8629C60.2268 20.5888 61.304 19.4517 62.83 19.4517C64.0269 19.4517 65.2538 20.1699 65.2538 22.7732V29.7751C65.2538 31.2413 66.3609 31.9893 67.4082 31.9893C68.4555 31.9893 69.5626 31.2413 69.5626 29.7751V22.0849C69.5626 17.7162 66.6901 15.8012 63.638 15.8012Z" fill="#303030"/>
  <path d="M81.772 17.3572C79.7074 22.9527 78.8396 25.4363 78.3309 27.6206C77.7923 25.3764 76.6852 22.444 74.7701 17.3871C74.3811 16.3996 73.6031 15.9807 72.8251 15.9807C71.6881 15.9807 70.5211 16.8485 70.5211 18.0753C70.5211 18.3446 70.5809 18.6139 70.7006 18.9131L76.1466 31.9295L74.5307 36.0588C74.411 36.358 74.3512 36.6573 74.3512 36.9266C74.3512 38.1235 75.4284 38.8716 76.4757 38.8716C77.2537 38.8716 78.0317 38.4826 78.3908 37.555L85.7517 18.8234C85.8714 18.5241 85.9313 18.2249 85.9313 17.9556C85.9313 16.7587 84.8241 15.9508 83.717 15.9508C82.939 15.9508 82.1311 16.3697 81.772 17.3572Z" fill="#303030"/>
  <path d="M93.7589 31.9893C95.1054 31.9893 96.1527 31.0617 96.4818 29.9247C98.0378 24.6882 98.5764 22.8928 98.9355 20.9778C99.1749 22.6535 99.4741 23.7606 101.21 29.8349C101.599 31.1814 102.706 31.9893 103.962 31.9893C105.189 31.9893 106.296 31.1216 106.656 29.9546L110.127 18.584C110.216 18.3446 110.246 18.1052 110.246 17.8958C110.246 16.6689 109.169 15.9508 108.122 15.9508C107.344 15.9508 106.476 16.3996 106.177 17.5367C104.621 23.3118 104.082 25.3465 103.873 26.7529C103.603 25.0174 103.244 23.6409 101.658 18.0454C101.299 16.7886 100.312 15.9209 98.9953 15.9209C97.6488 15.9209 96.6614 16.8784 96.3621 17.9556C94.6865 23.9102 94.2675 25.4662 94.0282 27.082C93.7888 25.4063 92.9509 22.9228 91.7241 17.6265C91.4249 16.3398 90.5571 15.9508 89.7492 15.9508C88.5523 15.9508 87.4751 16.7886 87.4751 17.9855C87.4751 18.195 87.5349 18.4044 87.5948 18.6438L91.0359 29.9546C91.395 31.1216 92.532 31.9893 93.7589 31.9893Z" fill="#303030"/>
  <path d="M114.922 14.5743C116.239 14.5743 117.316 13.4971 117.316 12.1805C117.316 10.8639 116.239 9.78672 114.922 9.78672C113.606 9.78672 112.528 10.8639 112.528 12.1805C112.528 13.4971 113.606 14.5743 114.922 14.5743ZM112.798 29.8648C112.798 31.2712 113.905 31.9893 114.922 31.9893C115.999 31.9893 117.047 31.2413 117.047 29.8648V18.0454C117.047 16.6689 115.999 15.9209 114.922 15.9209C113.875 15.9209 112.798 16.6689 112.798 18.0454V29.8648Z" fill="#303030"/>
  <path d="M126.383 32.0791C130.213 32.0791 133.085 30.3137 133.085 27.0521C133.085 21.1873 123.869 22.9228 123.869 20.3494C123.869 19.4817 124.856 19.0029 125.964 19.0029C127.131 19.0029 128.088 19.5116 128.866 20.2297C129.465 20.7983 130.093 21.0376 130.661 21.0376C131.649 21.0376 132.397 20.2597 132.397 19.332C132.397 18.8533 132.217 18.3147 131.739 17.806C130.721 16.6989 128.387 15.8012 126.023 15.8012C122.582 15.8012 119.74 17.5965 119.74 20.7085C119.74 26.334 128.806 24.778 128.806 27.3513C128.806 28.249 127.789 28.7577 126.412 28.7577C125.066 28.7577 124.258 28.2789 123.45 27.2616C122.941 26.6332 122.343 26.3639 121.745 26.3639C120.697 26.3639 119.74 27.2017 119.74 28.2789C119.74 28.7577 119.919 29.2664 120.338 29.7751C121.565 31.2413 123.719 32.0791 126.383 32.0791Z" fill="#303030"/>
  <path d="M144.452 15.8012C142.208 15.8012 140.622 16.7288 139.635 18.3147V11.2529C139.635 9.84656 138.558 9.12842 137.51 9.12842C136.463 9.12842 135.386 9.84656 135.386 11.2529V29.8648C135.386 31.2712 136.493 31.9893 137.51 31.9893C138.558 31.9893 139.635 31.2712 139.635 29.8648V23.4315C139.635 20.7384 141.101 19.4517 143.136 19.4517C144.752 19.4517 146.457 20.2896 146.457 23.3118V29.7751C146.457 31.2413 147.564 31.9893 148.612 31.9893C149.689 31.9893 150.766 31.2413 150.766 29.7751V22.6535C150.766 17.8958 147.744 15.8012 144.452 15.8012Z" fill="#303030"/>
</svg>
