<svg width="174" height="38" viewBox="0 0 174 38" fill="none" xmlns="http://www.w3.org/2000/svg">
<path fill-rule="evenodd" clip-rule="evenodd" d="M34.7483 27.4282C32.623 27.4282 30.9002 25.7114 30.9002 23.5938V14.7376V14.1229C30.9002 12.005 29.1773 10.2884 27.0522 10.2884C24.9268 10.2884 23.5813 12.0052 23.5813 14.1229V14.9101V23.5935C23.5813 25.7112 21.4809 27.428 19.3558 27.428C17.2305 27.428 15.5078 25.7112 15.5078 23.5935V21.4315V14.8015C15.4698 14.7805 15.431 14.7615 15.393 14.7407V14.1229C15.393 12.005 14.0146 10.2884 11.8895 10.2884C9.76419 10.2884 8.04147 12.0052 8.04147 14.1229V14.9073C8.04147 14.9073 8.15625 23.8742 8.61588 26.3955C9.07526 28.917 10.5687 30.4703 12.5215 32.5332C14.4742 34.5962 11.4877 39.3463 7.5821 36.7102C3.67653 34.0741 1.69421 30.7271 1.03455 26.3955C0.362312 21.9854 0 14.2063 0 14.2063C0 14.2063 0.153296 11.419 0.513553 10.7955C1.96922 6.09011 6.35702 2.67139 11.5447 2.67139C14.5292 2.67139 17.2492 3.80326 19.2983 5.66052C21.3474 3.80326 24.0674 2.67139 27.0522 2.67139C32.2396 2.67139 36.6274 6.09011 38.0831 10.7955C38.4433 11.419 38.5966 14.2063 38.5966 14.2063V21.4317V23.5938C38.5966 25.7114 36.8736 27.4282 34.7483 27.4282Z" fill="#4D525D"/>
<path fill-rule="evenodd" clip-rule="evenodd" d="M11.8684 10.0589C13.9937 10.0589 15.7164 11.7757 15.7164 13.8933V22.7495V23.3642C15.7164 25.4821 17.4394 27.1989 19.5645 27.1989C21.6898 27.1989 23.4128 25.4821 23.4128 23.3642V22.577V13.8933C23.4128 11.7757 25.1355 10.0589 27.2608 10.0589C29.3862 10.0589 31.1091 11.7757 31.1091 13.8933V16.0554V22.6853C31.1471 22.7064 31.1859 22.7254 31.2239 22.7462V23.3642C31.2239 25.4821 32.6023 27.1989 34.7274 27.1989C36.8527 27.1989 38.5754 25.4821 38.5754 23.3642V22.5798C38.5754 22.5798 38.4607 13.6129 38.001 11.0916C37.5414 8.57032 36.0482 7.01682 34.0955 4.95387C32.1427 2.89093 35.1292 -1.85918 39.0348 0.776889C42.9404 3.41296 44.9227 6.76004 45.5824 11.0916C46.2541 15.5017 46.6161 23.2808 46.6161 23.2808C46.6161 23.2808 46.4628 26.0681 46.1026 26.6916C44.6469 31.397 40.2591 34.8157 35.0715 34.8157C32.0869 34.8157 29.3669 33.6838 27.3178 31.8266C25.2688 33.6838 22.5487 34.8157 19.564 34.8157C14.3766 34.8157 9.98875 31.397 8.53308 26.6916C8.17283 26.0681 8.01953 23.2808 8.01953 23.2808V16.0554V13.8933C8.0203 11.7757 9.74302 10.0589 11.8684 10.0589Z" fill="#FCD600"/>
<path d="M76.6218 7.99609C76.1573 7.68564 75.5308 7.53029 74.7417 7.53029H73.4604C72.6896 7.53029 72.1303 7.59988 71.7821 7.7388C71.4339 7.87771 71.1764 8.12807 71.0092 8.48935C70.8421 8.85064 70.6518 9.43943 70.4382 10.2547L67.4716 21.4165L64.5051 10.2547C64.2914 9.43943 64.1012 8.8509 63.934 8.48935C63.7668 8.12807 63.5093 7.87771 63.1611 7.7388C62.8129 7.59988 62.2534 7.53029 61.4828 7.53029H60.2015C59.4122 7.53029 58.7854 7.68564 58.3214 7.99609C57.8571 8.30653 57.625 8.90662 57.625 9.79609V25.9201C57.625 26.7079 57.8011 27.2941 58.1542 27.6785C58.507 28.0629 58.962 28.2555 59.519 28.2555C60.0947 28.2555 60.5566 28.0609 60.9048 27.6719C61.253 27.2826 61.4271 26.6989 61.4271 25.9204V11.8534L64.7 24.836C64.8114 25.2623 64.9203 25.6723 65.0274 26.0662C65.1339 26.4601 65.2803 26.8191 65.4659 27.1434C65.6516 27.468 65.9117 27.7342 66.2458 27.9428C66.5801 28.1513 66.9886 28.2555 67.4714 28.2555C68.112 28.2555 68.6135 28.0932 68.9756 27.7689C69.3376 27.4446 69.5859 27.0856 69.7207 26.6917C69.8553 26.2978 70.0294 25.6795 70.243 24.836L73.5159 11.8534V25.9204C73.5159 26.6987 73.6923 27.2826 74.0451 27.6719C74.3979 28.0611 74.848 28.2555 75.396 28.2555C75.9809 28.2555 76.4475 28.0609 76.7957 27.6719C77.1439 27.2826 77.318 26.6989 77.318 25.9204V9.79609C77.318 8.90636 77.0858 8.30653 76.6218 7.99609ZM94.7131 7.18287C94.3787 7.18287 94.0955 7.24322 93.8634 7.36364C93.6312 7.48407 93.4199 7.65791 93.2296 7.8849C93.0391 8.11215 92.8653 8.35532 92.7074 8.61466C92.5494 8.87426 92.3543 9.19395 92.1224 9.57372L88.2646 15.7592L84.4489 9.57372C83.864 8.61928 83.4251 7.98222 83.1327 7.66253C82.8402 7.34285 82.4106 7.18287 81.8444 7.18287C81.306 7.18287 80.8533 7.3544 80.4866 7.6972C80.1197 8.04025 79.9366 8.44776 79.9366 8.92048C79.9366 9.20781 80.0272 9.54599 80.2083 9.93526C80.3893 10.3245 80.6979 10.8666 81.1344 11.5617L86.1203 19.2763V25.7399C86.1203 26.5926 86.3105 27.2251 86.6913 27.6372C87.0719 28.0493 87.5688 28.2558 88.1814 28.2558C88.7848 28.2558 89.2817 28.0473 89.6718 27.6303C90.0618 27.2132 90.2567 26.5831 90.2567 25.7399V19.276L95.3681 11.4502C95.7951 10.8109 96.0968 10.3104 96.2735 9.94913C96.4496 9.58784 96.5382 9.2263 96.5382 8.86502C96.5382 8.42028 96.3641 8.02895 96.0159 7.69052C95.6672 7.35209 95.233 7.18287 94.7131 7.18287ZM123.206 7.18287C122.667 7.18287 122.256 7.32179 121.973 7.59988C121.69 7.87797 121.49 8.19303 121.374 8.54507C121.258 8.89737 121.135 9.38371 121.005 10.0046L118.331 21.9031L115.309 10.7693C115.058 9.85181 114.858 9.19395 114.71 8.79543C114.561 8.39717 114.294 8.0287 113.909 7.69052C113.524 7.35235 112.983 7.18313 112.287 7.18313C111.599 7.18313 111.056 7.34541 110.657 7.66972C110.258 7.99429 109.97 8.37868 109.794 8.82342C109.617 9.26816 109.417 9.91703 109.195 10.7695L106.201 21.9031L103.527 10.0046C103.332 9.08713 103.104 8.38767 102.844 7.9057C102.584 7.42399 102.078 7.18287 101.326 7.18287C100.778 7.18287 100.318 7.36364 99.9472 7.72493C99.5756 8.08621 99.39 8.53121 99.39 9.0594C99.39 9.4764 99.4919 10.0834 99.6963 10.8802L103.094 24.5995C103.197 25.0075 103.312 25.4497 103.443 25.9271C103.573 26.4044 103.74 26.8165 103.944 27.1642C104.148 27.5116 104.415 27.7807 104.745 27.9705C105.075 28.1602 105.495 28.2555 106.006 28.2555C106.637 28.2555 107.143 28.0958 107.524 27.7761C107.904 27.4564 108.171 27.0949 108.325 26.692C108.478 26.2889 108.684 25.6241 108.944 24.6974L112.287 12.4791L115.587 24.6974C115.857 25.6518 116.066 26.3261 116.214 26.7197C116.363 27.1136 116.627 27.4682 117.008 27.783C117.389 28.0981 117.895 28.2558 118.526 28.2558C119.195 28.2558 119.712 28.0935 120.079 27.7692C120.446 27.4449 120.706 27.0671 120.859 26.6363C121.012 26.2054 121.205 25.5267 121.437 24.6L124.835 10.8807C125.039 10.0467 125.142 9.43994 125.142 9.05991C125.142 8.52248 124.954 8.07543 124.577 7.71851C124.202 7.36133 123.744 7.18287 123.206 7.18287ZM130.1 7.18287C129.496 7.18287 129.004 7.39138 128.623 7.80838C128.243 8.22539 128.052 8.85089 128.052 9.68491V25.7393C128.052 26.5734 128.245 27.2012 128.63 27.6228C129.016 28.0444 129.506 28.2552 130.1 28.2552C130.722 28.2552 131.225 28.0467 131.611 27.6297C131.996 27.2127 132.189 26.5826 132.189 25.7393V9.68491C132.189 8.84191 131.996 8.21383 131.611 7.80145C131.225 7.38932 130.722 7.18287 130.1 7.18287ZM150.245 17.4272C149.591 16.964 148.797 16.5701 147.864 16.2458C146.931 15.9215 145.888 15.6252 144.737 15.3563C143.818 15.1247 143.158 14.9486 142.759 14.8281C142.36 14.7077 141.966 14.5411 141.576 14.3277C141.186 14.1146 140.879 13.8598 140.656 13.5633C140.433 13.2669 140.322 12.9146 140.322 12.5069C140.322 11.849 140.649 11.2862 141.304 10.8181C141.958 10.3502 142.82 10.116 143.887 10.116C145.038 10.116 145.874 10.3315 146.394 10.7623C146.914 11.1932 147.36 11.7933 147.731 12.5623C148.019 13.0998 148.286 13.4867 148.532 13.723C148.778 13.9592 149.138 14.0773 149.611 14.0773C150.131 14.0773 150.565 13.8806 150.913 13.4865C151.262 13.0928 151.436 12.6504 151.436 12.1589C151.436 11.6215 151.297 11.0702 151.018 10.5048C150.739 9.93963 150.298 9.39963 149.695 8.8853C149.091 8.37098 148.332 7.95885 147.418 7.64815C146.503 7.33771 145.419 7.18262 144.166 7.18262C142.596 7.18262 141.232 7.4168 140.071 7.88464C138.91 8.35275 138.024 9.02216 137.411 9.89315C136.798 10.7644 136.492 11.7604 136.492 12.8818C136.492 14.0588 136.782 15.0433 137.362 15.8355C137.942 16.6279 138.727 17.2531 139.716 17.712C140.705 18.1706 141.932 18.5717 143.399 18.9142C144.495 19.1643 145.37 19.4008 146.025 19.6232C146.679 19.8456 147.213 20.1676 147.626 20.5892C148.039 21.0111 148.246 21.5601 148.246 22.2364C148.246 23.0892 147.863 23.8002 147.097 24.37C146.331 24.9397 145.335 25.2248 144.11 25.2248C143.218 25.2248 142.499 25.0835 141.951 24.8008C141.403 24.5184 140.978 24.1591 140.677 23.7237C140.375 23.2882 140.094 22.7461 139.834 22.0972C139.62 21.5506 139.363 21.1382 139.061 20.8601C138.759 20.582 138.39 20.4431 137.954 20.4431C137.415 20.4431 136.972 20.6215 136.624 20.9782C136.276 21.3351 136.102 21.7634 136.102 22.2639C136.102 23.1256 136.392 24.013 136.972 24.9256C137.552 25.8385 138.307 26.5682 139.235 27.1149C140.544 27.875 142.206 28.2547 144.221 28.2547C145.901 28.2547 147.355 27.9766 148.58 27.4207C149.806 26.8648 150.737 26.0958 151.373 25.1133C152.009 24.1312 152.327 23.0237 152.327 21.7912C152.327 20.7625 152.143 19.8938 151.777 19.1849C151.411 18.4767 150.9 17.8907 150.245 17.4272ZM172.487 7.80145C172.102 7.38932 171.598 7.18287 170.976 7.18287C170.363 7.18287 169.869 7.39138 169.493 7.80838C169.117 8.22539 168.929 8.85089 168.929 9.68491V15.523H160.001V9.68491C160.001 8.84191 159.808 8.21383 159.423 7.80145C159.038 7.38932 158.534 7.18287 157.912 7.18287C157.281 7.18287 156.782 7.39138 156.415 7.80838C156.048 8.22539 155.865 8.85089 155.865 9.68491V25.7393C155.865 26.5734 156.051 27.2012 156.422 27.6228C156.793 28.0444 157.29 28.2552 157.912 28.2552C158.525 28.2552 159.026 28.0467 159.416 27.6297C159.806 27.2127 160.001 26.5826 160.001 25.7393V18.8868H168.929V25.7396C168.929 26.5736 169.114 27.2014 169.486 27.6231C169.857 28.0447 170.354 28.2555 170.976 28.2555C171.589 28.2555 172.09 28.047 172.48 27.63C172.87 27.213 173.065 26.5829 173.065 25.7393V9.68491C173.065 8.84165 172.872 8.21383 172.487 7.80145Z" fill="#4D525D"/>
</svg>
