<?xml version="1.0" encoding="UTF-8"?>
<svg width="580px" height="147px" viewBox="0 0 580 147" version="1.1" xmlns="http://www.w3.org/2000/svg" xmlns:xlink="http://www.w3.org/1999/xlink">
    <!-- Generator: Sketch 46.2 (44496) - http://www.bohemiancoding.com/sketch -->
    <title>Group</title>
    <desc>Created with Sketch.</desc>
    <defs>
        <linearGradient x1="0%" y1="50%" x2="100%" y2="50%" id="linearGradient-1">
            <stop stop-color="#05F3D2" offset="0%"></stop>
            <stop stop-color="#4965CF" offset="42.3250159%"></stop>
            <stop stop-color="#8C1AB0" offset="61.1826371%"></stop>
            <stop stop-color="#FF004E" offset="100%"></stop>
        </linearGradient>
    </defs>
    <g id="Page-1" stroke="none" stroke-width="1" fill="none" fill-rule="evenodd">
        <g id="Group">
            <path d="M122.354,-2.84217094e-14 C122.274,0.002 122.192,0.007 122.111,0.016 L122.111,0.016 C109.778,1.683 93.38,92.438 83.141,91.25 L83.141,91.25 C72.284,89.99 74.034,29.485 55.796,29.485 L55.796,29.485 C36.771,29.798 34.465,95.992 24.799,95.992 L24.799,95.992 C15.133,95.992 12.859,61.133 12.859,61.133 L12.859,61.133 C12.113,57.621 8.661,55.38 5.149,56.127 L5.149,56.127 C2.11,56.773 0.022,59.446 0,62.43 L0,62.43 L0,62.529 C0.003,62.961 0.05,63.398 0.143,63.836 L0.143,63.836 C0.143,63.836 5.983,111.993 23.465,111.993 L23.465,111.993 C46.732,111.993 49.804,45.646 55.805,45.646 L55.805,45.646 C61.804,45.646 59.059,106.687 83.238,106.687 L83.238,106.687 C106.601,108.02 111.132,44.993 120.465,28.993 L120.465,28.993 C121.465,29.994 116.803,145.378 140.136,146.045 L140.136,146.045 C170.47,146.045 168.466,73.66 176.465,72.993 L176.465,72.993 C177.871,72.711 181.454,90.371 183.085,98.164 L183.085,98.164 C184.296,103.95 191.843,105.496 195.266,100.676 L195.266,100.676 C196.483,98.962 196.84,96.787 196.226,94.776 L196.226,94.776 C191.602,79.609 184.64,44.14 175.465,42.993 L175.465,42.993 C168.247,41.819 162.976,64.21 158.073,86.601 L158.073,86.601 C153.241,108.671 148.768,130.74 143.143,130.244 L143.143,130.244 C131.893,129.25 137.365,0.26 122.447,-2.84217094e-14 L122.447,-2.84217094e-14 L122.354,-2.84217094e-14 Z" id="Fill-1" fill="url(#linearGradient-1)"></path>
            <polygon id="Fill-4" fill="#D53247" points="220.7181 124.672 220.7181 55.771 233.9681 55.771 257.3371 108.049 280.2241 55.771 292.9921 55.771 292.9921 124.672 281.1871 124.672 281.1871 76.682 262.4921 124.672 251.6031 124.672 232.5231 76.682 232.5231 124.672"></polygon>
            <path d="M302.1932,74.0802 L315.7332,74.0802 L328.5012,110.5062 L340.9802,74.0802 L354.2782,74.0802 L333.2712,126.1652 C329.5442,135.3522 323.5862,141.8892 315.3952,145.7762 L309.2282,137.0552 C314.8812,134.5812 318.9922,130.5502 321.5632,124.9612 L302.1932,74.0802 Z" id="Fill-6" fill="#D53247"></path>
            <polygon id="Fill-8" fill="#FFFFFF" points="357.9393 55.7707 370.9003 55.7707 378.2723 105.2547 396.1963 55.7707 408.4833 55.7707 425.2513 103.3267 433.0563 55.7707 445.6323 55.7707 432.6703 124.6717 420.5283 124.6717 401.5923 70.6107 381.2593 124.6717 369.2623 124.6717"></polygon>
            <path d="M455.314,124.672 L468.083,124.672 L468.083,74.08 L455.314,74.08 L455.314,124.672 Z M455.314,65.889 L468.083,65.889 L468.083,55.771 L455.314,55.771 L455.314,65.889 Z" id="Fill-10" fill="#FFFFFF"></path>
            <path d="M482.1024,122.2628 L482.1024,111.6628 C487.7234,113.9108 494.2124,115.0348 501.5684,115.0348 C507.0604,115.0348 509.8074,113.2688 509.8074,109.7358 C509.8074,106.3628 507.9594,104.6758 504.2664,104.6758 L495.1114,104.6758 C484.8324,104.6758 479.6934,99.6168 479.6934,89.4988 C479.6934,78.8978 487.1934,73.5978 502.1944,73.5978 C508.5544,73.5978 514.5454,74.5618 520.1664,76.4888 L520.1664,87.0898 C514.5454,84.8418 508.4414,83.7168 501.8574,83.7168 C494.9504,83.7168 491.4984,85.4838 491.4984,89.0168 C491.4984,92.3888 493.5054,94.0758 497.5204,94.0758 L505.7114,94.0758 C516.9544,94.0758 522.5764,99.1348 522.5764,109.2538 C522.5764,119.8538 515.4124,125.1538 501.0864,125.1538 C494.0514,125.1538 487.7234,124.1898 482.1024,122.2628" id="Fill-12" fill="#FFFFFF"></path>
            <path d="M533.4633,124.672 L533.4633,55.771 L546.2323,55.771 L546.2323,80.536 C550.2143,76.233 555.3063,74.08 561.5053,74.08 C573.4863,74.08 579.4783,80.312 579.4783,92.775 L579.4783,124.672 L566.7093,124.672 L566.7093,92.775 C566.7093,87.186 563.9303,84.391 558.3743,84.391 C554.2303,84.391 550.1823,86.046 546.2323,89.354 L546.2323,124.672 L533.4633,124.672 Z" id="Fill-13" fill="#FFFFFF"></path>
        </g>
    </g>
</svg>