<svg width="28" height="28" viewBox="0 0 28 28" fill="none" xmlns="http://www.w3.org/2000/svg">
<g clip-path="url(#clip0_5731_44060)">
<path fill-rule="evenodd" clip-rule="evenodd" d="M14.7556 7.50258C15.1716 7.27214 15.6783 7.27214 16.0942 7.50258L20.6547 10.0597C21.0707 10.2752 21.3278 10.6989 21.3203 11.1598V13.1029C21.2457 13.0569 21.1775 13.0015 21.1193 12.9379C20.6172 12.3887 19.9103 12.0352 19.1204 12.0025C19.0352 11.662 18.8083 11.3641 18.4917 11.1821L16.0942 9.85154C15.6783 9.6211 15.1716 9.6211 14.7556 9.85154L11.685 11.5612L9.59762 12.7431L6.52704 14.4528C6.11107 14.6833 5.60435 14.6833 5.18839 14.4528L0.665707 11.9403C0.249742 11.7248 -0.00740063 11.3011 0.000162374 10.8402V5.78546C-0.00740063 5.32459 0.249742 4.90089 0.665707 4.68532L5.18839 2.17283C5.60435 1.94239 6.11107 1.94239 6.52704 2.17283L10.9741 4.68532C11.3901 4.90089 11.6472 5.32459 11.6396 5.78546V7.53231L9.55224 8.71423V6.96737C9.54468 6.51394 9.28753 6.09767 8.88669 5.86723L6.48922 4.53665C6.07326 4.30622 5.56654 4.30622 5.15057 4.53665L2.7531 5.86723C2.33713 6.0828 2.07999 6.5065 2.08755 6.96737V9.6657C2.09512 10.1191 2.35226 10.5354 2.7531 10.7658L5.18839 12.1336C5.60435 12.364 6.11107 12.364 6.52704 12.1336L9.59762 10.3867L11.685 9.24943L14.7556 7.50258ZM12.5027 16.2121L12.3581 16.1328C11.9573 15.9023 11.7001 15.4861 11.6926 15.0326V13.2858L9.60518 14.4677V16.2145C9.59762 16.6754 9.85476 17.0991 10.2707 17.3147L11.5035 17.9995C11.6778 17.742 11.8918 17.5141 12.1366 17.325C12.3972 17.1213 12.5761 16.8128 12.5353 16.5629C12.5184 16.4487 12.507 16.3308 12.5027 16.2121Z" fill="#2873FB"/>
<path d="M12.9423 21.8352C13.1648 22.022 13.3489 22.2527 13.3297 22.4121C13.3187 22.5055 13.3132 22.6016 13.3132 22.7006C13.3132 24.1401 14.4478 25.3077 15.8462 25.3077C16.0192 25.3077 16.1868 25.2912 16.3516 25.2555C16.6264 25.1978 16.9505 25.3077 17.1456 25.5247C17.6071 26.0357 18.2665 26.3571 19 26.3571C19.7747 26.3571 20.467 26 20.9313 25.4368C21.1154 25.2143 21.4286 25.1209 21.706 25.2033C21.9313 25.2692 22.1676 25.3077 22.4148 25.3077C23.8132 25.3077 24.9478 24.1401 24.9478 22.7006C24.9478 22.5385 24.9341 22.3819 24.9066 22.2308C24.8599 21.9725 24.9863 21.6538 25.1951 21.4506C25.6896 20.9753 26 20.2995 26 19.5495C26 18.7308 25.6319 18.0027 25.0577 17.5247C24.8352 17.3379 24.6511 17.1071 24.6703 16.9478C24.6813 16.8544 24.6868 16.7582 24.6868 16.6593C24.6868 15.2198 23.5522 14.0522 22.1538 14.0522C21.9808 14.0522 21.8132 14.0714 21.6484 14.1044C21.3736 14.1621 21.0494 14.0522 20.8544 13.8352C20.3929 13.3214 19.7335 13 19 13C18.2665 13 17.6071 13.3214 17.1456 13.8324C16.9505 14.0467 16.6264 14.1593 16.3516 14.1016C16.1896 14.0687 16.0192 14.0495 15.8462 14.0495C14.4478 14.0495 13.3132 15.217 13.3132 16.6566C13.3132 16.794 13.3242 16.9313 13.3434 17.0632C13.3791 17.2857 13.2225 17.5604 12.9945 17.7418C12.3901 18.217 12 18.967 12 19.8104C12 20.6264 12.3681 21.3571 12.9423 21.8352Z" fill="#2873FB"/>
<path d="M15.228 19.8738C15.2849 19.7646 15.4359 19.7616 15.5698 19.889L16.9402 20.9174C17.0143 20.9659 17.0855 20.9902 17.1539 20.9902C17.2963 20.9902 17.4074 20.881 17.5157 20.7778L21.9032 16.1031C22.1767 15.7845 22.4445 15.6723 22.6183 15.7967C22.698 15.8543 22.7493 15.9362 22.7636 16.0363C22.7807 16.1516 22.7408 16.276 22.6553 16.3882L17.3818 23.2077C17.3049 23.3078 17.208 23.3624 17.1083 23.3624C16.9886 23.3624 16.8804 23.2866 16.812 23.1531L15.265 20.1802C15.1995 20.068 15.1852 19.9527 15.228 19.8738Z" fill="white"/>
</g>
<defs>
<clipPath id="clip0_5731_44060">
<rect width="28" height="27.9998" fill="white"/>
</clipPath>
</defs>
</svg>
