<?xml version="1.0" encoding="UTF-8" standalone="no"?>
<!-- Generated by IcoMoon.io -->

<svg
   xmlns:dc="http://purl.org/dc/elements/1.1/"
   xmlns:cc="http://creativecommons.org/ns#"
   xmlns:rdf="http://www.w3.org/1999/02/22-rdf-syntax-ns#"
   xmlns:svg="http://www.w3.org/2000/svg"
   xmlns="http://www.w3.org/2000/svg"
   xmlns:sodipodi="http://sodipodi.sourceforge.net/DTD/sodipodi-0.dtd"
   xmlns:inkscape="http://www.inkscape.org/namespaces/inkscape"
   version="1.1"
   width="800"
   height="768"
   viewBox="0 0 800 768"
   id="svg2"
   inkscape:version="0.92.3 (unknown)"
   sodipodi:docname="refresher-red.svg">
  <metadata
     id="metadata14">
    <rdf:RDF>
      <cc:Work
         rdf:about="">
        <dc:format>image/svg+xml</dc:format>
        <dc:type
           rdf:resource="http://purl.org/dc/dcmitype/StillImage" />
        <dc:title></dc:title>
      </cc:Work>
    </rdf:RDF>
  </metadata>
  <defs
     id="defs12" />
  <sodipodi:namedview
     pagecolor="#ffffff"
     bordercolor="#666666"
     borderopacity="1"
     objecttolerance="10"
     gridtolerance="10"
     guidetolerance="10"
     inkscape:pageopacity="0"
     inkscape:pageshadow="2"
     inkscape:window-width="1920"
     inkscape:window-height="1025"
     id="namedview10"
     showgrid="false"
     inkscape:zoom="0.30729167"
     inkscape:cx="-870.77966"
     inkscape:cy="384"
     inkscape:window-x="0"
     inkscape:window-y="27"
     inkscape:window-maximized="1"
     inkscape:current-layer="svg2" />
  <path
     d="m 399.99213,58.541 c 175.888,0 318.467,137.164 318.467,306.376 0,3.997 -0.346,7.889 -0.626,11.819 l 46.257,-44.5 c 7.777,-7.481 20.367,-7.481 28.142,0 7.775,7.481 7.776,19.592 0,27.074 l -79.617,76.591 c -3.877,3.739 -8.971,5.604 -14.063,5.604 -5.092,0 -10.192,-1.864 -14.08,-5.604 l -79.617,-76.591 c -7.778,-7.479 -7.778,-19.592 0,-27.074 7.776,-7.481 20.367,-7.481 28.142,0 l 44.894,43.186 c 0.184,-3.519 0.753,-6.941 0.753,-10.508 0,-147.815 -125.011,-268.083 -278.662,-268.083 -128.902,0 -237.315,84.754 -269.016,199.273 -8.929,-4.944 -18.979,-7.791 -29.556,-7.791 -3.287003,0 -6.516003,0.409 -9.708003,0.916 C 126.77613,156.7 251.29213,58.531 399.98113,58.531 Z"
     id="path6"
     inkscape:connector-curvature="0"
     style="fill:#c03634;fill-opacity:1" />
  <path
     d="M 7.7451274,408.688 87.363127,332.097 c 3.885,-3.74 8.981,-5.602 14.077003,-5.602 5.101,0 10.192,1.862 14.082,5.602 l 79.619,76.591 c 7.775,7.481 7.775,19.592 0,27.074 -7.775,7.482 -20.367,7.481 -28.142,0 l -44.894,-43.186 c -0.184,3.52 -0.753,6.942 -0.753,10.509 0,147.815 125.01,268.083 278.661,268.083 128.903,0 237.314,-84.755 269.016,-199.273 8.93,4.929 18.979,7.79 29.555,7.79 3.289,0 6.517,-0.409 9.711,-0.916 -35.073,132.531 -159.59,230.699 -308.278,230.699 -175.889,0 -318.468003,-137.165 -318.468003,-306.376 0,-3.998 0.346,-7.89 0.625,-11.819 l -46.256,44.5 c -7.775,7.481 -20.367,7.481 -28.1409996,0 -7.77899999,-7.479 -7.77899999,-19.591 -0.02,-27.074 z"
     id="path8"
     inkscape:connector-curvature="0"
     style="fill:#c03634;fill-opacity:1" />
</svg>
