<!-- Generated by IcoMoon.io -->
<svg version="1.1" xmlns="http://www.w3.org/2000/svg" width="800" height="768" viewBox="0 0 800 768">
<title></title>

<path fill="#206EFF" d="M400.012 58.541c-175.888 0-318.467 137.164-318.467 306.376 0 3.997 0.346 7.889 0.626 11.819l-46.257-44.5c-7.777-7.481-20.367-7.481-28.142 0s-7.776 19.592 0 27.074l79.617 76.591c3.877 3.739 8.971 5.604 14.063 5.604s10.192-1.864 14.080-5.604l79.617-76.591c7.778-7.479 7.778-19.592 0-27.074-7.776-7.481-20.367-7.481-28.142 0l-44.894 43.186c-0.184-3.519-0.753-6.941-0.753-10.508 0-147.815 125.011-268.083 278.662-268.083 128.902 0 237.315 84.754 269.016 199.273 8.929-4.944 18.979-7.791 29.556-7.791 3.287 0 6.516 0.409 9.708 0.916-35.074-132.529-159.59-230.698-308.279-230.698z"></path>
<path fill="#206EFF" d="M792.259 408.688l-79.618-76.591c-3.885-3.74-8.981-5.602-14.077-5.602-5.101 0-10.192 1.862-14.082 5.602l-79.619 76.591c-7.775 7.481-7.775 19.592 0 27.074s20.367 7.481 28.142 0l44.894-43.186c0.184 3.52 0.753 6.942 0.753 10.509 0 147.815-125.010 268.083-278.661 268.083-128.903 0-237.314-84.755-269.016-199.273-8.93 4.929-18.979 7.79-29.555 7.79-3.289 0-6.517-0.409-9.711-0.916 35.073 132.531 159.59 230.699 308.278 230.699 175.889 0 318.468-137.165 318.468-306.376 0-3.998-0.346-7.89-0.625-11.819l46.256 44.5c7.775 7.481 20.367 7.481 28.141 0 7.779-7.479 7.779-19.591 0.020-27.074z"></path>
</svg>
