<svg width="21" height="10" viewBox="0 0 21 10" version="1.1" xmlns="http://www.w3.org/2000/svg" xmlns:xlink="http://www.w3.org/1999/xlink">
<title>right-arrow</title>
<desc>Created using Figma</desc>
<g id="Canvas" transform="translate(720 -2466)">
<g id="right-arrow">
<g id="Group">
<g id="Group">
<g id="Vector">
<use xlink:href="#path0_fill" transform="translate(-720 2466)" fill="#006DF0"/>
</g>
</g>
</g>
</g>
</g>
<defs>
<path id="path0_fill" d="M 20.7594 4.42915C 20.7591 4.42891 20.7589 4.42863 20.7587 4.42839L 16.4724 0.234836C 16.1512 -0.0793171 15.6319 -0.078148 15.3122 0.237578C 14.9926 0.553264 14.9939 1.06387 15.315 1.37806L 18.1928 4.19355L 0.820312 4.19355C 0.367254 4.19355 0 4.5546 0 5C 0 5.4454 0.367254 5.80645 0.820312 5.80645L 18.1928 5.80645L 15.315 8.62194C 14.9939 8.93613 14.9927 9.44674 15.3123 9.76242C 15.6319 10.0782 16.1513 10.0793 16.4724 9.76516L 20.7587 5.57161C 20.7589 5.57137 20.7591 5.57109 20.7594 5.57085C 21.0807 5.25561 21.0797 4.74335 20.7594 4.42915Z"/>
</defs>
</svg>
