<svg width="28" height="27" viewBox="0 0 28 27" fill="none" xmlns="http://www.w3.org/2000/svg">
<path d="M10.7748 21C10.6108 21 10.4703 21 10.3063 21C6.86306 19.5874 3.44324 18.1509 0 16.7384C0 12.4768 0 8.21514 0 3.95352C3.23243 2.68461 6.44144 1.36782 9.67387 0.146793C10.1423 -0.0447409 10.8216 -0.0447409 11.2901 0.122851C14.1946 1.24811 17.0757 2.46914 19.9802 3.57045C20.5189 3.78593 21.2685 3.76199 21.8306 3.59439C23.236 3.16344 24.5946 2.58884 25.9766 2.06213C25.9766 2.30154 25.9766 2.54096 25.9766 2.78038C25.5784 2.99585 25.1802 3.25921 24.7351 3.4268C20.4721 5.17455 16.1622 6.87441 11.8757 8.64609C11.5243 8.78974 11.0793 9.17281 11.009 9.50799C10.8685 10.2262 10.9622 10.9684 10.9622 11.8782C11.5009 11.6627 11.8991 11.543 12.2973 11.3754C16.4198 9.72347 20.5423 8.04755 24.6649 6.39557C25.0865 6.22798 25.555 6.1801 26 6.08433C26 6.32375 26 6.56316 26 6.80258C21.7369 8.52638 17.4973 10.2741 13.2342 11.9979C10.8685 12.9556 10.8685 12.9556 11.009 15.5174C11.009 15.5892 11.0793 15.6371 11.173 15.7807C13.3982 14.8949 15.6234 13.9851 17.8721 13.0753C20.5658 11.9979 23.2829 10.9445 26 9.86712C26 10.1065 26 10.346 26 10.5854C25.6018 10.8008 25.2036 11.0642 24.782 11.2557C20.4721 13.0035 16.1622 14.7273 11.8757 16.499C11.5243 16.6426 11.0793 17.0257 11.009 17.3848C10.8685 18.1031 10.9622 18.8692 10.9622 19.755C11.5009 19.5635 11.8991 19.4198 12.2739 19.2523C16.3964 17.5763 20.5189 15.9244 24.6414 14.2724C25.0631 14.1048 25.5315 14.033 25.9766 13.9372C25.9766 14.1766 25.9766 14.416 25.9766 14.6555C21.3387 16.5468 16.6775 18.4382 12.0396 20.3536C11.618 20.4972 11.1964 20.7606 10.7748 21ZM0.983784 5.34214C0.983784 8.86157 0.96036 12.1895 1.00721 15.5413C1.00721 15.8286 1.45225 16.2356 1.78018 16.3793C4.26306 17.4087 6.76937 18.4143 9.25225 19.3959C9.48649 19.4917 9.74414 19.5156 10.0486 19.5874C10.0486 17.2651 10.0486 15.0625 10.0486 12.8598C10.0486 11.5909 10.4468 10.0347 9.86126 9.17281C9.22883 8.26302 7.65946 8.02361 6.46486 7.54477C4.70811 6.82652 2.9045 6.10827 0.983784 5.34214Z" fill="#2873FB"/>
<mask id="path-2-outside-1" maskUnits="userSpaceOnUse" x="12" y="11" width="16" height="16" fill="black">
<rect fill="white" x="12" y="11" width="16" height="16"/>
<path d="M13.9423 20.8352C14.1648 21.022 14.3489 21.2527 14.3297 21.4121C14.3187 21.5055 14.3132 21.6016 14.3132 21.7005C14.3132 23.1401 15.4478 24.3077 16.8462 24.3077C17.0192 24.3077 17.1868 24.2912 17.3516 24.2555C17.6264 24.1978 17.9505 24.3077 18.1456 24.5247C18.6071 25.0357 19.2665 25.3571 20 25.3571C20.7747 25.3571 21.467 25 21.9313 24.4368C22.1154 24.2143 22.4286 24.1209 22.706 24.2033C22.9313 24.2692 23.1676 24.3077 23.4148 24.3077C24.8132 24.3077 25.9478 23.1401 25.9478 21.7005C25.9478 21.5385 25.9341 21.3819 25.9066 21.2308C25.8599 20.9725 25.9863 20.6538 26.1951 20.4505C26.6896 19.9753 27 19.2995 27 18.5495C27 17.7308 26.6319 17.0027 26.0577 16.5247C25.8352 16.3379 25.6511 16.1071 25.6703 15.9478C25.6813 15.8544 25.6868 15.7582 25.6868 15.6593C25.6868 14.2198 24.5522 13.0522 23.1538 13.0522C22.9808 13.0522 22.8132 13.0714 22.6484 13.1044C22.3736 13.1621 22.0495 13.0522 21.8544 12.8352C21.3929 12.3214 20.7335 12 20 12C19.2665 12 18.6071 12.3214 18.1456 12.8324C17.9505 13.0467 17.6264 13.1593 17.3516 13.1016C17.1896 13.0687 17.0192 13.0495 16.8462 13.0495C15.4478 13.0495 14.3132 14.217 14.3132 15.6566C14.3132 15.794 14.3242 15.9313 14.3434 16.0632C14.3791 16.2857 14.2225 16.5604 13.9945 16.7418C13.3901 17.217 13 17.967 13 18.8104C13 19.6264 13.3681 20.3571 13.9423 20.8352Z"/>
</mask>
<path d="M13.9423 20.8352C14.1648 21.022 14.3489 21.2527 14.3297 21.4121C14.3187 21.5055 14.3132 21.6016 14.3132 21.7005C14.3132 23.1401 15.4478 24.3077 16.8462 24.3077C17.0192 24.3077 17.1868 24.2912 17.3516 24.2555C17.6264 24.1978 17.9505 24.3077 18.1456 24.5247C18.6071 25.0357 19.2665 25.3571 20 25.3571C20.7747 25.3571 21.467 25 21.9313 24.4368C22.1154 24.2143 22.4286 24.1209 22.706 24.2033C22.9313 24.2692 23.1676 24.3077 23.4148 24.3077C24.8132 24.3077 25.9478 23.1401 25.9478 21.7005C25.9478 21.5385 25.9341 21.3819 25.9066 21.2308C25.8599 20.9725 25.9863 20.6538 26.1951 20.4505C26.6896 19.9753 27 19.2995 27 18.5495C27 17.7308 26.6319 17.0027 26.0577 16.5247C25.8352 16.3379 25.6511 16.1071 25.6703 15.9478C25.6813 15.8544 25.6868 15.7582 25.6868 15.6593C25.6868 14.2198 24.5522 13.0522 23.1538 13.0522C22.9808 13.0522 22.8132 13.0714 22.6484 13.1044C22.3736 13.1621 22.0495 13.0522 21.8544 12.8352C21.3929 12.3214 20.7335 12 20 12C19.2665 12 18.6071 12.3214 18.1456 12.8324C17.9505 13.0467 17.6264 13.1593 17.3516 13.1016C17.1896 13.0687 17.0192 13.0495 16.8462 13.0495C15.4478 13.0495 14.3132 14.217 14.3132 15.6566C14.3132 15.794 14.3242 15.9313 14.3434 16.0632C14.3791 16.2857 14.2225 16.5604 13.9945 16.7418C13.3901 17.217 13 17.967 13 18.8104C13 19.6264 13.3681 20.3571 13.9423 20.8352Z" fill="#2873FB"/>
<path d="M13.9423 20.8352C14.1648 21.022 14.3489 21.2527 14.3297 21.4121C14.3187 21.5055 14.3132 21.6016 14.3132 21.7005C14.3132 23.1401 15.4478 24.3077 16.8462 24.3077C17.0192 24.3077 17.1868 24.2912 17.3516 24.2555C17.6264 24.1978 17.9505 24.3077 18.1456 24.5247C18.6071 25.0357 19.2665 25.3571 20 25.3571C20.7747 25.3571 21.467 25 21.9313 24.4368C22.1154 24.2143 22.4286 24.1209 22.706 24.2033C22.9313 24.2692 23.1676 24.3077 23.4148 24.3077C24.8132 24.3077 25.9478 23.1401 25.9478 21.7005C25.9478 21.5385 25.9341 21.3819 25.9066 21.2308C25.8599 20.9725 25.9863 20.6538 26.1951 20.4505C26.6896 19.9753 27 19.2995 27 18.5495C27 17.7308 26.6319 17.0027 26.0577 16.5247C25.8352 16.3379 25.6511 16.1071 25.6703 15.9478C25.6813 15.8544 25.6868 15.7582 25.6868 15.6593C25.6868 14.2198 24.5522 13.0522 23.1538 13.0522C22.9808 13.0522 22.8132 13.0714 22.6484 13.1044C22.3736 13.1621 22.0495 13.0522 21.8544 12.8352C21.3929 12.3214 20.7335 12 20 12C19.2665 12 18.6071 12.3214 18.1456 12.8324C17.9505 13.0467 17.6264 13.1593 17.3516 13.1016C17.1896 13.0687 17.0192 13.0495 16.8462 13.0495C15.4478 13.0495 14.3132 14.217 14.3132 15.6566C14.3132 15.794 14.3242 15.9313 14.3434 16.0632C14.3791 16.2857 14.2225 16.5604 13.9945 16.7418C13.3901 17.217 13 17.967 13 18.8104C13 19.6264 13.3681 20.3571 13.9423 20.8352Z" stroke="#F4F4F4" stroke-width="2" mask="url(#path-2-outside-1)"/>
<path d="M16.6126 18.9037C16.6675 18.8048 16.8131 18.8021 16.9423 18.9175L18.2637 19.8488C18.3351 19.8927 18.4038 19.9147 18.4697 19.9147C18.6071 19.9147 18.7142 19.8158 18.8186 19.7224L23.0494 15.4889C23.3131 15.2004 23.5714 15.0988 23.739 15.2114C23.8159 15.2636 23.8653 15.3378 23.8791 15.4285C23.8956 15.5328 23.8571 15.6455 23.7747 15.7471L18.6895 21.923C18.6153 22.0136 18.5219 22.0631 18.4258 22.0631C18.3104 22.0631 18.206 21.9944 18.1401 21.8735L16.6483 19.1812C16.5851 19.0796 16.5714 18.9752 16.6126 18.9037Z" fill="white"/>
</svg>
