<svg width="18" height="16" viewBox="0 0 18 16" fill="none" xmlns="http://www.w3.org/2000/svg">
<path d="M0.0900879 13.791C2.08209 13.931 3.81809 13.447 5.41709 12.22C4.60109 12.122 3.89009 11.909 3.29009 11.434C2.70609 10.968 2.25809 10.387 2.01809 9.59298H3.49809C3.50609 9.55998 3.51409 9.52698 3.52209 9.48598C2.70609 9.24898 2.01009 8.82298 1.49009 8.14398C0.970088 7.47398 0.715088 6.69598 0.690088 5.84398C1.21009 5.99198 1.70609 6.13898 2.21009 6.27798C2.22609 6.24498 2.25009 6.21298 2.26609 6.17998C1.54609 5.57398 1.02609 4.84598 0.835088 3.90498C0.637933 2.98719 0.776674 2.02913 1.22609 1.20498C3.22609 3.59398 5.73709 4.91998 8.82409 5.14098C8.72809 4.36298 8.72009 3.64298 8.98409 2.93898C9.89609 0.475976 12.9671 -0.310024 14.8781 1.45798C15.0941 1.65398 15.2781 1.68698 15.5101 1.60498C16.1421 1.37598 16.7651 1.13098 17.4131 0.884976C17.1651 1.69498 16.6291 2.29298 15.9981 2.87398C16.6131 2.70998 17.2291 2.53798 17.8371 2.37398C17.8611 2.39898 17.8851 2.41498 17.9091 2.43998C17.4451 2.93098 16.9971 3.44698 16.4941 3.88898C16.2221 4.12598 16.1341 4.34698 16.1181 4.70698C15.9741 8.71698 14.3661 11.957 10.9431 13.996C7.45609 16.066 3.86609 15.943 0.331088 13.971C0.267088 13.931 0.211088 13.881 0.0910879 13.791H0.0900879Z" fill="#2873FB"/>
</svg>
