<svg width="23" height="20" viewBox="0 0 23 20" fill="none" xmlns="http://www.w3.org/2000/svg">
    <path d="M18.1573 0H11.3987C10.9709 0 10.5601 0.170297 10.2574 0.472959L1.46006 9.2687C0.829719 9.89905 0.829719 10.9208 1.46006 11.552L8.21869 18.3106C8.84904 18.941 9.87082 18.941 10.5012 18.3106L19.2985 9.51487C19.6012 9.2114 19.7715 8.80059 19.7715 8.37202V1.61419C19.7715 0.722352 19.0491 0 18.1573 0ZM15.3324 5.64968C14.6642 5.64968 14.1218 5.10731 14.1218 4.43903C14.1218 3.77076 14.6642 3.22839 15.3324 3.22839C16.0007 3.22839 16.5431 3.77076 16.5431 4.43903C16.5431 5.10731 16.0007 5.64968 15.3324 5.64968Z" fill="#2873FB"/>
    <path d="M21.3855 1.61414L21.3847 9.1274C21.3847 9.49948 21.237 9.85702 20.9731 10.1201L12.0337 19.0595L12.1709 19.1968C12.8012 19.8271 13.823 19.8271 14.4534 19.1968L22.5259 11.1258C22.8294 10.8231 22.9997 10.4123 22.9997 9.98454V3.22833C22.9997 2.33649 22.2774 1.61414 21.3855 1.61414Z" fill="#2873FB"/>
</svg>
