<?xml version="1.0" standalone="no"?>
<!DOCTYPE svg PUBLIC "-//W3C//DTD SVG 1.1//EN" "http://www.w3.org/Graphics/SVG/1.1/DTD/svg11.dtd" >
<svg xmlns="http://www.w3.org/2000/svg">
<metadata>Generated by IcoMoon</metadata>
<defs>
<font id="icomoon" horiz-adv-x="1024">
<font-face units-per-em="1024" ascent="960" descent="-64" />
<missing-glyph horiz-adv-x="1024" />
<glyph unicode="&#x20;" horiz-adv-x="512" d="" />
<glyph unicode="&#xe900;" glyph-name="spinner, loading, loading-wheel, refresh, repeat, busy, wait, arrow" d="M1024 576h-384l143.53 143.53c-72.53 72.526-168.96 112.47-271.53 112.47s-199-39.944-271.53-112.47c-72.526-72.53-112.47-168.96-112.47-271.53s39.944-199 112.47-271.53c72.53-72.526 168.96-112.47 271.53-112.47s199 39.944 271.528 112.472c6.056 6.054 11.86 12.292 17.456 18.668l96.32-84.282c-93.846-107.166-231.664-174.858-385.304-174.858-282.77 0-512 229.23-512 512s229.23 512 512 512c141.386 0 269.368-57.326 362.016-149.984l149.984 149.984v-384z" />
<glyph unicode="&#xe901;" glyph-name="mail" d="M981.333 683.467c-0.533 70.133-57.6 127.2-128 127.2h-682.667c-70.4 0-127.467-56.8-128-127.2 0-0.533 0-0.8 0-1.333v-511.467c0-70.667 57.333-128 128-128h682.667c70.667 0 128 57.333 128 128v511.467c0 0.533 0 1.067 0 1.333zM170.667 725.334h682.667c16.8 0 31.2-9.6 38.133-23.733l-379.467-265.6-379.467 265.6c6.933 14.133 21.333 23.733 38.133 23.733zM853.333 128h-682.667c-23.467 0-42.667 19.2-42.667 42.667v430.133l359.467-251.733c7.467-5.067 16-7.733 24.533-7.733s17.067 2.667 24.533 7.733l359.467 251.733v-430.133c0-23.467-19.2-42.667-42.667-42.667z" />
<glyph unicode="&#xe902;" glyph-name="settings" d="M972.512 554.24l-98.048 19.648c-4.928 14.176-10.752 27.936-17.184 41.248l55.552 83.328c16.928 25.376 13.568 59.2-8 80.736l-61.568 61.568c-12.384 12.384-28.736 18.752-45.312 18.752-12.256 0-24.64-3.52-35.424-10.752l-83.328-55.52c-13.376 6.464-27.136 12.224-41.312 17.152l-19.648 98.080c-5.952 29.952-32.256 51.456-62.752 51.456h-87.040c-30.496 0-56.768-21.536-62.752-51.456l-19.648-98.080c-14.176-4.928-27.936-10.72-41.248-17.152l-83.296 55.52c-10.848 7.232-23.2 10.752-35.488 10.752-16.544 0-32.896-6.368-45.28-18.752l-61.536-61.568c-21.568-21.568-24.928-55.36-8-80.736l55.52-83.328c-6.464-13.344-12.224-27.104-17.152-41.28l-98.112-19.616c-29.92-5.984-51.456-32.256-51.456-62.752v-87.040c0-30.496 21.536-56.8 51.456-62.752l98.080-19.68c4.928-14.176 10.72-27.936 17.152-41.248l-55.488-83.328c-16.928-25.376-13.568-59.2 8-80.736l61.568-61.568c12.384-12.384 28.736-18.752 45.28-18.752 12.288 0 24.672 3.552 35.456 10.752l83.328 55.552c13.344-6.496 27.104-12.256 41.28-17.184l19.616-98.048c5.984-29.952 32.256-51.488 62.752-51.488h87.040c30.496 0 56.8 21.568 62.752 51.488l19.68 98.048c14.176 4.928 27.936 10.752 41.248 17.184l83.328-55.552c10.816-7.2 23.2-10.752 35.424-10.752 16.576 0 32.928 6.368 45.312 18.752l61.568 61.568c21.568 21.568 24.928 55.36 8 80.736l-55.552 83.328c6.496 13.376 12.256 27.136 17.184 41.312l98.048 19.616c29.92 5.92 51.488 32.256 51.488 62.752v87.040c0 30.496-21.568 56.768-51.488 62.752zM861.888 384.8c-22.24-4.448-40.448-20.32-47.872-41.76-4.128-11.808-8.928-23.264-14.304-34.368-9.952-20.448-8.256-44.576 4.32-63.424l55.552-83.328-61.568-61.568-83.328 55.552c-10.688 7.136-23.072 10.752-35.488 10.752-9.504 0-19.072-2.112-27.872-6.368-11.136-5.376-22.56-10.24-34.432-14.368-21.376-7.424-37.248-25.632-41.696-47.872l-19.68-98.112h-87.040l-19.616 98.112c-4.448 22.24-20.32 40.448-41.728 47.872-11.808 4.128-23.296 8.928-34.4 14.304-8.832 4.32-18.368 6.432-27.904 6.432-12.448 0-24.8-3.616-35.488-10.752l-83.328-55.552-61.568 61.568 55.52 83.328c12.576 18.88 14.208 43.008 4.384 63.36-5.376 11.136-10.208 22.56-14.336 34.432-7.424 21.376-25.664 37.248-47.872 41.696l-98.080 19.68-0.064 87.072 98.112 19.616c22.208 4.448 40.448 20.32 47.872 41.728 4.128 11.808 8.896 23.296 14.304 34.4 9.92 20.416 8.256 44.544-4.352 63.392l-55.488 83.328 61.536 61.568 83.328-55.52c10.688-7.136 23.072-10.752 35.488-10.752 9.504 0 19.040 2.112 27.872 6.368 11.104 5.376 22.56 10.208 34.4 14.336 21.408 7.424 37.28 25.664 41.728 47.872l19.648 98.080 87.040 0.032 19.616-98.112c4.448-22.208 20.32-40.448 41.76-47.872 11.808-4.128 23.264-8.896 34.368-14.304 8.864-4.288 18.368-6.4 27.936-6.4 12.448 0 24.8 3.616 35.488 10.752l83.328 55.52 61.568-61.568-55.552-83.328c-12.576-18.88-14.176-42.976-4.384-63.36 5.376-11.104 10.24-22.56 14.368-34.4 7.424-21.408 25.632-37.28 47.872-41.728l98.048-19.648 0.096-87.040-98.112-19.648zM512 671.968c-123.68 0-224-100.32-224-224 0-123.712 100.32-224 224-224s224 100.32 224 224c0 123.68-100.32 224-224 224zM512 251.936c-108.224 0-196 87.808-196 196 0 108.224 87.776 196 196 196 108.192 0 196-87.776 196-196 0-108.192-87.808-196-196-196zM512 575.968c-70.72 0-128-57.28-128-128 0-70.688 57.28-128 128-128 70.688 0 128 57.312 128 128s-57.312 128-128 128zM512 351.936c-52.992 0-96 43.008-96 96s43.008 96 96 96 96-43.008 96-96c0-52.992-43.008-96-96-96z" />
<glyph unicode="&#xe903;" glyph-name="in-wallet" horiz-adv-x="1009" d="M1009.371 482.978h-48.919v226.003c0 54.183-43.89 98.262-97.839 98.262h-66.257l-67.802 122.433c-10.334 18.711-30 30.325-51.329 30.325-9.94 0-19.803-2.575-28.511-7.428l-260.213-145.327h-290.662c-53.949 0-97.839-44.079-97.839-98.262v-674.722c0-54.183 43.89-98.262 97.839-98.262h764.774c53.949 0 97.839 44.079 97.839 98.262v198.154h48.919v250.563zM862.613 767.94c30.133 0 54.75-22.992 58.056-52.411h-73.536l-29.001 52.411h44.481zM667.753 918.221c9.177 5.168 21.526 1.553 26.593-7.626l108.014-195.048h-497.532l362.925 202.674zM921.315 34.262c0-32.506-26.34-58.959-58.704-58.959h-764.771c-32.365 0-58.705 26.453-58.705 58.959v674.719c0 32.505 26.34 58.959 58.705 58.959h220.294l-93.847-52.416h-114.217c-10.821 0-19.568-8.803-19.568-19.652s8.747-19.653 19.568-19.653h811.245v-193.258h-143.098c-66.455 0-120.538-54.32-120.538-121.057v-8.452c0-66.74 54.086-121.057 120.538-121.057h143.098v-198.132zM970.234 271.718h-192.018c-44.889 0-81.404 36.669-81.404 81.755v8.451c0 45.082 36.511 81.755 81.404 81.755h192.018v-171.96zM838.151 356.084c0-23.976-19.335-43.391-43.204-43.391-23.874 0-43.205 19.418-43.205 43.391s19.335 43.391 43.205 43.391c23.874 0.003 43.204-19.433 43.204-43.391zM490.544 290.336h109.227l-191.147-193.422-191.146 193.422h111.957c0 138.16-43.691 234.87-139.264 303.95 136.533-27.632 273.067-110.528 300.373-303.95z" />
<glyph unicode="&#xe904;" glyph-name="account" d="M729.49 454.173c46.52 52.061 75.082 120.619 75.082 195.901 0 162.064-131.254 293.926-292.571 293.926s-292.571-131.863-292.571-293.926c0-162.062 131.254-293.925 292.571-293.925 56.869 0 109.824 16.643 154.806 44.97 159.086-60.218 268.618-206.483 282.552-375.637h-874.68c9.472 113.859 62.647 220.040 149.139 295.8 15.25 13.336 16.822 36.52 3.547 51.84-13.238 15.285-36.352 16.901-51.603 3.565-111.725-97.805-175.762-239.182-175.762-387.946 0-20.318 16.384-36.741 36.571-36.741h950.857c20.224 0 36.571 16.422 36.571 36.741 0 201.56-116.298 381.552-294.51 465.432zM292.571 650.074c0 121.576 98.414 220.445 219.429 220.445s219.429-98.869 219.429-220.445c0-121.574-98.414-220.443-219.429-220.443s-219.429 98.869-219.429 220.443z" />
<glyph unicode="&#xe905;" glyph-name="conditions" d="M172.994 651.799h216.351c17.926 0 32.452 14.516 32.452 32.43s-14.526 32.43-32.452 32.43h-216.351c-17.927 0-32.453-14.516-32.453-32.43s14.526-32.43 32.453-32.43zM172.994 499.267h473.077c17.926 0 32.452 14.516 32.452 32.43 0 17.91-14.526 32.43-32.452 32.43h-473.077c-17.927 0-32.453-14.52-32.453-32.43s14.526-32.43 32.453-32.43zM856.882 341.132l-84.264-97.922c-0.844-0.986-1.839-1.237-2.518-1.28-0.662-0.026-1.701 0.091-2.661 0.973l-58.449 53.090c-8.853 8.038-22.526 7.377-30.562-1.453-8.035-8.834-7.382-22.506 1.458-30.541l58.445-53.091c8.741-7.943 19.826-12.224 31.488-12.224 0.974 0 1.952 0.030 2.934 0.086 12.726 0.784 24.331 6.551 32.678 16.25l84.265 97.918c7.793 9.054 6.763 22.701-2.299 30.489-9.060 7.783-22.716 6.763-30.514-2.296zM1024 269.854c0 121.32-90.578 221.837-207.688 237.727v152.466c0 32.344-17.32 73.924-40.289 96.715l-164.65 163.358c-22.917 22.736-64.551 39.88-96.844 39.88h-438.806c-41.751 0-75.723-33.948-75.723-75.671v-872.659c0-41.723 33.971-75.671 75.723-75.671h664.867c41.751 0 75.723 33.948 75.723 75.671v20.456c117.11 15.891 207.688 116.408 207.688 237.727zM724.329 716.652h-131.645c-5.864 0-10.817 4.951-10.817 10.81v130.535l142.462-141.345zM740.589 0.861h-664.867c-5.868 0-10.818 4.951-10.818 10.81v872.659c0 5.859 4.95 10.81 10.818 10.81h438.806c0.784 0 1.606-0.043 2.437-0.091v-167.587c0-41.721 33.972-75.669 75.723-75.669h158.723v-144.216c-66.030-8.959-123.597-44.801-161.273-96.145-1.055 0.104-2.124 0.165-3.206 0.165h-413.939c-17.926 0-32.452-14.516-32.452-32.43 0-17.916 14.526-32.431 32.452-32.431h383.442c-8.199-24.155-12.712-49.995-12.712-76.882 0-34.639 7.443-67.554 20.717-97.325h-134.721c-17.926 0-32.452-14.516-32.452-32.431s14.526-32.43 32.452-32.43h157.205c5.929 0 11.463 1.613 16.247 4.384 37.312-42.613 89.406-71.938 148.235-79.921v-20.456c0-5.868-4.954-10.814-10.817-10.814zM783.86 94.739c-96.623 0-175.232 78.551-175.232 175.114 0 96.56 78.609 175.116 175.232 175.116 96.626 0 175.235-78.556 175.235-175.116 0-96.563-78.609-175.114-175.235-175.114z" />
<glyph unicode="&#xe906;" glyph-name="contracts" d="M60.212 957.264c-5.998-1.599-14.002-4.8-18.003-7.204-10.198-6.004-25.6-21.219-31.2-31.029-11.598-19.607-11.003 7.614-11.003-470.977s-0.596-451.368 11.003-470.987c11.003-19.012 32.998-35.033 53.603-39.436 7.398-1.401 82.996-1.997 252.394-1.401 237.201 0.596 242.195 0.596 255.998 4.601 29.8 8.805 55.995 20.622 78 35.43 14.201 9.412 102.4 96.084 119.201 117.093 19.603 24.418 35.204 56.45 44.199 91.076 4.003 15.414 4.4 22.421 5.005 108.089 0.595 50.237 0.198 91.472-0.803 91.472-1.004 0-10.398-8.805-21.003-19.618l-19.404-19.42-0.595-78.462-0.595-78.265-5.997-8.805c-3.604-5.010-9.8-10.405-15.004-13.010-8.6-4.402-10.806-4.602-65.599-4.602-61.805 0-69.799-1.004-81.198-10.405-14.201-11.607-14.002-11.409-15.204-83.064l-1.002-64.251-5.997-8.805c-3.397-4.601-10.199-10.803-15.006-13.605l-8.997-5.009-238.997-0.397c-165.595-0.408-242.395 0.199-250.002 1.6-8.997 1.799-12.8 4.005-20.198 11.608-7.596 7.404-9.801 11.21-11.598 20.214-1.599 8.011-2.205 127.3-1.797 444.363 0.596 392.524 1.003 433.957 3.803 440.356 4.2 9.413 14.796 19.42 23.604 22.421 5.799 1.998 76.403 2.604 343.194 2.604h335.985l8.005-4.402c9.999-5.407 15.996-11.609 20-21.020 2.601-6.609 2.998-25.62 2.998-148.121v-140.717l42.004 42.039v117.094c0 94.671-0.595 119.696-2.998 130.907-5.402 25.424-20.805 44.832-44.596 56.848l-15.204 7.404-342.996 0.397c-296.008 0.397-344.606 0-353.999-2.604zM376.996 876.204c-87.196-12.613-162.595-80.063-184.998-165.534-17.199-65.851-3.803-137.307 35.996-190.557 12.403-16.816 37.198-41.035 53.405-52.246 19.801-13.616 47.396-26.426 71.596-33.025 18.4-5.009 22.999-5.605 55.995-5.605 32.403 0 37.805 0.596 55.402 5.208 64.009 17.412 117.404 60.047 146.211 117.093 33.603 66.458 31.002 152.126-6.604 214.976-29.601 49.245-72.4 83.67-125.397 100.884-30.208 10.007-70.009 13.416-101.606 8.805zM455.196 831.371c64.803-16.209 115.198-66.855 133.003-133.103 6.604-24.418 6.604-65.851 0.198-89.873-14.199-52.842-49.601-96.68-97.404-120.9-25.798-12.81-67.196-21.020-93.998-18.614-80.195 7.603-143.192 59.441-165.396 136.701-4.002 13.407-4.598 20.414-4.598 47.635 0 27.42 0.596 34.227 4.598 48.041 28.003 97.685 125.595 154.531 223.597 130.113zM405.802 742.488l-5.799-5.804v-90.468h-98.408l-5.799-5.804c-4.598-4.601-5.799-7.603-5.799-14.212s1.202-9.61 5.799-14.212l5.799-5.804h138.407v130.51l-5.799 5.804c-4.598 4.601-7.596 5.804-14.2 5.804s-9.602-1.202-14.2-5.814zM941.991 702.449c-7.596-2.405-17.001-7.602-19.602-10.614-1.797-2.196 5.005-10.008 33.405-38.432 23.197-23.017 36.603-35.232 38.201-34.228 1.4 0.805 4.597 6.201 7.199 11.807 11.995 25.82 1.797 55.446-23.803 68.654-7.001 3.618-27.993 5.218-35.401 2.813zM716.994 486.083l-179.992-180.141 71.993-72.053 361 361.288-35.4 35.43c-19.603 19.618-35.998 35.629-36.602 35.629-0.595 0-81.992-81.068-180.998-180.153zM951.395 540.525l-35.401-35.629 17.993-17.611-72.787-73.266 8.798-9.004 8.996-9.004 145 145.12-17.397 17.402c-9.603 9.808-18.003 17.61-18.599 17.61-0.606 0.011-17-16.011-36.602-35.618zM128 287.918v-20.016h255.998v40.031h-255.998v-20.016zM507.211 242.483c-6.196-25.224-11.201-46.839-11.201-47.843 0-1.997 90.404 18.813 92.797 21.417 0.606 0.596-15.005 17.014-34.596 36.633l-35.798 35.629-11.201-45.836zM128 205.856v-20.016h255.998v40.031h-255.998v-20.016zM128 123.778v-20.016h255.998v40.031h-255.998v-20.016z" />
<glyph unicode="&#xe907;" glyph-name="create-contract" d="M512-64c281.814 0 512 230.186 512 512s-230.186 512-512 512c-281.814 0-512-230.186-512-512s230.186-512 512-512zM512 897.612c247.394 0 447.461-200.067 447.461-447.461s-200.067-447.464-447.463-447.464c-247.397 0-447.462 200.067-447.462 447.464 0 247.395 200.070 447.461 447.464 447.461zM299.028 417.89h212.975c17.211 0 32.268 15.059 32.268 32.268v212.975c0 17.211-15.060 32.268-32.268 32.268s-32.268-15.060-32.268-32.268v-180.707h-180.707c-17.211 0-32.268-15.059-32.268-32.268 0-19.363 15.057-32.268 32.268-32.268zM512.005 204.913c17.211 0 32.268 15.059 32.268 32.268v180.707h180.707c17.211 0 32.268 15.060 32.268 32.268s-15.060 32.268-32.268 32.268h-212.975c-17.211 0-32.268-15.060-32.268-32.268v-212.975c0-19.363 15.057-32.268 32.268-32.268z" />
<glyph unicode="&#xe908;" glyph-name="but-tokens" d="M550.128 474.146h-76.038c-31.591 0-57.3 25.71-57.3 57.3 0 31.592 25.709 57.301 57.3 57.301h134.21c14.378 0 26.144 11.765 26.144 26.145s-11.766 26.145-26.144 26.145h-69.938v53.379c0 14.38-11.764 26.145-26.144 26.145s-26.145-11.765-26.145-26.145v-53.379h-11.983c-60.351 0-109.59-49.239-109.59-109.59s49.239-109.59 109.59-109.59h76.038c31.59 0 57.3-25.708 57.3-57.3 0-31.59-25.71-57.3-57.3-57.3h-136.607c-14.379 0-26.145-11.764-26.145-26.144s11.765-26.146 26.145-26.146h72.334v-54.468c0-14.378 11.765-26.144 26.145-26.144s26.144 11.766 26.144 26.144v54.468h12.636c0.218 0 0.436 0 0.654 0 59.698 0.872 108.066 49.676 108.066 109.59 0 60.57-49.022 109.59-109.372 109.59zM874.104 810.104c-96.736 96.735-225.28 149.896-362.104 149.896s-265.368-53.161-362.104-149.896c-96.735-96.736-149.896-225.28-149.896-362.104s53.161-265.368 149.896-362.104c96.736-96.736 225.28-149.896 362.104-149.896s265.368 53.16 362.104 149.896c96.736 96.736 149.896 225.28 149.896 362.104s-53.16 265.368-149.896 362.104zM512-11.71c-253.386 0-459.711 206.324-459.711 459.71s206.325 459.711 459.711 459.711c253.386 0 459.71-206.325 459.71-459.711s-206.324-459.71-459.71-459.71z" />
<glyph unicode="&#xe909;" glyph-name="wallet" horiz-adv-x="1009" d="M1009.371 482.978h-48.919v226.003c0 54.183-43.89 98.262-97.839 98.262h-66.257l-67.802 122.433c-10.334 18.711-30 30.325-51.329 30.325-9.94 0-19.803-2.575-28.511-7.428l-260.213-145.327h-290.662c-53.949 0-97.839-44.079-97.839-98.262v-674.722c0-54.183 43.89-98.262 97.839-98.262h764.774c53.949 0 97.839 44.079 97.839 98.262v198.154h48.919v250.563zM862.613 767.94c30.133 0 54.75-22.992 58.056-52.411h-73.536l-29.001 52.411h44.481zM667.753 918.221c9.177 5.168 21.526 1.553 26.593-7.626l108.014-195.048h-497.532l362.925 202.674zM921.315 34.262c0-32.506-26.34-58.959-58.704-58.959h-764.771c-32.365 0-58.705 26.453-58.705 58.959v674.719c0 32.505 26.34 58.959 58.705 58.959h220.294l-93.847-52.416h-114.217c-10.821 0-19.568-8.803-19.568-19.652s8.747-19.653 19.568-19.653h811.245v-193.258h-143.098c-66.455 0-120.538-54.32-120.538-121.057v-8.452c0-66.74 54.086-121.057 120.538-121.057h143.098v-198.132zM970.234 271.718h-192.018c-44.889 0-81.404 36.669-81.404 81.755v8.451c0 45.082 36.511 81.755 81.404 81.755h192.018v-171.96zM838.151 356.084c0-23.976-19.335-43.391-43.204-43.391-23.874 0-43.205 19.418-43.205 43.391s19.335 43.391 43.205 43.391c23.874 0.003 43.204-19.433 43.204-43.391z" />
<glyph unicode="&#xe90a;" glyph-name="phone-call" d="M0 86.654l20.324-22.095c11.232-12.209 112.341-119.531 202.314-127.827 5.279-0.487 10.785-0.733 16.381-0.733 120.626 0.011 313.659 115.104 491.769 293.212 89.556 89.554 164.781 184.531 217.542 274.662 38.017 64.947 81.882 158.176 74.939 233.489-8.291 89.972-115.616 191.081-127.828 202.312l-22.092 20.324-274.43-274.429 92.158-92.158-324.488-324.485-92.158 92.157-274.43-274.43zM87.58 85.712l186.85 186.85 92.158-92.157 413.011 413.006-92.158 92.157 186.891 186.892c33.701-35.541 82.462-95.866 86.608-140.843 4.225-45.852-19.439-115.502-66.632-196.121-50.099-85.584-121.949-176.193-207.781-262.023-161.838-161.833-345.863-274.868-447.523-274.876-3.672 0-7.245 0.156-10.621 0.468-44.602 4.112-105.6 53.446-140.803 86.648zM131.234 494.931h-62.594c0 218.591 177.839 396.43 396.431 396.43v-62.594c-184.077 0-333.837-149.758-333.837-333.836zM277.288 494.931h-62.594c0 138.057 112.32 250.376 250.377 250.376v-62.594c-103.543 0-187.783-84.239-187.783-187.782z" />
<glyph unicode="&#xe90b;" glyph-name="question" d="M508.829 650.155c47.367 0 75.823-25.266 75.823-67.885 0-77.405-138.171-98.74-138.171-192.684 0-25.266 16.538-52.879 50.505-52.879 52.114 0 45.811 38.69 64.772 66.355 25.241 37.081 142.917 76.562 142.917 179.233 0 111.296-99.454 157.923-200.543 157.923-96.29 0-184.771-68.702-184.771-146.107 0-31.57 23.709-48.158 51.348-48.158 76.537-0.025 37.082 104.202 138.119 104.202zM564.898 220.579c0 35.551-29.221 64.746-64.747 64.746s-64.746-29.247-64.746-64.746c0-35.551 29.221-64.747 64.746-64.747s64.747 29.196 64.747 64.747zM1024 448c0 282.312-229.688 512-512 512s-512-229.688-512-512c0-282.312 229.688-512 512-512s512 229.663 512 512zM51.042 448c0 254.163 206.795 460.958 460.958 460.958s460.958-206.795 460.958-460.958c0-254.163-206.794-460.958-460.958-460.958s-460.958 206.794-460.958 460.958z" />
<glyph unicode="&#xe90c;" glyph-name="log-out" d="M972.8 460.8l-307.2 256v-153.6h-358.4v-204.8h358.4v-153.6l307.2 256zM153.6 819.2h409.6v102.4h-409.6c-56.32 0-102.4-46.080-102.4-102.4v-716.8c0-56.32 46.080-102.4 102.4-102.4h409.6v102.4h-409.6v716.8z" />
<glyph unicode="&#xe90d;" glyph-name="calendar" d="M938.688 864h-138.688v64c0 17.696-14.304 32-32 32s-32-14.304-32-32v-64h-192v64c0 17.696-14.336 32-32 32s-32-14.304-32-32v-64h-192v64c0 17.696-14.336 32-32 32s-32-14.304-32-32v-64h-138.656c-47.136 0-85.344-38.176-85.344-85.312v-757.344c0-47.136 38.208-85.344 85.344-85.344h853.344c47.136 0 85.312 38.208 85.312 85.344v757.344c0 47.136-38.176 85.312-85.312 85.312zM960 21.344c0-11.776-9.568-21.344-21.312-21.344h-853.344c-11.776 0-21.344 9.568-21.344 21.344v757.344c0 11.744 9.568 21.312 21.344 21.312h138.656v-64c0-17.696 14.336-32 32-32s32 14.304 32 32v64h192v-64c0-17.696 14.336-32 32-32s32 14.304 32 32v64h192v-64c0-17.696 14.304-32 32-32s32 14.304 32 32v64h138.688c11.744 0 21.312-9.568 21.312-21.312v-757.344zM224 576h128v-96h-128zM224 416h128v-96h-128zM224 256h128v-96h-128zM448 256h128v-96h-128zM448 416h128v-96h-128zM448 576h128v-96h-128zM672 256h128v-96h-128zM672 416h128v-96h-128zM672 576h128v-96h-128z" />
<glyph unicode="&#xe90e;" glyph-name="keyboard_arrow_up" d="M316 280.667l-60 60 256 256 256-256-60-60-196 196z" />
<glyph unicode="&#xe90f;" glyph-name="keyboard_arrow_down" d="M316 604.667l196-196 196 196 60-60-256-256-256 256z" />
<glyph unicode="&#xe910;" glyph-name="cancel" d="M512 32c-229.76 0-416 186.24-416 416s186.24 416 416 416 416-186.24 416-416-186.24-416-416-416zM702.752 569.312c7.808 7.808 7.808 20.512 0 28.32l-42.496 42.464c-7.808 7.808-20.512 7.808-28.32 0l-120.352-120.352-120.352 120.352c-7.808 7.808-20.512 7.808-28.32 0l-42.496-42.464c-7.808-7.808-7.808-20.512 0-28.32l120.384-120.384-120.384-120.32c-7.808-7.808-7.808-20.512 0-28.32l42.496-42.496c7.808-7.808 20.512-7.808 28.32 0l120.352 120.384 120.352-120.384c7.808-7.808 20.512-7.808 28.32 0l42.496 42.496c7.808 7.808 7.808 20.512 0 28.32l-120.384 120.32 120.384 120.384z" />
<glyph unicode="&#xe911;" glyph-name="github" d="M512.008 947.358c-282.738 0-512.008-229.218-512.008-511.998 0-226.214 146.704-418.132 350.136-485.836 25.586-4.738 34.992 11.11 34.992 24.632 0 12.204-0.48 52.542-0.696 95.324-142.448-30.976-172.504 60.41-172.504 60.41-23.282 59.176-56.848 74.916-56.848 74.916-46.452 31.778 3.51 31.124 3.51 31.124 51.4-3.61 78.476-52.766 78.476-52.766 45.672-78.27 119.776-55.64 149.004-42.558 4.588 33.086 17.852 55.68 32.506 68.464-113.73 12.942-233.276 56.85-233.276 253.032 0 55.898 20.004 101.574 52.76 137.428-5.316 12.9-22.854 64.972 4.952 135.5 0 0 43.006 13.752 140.84-52.49 40.836 11.348 84.636 17.036 128.154 17.234 43.502-0.198 87.336-5.886 128.256-17.234 97.734 66.244 140.656 52.49 140.656 52.49 27.872-70.528 10.35-122.6 5.036-135.5 32.82-35.856 52.694-81.532 52.694-137.428 0-196.654-119.778-239.95-233.79-252.624 18.364-15.89 34.724-47.046 34.724-94.812 0-68.508-0.596-123.644-0.596-140.508 0-13.628 9.222-29.594 35.172-24.566 203.322 67.776 349.842 259.626 349.842 485.768 0 282.78-229.234 511.998-511.992 511.998z" />
<glyph unicode="&#xe912;" glyph-name="cross" d="M734.618 212.531c-24.013-24.013-62.925-24.013-86.886 0l-135.731 155.136-135.731-155.085c-24.013-24.013-62.925-24.013-86.886 0-24.013 24.013-24.013 62.925 0 86.886l141.21 161.28-141.261 161.382c-24.013 24.013-24.013 62.874 0 86.886s62.874 24.013 86.886 0l135.782-155.187 135.731 155.187c24.013 24.013 62.874 24.013 86.886 0s24.013-62.925 0-86.886l-141.21-161.382 141.21-161.28c24.013-24.013 24.013-62.925 0-86.938z" />
<glyph unicode="&#xe913;" glyph-name="keyboard_arrow_left" d="M658 252.667l-60-60-256 256 256 256 60-60-196-196z" />
<glyph unicode="&#xe914;" glyph-name="menu" d="M839.68 512h-655.36c-28.262 0-30.72-22.886-30.72-51.2s2.458-51.2 30.72-51.2h655.36c28.262 0 30.72 22.886 30.72 51.2s-2.458 51.2-30.72 51.2zM839.68 307.2h-655.36c-28.262 0-30.72-22.886-30.72-51.2s2.458-51.2 30.72-51.2h655.36c28.262 0 30.72 22.886 30.72 51.2s-2.458 51.2-30.72 51.2zM184.32 614.4h655.36c28.262 0 30.72 22.886 30.72 51.2s-2.458 51.2-30.72 51.2h-655.36c-28.262 0-30.72-22.886-30.72-51.2s2.458-51.2 30.72-51.2z" />
<glyph unicode="&#xe915;" glyph-name="content_copy" d="M810 42.667v598h-468v-598h468zM810 724.667c46 0 86-38 86-84v-598c0-46-40-86-86-86h-468c-46 0-86 40-86 86v598c0 46 40 84 86 84h468zM682 896.667v-86h-512v-598h-84v598c0 46 38 86 84 86h512z" />
<glyph unicode="&#xe916;" glyph-name="eye" d="M898.304 180.89l-193.485 193.485c29.184 47.872 45.978 104.192 45.978 164.352 0 174.95-151.603 326.502-326.554 326.502-174.95 0.051-316.723-141.773-316.723-316.723 0-174.899 151.603-326.502 326.502-326.502 58.214 0 112.64 15.821 159.488 43.213l194.509-194.611c19.046-18.995 49.92-18.995 68.915 0l48.282 48.282c18.995 18.995 12.083 43.008-6.912 62.003zM205.005 548.506c0 121.139 98.15 219.29 219.238 219.29 121.139 0 229.069-107.878 229.069-229.069 0-121.088-98.202-219.29-219.29-219.29-121.139 0.051-229.018 107.981-229.018 229.069z" />
<glyph unicode="&#xe917;" glyph-name="trash" d="M959.36 741.792c-3.072 50.24-44.384 90.112-95.36 90.112h-96v32.064c0 53.024-43.008 96-96 96h-320c-53.024 0-96-42.976-96-96v-32.032h-96c-51.040 0-92.32-39.872-95.392-90.112h-0.608v-69.856c0-35.328 28.672-64 64-64v0-544c0-70.688 57.312-128 128-128h512c70.688 0 128 57.312 128 128v544c35.328 0 64 28.672 64 64v69.824h-0.64zM320 863.936c0 17.696 14.304 32 32 32h320c17.696 0 32-14.304 32-32v-32h-384v32zM832 63.936c0-35.264-28.736-64-64-64h-512c-35.296 0-64 28.736-64 64v544h640v-544zM896 703.968v-32h-768v63.968c0 17.696 14.304 32 32 32h704c17.696 0 32-14.304 32-32v-31.968zM288 63.808h64c17.696 0 32 14.304 32 32v416c0 17.696-14.304 32-32 32h-64c-17.696 0-32-14.304-32-32v-416c0-17.696 14.304-32 32-32zM288 511.84h64v-416h-64v416zM480 63.808h64c17.696 0 32 14.304 32 32v416c0 17.696-14.304 32-32 32h-64c-17.696 0-32-14.304-32-32v-416c0-17.696 14.304-32 32-32zM480 511.84h64v-416h-64v416zM672 63.808h64c17.696 0 32 14.304 32 32v416c0 17.696-14.304 32-32 32h-64c-17.696 0-32-14.304-32-32v-416c0-17.696 14.304-32 32-32zM672 511.84h64v-416h-64v416z" />
<glyph unicode="&#xe918;" d="M188.652 59.131c86.943-70.192 197.497-112.292 317.942-112.292 279.784 0 506.571 226.806 506.571 506.571 0 22.567-1.623 44.747-4.482 66.521-73.38-152.982-273.698-377.701-820.031-460.8z" />
<glyph unicode="&#xe919;" d="M506.584 960c-279.765 0-506.59-226.806-506.59-506.59 0-107.172 33.367-206.481 90.151-288.343 37.424-2.898 79.602-3.748 125.411-1.005v321.961c0 21.253 17.389 38.642 38.642 38.642h72.453c21.272 0 38.661-17.389 38.661-38.642v-300.67c19.746 4.463 39.878 9.68 60.377 15.727v383.961c0 21.253 17.369 38.642 38.622 38.642h72.453c21.272 0 38.661-17.389 38.661-38.642v-325.902c19.958 9.641 40.091 20.19 60.358 31.667v400.5c0 21.253 17.389 38.642 38.661 38.642h72.453c21.253 0 38.642-17.389 38.642-38.642v-298.853c69.014 55.045 138.453 122.281 206.829 204.665-61.962 209.765-255.942 362.882-485.782 362.882z" />
<glyph unicode="&#xe91a;" glyph-name="framew" d="M1024 365.937v164.125l-119.896 20c-9.354 36.042-23.698 70.542-42.76 102.937l70.729 99.021-116.073 116.042-99.021-70.729c-32.385 19.083-66.896 33.417-102.927 42.771l-19.979 119.896h-164.146l-19.979-119.896c-36.031-9.354-70.542-23.687-102.927-42.771l-99.021 70.729-116.073-116.042 70.729-99.021c-19.063-32.396-33.406-66.896-42.76-102.937l-119.896-20v-164.125l119.896-20c9.354-36.042 23.698-70.542 42.76-102.937l-70.729-99.021 116.073-116.042 99.021 70.729c32.385-19.083 66.896-33.417 102.927-42.771l19.979-119.896h164.146l19.979 119.896c36.031 9.354 70.542 23.687 102.927 42.771l99.021-70.729 116.073 116.042-70.729 99.021c19.063 32.396 33.406 66.896 42.76 102.937l119.896 20zM865.833 369.271c-9.063-40.937-25.229-79.875-48.052-115.708l-7.74-12.146 66.302-92.813-64.948-64.958-92.833 66.313-12.135-7.729c-35.844-22.833-74.771-39-115.708-48.063l-14.062-3.125-18.729-112.375h-91.854l-18.729 112.375-14.062 3.125c-40.938 9.063-79.865 25.229-115.708 48.063l-12.135 7.729-92.833-66.313-64.948 64.958 66.302 92.813-7.74 12.146c-22.823 35.833-38.99 74.771-48.052 115.708l-3.115 14.063-112.385 18.729v91.875l112.385 18.729 3.115 14.063c9.063 40.937 25.229 79.875 48.052 115.708l7.74 12.146-66.302 92.813 64.948 64.958 92.833-66.313 12.135 7.729c35.844 22.833 74.771 39 115.708 48.063l14.062 3.125 18.729 112.375h91.854l18.729-112.375 14.062-3.125c40.938-9.063 79.865-25.229 115.708-48.063l12.135-7.729 92.833 66.313 64.948-64.958-66.302-92.813 7.74-12.146c22.823-35.833 38.99-74.771 48.052-115.708l3.115-14.063 112.385-18.729v-91.875l-112.385-18.729-3.115-14.063zM616.059 539.429l-30.916-32.027 66.167-68.544-66.167-68.544 30.916-32.027 97.084 100.571zM438.857 507.401l-30.916 32.027-97.084-100.571 97.084-100.571 30.916 32.027-66.167 68.544zM430.217 301.056l93.724 257.776 51.555-18.745-93.724-257.776-51.555 18.745zM493.714 740.571c-151.247 0-274.286-123.049-274.286-274.286s123.039-274.286 274.286-274.286c151.247 0 274.286 123.049 274.286 274.286s-123.039 274.286-274.286 274.286zM493.714 234.198c-127.974 0-232.088 104.114-232.088 232.088s104.114 232.088 232.088 232.088c127.974 0 232.088-104.114 232.088-232.088s-104.114-232.088-232.088-232.088z" />
<glyph unicode="&#xe91b;" glyph-name="info-with-circle" d="M512 952.32c-271.514 0-491.571-220.058-491.571-491.52 0-271.514 220.058-491.571 491.571-491.571 271.411 0 491.52 220.058 491.52 491.571 0 271.462-220.109 491.52-491.52 491.52zM557.875 774.861c47.923 0 62.003-27.802 62.003-59.597 0-39.68-31.744-76.39-85.965-76.39-45.363 0-66.97 22.784-65.638 60.518 0 31.795 26.573 75.469 89.6 75.469zM435.098 166.4c-32.768 0-56.678 19.917-33.792 107.213l37.53 154.88c6.502 24.781 7.578 34.714 0 34.714-9.779 0-52.326-17.101-77.414-33.997l-16.333 26.778c79.616 66.509 171.162 105.523 210.33 105.523 32.768 0 38.195-38.707 21.862-98.304l-43.008-162.816c-7.629-28.774-4.352-38.707 3.277-38.707 9.83 0 41.984 11.878 73.626 36.813l18.534-24.883c-77.466-77.414-161.894-107.213-194.611-107.213z" />
<glyph unicode="&#xe91c;" glyph-name="key" horiz-adv-x="1046" d="M469.779 489.701c3.76 0 7.523 1.357 10.554 3.97l362.132 317.506-21.112 24.037-362.13-317.505c-6.689-5.852-7.316-15.885-1.464-22.574 3.24-3.658 7.63-5.434 12.020-5.434zM325.97-64c196.482 0 313.952 154.572 313.952 304.023 0 43.058-10.347 90.506-25.5 121.337l144.643 72.321c5.434 2.717 8.883 8.257 8.883 14.319v128.026h95.94c0.314 0 3.242 0.209 3.658 0.209 21.321 1.464 27.696 8.255 28.428 31.772v127.922h95.942c4.074 0 7-0.418 8.883-0.732 3.867-0.627 11.079-1.778 17.349 3.867 6.48 5.747 6.166 13.063 5.957 19.438-0.105 2.299-0.209 5.33-0.209 9.302v145.166c0 25.919-21.112 47.030-47.030 47.030h-123.95c-11.288 0-22.367-4.076-31.040-11.601l-421.912-369.97c-20.798 4.181-52.15 9.615-73.994 9.615-179.759-0.105-325.97-146.314-325.97-325.97 0-179.653 146.211-326.074 325.97-326.074zM325.97 555.96c15.99 0 43.476-3.867 75.353-10.451 4.911-1.046 10.033 0.314 13.796 3.658l427.869 374.986c2.821 2.404 6.375 3.762 9.928 3.762h123.95c8.257 0 15.051-6.689 15.051-15.050v-144.957h-112.036c-8.885 0-15.992-7.211-15.992-15.99v-144.015h-111.93c-8.885 0-15.99-7.212-15.99-15.992v-134.087l-151.125-75.562c-4.179-2.089-7.212-5.957-8.36-10.449-1.15-4.495-0.209-9.408 2.508-13.168 14.109-19.441 28.951-67.619 28.951-118.621 0-133.671-105.452-271.94-281.973-271.94-162.096 0-293.989 131.893-293.989 293.99s131.893 293.886 293.989 293.886zM271.937 96.008c61.767 0 112.036 50.27 112.036 112.034 0 61.767-50.27 112.036-112.036 112.036s-112.035-50.27-112.035-112.036c0.105-61.765 50.27-112.034 112.035-112.034zM271.937 287.995c44.104 0 79.953-35.953 79.953-79.953s-35.953-79.95-79.953-79.95c-43.999 0-79.95 35.951-79.95 79.95s35.847 79.953 79.95 79.953z" />
<glyph unicode="&#xe91d;" glyph-name="deferred" horiz-adv-x="1198" d="M635.671 958.935c-58.695-4.913-113.081-32.26-155.477-77.737-24.279-25.809-41.168-54.385-53.47-90.953-9.522-27.35-10.136-31.96-10.136-72.212-0.313-49.774 3.683-68.516 22.739-108.468 32.874-69.13 90.341-115.22 165.623-133.349 35.030-8.294 92.182-6.753 124.743 3.683 83.89 26.422 143.8 88.486 167.766 173.601 10.449 36.568 9.835 90.953-1.54 129.051-35.030 116.161-139.491 187.131-260.249 176.383zM711.253 905.164c50.089-12.905 101.705-55.311 124.442-102.932 22.125-46.089 26.735-96.178 13.519-141.027-19.356-66.072-75.896-120.457-142.571-137.056-29.491-7.379-83.576-4.61-111.238 5.537-59.297 22.125-104.473 68.516-122.602 125.368-9.221 28.576-11.062 72.825-4.61 102.63 11.062 48.546 41.168 93.108 81.421 120.144 48.872 32.247 104.484 41.768 161.639 27.336zM651.45 865.517c0-6.451-1.541-7.68-8.294-7.68-10.448 0-37.484-12.29-44.55-20.282-3.070-3.384-8.294-12.905-11.977-21.199-8.908-20.284-7.066-48.547 4.61-66.062 8.607-13.217 33.801-29.504 50.388-32.574l9.834-1.842v-101.405l-8.294 2.155c-15.36 3.684-34.716 28.577-34.716 44.25 0 8.607-2.769 9.522-19.356 5.838-14.445-3.070-14.746-3.070-12.904-12.591 1.228-5.537 5.525-17.202 9.834-26.122 8.908-19.056 25.808-31.647 50.388-37.485l15.059-3.684v-15.059c0-14.746 0.301-15.059 9.221-15.059 8.907 0 9.221 0.313 9.221 14.746v15.059l18.429 4.911c35.029 9.835 55.612 37.184 55.612 73.742 0 38.099-17.201 59.923-56.539 71.287l-17.514 4.911v46.092c0 25.195 0.915 45.779 1.842 45.779 3.382 0 15.36-7.068 22.125-13.218 3.683-3.381 8.294-11.362 9.834-17.515l3.070-11.362 13.831 2.155c7.68 1.227 14.746 3.068 15.974 3.996 3.684 3.996-5.525 26.735-15.36 38.099-10.749 12.29-29.804 22.125-42.708 22.426-7.066 0-8.607 1.227-8.607 7.68 0 6.451-1.541 7.68-9.221 7.68-7.692 0.011-9.233-1.216-9.233-7.669zM651.45 790.236c0-27.964-1.228-43.023-3.069-43.023-5.838 0-19.669 8.294-27.349 16.588-11.062 11.677-12.29 33.802-2.769 47.933 6.139 9.223 23.665 21.513 31.032 21.513 1.24 0.011 2.155-19.345 2.155-43.010zM693.857 700.507c5.525-3.383 11.989-10.136 14.445-14.746 10.749-20.584 1.842-51.93-17.815-64.22-20.283-12.603-20.584-11.99-20.584 41.481v47.633l7.066-1.842c3.671-1.24 11.363-4.923 16.888-8.306zM397.909 368.668c-13.517-1.227-53.156-6.752-88.186-11.676-62.377-8.909-66.675-9.22-186.821-9.22h-122.902v-359.517h197.57l9.835-11.376c8.908-10.136 11.677-11.676 23.352-11.676 11.064 0 17.815 2.769 37.485 16.287 13.216 8.607 27.65 16.901 31.646 17.816 9.835 2.456 14.131 1.842 133.351-18.442 171.448-28.878 292.823-44.864 344.138-44.864 19.97 0 31.032 2.155 54.697 9.835 38.099 12.591 160.086 73.442 223.391 111.541 83.576 50.089 109.385 73.442 119.832 107.244 6.767 22.125 5.839 35.33-3.996 54.385-11.676 23.040-31.032 35.030-57.152 35.030-16.288 0-23.654-2.455-55.614-17.515-48.546-23.040-76.822-31.96-130.595-41.169-24.58-4.296-46.392-8.606-48.858-9.22-3.998-1.229-3.384-12.905 1.54-39.026 1.841-8.607 2.155-8.607 17.515-6.765 31.032 3.996 93.097 17.213 115.836 24.893 12.591 4.299 39.025 15.36 58.682 24.583 38.411 18.127 45.165 19.356 52.856 11.061 15.674-17.201-4.296-44.551-58.067-79.28-66.050-42.373-185.581-104.752-243.037-126.877-21.511-7.993-29.491-9.522-52.231-9.522-53.156 0-220.622 23.040-392.684 54.085-70.36 12.904-84.19 12.591-112.152-1.228-10.75-5.525-18.443-7.993-18.443-5.838 0 2.769 18.129 271.016 18.443 271.016 5.523 0 25.807 2.455 73.741 8.909 119.218 15.972 143.497 15.972 214.469 0 69.745-15.674 254.111-69.758 261.49-76.512 2.767-2.455 3.381-7.066 2.155-11.976-6.754-26.737-97.095-35.958-192.66-19.358-24.892 4.31-48.546 8.909-52.542 9.835-8.909 2.155-10.135-0.301-13.519-29.491l-1.841-16.9 36.256-6.767c63.292-11.676 78.665-13.517 122.601-13.517 70.059 0 112.766 11.99 134.578 37.799 32.26 37.485 16.903 89.415-30.731 102.934-9.835 2.767-47.631 13.831-83.89 24.881-78.963 23.665-171.762 47.633-211.702 54.385-31.345 5.214-87.271 5.826-127.837 1.216zM216.939 279.554c-0.927-10.75-4.61-63.606-7.993-117.679s-7.066-104.162-7.993-111.24l-1.541-13.217h-150.251v261.192h169.607l-1.829-19.055z" />
<glyph unicode="&#xe91e;" glyph-name="lastwill" horiz-adv-x="871" d="M426.631 158.040c-41.69 98.535-160.287 75.547-161.123-38.766-0.418-62.797 56.425-86.308 94.354-111.385 36.781-24.347 62.904-57.68 66.978-71.889 3.553 13.898 32.602 48.169 66.665 72.517 37.2 26.644 94.772 48.588 94.354 111.385-0.73 114.625-121.416 132.702-161.228 38.139zM853.264 259.187c0 74.397-59.664 134.791-133.329 134.791h-586.606c-73.561 0-133.329-60.394-133.329-134.791v-188.71h0.731c-0.418-2.194-0.731-4.388-0.731-6.687 0-18.6 14.942-33.751 33.332-33.751s33.332 15.151 33.332 33.751c0 2.299-0.209 4.493-0.627 6.687h0.627v188.606c0 37.197 29.779 67.394 66.664 67.394h586.606c36.779 0 66.665-30.093 66.665-67.394v-188.71h0.73c-0.416-2.194-0.73-4.388-0.73-6.687 0-18.6 14.942-33.751 33.332-33.751s33.332 15.151 33.332 33.751c0 2.299-0.209 4.493-0.627 6.687h0.627v188.815zM426.631 447.791c139.913 0 253.283 114.729 253.283 256.105 0.105 141.375-113.37 256.105-253.283 256.105-139.911 0-253.282-114.73-253.282-256.105s113.371-256.105 253.282-256.105zM426.631 892.604c103.132 0 186.619-84.532 186.619-188.709 0-104.28-83.487-188.708-186.619-188.708-103.13 0-186.619 84.428-186.619 188.708s83.593 188.709 186.619 188.709z" />
<glyph unicode="&#xe91f;" glyph-name="wedding" d="M1016.109 755.74l-196.033 196.332c-6.791 6.799-16.72 9.518-26.018 7.008l-267.822-71.859c-0.627-0.209-1.148-0.418-1.776-0.628-0.732-0.209-1.36-0.418-2.089-0.732-0.941-0.419-1.882-0.941-2.821-1.464-0.523-0.314-1.046-0.523-1.569-0.837-1.462-0.941-2.717-1.987-3.97-3.243 0 0 0-0.105-0.105-0.105-1.15-1.151-2.194-2.406-3.135-3.765-0.314-0.523-0.627-1.046-0.941-1.569-0.523-0.941-1.044-1.778-1.462-2.824-0.314-0.628-0.523-1.255-0.732-1.883-0.314-0.941-0.627-1.883-0.837-2.824-0.209-0.628-0.312-1.36-0.416-1.987-0.105-0.941-0.209-1.883-0.314-2.824 0-0.732-0.105-1.464 0-2.197 0-0.314 0-0.732 0-1.046l11.388-158.676c-140.963 47.906-296.136 12.342-402.827-94.452-73.878-74.162-114.631-172.692-114.631-277.606 0-104.807 40.753-203.443 114.84-277.604 74.087-74.159 172.521-114.954 277.33-114.954 104.703 0 203.242 40.794 277.33 114.954 106.583 106.69 142.007 261.288 94.672 402.181l159.249-11.401c0.627 0 1.255-0.105 1.88-0.105 1.673 0 3.24 0.209 4.808 0.418 0.521 0.105 0.939 0.209 1.462 0.418 1.046 0.314 2.194 0.523 3.24 0.941 0.523 0.209 1.148 0.523 1.671 0.732 0.941 0.42 1.882 0.943 2.717 1.466 0.523 0.314 1.046 0.627 1.569 0.941 1.044 0.732 1.88 1.464 2.821 2.301 0.209 0.209 0.521 0.418 0.73 0.627 0.105 0.105 0.105 0.209 0.209 0.209 1.15 1.15 2.194 2.51 3.135 3.869 0.209 0.314 0.314 0.627 0.523 0.941 0.627 1.048 1.253 2.198 1.776 3.349 0.209 0.627 0.418 1.15 0.627 1.778s0.523 1.255 0.627 1.882l71.787 268.085c2.612 9.519 0 19.352-6.896 26.151zM911.404 520.706l-130.826 130.854 179.729 51.671-48.904-182.525zM616.415 517.778l110.869 110.98 128.007-128.135-238.875 17.155zM941.812 753.962l-175.237-50.312 44.827 180.852 130.41-130.539zM714.641 717.665l-129.468 129.599 173.043 46.337-43.574-175.936zM689.143 666.936l-107.315-107.527-16.615 231.581 123.93-124.054zM535.223 473.742c79.626-79.704 79.626-209.301 0-289.005-38.559-38.598-89.866-59.83-144.308-59.83s-105.749 21.232-144.308 59.83c-79.625 79.704-79.625 209.301 0 289.005 38.559 38.596 89.866 59.83 144.308 59.83s105.853-21.234 144.308-59.83zM631.359 89.132c-63.952-63.908-148.907-99.158-239.189-99.158-90.284 0-175.343 35.25-239.19 99.158-63.951 63.911-99.166 149.053-99.166 239.426 0 90.478 35.215 175.518 99.061 239.426 97.494 97.592 241.906 126.146 368.972 73.325l6.687-93.825c-40.858 25.94-88.193 39.851-137.724 39.851-68.863 0-133.649-26.881-182.448-75.626-100.629-100.727-100.629-264.53 0-365.259 48.694-48.742 113.483-75.623 182.448-75.623 68.967 0 133.754 26.881 182.448 75.623 85.999 86.086 98.435 218.195 37.513 317.562l94.254-6.798c52.248-126.773 23.722-270.597-73.667-368.084z" />
<glyph unicode="&#xe920;" glyph-name="cart" d="M1021.248 787.2l-93.248-371.2c0-4.448-0.896-8.64-2.496-12.448-3.264-7.68-9.376-13.824-17.024-17.056-3.84-1.632-8.064-2.496-12.48-2.496h-608l25.6-128h550.4c17.696 0 32-14.304 32-32s-14.304-32-32-32h-576c-17.696 0-32 14.304-32 32l-121.6 608h-102.4c-17.664 0-32 14.336-32 32s14.336 32 32 32h128c17.696 0 32-14.336 32-32l6.4-32h793.6c17.696 0 32-14.336 32-32 0-4.576-1.024-8.864-2.752-12.8zM275.2 448h108.8v320h-172.8l64-320zM576 768h-160v-320h160v320zM768 768h-160v-320h160v320zM800 768v-320h72.096l81.056 320h-153.152zM352 128c53.024 0 96-43.008 96-96s-42.976-96-96-96-96 43.008-96 96 42.976 96 96 96zM352 0c17.696 0 32 14.304 32 32s-14.304 32-32 32-32-14.304-32-32 14.304-32 32-32zM800 128c53.024 0 96-43.008 96-96s-42.976-96-96-96-96 43.008-96 96 42.976 96 96 96zM800 0c17.696 0 32 14.304 32 32s-14.304 32-32 32-32-14.304-32-32 14.304-32 32-32z" />
<glyph unicode="&#xe921;" glyph-name="delete-button" d="M512 960c-282.317 0-512-229.683-512-512s229.683-512 512-512c282.317 0 512 229.683 512 512s-229.688 512-512 512zM512 23.77c-233.915 0-424.228 190.317-424.228 424.23 0 233.915 190.313 424.228 424.228 424.228 233.913 0 424.23-190.313 424.23-424.228 0-233.913-190.322-424.23-424.23-424.23zM710.054 646.176c-17.143 17.143-44.941 17.143-62.054 0l-136.058-136.075-136.057 136.075c-17.143 17.143-44.912 17.143-62.055 0s-17.143-44.911 0-62.055l136.057-136.069-136.063-136.075c-17.143-17.143-17.143-44.912 0-62.055 8.569-8.569 19.799-12.859 31.030-12.859s22.473 4.284 31.030 12.859l136.057 136.069 136.058-136.069c8.568-8.569 19.799-12.859 31.030-12.859s22.456 4.284 31.030 12.859c17.143 17.143 17.143 44.912 0 62.055l-136.063 136.069 136.057 136.069c17.143 17.143 17.143 44.918 0 62.061z" />
<glyph unicode="&#xe922;" glyph-name="agreement" horiz-adv-x="751" d="M730.283 960h-709.632c-0.041 0-0.089 0-0.137 0-11.294 0-20.456-9.126-20.514-20.407v-983.183c0-11.264 9.216-20.412 20.651-20.412h539.614c5.461 0 10.718 2.15 14.575 5.973l170.052 168.004c3.723 3.671 6.032 8.767 6.042 14.402v815.208c0 11.264-9.216 20.412-20.651 20.412zM580.847 5.632l-0.068 98.475 99.703-0.068-99.635-98.441zM709.632 144.794l-149.504 0.137c-0.008 0-0.017 0-0.026 0-5.683 0-10.833-2.28-14.585-5.976l0.003 0.003c-3.743-3.674-6.066-8.784-6.076-14.437v-0.002l0.137-147.729h-498.278v942.421h668.331v-774.417zM211.593 224.085c-51.951 0-94.174-41.745-94.174-93.013 0-51.302 42.257-93.047 94.174-93.047 51.883 0 94.14 41.745 94.14 93.047 0 51.268-42.223 93.013-94.174 93.013zM211.593 78.814c-0.092-0.001-0.2-0.001-0.309-0.001-28.918 0-52.386 23.337-52.598 52.205v0.020c0 28.809 23.757 52.224 52.907 52.224 0.081 0 0.178 0.001 0.274 0.001 28.911 0 52.371-23.341 52.564-52.206v-0.018c0-28.774-23.689-52.224-52.873-52.224zM480.666 148.309h-113.562c-0.041 0-0.089 0-0.137 0-11.294 0-20.456-9.126-20.514-20.407v-0.006c0.058-11.267 9.205-20.378 20.48-20.378 0.060 0 0.12 0 0.18 0.001h113.553c0.041 0 0.089 0 0.137 0 11.282 0 20.437 9.107 20.514 20.371v0.007c-0.077 11.29-9.247 20.412-20.548 20.412-0.036 0-0.072 0-0.108 0h0.006zM204.083 837.461h-59.87c-0.041 0-0.089 0-0.137 0-11.294 0-20.456-9.126-20.514-20.407v-0.006c0.058-11.267 9.205-20.378 20.48-20.378 0.060 0 0.12 0 0.18 0.001h59.861c0.041 0 0.089 0 0.137 0 11.282 0 20.437 9.107 20.514 20.371v0.007c-0.077 11.29-9.247 20.412-20.548 20.412-0.036 0-0.072 0-0.108 0h0.006zM614.98 837.461h-179.61c-0.041 0-0.089 0-0.137 0-11.294 0-20.456-9.126-20.514-20.407v-0.006c0.058-11.267 9.205-20.378 20.48-20.378 0.060 0 0.12 0 0.18 0.001h179.601c0.041 0 0.089 0 0.137 0 11.282 0 20.437 9.107 20.514 20.371v0.007c0 11.264-9.216 20.412-20.651 20.412zM614.98 749.739h-305.562c-0.041 0-0.089 0-0.137 0-11.294 0-20.456-9.126-20.514-20.407v-0.006c0.058-11.267 9.205-20.378 20.48-20.378 0.060 0 0.12 0 0.18 0.001h305.553c0.041 0 0.089 0 0.137 0 11.282 0 20.437 9.107 20.514 20.371v0.007c-0.077 11.29-9.247 20.412-20.548 20.412-0.036 0-0.072 0-0.108 0h0.006zM616.038 588.629h-481.041c-0.041 0-0.089 0-0.137 0-11.294 0-20.456-9.126-20.514-20.407v-0.006c0.058-11.267 9.205-20.378 20.48-20.378 0.060 0 0.12 0 0.18 0.001h481.032c0.041 0 0.089 0 0.137 0 11.282 0 20.437 9.107 20.514 20.371v0.007c0 11.264-9.216 20.412-20.651 20.412zM616.038 519.339h-481.041c-0.041 0-0.089 0-0.137 0-11.294 0-20.456-9.126-20.514-20.407v-0.006c0.058-11.267 9.205-20.378 20.48-20.378 0.060 0 0.12 0 0.18 0.001h481.032c0.041 0 0.089 0 0.137 0 11.282 0 20.437 9.107 20.514 20.371v0.007c0 11.264-9.216 20.412-20.651 20.412zM616.038 443.904h-481.041c-0.041 0-0.089 0-0.137 0-11.294 0-20.456-9.126-20.514-20.407v-0.006c0.058-11.267 9.205-20.378 20.48-20.378 0.060 0 0.12 0 0.18 0.001h481.032c0.041 0 0.089 0 0.137 0 11.282 0 20.437 9.107 20.514 20.371v0.007c0 11.264-9.216 20.412-20.651 20.412zM616.038 374.613h-11.366c-0.041 0-0.089 0-0.137 0-11.294 0-20.456-9.126-20.514-20.407v-0.006c0.058-11.267 9.205-20.378 20.48-20.378 0.060 0 0.12 0 0.18 0.001h11.357c0.031 0 0.067 0 0.103 0 11.282 0 20.436 9.107 20.514 20.37v0.007c-0.039 11.282-9.193 20.412-20.48 20.412-0.048 0-0.096 0-0.144 0h0.007zM532.446 374.613h-397.449c-0.041 0-0.089 0-0.137 0-11.294 0-20.456-9.126-20.514-20.407v-0.006c0.058-11.267 9.205-20.378 20.48-20.378 0.060 0 0.12 0 0.18 0.001h397.44c0.041 0 0.089 0 0.137 0 11.282 0 20.437 9.107 20.514 20.371v0.007c-0.077 11.29-9.247 20.412-20.548 20.412-0.036 0-0.072 0-0.108 0h0.006z" />
<glyph unicode="&#xe923;" glyph-name="pizza" d="M252.399 257.776c0-8.819-7.149-15.968-15.968-15.968h-4.257c-8.819 0-15.968 7.149-15.968 15.968s7.149 15.968 15.968 15.968h4.257c8.819 0 15.968-7.149 15.968-15.968zM154.315 404.667h-4.254c-8.819 0-15.968-7.149-15.968-15.968s7.149-15.968 15.968-15.968h4.254c8.819 0 15.968 7.149 15.968 15.968s-7.147 15.968-15.968 15.968zM308.636 533.538h-4.259c-8.819 0-15.968-7.149-15.968-15.968s7.149-15.968 15.968-15.968h4.259c8.819 0 15.968 7.149 15.968 15.968 0 8.821-7.149 15.968-15.968 15.968zM406.83 742.666h-4.252c-8.819 0-15.968-7.149-15.968-15.968s7.149-15.968 15.968-15.968h4.252c8.819 0 15.968 7.149 15.968 15.968 0 8.817-7.149 15.968-15.968 15.968zM604.993 564.24c0 28.206 22.953 51.155 51.161 51.155 28.206 0 51.155-22.948 51.155-51.155 0-28.209-22.948-51.157-51.155-51.157-28.211 0.002-51.161 22.951-51.161 51.157zM636.929 564.24c0-10.598 8.623-19.221 19.225-19.221 10.598 0 19.219 8.623 19.219 19.221s-8.62 19.219-19.219 19.219c-10.603 0.002-19.225-8.62-19.225-19.219zM292.947 608.154c0-28.209-22.951-51.157-51.159-51.157s-51.159 22.948-51.159 51.157 22.951 51.157 51.159 51.157 51.159-22.948 51.159-51.157zM261.011 608.154c0 10.598-8.623 19.221-19.223 19.221s-19.223-8.623-19.223-19.221c0-10.598 8.623-19.221 19.223-19.221s19.223 8.623 19.223 19.221zM171.558 533.538h-4.257c-8.819 0-15.968-7.149-15.968-15.968s7.149-15.968 15.968-15.968h4.257c8.819 0 15.968 7.149 15.968 15.968 0 8.821-7.149 15.968-15.968 15.968zM485.794 710.731h4.257c8.819 0 15.968 7.149 15.968 15.968s-7.149 15.968-15.968 15.968h-4.257c-8.819 0-15.968-7.149-15.968-15.968 0-8.821 7.149-15.968 15.968-15.968zM826.588 274.031c2.34-1.207 4.843-1.779 7.306-1.779 5.785 0 11.367 3.155 14.205 8.65l1.95 3.782c4.042 7.838 0.969 17.469-6.871 21.513-7.838 4.044-17.467 0.965-21.511-6.871l-1.95-3.782c-4.042-7.838-0.967-17.469 6.871-21.513zM675.309 91.948c4.232-7.334 1.989-16.63-4.957-21.26-0.495-0.367-1.013-0.707-1.56-1.022-67.374-38.811-144.307-59.323-222.482-59.323-80.616 0-156.315 21.491-221.661 59.034-0.506 0.226-1.004 0.479-1.494 0.762-0.506 0.292-0.992 0.609-1.453 0.947-132.507 77.484-221.702 221.303-221.702 385.565 0 164.267 89.193 308.084 221.7 385.57 0.463 0.338 0.949 0.655 1.458 0.949 0.493 0.283 0.992 0.538 1.496 0.762 65.346 37.543 141.043 59.031 221.659 59.031s156.313-21.486 221.656-59.029c0.509-0.226 1.006-0.479 1.496-0.764 0.509-0.292 0.992-0.609 1.455-0.947 132.509-77.486 221.704-221.305 221.704-385.568v0-0.002c0-8.819-7.149-15.968-15.968-15.968h-362.704c-0.112 0-0.224 0-0.333 0.002h-39.71l18.959-32.978c0.395-0.522 0.76-1.074 1.095-1.656l181.346-314.104zM638.873 89.646l-206.405 359.049c-2.84 4.941-2.833 11.022 0.023 15.957 2.854 4.934 8.123 7.97 13.821 7.97h348.695c-4.364 95.555-47.749 185.293-120.54 248.216-6.672 5.767-7.405 15.852-1.638 22.524 5.769 6.675 15.847 7.409 22.524 1.638 79.817-68.998 127.235-167.529 131.62-272.375h33.41c-5.356 140.751-81.254 263.732-193.267 334.548l-173.155-299.92c-4.409-7.637-14.175-10.256-21.815-5.844-7.637 4.409-10.254 14.175-5.847 21.812l140.559 243.464c-49.353 25.576-104.536 39.033-160.554 39.033-41.53 0-82.167-7.22-120.777-21.459-8.283-3.052-17.455 1.184-20.505 9.458-3.052 8.274 1.184 17.455 9.458 20.507 42.16 15.546 86.515 23.43 131.827 23.43 61.62 0 122.324-14.923 176.538-43.285l16.639 28.82c-57.713 30.54-123.46 47.845-193.176 47.845s-135.466-17.305-193.178-47.847l173.182-299.968c4.409-7.637 1.791-17.403-5.847-21.812-7.642-4.412-17.405-1.793-21.815 5.844l-140.543 243.441c-84.149-53.86-140.874-140.133-156.534-238.95-1.38-8.709-9.567-14.661-18.272-13.272-8.709 1.38-14.652 9.56-13.272 18.27 17.175 108.372 79.573 202.914 172.094 261.636l-16.623 28.793c-112.011-70.816-187.907-193.799-193.261-334.55h346.432c8.819 0 15.968-7.149 15.968-15.968s-7.149-15.968-15.968-15.968h-281.057c4.412-96.983 48.86-187.64 123.48-250.723 6.734-5.694 7.578-15.77 1.884-22.503-5.691-6.734-15.767-7.583-22.503-1.887-81.815 69.167-130.399 168.704-134.827 275.113h-33.41c5.356-140.751 81.25-263.73 193.263-334.545l173.155 299.92c4.414 7.637 14.177 10.254 21.815 5.844s10.254-14.175 5.847-21.812l-140.559-243.462c49.353-25.581 104.54-39.037 160.556-39.037 41.569 0 82.233 7.229 120.862 21.488 8.276 3.052 17.455-1.179 20.51-9.451 3.052-8.271-1.179-17.455-9.453-20.51-42.181-15.571-86.565-23.466-131.921-23.466-61.618 0-122.326 14.926-176.54 43.292l-16.639-28.822c57.713-30.54 123.462-47.847 193.178-47.847 67.23 0.002 133.465 16.34 192.56 47.372zM788.392 200.095c2.343-1.211 4.847-1.784 7.313-1.784 5.783 0 11.362 3.15 14.202 8.643l1.953 3.782c4.044 7.836 0.976 17.469-6.862 21.516-7.84 4.051-17.464 0.974-21.516-6.859l-1.953-3.782c-4.044-7.836-0.974-17.469 6.862-21.516zM729.936 277.113c2.343-1.211 4.847-1.784 7.316-1.784 5.783 0 11.362 3.15 14.2 8.643l1.953 3.782c4.047 7.836 0.979 17.467-6.857 21.516-7.829 4.047-17.467 0.976-21.516-6.857l-1.953-3.782c-4.047-7.838-0.976-17.471 6.857-21.518zM1024 382.141c0-79.879-21.356-158.256-61.762-226.666-39.217-66.395-95.263-121.836-162.071-160.323-2.445-1.41-7.304-2.961-12.124-1.581-4.074 1.166-7.576 3.787-9.688 7.459l-214.503 373.151c-2.84 4.943-2.833 11.022 0.023 15.957 2.854 4.934 8.123 7.97 13.821 7.97h430.337c8.819 0 15.966-7.149 15.966-15.968zM991.756 366.173h-386.464l160.049-278.422c81.955 52.275 138.374 135.824 155.768 231.55 1.576 8.675 9.861 14.437 18.568 12.857 8.677-1.576 14.431-9.889 12.854-18.566-19.077-104.992-81.147-196.561-171.257-253.553l16.648-28.964c115.64 72.732 188.53 198.744 193.833 335.1zM503.868 185.281h4.257c8.819 0 15.968 7.149 15.968 15.968s-7.149 15.968-15.968 15.968h-4.257c-8.819 0-15.968-7.149-15.968-15.968s7.149-15.968 15.968-15.968zM454.823 194.025c0-28.209-22.951-51.157-51.159-51.157-28.204 0-51.152 22.948-51.152 51.157s22.948 51.157 51.152 51.157c28.209 0.002 51.159-22.948 51.159-51.157zM422.887 194.025c0 10.598-8.623 19.221-19.223 19.221-10.596 0-19.216-8.623-19.216-19.221s8.62-19.221 19.216-19.221c10.6 0.002 19.223 8.623 19.223 19.221zM425.517 322.619c0-8.819 7.149-15.968 15.968-15.968h4.254c8.819 0 15.968 7.149 15.968 15.968s-7.149 15.968-15.968 15.968h-4.254c-8.819 0-15.968-7.149-15.968-15.968zM444.186 623.452h4.259c8.819 0 15.968 7.149 15.968 15.968s-7.149 15.968-15.968 15.968h-4.259c-8.819 0-15.968-7.149-15.968-15.968s7.147-15.968 15.968-15.968zM317.243 362.021c0-28.209-22.951-51.157-51.159-51.157-28.206 0-51.155 22.948-51.155 51.157s22.948 51.157 51.155 51.157c28.211 0 51.159-22.948 51.159-51.157zM285.307 362.021c0 10.598-8.623 19.221-19.223 19.221-10.598 0-19.219-8.623-19.219-19.221s8.62-19.221 19.219-19.221c10.6 0.002 19.223 8.623 19.223 19.221z" />
<glyph unicode="&#xe924;" glyph-name="preview" horiz-adv-x="935" d="M562.963 549.955h-424.945v-63.919h424.945v63.919zM889.883-64l45.074 45.198-151.597 152.019c26.62 35.978 42.385 80.486 42.385 128.628 0 86.639-51.062 161.534-124.585 196.043v270.325l-231.139 231.786h-470.020v-948.135h701.16v53.934c13.147 6.171 25.582 13.624 37.131 22.216l151.592-152.015zM488.688 850.883l103.66-103.948h-103.66v103.948zM63.742 896.081h361.204v-213.064h212.472v-206.58c-8.976 1.144-18.12 1.736-27.399 1.736-66.288 0-125.676-30.141-165.28-77.468h-306.632v-63.92h269.534c-8.631-23.361-13.354-48.604-13.354-74.939 0-3.45 0.089-6.874 0.249-10.285h-256.429v-63.92h269.256c17.2-47.091 50.289-86.555 92.714-111.856h-436.335v820.296zM610.019 109.43c-83.808 0-151.988 68.372-151.988 152.411s68.181 152.411 151.988 152.411c83.808 0 151.988-68.372 151.988-152.411s-68.185-152.411-151.988-152.411z" />
<glyph unicode="&#xe925;" glyph-name="snowflake" d="M993.982 478.011h-69.154l44.578 42.794c11.961 11.482 12.351 30.486 0.868 42.448-11.479 11.962-30.486 12.348-42.447 0.866l-89.702-86.109h-42.881v19.156c0 16.581-13.444 30.022-30.023 30.022s-30.023-13.442-30.023-30.022v-19.156h-99.894c-3.111 12.836-8.138 24.929-14.814 35.926l172.198 172.199 91.575 13.788c16.399 2.47 27.687 17.762 25.22 34.156s-17.764 27.682-34.158 25.218l-62.81-9.456 9.24 61.378c2.467 16.396-8.826 31.69-25.22 34.156-16.394 2.464-31.69-8.822-34.158-25.218l-14.078-93.502-170.111-170.109c-11.22 6.93-23.596 12.15-36.752 15.342v99.305h19.154c16.579 0 30.023 13.442 30.023 30.022s-13.444 30.022-30.023 30.022h-19.154v41.588l86.255 91.142c11.396 12.042 10.874 31.044-1.17 42.44-12.039 11.396-31.042 10.874-42.437-1.168l-42.647-45.060v69.796c0 16.58-13.444 30.022-30.023 30.022-16.584 0-30.024-13.442-30.024-30.022v-69.154l-42.8 44.576c-11.482 11.962-30.486 12.348-42.446 0.866-11.962-11.482-12.348-30.486-0.866-42.446l86.109-89.703v-42.878h-19.156c-16.58 0-30.022-13.442-30.022-30.022s13.442-30.022 30.022-30.022h19.156v-99.305c-11.046-2.678-21.54-6.778-31.26-12.128l-169.419 169.419-14.078 93.504c-2.468 16.396-17.762 27.682-34.156 25.218-16.396-2.47-27.686-17.762-25.218-34.156l9.242-61.378-62.813 9.456c-16.394 2.464-31.69-8.822-34.156-25.218-2.468-16.396 8.822-31.69 25.218-34.156l91.572-13.788 169.411-169.411c-8.37-12.376-14.594-26.302-18.214-41.236h-98.709v19.156c0 16.58-13.442 30.022-30.022 30.022s-30.022-13.442-30.022-30.022v-19.156h-41.59l-91.147 86.254c-12.040 11.396-31.042 10.874-42.44-1.168-11.396-12.042-10.874-31.044 1.168-42.44l45.060-42.648h-69.792c-16.58-0.002-30.022-13.444-30.022-30.023s13.442-30.023 30.022-30.023h69.154l-44.576-42.793c-11.962-11.483-12.348-30.486-0.866-42.447 5.894-6.139 13.772-9.231 21.662-9.231 7.478 0 14.966 2.779 20.788 8.368l89.703 86.109h42.878v-19.159c0-16.579 13.442-30.023 30.022-30.023s30.022 13.444 30.022 30.023v19.159h98.713c3.19-13.161 8.412-25.532 15.34-36.752l-169.439-169.438-93.502-14.078c-16.396-2.467-27.686-17.764-25.218-34.158 2.242-14.882 15.044-25.556 29.65-25.556 1.486 0 2.994 0.112 4.508 0.341l61.379 9.24-9.456-62.815c-2.468-16.394 8.822-31.69 25.218-34.153 1.516-0.229 3.020-0.341 4.508-0.341 14.604 0 27.41 10.674 29.65 25.556l13.788 91.575 171.527 171.525c10.998-6.671 23.088-11.703 35.922-14.809v-99.304h-19.156c-16.581 0-30.022-13.444-30.022-30.023s13.442-30.023 30.022-30.023h19.156v-41.594l-86.257-91.141c-11.396-12.044-10.874-31.047 1.168-42.442 5.804-5.491 13.224-8.216 20.632-8.216 7.96 0 15.906 3.15 21.81 9.387l42.649 45.061v-69.793c0-16.579 13.442-30.023 30.021-30.023s30.023 13.444 30.023 30.023v69.154l42.793-44.578c11.483-11.961 30.486-12.347 42.447-0.868 11.961 11.483 12.347 30.486 0.868 42.452l-86.109 89.702v42.876h19.154c16.579 0 30.023 13.444 30.023 30.023s-13.444 30.023-30.023 30.023h-19.154v99.304c14.931 3.618 28.857 9.845 41.228 18.213l172.407-172.403 13.79-91.575c2.238-14.882 15.043-25.556 29.647-25.556 1.487 0 2.994 0.112 4.51 0.341 16.394 2.467 27.687 17.759 25.215 34.153l-9.455 62.815 61.381-9.245c1.516-0.224 3.018-0.336 4.506-0.336 14.604 0 27.409 10.674 29.652 25.556 2.467 16.399-8.826 31.69-25.22 34.158l-93.506 14.078-172.412 172.412c5.349 9.718 9.445 20.207 12.127 31.252h99.899v-19.154c0-16.584 13.439-30.023 30.018-30.023 16.584 0 30.023 13.439 30.023 30.023v19.154h41.594l91.141-86.255c5.808-5.495 13.224-8.216 20.636-8.216 7.958 0 15.906 3.145 21.806 9.382 11.396 12.044 10.874 31.047-1.165 42.442l-45.061 42.647h69.793c16.579 0 30.023 13.444 30.023 30.023-0.015 16.574-13.453 30.016-30.037 30.016zM511.41 380.543c-35.601 0-64.829 27.726-67.269 62.718 0.244 1.546 0.408 3.116 0.408 4.73s-0.164 3.189-0.408 4.735c2.438 34.994 31.666 62.724 67.269 62.724 37.196 0 67.452-30.26 67.452-67.454 0-37.191-30.257-67.452-67.452-67.452z" />
<glyph unicode="&#xe926;" glyph-name="settings2" d="M971.591 555.491l-71.875 12.193c-7.485 24.172-17.111 47.489-28.877 69.735l42.355 59.254c17.969 25.242 15.189 59.682-6.846 81.501l-63.746 63.746c-11.976 11.979-27.809 18.61-44.705 18.61-13.263 0-25.883-4.064-36.581-11.765l-59.465-42.355c-23.103 12.193-47.275 22.247-72.304 29.734l-11.981 71.019c-5.135 30.59-31.442 52.836-62.459 52.836h-90.059c-31.017 0-57.329-22.247-62.463-52.836l-12.407-72.73c-23.958-7.487-47.275-17.327-69.522-29.306l-58.826 42.355c-10.695 7.701-23.53 11.765-36.793 11.765-16.899 0-32.943-6.631-44.708-18.61l-63.96-63.746c-21.819-21.819-24.813-56.259-6.845-81.501l42.783-60.109c-11.765-22.461-21.177-45.778-28.451-69.95l-71.019-11.979c-30.59-5.134-52.836-31.445-52.836-62.463v-90.057c0-31.017 22.247-57.329 52.836-62.464l72.73-12.405c7.487-23.957 17.327-47.275 29.306-69.525l-42.141-58.612c-17.969-25.239-15.188-59.68 6.845-81.501l63.746-63.742c11.979-11.981 27.808-18.612 44.707-18.612 13.263 0 25.884 4.062 36.579 11.766l60.11 42.779c21.605-11.337 44.28-20.534 67.596-27.804l11.979-71.875c5.134-30.593 31.445-52.838 62.462-52.838h90.27c31.017 0 57.329 22.245 62.464 52.838l12.195 71.875c24.171 7.485 47.484 17.111 69.734 28.877l59.251-42.355c10.698-7.7 23.532-11.766 36.796-11.766 16.901 0 32.729 6.632 44.71 18.612l63.742 63.742c21.821 21.821 24.815 56.261 6.846 81.506l-42.355 59.465c11.766 22.46 21.606 45.778 28.877 69.734l71.875 11.981c30.593 5.135 52.838 31.447 52.838 62.464v90.055c0.429 31.017-21.821 57.328-52.409 62.463zM966.671 402.973c0-2.784-1.926-5.135-4.706-5.564l-89.844-14.975c-11.337-1.926-20.319-10.264-23.103-21.177-8.129-31.447-20.534-61.606-37.22-89.629-5.773-9.84-5.349-22.031 1.282-31.447l52.838-74.44c1.497-2.141 1.282-5.349-0.644-7.27l-63.746-63.746c-1.497-1.497-2.994-1.712-4.062-1.712-1.282 0-2.355 0.424-3.209 1.068l-74.23 52.838c-9.196 6.632-21.602 7.056-31.442 1.282-28.023-16.686-58.188-29.091-89.629-37.22-11.127-2.784-19.466-11.981-21.177-23.103l-15.189-89.844c-0.429-2.779-2.779-4.706-5.564-4.706h-90.055c-2.781 0-5.134 1.926-5.562 4.706l-14.974 89.844c-1.925 11.337-10.268 20.319-21.177 23.103-30.589 7.914-60.109 20.105-87.704 35.938-4.492 2.565-9.626 3.847-14.546 3.847-5.776 0-11.765-1.712-16.685-5.344l-74.87-53.268c-1.069-0.639-2.139-1.068-3.209-1.068-0.856 0-2.567 0.215-4.064 1.712l-63.746 63.746c-1.925 1.926-2.139 4.92-0.642 7.27l52.622 73.801c6.632 9.411 7.059 21.821 1.283 31.661-16.685 27.809-29.52 57.968-37.649 89.415-2.994 10.908-11.979 19.251-23.102 21.177l-90.485 15.399c-2.781 0.429-4.706 2.784-4.706 5.564v90.057c0 2.781 1.925 5.134 4.706 5.562l89.202 14.974c11.337 1.925 20.536 10.268 23.316 21.391 7.915 31.445 20.108 61.821 36.579 89.843 5.775 9.84 5.134 22.033-1.497 31.231l-53.265 74.87c-1.497 2.139-1.283 5.348 0.642 7.273l63.746 63.746c1.497 1.497 2.994 1.711 4.064 1.711 1.283 0 2.353-0.428 3.209-1.069l73.8-52.623c9.413-6.631 21.819-7.059 31.659-1.283 27.809 16.685 57.971 29.52 89.416 37.649 10.91 2.995 19.252 11.979 21.177 23.103l15.401 90.485c0.428 2.781 2.781 4.706 5.562 4.706h90.056c2.784 0 5.135-1.925 5.564-4.706l14.975-89.202c1.926-11.338 10.264-20.536 21.392-23.316 32.3-8.129 63.103-20.75 91.765-37.649 9.84-5.776 22.036-5.348 31.447 1.283l73.801 53.050c1.068 0.642 2.136 1.070 3.209 1.070 0.853 0 2.565-0.214 4.062-1.712l63.746-63.746c1.926-1.925 2.141-4.92 0.644-7.273l-52.838-74.228c-6.632-9.198-7.056-21.605-1.282-31.445 16.686-28.022 29.091-58.184 37.22-89.629 2.779-11.124 11.981-19.466 23.103-21.177l89.844-15.188c2.779-0.428 4.706-2.781 4.706-5.562v-90.055h-0.215zM512.080 668.891c-121.93 0-220.972-99.042-220.972-220.972s99.042-220.972 220.972-220.972c121.93 0 220.972 99.042 220.972 220.972s-99.042 220.972-220.972 220.972zM512.080 284.704c-90.057 0-163.215 73.158-163.215 163.215s73.158 163.215 163.215 163.215c90.057 0 163.215-73.158 163.215-163.215s-73.158-163.215-163.215-163.215z" />
<glyph unicode="&#xe927;" glyph-name="padlock" horiz-adv-x="780" d="M712.519 513.75h-15.092v133.409c0 172.434-140.503 312.842-313.533 312.842-172.816 0-313.535-140.195-313.535-312.842 0-15.907 12.754-28.633 28.696-28.633s28.696 12.726 28.696 28.633c0 140.832 114.786 255.576 256.142 255.576 141.145 0 256.14-114.532 256.14-255.576v-133.409h-584.554c-30.61 0-55.48-24.815-55.48-55.358v-356.532c0-91.414 74.611-165.859 166.226-165.859h435.549c91.614 0 166.224 74.445 166.224 165.859v356.532c0 30.543-24.869 55.358-55.481 55.358zM710.607 101.859c0-59.811-48.679-108.593-108.832-108.593h-435.337c-59.943 0-108.834 48.572-108.834 108.593v354.626h653.002v-354.626zM384.314 113.341c59.306 0 107.345 48.146 107.345 107.108 0 59.175-48.252 107.108-107.345 107.108-59.306 0-107.346-48.146-107.346-107.108s48.040-107.108 107.346-107.108zM384.314 270.504c27.633 0 49.953-22.482 49.953-49.842s-22.319-50.055-49.953-50.055c-27.634 0-49.953 22.482-49.953 49.842s22.319 50.055 49.953 50.055z" />
<glyph unicode="&#xe928;" glyph-name="clock" d="M983.128 647.42c-53.988 125.936-145.729 217.525-272.649 271.685-63.432 27.069-129.89 40.895-199.322 40.895-69.417 0-135.384-13.696-198.749-40.895-125.867-54.015-218.015-145.547-272.098-271.685-27.101-63.195-40.311-129.401-40.311-198.857 0-69.469 13.21-136.225 40.311-199.433 54.083-126.138 146.243-218.219 272.098-272.249 63.376-27.197 129.33-40.881 198.749-40.881 69.423 0 135.889 13.829 199.312 40.881 126.92 54.16 218.661 146.325 272.659 272.249 27.183 63.409 40.872 129.964 40.872 199.433 0 69.455-13.675 135.447-40.872 198.857zM901.395 222.241c-40.192-68.966-95.255-123.681-164.603-164.129-68.925-40.215-144.449-60.495-225.62-60.495-61.023 0-119.25 11.757-174.684 35.849-55.431 24.083-103.292 55.738-143.328 95.786-40.036 40.057-71.902 88.413-95.731 143.97-23.758 55.357-35.271 114.274-35.271 175.337 0 81.231 19.946 156.412 59.912 225.187 40.108 69.026 95.182 123.796 164.039 164.131 68.845 40.333 143.879 60.506 225.048 60.506 81.185 0 156.695-20.292 225.624-60.506 69.348-40.454 124.29-95.223 164.599-164.13 40.313-68.895 60.463-143.958 60.463-225.184 0-81.231-20.019-156.923-60.449-226.323zM543.618 453.206v290.174c0 17.364-15.121 31.37-32.477 31.37-16.232 0-30.792-14.006-30.792-31.37v-294.654c0-0.563 1.123-2.809 1.123-4.483-1.123-10.085 1.685-18.487 8.398-25.216l167.409-167.491c11.202-11.208 31.913-11.208 43.107 0 12.874 12.884 12.027 31.576 0 43.692l-156.767 157.977z" />
<glyph unicode="&#xe929;" glyph-name="waiting-1" horiz-adv-x="791" d="M756.136 4.901h-62.189l-0.005 108.805c0 109.089-61.044 209.375-171.883 282.382-14.024 9.249-22.737 29.133-22.737 51.907s8.713 42.659 22.728 51.9c110.848 73.018 171.892 173.301 171.897 282.39v108.81h62.189c19.405 0 35.137 15.429 35.137 34.454s-15.737 34.451-35.137 34.451h-720.997c-19.405 0-35.139-15.429-35.139-34.451 0-19.029 15.737-34.454 35.139-34.454h62.186v-108.806c0-109.096 61.040-209.38 171.879-282.387 14.028-9.243 22.742-29.127 22.742-51.902 0-22.779-8.714-42.664-22.739-51.903-110.843-73.011-171.883-173.298-171.883-282.387v-108.805h-62.186c-19.405 0-35.139-15.43-35.139-34.453 0-19.032 15.737-34.453 35.139-34.453h720.997c19.405 0 35.137 15.425 35.137 34.453 0 19.023-15.737 34.448-35.137 34.448zM167.603 113.711c0 115.242 88.217 190.557 140.802 225.192 33.7 22.207 53.82 62.99 53.82 109.098s-20.119 86.884-53.823 109.094c-52.581 34.637-140.798 109.951-140.798 225.195v108.806h456.069l-0.009-108.806c0-115.24-88.218-190.558-140.814-225.202-33.691-22.207-53.807-62.989-53.807-109.087 0-46.103 20.116-86.882 53.816-109.098 52.587-34.639 140.805-109.959 140.814-225.192v-108.805h-11.65c-28.886 106.463-176.319 222.18-194.743 236.302-12.716 9.751-30.574 9.742-43.287 0-18.424-14.117-165.858-129.839-194.748-236.302h-11.644v108.805h0.004zM538.177 4.901h-285.087c23.154 53.066 89.264 120.236 142.546 164.669 53.285-44.432 119.394-111.602 142.541-164.669zM483.437 133.616l106.759-135.711h-383.077l87.919 135.711 100.479 74.024 87.919-74.024zM395.401 301.368c9.242 0 18.308 3.685 24.842 10.095 6.569 6.406 10.297 15.298 10.297 24.355s-3.728 17.949-10.297 24.359c-6.534 6.403-15.6 10.092-24.842 10.092s-18.308-3.686-24.842-10.092c-6.538-6.409-10.297-15.301-10.297-24.359s3.756-17.949 10.297-24.355c6.534-6.406 15.6-10.095 24.842-10.095zM395.866 484.36c19.409 0 35.139 15.425 35.139 34.451v60.902c0 19.025-15.734 34.454-35.139 34.454s-35.139-15.429-35.139-34.454v-60.902c0-19.025 15.73-34.451 35.139-34.451z" />
<glyph unicode="&#xe92a;" glyph-name="waiting-2" horiz-adv-x="791" d="M35.137 891.099h62.189l0.005-108.805c0-109.089 61.044-209.375 171.883-282.382 14.024-9.249 22.737-29.133 22.737-51.907s-8.713-42.659-22.728-51.9c-110.848-73.018-171.892-173.301-171.897-282.39v-108.81h-62.189c-19.405 0-35.137-15.429-35.137-34.454s15.737-34.451 35.137-34.451h720.997c19.405 0 35.139 15.429 35.139 34.451 0 19.029-15.737 34.454-35.139 34.454h-62.186v108.806c0 109.096-61.040 209.38-171.879 282.387-14.028 9.243-22.742 29.127-22.742 51.902 0 22.779 8.714 42.664 22.739 51.903 110.843 73.011 171.883 173.298 171.883 282.387v108.805h62.186c19.405 0 35.139 15.43 35.139 34.453 0 19.032-15.737 34.453-35.139 34.453h-720.997c-19.405 0-35.137-15.425-35.137-34.453 0-19.023 15.737-34.448 35.137-34.448zM623.67 782.289c0-115.242-88.217-190.557-140.802-225.192-33.7-22.207-53.82-62.99-53.82-109.098s20.119-86.884 53.823-109.094c52.581-34.637 140.798-109.951 140.798-225.195v-108.806h-456.069l0.009 108.806c0 115.24 88.218 190.558 140.814 225.202 33.691 22.207 53.807 62.989 53.807 109.087 0 46.103-20.116 86.882-53.816 109.098-52.587 34.639-140.805 109.959-140.814 225.192v108.805h11.65c28.886-106.463 176.319-222.18 194.743-236.302 12.716-9.751 30.574-9.742 43.287 0 18.424 14.117 165.858 129.839 194.748 236.302h11.644v-108.805h-0.004zM253.096 891.099h285.087c-23.154-53.066-89.264-120.236-142.546-164.668-53.285 44.432-119.394 111.602-142.541 164.669zM307.835 762.384l-106.759 135.711h383.077l-87.919-135.711-100.479-74.024-87.919 74.024zM395.872 594.632c-9.242 0-18.308-3.685-24.842-10.095-6.569-6.406-10.297-15.298-10.297-24.355s3.728-17.949 10.297-24.359c6.534-6.403 15.6-10.092 24.842-10.092s18.308 3.686 24.842 10.092c6.538 6.409 10.297 15.301 10.297 24.359s-3.756 17.949-10.297 24.355c-6.534 6.406-15.6 10.095-24.842 10.095zM395.872 411.64c-19.409 0-35.139-15.425-35.139-34.451v-60.902c0-19.025 15.734-34.454 35.139-34.454s35.139 15.429 35.139 34.454v60.902c0 19.025-15.73 34.451-35.139 34.451z" />
<glyph unicode="&#xe92b;" glyph-name="soft-cap" horiz-adv-x="1195" d="M716.265 570.613c-21.322 7.84-45.056-3.068-52.964-24.2-17.539-47.378-133.089-98.506-289.219-98.506-152.004 0-265.834 48.401-287.844 95.097-9.629 20.451-34.39 29.313-55.024 19.769s-29.575-34.085-19.946-54.536c40.236-85.213 186.049-142.134 362.813-142.134 84.255 0 166.103 13.633 231.101 38.857 71.532 27.609 118.642 66.806 135.839 113.503 7.566 20.792-3.442 44.31-24.758 52.15zM716.265 361.831c-21.322 7.84-45.056-3.068-52.964-24.2-17.539-47.378-133.089-98.506-289.219-98.506-152.004 0-265.834 48.401-287.844 95.097-9.629 20.451-34.39 29.313-55.024 19.769s-29.575-34.085-19.946-54.536c40.236-85.213 186.049-142.135 362.813-142.135 84.255 0 166.103 13.634 231.101 38.857 71.532 27.609 118.642 66.807 135.839 113.503 7.566 21.133-3.442 44.651-24.758 52.15zM716.265 153.617c-21.322 7.84-45.056-3.068-52.964-24.2-17.539-47.378-133.089-98.506-289.219-98.506-152.004 0-265.834 48.401-287.844 95.097-9.629 20.451-34.39 29.313-55.024 19.769s-29.575-34.085-19.946-54.536c40.236-85.213 186.049-142.135 362.813-142.135 84.255 0 166.103 13.635 231.101 38.857 71.532 27.609 118.642 66.806 135.839 113.503 7.566 20.792-3.442 44.31-24.758 52.15zM373.818 956.587c-213.217 0-373.818-82.145-373.818-191.217s160.601-191.217 373.818-191.217c213.218 0 373.816 82.145 373.816 191.217s-160.597 191.217-373.816 191.217zM373.818 655.957c-177.795 0-291.282 64.761-291.282 109.413s113.487 109.413 291.282 109.413c177.796 0 291.281-64.761 291.281-109.413s-113.485-109.413-291.281-109.413zM1037.216 4.733l146.54 122.345c14.548 12.874 14.548 33.746 0 46.62-14.551 12.874-38.138 12.874-52.689 0l-82.939-66.076v819.415c0 18.204-16.682 32.963-37.255 32.963-20.571 0-37.256-14.76-37.256-32.963v-819.415l-82.939 66.071c-14.55 12.874-38.138 12.874-52.688 0-7.27-6.434-10.912-14.871-10.912-23.307s3.642-16.873 10.912-23.313l146.539-122.34c14.551-12.874 38.138-12.874 52.689 0z" />
<glyph unicode="&#xe92c;" glyph-name="hard-cap" horiz-adv-x="1195" d="M716.265 557.528c-21.322 7.84-45.056-3.068-52.964-24.2-17.539-47.378-133.089-98.506-289.219-98.506-152.004 0-265.834 48.401-287.844 95.097-9.629 20.451-34.39 29.313-55.024 19.769s-29.575-34.085-19.946-54.536c40.236-85.213 186.049-142.134 362.813-142.134 84.255 0 166.103 13.633 231.101 38.857 71.532 27.609 118.642 66.806 135.839 113.503 7.566 20.792-3.442 44.31-24.758 52.15zM716.265 348.746c-21.322 7.84-45.056-3.068-52.964-24.2-17.539-47.378-133.089-98.506-289.219-98.506-152.004 0-265.834 48.401-287.844 95.097-9.629 20.451-34.39 29.313-55.024 19.769s-29.575-34.085-19.946-54.536c40.236-85.213 186.049-142.135 362.813-142.135 84.255 0 166.103 13.634 231.101 38.857 71.532 27.609 118.642 66.807 135.839 113.503 7.566 21.133-3.442 44.651-24.758 52.15zM716.265 140.533c-21.322 7.84-45.056-3.068-52.964-24.2-17.539-47.378-133.089-98.506-289.219-98.506-152.004 0-265.834 48.401-287.844 95.097-9.629 20.451-34.39 29.313-55.024 19.769s-29.575-34.085-19.946-54.536c40.236-85.213 186.049-142.135 362.813-142.135 84.255 0 166.103 13.635 231.101 38.857 71.532 27.609 118.642 66.806 135.839 113.503 7.566 20.792-3.442 44.31-24.758 52.15zM373.818 943.502c-213.217 0-373.818-82.145-373.818-191.217s160.601-191.217 373.818-191.217c213.218 0 373.816 82.145 373.816 191.217s-160.597 191.217-373.816 191.217zM373.818 642.873c-177.795 0-291.282 64.761-291.282 109.413s113.487 109.413 291.282 109.413c177.796 0 291.281-64.761 291.281-109.413s-113.485-109.413-291.281-109.413zM984.615 937.347l-146.54-122.345c-14.548-12.874-14.548-33.746 0-46.62 14.551-12.874 38.138-12.874 52.689 0l82.939 66.076v-819.415c0-18.204 16.682-32.963 37.255-32.963 20.571 0 37.256 14.76 37.256 32.963v819.415l82.939-66.071c14.55-12.874 38.138-12.874 52.688 0 7.27 6.434 10.912 14.871 10.912 23.307s-3.642 16.873-10.912 23.313l-146.539 122.34c-14.551 12.874-38.138 12.874-52.689 0z" />
<glyph unicode="&#xe92d;" glyph-name="bitcoin-exchange-rate-symbol" d="M305.6 172.646c-4.728 2.779-11.655 5.252-20.672 7.563 8.412 2.857 15.202 6.373 20.287 10.801 5.168 4.452 9.016 9.538 11.71 15.175 2.804 5.691 4.151 11.708 4.151 18.061 0 8.684-2.584 16.681-7.697 24.049-5.168 7.397-12.507 12.976-22.128 16.798-3.683 1.512-8.081 2.692-12.919 3.599v33.919h-32.546v-31.607h-21.001v31.607h-32.574v-31.607h-49.699v-26.639h7.504c5.113 0 8.549-0.439 10.308-1.399 1.759-0.912 3.051-2.146 3.82-3.769 0.742-1.512 1.1-5.169 1.1-10.884v-107.262c0-5.578-0.357-9.182-1.1-10.801-0.742-1.624-2.034-2.862-3.82-3.769-1.759-0.848-5.196-1.292-10.308-1.292h-7.504v-26.58h49.726v-31.666h32.574v31.666h18.555c0.797 0 1.649 0 2.419 0v-31.666h32.573v34.363c5.498 1.014 10.308 2.419 14.349 4.013 11.243 4.423 19.984 10.967 26.087 19.651 6.24 8.577 9.236 17.954 9.236 28.15 0 8.577-1.979 16.355-6.075 23.284-3.958 7.007-9.429 12.425-16.356 16.243zM212.992 240.104h21.084c12.315 0 20.946-0.795 25.729-2.306 4.755-1.595 8.439-4.072 10.885-7.617 2.584-3.657 3.821-7.997 3.821-13.058 0-4.862-1.347-9.123-4.013-12.917-2.721-3.711-6.652-6.461-11.957-8.329-5.278-1.868-13.442-2.804-24.547-2.804h-21.056l0.055 47.031zM272.559 121.051c-3.821-4.725-8.329-7.89-13.717-9.455-5.333-1.512-12.095-2.253-20.259-2.253h-14.047c-4.673 0-7.532 0.273-8.604 0.741s-1.759 1.399-2.254 2.638c-0.357 1.073-0.577 4.51-0.632 10.474v41.643h24.85c10.968 0 19.022-1.014 24.41-2.994 5.278-2.009 9.346-5.003 11.957-9.016 2.694-3.93 4.041-8.66 4.041-14.404-0.055-6.846-1.979-12.507-5.745-17.374zM901.686 423.785c-8.026 12.888-24.956 16.847-37.878 8.714l-130.843-81.837c-12.893-8.051-16.769-25.015-8.714-37.903 8.026-12.893 24.956-16.798 37.878-8.689l74.713 46.704c-39.609-136.397-158.774-237.007-302.953-250.256-21.577-1.95-42.988-1.292-64.348 0.634 2.226 6.705 4.151 13.522 5.828 20.558 14.708 62.596 4.178 127.191-29.66 181.892-33.838 54.706-87.001 92.94-149.537 107.647-18.253 4.286-36.917 6.485-55.472 6.485-112.126 0-208.445-76.332-234.229-185.71-14.706-62.591-4.151-127.191 29.688-181.892 33.811-54.701 86.973-92.94 149.537-107.647 18.197-4.286 36.862-6.485 55.444-6.485 84.774 0 160.422 43.705 203.469 112.206 18.912-2.692 38.017-4.12 57.205-4.12 12.312 0 24.654 0.575 37.025 1.702 167.902 15.423 306.469 133.1 351.578 292.396l46.568-74.464c5.164-8.329 14.18-12.893 23.337-12.893 4.974 0 10.006 1.346 14.541 4.15 12.893 8.055 16.74 25.015 8.684 37.854l-81.861 130.955zM241.112-8.884c-14.321 0-28.725 1.702-42.854 5.086-48.297 11.376-89.283 40.819-115.424 83.042-26.087 42.194-34.251 92.111-22.871 140.356 19.929 84.334 94.176 143.297 180.682 143.297 14.321 0 28.725-1.707 42.882-5.057 48.27-11.327 89.283-40.794 115.397-83.046 26.114-42.194 34.25-92.111 22.87-140.327-19.929-84.387-94.203-143.35-180.682-143.35zM811.169 953.623c-18.169 4.233-36.752 6.377-55.281 6.377-84.197 0-159.515-42.992-202.698-110.696-28.974 3.766-58.412 4.838-88.046 2.171-167.13-15.366-305.205-132.082-350.945-290.305l-44.009 74.961c-7.642 13.139-24.52 17.537-37.604 9.786-13.084-7.669-17.455-24.519-9.758-37.576l78.067-133.127c5.113-8.684 14.294-13.55 23.722-13.55 4.728 0 9.511 1.209 13.882 3.794l133.154 78.12c13.14 7.642 17.483 24.52 9.786 37.577-7.697 13.112-24.547 17.565-37.632 9.758l-76.885-45.109c39.501 136.755 158.746 237.666 303.17 250.887 19.381 1.759 38.676 1.347 57.864-0.138-2.501-7.285-4.701-14.679-6.49-22.293-14.731-62.564-4.203-127.189 29.662-181.891 33.812-54.702 86.972-92.966 149.567-107.727 18.193-4.261 36.83-6.432 55.389-6.432 112.235 0 208.579 76.363 234.228 185.712 30.569 129.223-49.835 259.161-179.141 289.701zM936.901 676.539c-19.846-84.335-94.203-143.298-180.736-143.298-14.321 0-28.701 1.704-42.803 5.003-48.323 11.38-89.337 40.903-115.424 83.098-26.112 42.222-34.25 92.086-22.84 140.328 19.929 84.39 94.228 143.352 180.79 143.352 14.321 0 28.643-1.676 42.691-5.002 99.781-23.503 161.851-123.781 138.323-223.481zM828.567 674.34c0-29.303-20.782-54.4-58.685-60.997v-33.618h-32.329v31.309c-22.157 0.99-43.515 6.927-56.047 14.184l9.84 38.594c13.853-7.56 33.29-14.487 54.755-14.487 18.803 0 31.612 7.257 31.612 20.397 0 12.562-10.611 20.451-34.938 28.726-35.265 11.875-59.319 28.34-59.319 60.282 0 29.055 20.451 51.761 55.691 58.688v31.365h32.3v-29.055c22.128-0.963 36.942-5.58 47.801-10.886l-9.567-37.219c-8.572 3.601-23.723 11.188-47.528 11.188-21.411 0-28.34-9.236-28.34-18.472 0-10.885 11.547-17.785 39.531-28.313 39.39-13.854 55.223-31.941 55.223-61.684z" />
<glyph unicode="&#xe92e;" glyph-name="attention" d="M512 960c-282.334 0-512-229.688-512-512s229.666-512 512-512c282.335 0 512 229.688 512 512s-229.665 512-512 512zM512 106.665c-23.543 0-42.665 19.149-42.665 42.665 0 23.521 19.127 42.67 42.665 42.67s42.665-19.149 42.665-42.67c0-23.516-19.122-42.665-42.665-42.665zM554.665 256c0-11.794-9.541-21.335-21.335-21.335h-42.665c-11.789 0-21.335 9.541-21.335 21.335v512c0 11.792 9.545 21.334 21.335 21.334h42.665c11.794 0 21.335-9.542 21.335-21.334v-512z" />
<glyph unicode="&#xe92f;" glyph-name="check_circle" d="M426 212.667l384 384-60 62-324-324-152 152-60-60zM512 852.667c236 0 426-190 426-426s-190-426-426-426-426 190-426 426 190 426 426 426z" />
</font>
</defs>
</svg>
