<?xml version="1.0" encoding="utf-8"?>
<!-- Generator: Adobe Illustrator 19.1.0, SVG Export Plug-In . SVG Version: 6.00 Build 0)  -->
<svg version="1.1" id="Layer_1" xmlns="http://www.w3.org/2000/svg" xmlns:xlink="http://www.w3.org/1999/xlink" x="0px" y="0px"
	 viewBox="-1222 326.4 389.2 200" style="enable-background:new -1222 326.4 389.2 200;" xml:space="preserve">
<style type="text/css">
	.st0{fill:none;}
	.st1{fill:#7D4900;}
	.st2{fill-rule:evenodd;clip-rule:evenodd;fill:#7D4900;}
	.st3{fill-rule:evenodd;clip-rule:evenodd;fill:#FFFFFF;}
	.st4{fill-rule:evenodd;clip-rule:evenodd;fill:#F6921E;}
	.st5{fill:#FFFFFF;}
	.st6{fill:#F6921E;}
</style>
<g>
	<rect x="-1222" y="326.4" class="st0" width="389.2" height="200"/>
	<g>
		<path class="st1" d="M-1080.2,437.6c-3.5,8.3-10.7,14.5-19.3,17.7c6.6,2.4,10.9,8.6,11.7,10.4c4.3-1.9,8.5-8.5,11.9-16.3
			c0.5-2,4.5-4.3,5.8,0.1c0.9-2.4,8-2.3,6.4,3.5c-3,11.5-16.8,25.3-33.2,29.7c-3,1.1-8.8-1.5-6.6-3.7c1.1-0.9,4.7-3.6,6.2-5.2
			c1.7-4.7-6.2-14.4-13.1-15.6c-8.6,1.2-17.4-1.3-23.9-5c-2.5,2.7-15.6,13.3-29.5,9.4c-2.2,0.8-5.2,10.4-5.2,17.5c0.3,2.8-4.7,6-6,3
			c-1.7,4.1-9.8,3.2-8.9,0.4c0.4-20.1,16.9-35.1,18.7-36.8c3.2-2.4,8.9-0.8,7.6,1.2c-0.6,1.9-2,3.7-1.6,4.7
			c4.6,2.4,14.5-0.9,16.5-3.5c-13.8-17.3-7-34.6,10.1-41.3c-1.5-4.9-2.3-10.1-2.5-14c0.1-1.2,1.3-2.3,2.8-2.2
			c9,0.6,21.6,3.5,32.1,13.2c11.2,0.2,6.7-13.8,5.8-21.5c-5.8,1.4-9-5.3-2.1-9.2c-5.7-0.6-3.9-7.6,3.9-7.7c-1.6-4.4,2.5-6.3,5.7-5.3
			c0.2-3.2,4.6-4.1,7.4-2.4c3.1-2.5,8.1-1.9,10.4,3c5.1,1.2,9,10.5,13.3,10.3c6.1-0.1,10.4-1.4,15.5-1.5c3.6,0,7.7,1.3,10.7,4.1
			c5.9,5.4,5.4,13.3,4.7,18.5c-0.5,3-7,3.8-8.3,0.4c-0.6-0.9-0.9-3-4.9-3.7c-1.9-0.2-5.4-0.3-9.7,0c2.1,2.8,4.2,12.8,2.5,13.2
			c-3.8,0.5-5.9-5.3-16.4-8.1c-12.2-4-13.2,0.2-12.2,7.5c0.5,2.9,1,6.3,1.1,9.8c13.3,6.2,26.1,7.3,40.4,1.4c1-0.4,1.5-0.3,1.6,0.4
			c0.3,2.9-1.5,7.2-4.9,9.1c-0.7,3.8-4.6,8.8-9.5,10.5c-7.9,9-24.8,9.2-34.7,3.6C-1079.9,437.4-1080,437.5-1080.2,437.6"/>
		<path class="st1" d="M-941.8,424.7c0.4-0.4,0.8-0.8,1.2-1.1c0.8-0.7,1.6-1.4,2.5-2.1c4.5-3.4,9.8-5.6,15.9-5.7
			c4.2-0.1,7.4,0.7,9.8,2.2c2,1.2,3.4,2.8,4.4,4.7c0.3-0.3,0.7-0.6,1-0.9c1.9-1.6,4.1-2.9,6.5-4l0,0h0l0,0c0.2-0.1,0.4-0.2,0.6-0.3
			c0.1,0,0.4-0.1,0.6-0.2v0c1-0.4,2.1-0.7,3.2-1v0h0l0,0c0.4-0.1,0.8-0.2,1.1-0.3c0.3-0.1,0.7-0.1,1.1-0.2c1.6-0.3,3.3-0.5,5-0.5v0
			h1.1h0v0h0c1.1,0,2.1,0.1,3.1,0.2c0.3,0,0.4,0.1,0.5,0.1c0.8,0.1,1.6,0.3,2.4,0.5l0,0v0v0c0.5,0.1,1,0.3,1.6,0.5
			c0.5,0.2,1,0.4,1.5,0.6c2.4,1.1,4.5,2.8,6,4.8l0,0l0,0l0,0c0.3,0.4,0.6,0.8,0.8,1.2c0.3,0.4,0.5,0.8,0.7,1.3h0
			c1.1,2.3,1.7,4.8,1.7,7.6v0l0,0c0,0.9-0.1,1.8-0.2,2.8c0,0.1,0,0.3-0.1,0.5c-0.1,0.8-0.3,1.6-0.5,2.4l0,0l0,0h0
			c-0.3,1.1-0.7,2.1-1.1,3.2c-0.4,1-0.9,2-1.5,3c-2.9,4.9-7.4,8.7-12.7,10.9l0,0h0c-0.2,0.1-0.4,0.2-0.6,0.2
			c-0.2,0.1-0.4,0.2-0.6,0.2c-1,0.4-2.1,0.7-3.2,1h0h0l0,0c-0.3,0.1-0.6,0.2-1,0.2c-0.3,0.1-0.7,0.1-1,0.2c-1.3,0.2-2.7,0.4-4.1,0.4
			v0h-1.1h0h0l0,0c-1.1,0-2.2-0.1-3.3-0.2h0c-0.3,0-0.4-0.1-0.5-0.1c-0.9-0.1-1.7-0.3-2.5-0.5l0,0h0l0,0c-0.3-0.1-0.6-0.2-0.9-0.3
			c-0.2-0.1-0.5-0.2-0.9-0.3c-1.2-0.4-2.3-1-3.3-1.5c-0.2,0.2-0.5,0.4-0.7,0.5c-0.5,0.3-1,0.6-1.6,0.9c-1,0.4-2.1,0.7-3.2,0.9
			c-0.6,0.1-1.2,0.2-1.9,0.2c0.6,1.3,0.9,2.7,0.9,4.2v0h0c0,0.5,0,1-0.1,1.4v0l0,0.2v0c-0.1,0.4-0.1,0.8-0.2,1.3l-1.8,7.7l0,0h0v0
			c-0.1,0.5-0.3,1-0.5,1.5c-0.2,0.5-0.4,0.9-0.7,1.4c-1.4,2.2-3.5,3.8-5.9,4.6l0,0h0l-0.2,0.1l0,0l-0.2,0.1l0,0
			c-0.4,0.1-0.8,0.2-1.3,0.3l0,0l0,0h0c-0.2,0-0.3,0.1-0.4,0.1c-0.1,0-0.2,0-0.4,0.1c-0.4,0.1-0.7,0.1-1.1,0.1v0.1h-1.1h0h-0.4h0
			l0,0c-0.9,0-1.8-0.1-2.6-0.3c-0.1,0-0.3-0.1-0.4-0.1c-0.5-0.1-1-0.3-1.5-0.6c-0.5,0.2-1.1,0.4-1.8,0.5c-0.9,0.2-1.8,0.3-2.9,0.3
			h-0.7h0l0,0c-0.6,0-1.2,0-1.7-0.1h0l-0.2,0l0,0c-0.2,0-0.3,0-0.5-0.1c-0.1,0.1-0.2,0.2-0.2,0.3l-0.1,0.1l0,0
			c-0.2,0.3-0.5,0.6-0.7,0.9c-0.3,0.3-0.6,0.6-0.9,0.9c-1.7,1.4-4,2.5-6.9,2.5h-0.1l-0.1,0l0,0c-0.1,0-0.2,0-0.3,0
			c-0.1,0-0.2,0-0.3,0c-0.4,0-0.9-0.1-1.3-0.2h0l0,0l0,0c-0.3-0.1-0.7-0.2-0.9-0.3c-0.3-0.1-0.6-0.3-0.9-0.4
			c-1.4-0.8-2.5-1.9-3.1-3.3l0,0l0,0l0,0c-0.1-0.1-0.1-0.2-0.1-0.3c0,0-0.1-0.1-0.1-0.2c-0.1-0.2-0.1-0.3-0.2-0.5h-0.1l0,0h-0.2
			l-3.4,0l-2.1,0h-1.1v-0.1c-0.1,0-0.3,0-0.4,0c-0.5,0-1.1-0.1-1.5-0.3l0,0.1l0,0c-0.2,0.3-0.3,0.6-0.6,0.9v0l0,0l0,0
			c-0.2,0.3-0.5,0.7-0.7,1c-0.3,0.3-0.5,0.6-0.9,0.9c-1.6,1.5-3.8,2.5-6.9,2.5h-0.1l-0.1,0l0,0c-0.1,0-0.2,0-0.3,0
			c-0.1,0-0.2,0-0.3,0c-0.4,0-0.9-0.1-1.3-0.2h0v0l0,0c-0.3-0.1-0.6-0.2-0.9-0.3c-0.3-0.1-0.6-0.2-0.9-0.4c-1.4-0.8-2.5-1.9-3.2-3.3
			h0c-0.1-0.1-0.1-0.2-0.1-0.2c0,0-0.1-0.1-0.1-0.2c-0.1-0.1-0.1-0.3-0.2-0.4h-0.3h-0.2l-3.4,0l-2.1,0h-1.1v-0.1c-0.1,0-0.2,0-0.3,0
			c-0.4,0-0.7-0.1-1.1-0.1c-1.5-0.3-2.9-0.8-4.2-1.7l-0.1,0c-0.3,0.2-0.6,0.4-0.9,0.5c-1.6,0.8-3.5,1.4-5.8,1.4h-1.1v-0.1
			c-0.8-0.1-1.6-0.2-2.4-0.5c-0.2,0-0.4-0.1-0.6-0.2c-0.7-0.3-1.3-0.6-1.9-1c-0.1,0.1-0.2,0.1-0.3,0.2c-0.4,0.2-0.8,0.4-1.1,0.6
			c-0.2,0.1-0.5,0.3-0.8,0.4c-0.3,0.1-0.7,0.2-1,0.3c-1.8,0.5-4.3,0.6-6.9-0.1l0,0c-0.2,0-0.4-0.1-0.6-0.2h0
			c-0.1-0.1-0.3-0.1-0.5-0.2c-0.6-0.3-1.2-0.6-1.6-0.9l-0.1,0.1c-0.3,0.1-0.6,0.3-0.9,0.4c-1.6,0.7-3.3,1.2-5.1,1.2l0,0v0
			c-0.6,0-1.3,0-1.9-0.1l0,0l-0.3-0.1c-0.5-0.1-1-0.2-1.5-0.4v0l0,0l0,0c-0.2-0.1-0.4-0.1-0.5-0.2c-0.1,0-0.3-0.1-0.5-0.2v0
			c-0.5-0.2-1-0.5-1.5-0.8l-0.2,0.1c-0.3,0.2-0.6,0.4-0.9,0.5c-1,0.5-2,0.8-2.9,0.9c-0.9,0.1-1.8,0.2-2.6,0.1h0h0
			c-0.2,0-0.3,0-0.4,0c-0.1,0-0.2,0-0.4,0c-0.8-0.1-1.6-0.2-2.5-0.4l0,0c-0.2,0-0.3-0.1-0.5-0.2c-0.2-0.1-0.4-0.1-0.5-0.2l0,0
			c-0.9-0.4-1.8-0.9-2.6-1.6h0l0,0l0,0c-0.2-0.2-0.4-0.4-0.6-0.6l0,0c-0.2-0.2-0.4-0.4-0.6-0.7c-0.9-1.2-1.4-2.7-1.3-4.5v0l0-0.1
			l0,0c0-0.1,0-0.2,0-0.3l0,0c0-0.1,0-0.2,0-0.3l0,0c0-0.5,0.1-0.9,0.3-1.3l0,0h0l0,0l0,0l0,0c0.4-1.3,0.7-2.3,0.9-3.2
			c0.4-1.4,0.5-1.8,0.6-2.3l0,0l0,0h0c0.7-2.4,1.3-4.7,1.5-5.5l0-0.1l0-0.1l0,0l0.4-1.1l0.1,0c0.1-0.2,0.2-0.4,0.3-0.6l0,0l0.1-0.2
			l0,0l0.1-0.2c0.2-0.4,0.5-0.8,0.8-1.1h0l0,0c0.3-0.3,0.6-0.6,0.9-0.9c0.3-0.3,0.7-0.6,1.1-0.9c1.9-1.4,4.7-2.5,8.3-2.5h6.9
			c-0.2-0.8-0.3-1.6-0.3-2.4v0v-0.1l0,0c0-0.2,0-0.4,0-0.5c0-0.2,0-0.4,0.1-0.5c0.1-0.9,0.4-1.7,0.8-2.6l0,0
			c0.1-0.3,0.3-0.6,0.5-0.9c0.2-0.3,0.4-0.6,0.6-0.9c1-1.3,2.3-2.4,4-3.1c0.7-1.4,1.5-2.9,2.4-4.3c1-1.5,2-3.1,3.1-4.5
			c5.8-7.6,13.9-13.7,23.4-14.3h0c4.2-0.1,7.5,0.7,9.9,2.2c2,1.2,3.4,2.8,4.4,4.7c0.3-0.3,0.6-0.6,1-0.9c2-1.6,4.2-3,6.6-4l0,0l0,0
			l0,0c0.2-0.1,0.4-0.2,0.6-0.3c0.1,0,0.4-0.1,0.6-0.2v0c1-0.4,2.1-0.7,3.2-1v0l0,0l0,0c0.4-0.1,0.8-0.2,1.1-0.3
			c0.3-0.1,0.7-0.1,1.1-0.2c1.6-0.3,3.3-0.5,5-0.5v0h1.1l0,0v0h0c1.1,0,2.1,0.1,3.1,0.2c0.3,0,0.4,0.1,0.5,0.1
			c0.8,0.1,1.6,0.3,2.4,0.5h0v0v0c0.5,0.1,1,0.3,1.6,0.5c0.5,0.2,1,0.4,1.5,0.6c2.4,1.1,4.5,2.8,6,4.8l0,0l0,0h0
			c0.1,0.2,0.3,0.4,0.4,0.6c0.1,0.2,0.2,0.4,0.4,0.6h0C-942.4,423.6-942.1,424.1-941.8,424.7"/>
		<path class="st2" d="M-1163.3,430.2c0.6-1.6,1.8-3.1,5-4.3c-1.8-0.4-5.7-0.7-7.5-2.9c1.4-1.1,2.7-2,5.8-3.3
			c-1.4-0.2-3.8-0.6-6.9-2.7c9.8-6.9,27.8-8.3,37.3-6.3c-5,13.6-14.4,22.7-21.8,21.2C-1156.2,434-1158.7,432.6-1163.3,430.2"/>
		<path class="st3" d="M-1075.3,431.1c7.9,6.2,17.6,6,25.4,1.9c-5.2,0.5-11-0.2-16.4-3.4c5.8,3,22.1,4.2,24.8-4.4
			c-4.8,2.4-11.4,3.3-21.7,0.7c7.2,0.8,22.7,0.6,27.5-7.6c-4.3,1.9-13.3,4.6-21.7,4c-5.7-0.4-11-2.2-15.2-4.2
			C-1072.9,422.7-1073.7,427.3-1075.3,431.1"/>
		<path class="st4" d="M-1056.3,422.9c-0.2,1.4-0.7,2.1-1.4,3.3c-2.1,0-4-0.1-5.5-0.3c1.8,0.4,3.5,0.8,5,1c-1.1,1.5-2.7,2.8-4.7,3.9
			c-1.3-0.3-2.5-0.8-3.5-1.3c1,0.6,2,1.1,3,1.5c-2.4,1.2-5.2,2.1-8.3,2.4c-1.3-0.7-2.5-1.5-3.7-2.4c1.5-3.5,2.3-7.6,2.6-11.8
			C-1067.7,421.6-1061.9,422.7-1056.3,422.9"/>
		<path class="st5" d="M-1072.6,363.8c-0.1-0.7-1-3.1-2.5-2.7C-1076.9,361.5-1073.2,363.5-1072.6,363.8"/>
		<path class="st5" d="M-1045.6,374.5c1.3-0.2,4.3-0.6,6.1-0.6c7.8,0.1,11.9,8.9,11.6,15.2c-0.1,1.3-1.8,1.3-2.3,0.1
			c-2.1-3.8-5-4.3-9.6-4.6c-3.4-0.2-7.5,0.1-11.2,0.2c-0.7,0-0.9-0.4-0.8-0.8C-1051.1,381-1048.4,375-1045.6,374.5"/>
		<path class="st5" d="M-1084.2,374.3c0.9-4.1,3.3-8.1,9-8.7c-0.7,0.5-1.9,3.3-1.8,4.1c2.1-4.8,8.5-5.9,9.8-1.5c0,0,4.4,4.5,5.4,5.4
			c0.3,0.2,0.7,0.5,0.5,0.7c-0.3,0.3-2-0.4-2-0.1c0,0.9,3.4,1.8,9.3,1.4c1.8-0.1,3.9-0.1,6.3-0.6c-3.3,2.1-5.6,7.1-6,9.1
			c-0.1,0.5-1.1,1-1.4,1c-10,0.8-17.3,1.8-21.3-5.7c-0.4-0.6-0.1-1.3,0.3-1.4c0.9-0.5,1.9-0.5,3.3,0c-3-2.5-9.6-0.6-5.3,4.7
			c-0.3-0.8-0.5-1.8-0.3-2.6c2.2,4.2,10.1,7.3,16.3,8.6c8.5,1.9,11.8,5.9,11.5,6.8c-0.3,0.3-0.6-0.2-0.8-0.3
			C-1059,388.2-1088,391.2-1084.2,374.3"/>
		<path class="st2" d="M-1071.4,367.9c-0.4,0.1-0.7,0.5-0.9,0.9c0.5-0.2,1.2,0.4,1.5,1c0.4,0.6,0.4,1.4,0,1.7
			c-0.4,0.3-1.1,0-1.6-0.8c0.1,0.4,0.3,0.9,0.5,1.3c1,1.9,2.7,3.1,3.9,2.7c1.2-0.4,1.5-2.3,0.5-4.2
			C-1068.4,368.7-1070.2,367.5-1071.4,367.9"/>
		<path class="st2" d="M-1132.9,489.6c-25.7,0-46.6,1.3-46.6,2.9c0,1.6,20.9,2.9,46.6,2.9c25.7,0,46.6-1.3,46.6-2.9
			C-1086.3,490.9-1107.2,489.6-1132.9,489.6"/>
		<polygon class="st1" points="-1093.3,418 -1090.9,425.1 -1116.5,466.8 -1158.2,440.8 -1158.6,436 -1134.2,395.2 -1133.1,394.8 		
			"/>
		<path class="st3" d="M-1112.2,410.2l16.4,9.6l-23.7,37.8l-35.9-22l21.2-35.1c1.2,6.8,3.6,14.7,8.6,18.9c0.9,3.9,3.5,6,6.1,6.7
			c0.6,2,1.8,5,3.5,4.7C-1112.8,426.1-1110.9,416.2-1112.2,410.2"/>
		<polygon class="st3" points="-1118.3,429.3 -1191.5,430.9 -1119.4,427 		"/>
		<polygon class="st2" points="-1116.2,430.8 -1190.2,431.4 -1115.3,428.4 		"/>
		<polygon class="st2" points="-1104.8,437.4 -1155.3,436.9 -1104.7,435.5 		"/>
		<polygon class="st3" points="-1105.2,435.1 -1179.7,434.1 -1103.2,432.1 		"/>
		<polygon class="st2" points="-1103.3,433.8 -1178.2,433.5 -1103.2,431.9 		"/>
		<path class="st6" d="M-1047.1,375.8c1.5-0.3,4.8-0.6,6.7-0.6c7,0.1,11.3,6.5,12.5,12.7c0,0.4,0,0.9,0,1.3
			c-0.1,1.3-1.8,1.3-2.3,0.1c-2.1-3.8-5-4.3-9.6-4.6c-3.4-0.2-7.5,0.1-11.2,0.2c-0.7,0-0.9-0.4-0.8-0.8c0.5-2.2,2-5.8,3.8-8
			C-1047.7,376-1047.4,375.9-1047.1,375.8"/>
		<path class="st4" d="M-1090.1,433c-1.4,0-3.7-0.7-4.6-1.1c5.5-2.4,10.1-5.8,11.8-14.8C-1083.1,422.3-1083.5,429-1090.1,433
			 M-1100.2,410.1c-8.2-9.7-19.9-12.4-25-13.4c7.5,2.2,14.1,6.1,17.9,12.7c-0.3,0-0.5,0-0.8,0l14.7,8.6l2.4,7l-14.6,23.7
			c5.1-2,10.4-6.7,13.8-12.8c-0.1,0.6-2.3,7.6-7.1,12.2c4.3-2.7,8.4-7.6,11.2-13c0,0-0.7,3.6-2.8,7.5c2.7-2.6,4.7-5.6,5.4-9
			c-1.5-0.1-3.7-0.3-4.6-0.5c4.8-1.6,11.8-10.6,11-22.9c1,6.1,1.2,13.5-1.5,18.9c4.7-6.4,5.1-16.9,2-27.1c-2-6.6-5.5-13-6.7-20
			c-2.4-7.1,0.8-15,5.8-16.8c-0.1-0.1-6.9-3.2-8.9-0.3c-1,1.4,0.9,2.5,2.5,2.9c-2.5-0.2-9.6,1-9.9,3.1c-0.2,1.9,4.2,1.9,6,1.4
			c-1.5,0.5-8,4.1-7.3,7.1c0.2,1.1,4.5,0.2,6.6-2c-2.2,10.4,8.7,29-8.8,32l2.4,4.3L-1100.2,410.1z"/>
		<polygon class="st2" points="-1107.3,440.3 -1138.5,440 -1107.2,439.1 		"/>
		<path class="st4" d="M-969.1,435c0.7-2.6,3.1-5,5.8-5c3.3,0,3.9,2.3,3.2,4.9c-0.8,2.8-2.5,4.6-5.6,4.6
			C-968.6,439.6-969.8,437.8-969.1,435 M-982.2,435.4c-2.4,8.7,3.9,14.9,13.5,14.9c10.1,0,19.2-6.2,21.7-15.5
			c2.4-8.8-2.5-15.6-12.4-15.6C-970.5,419.2-979.4,425.3-982.2,435.4z"/>
		<path class="st4" d="M-1001.8,441.9c1.6-2,2.9-6.3,3.1-9.6c0.1-1.6-1.4-1.7-2.9,0c-3.1,3.5-4.8,6.8-6,9.8
			C-1005.4,442.1-1004,442-1001.8,441.9 M-1020.8,449.9c-5.5,0-4.8-7.7,0.8-7.7c4.5-8.9,13.4-21.3,25.1-22.4
			c13.8-0.2,11.2,12.3,7.6,21.4c3.1,0,4.8,2.6,4.2,5.2c-0.9,3-3.7,3.6-6.8,3.6C-1000.6,449.9-1010.1,449.9-1020.8,449.9z"/>
		<path class="st4" d="M-896.4,435c0.7-2.6,3.1-5,5.8-5c3.3,0,3.9,2.3,3.2,4.9c-0.8,2.8-2.5,4.6-5.6,4.6
			C-896,439.6-897.1,437.8-896.4,435 M-909.5,435.4c-2.4,8.7,3.9,14.9,13.4,14.9c10.1,0,19.2-6.2,21.7-15.5
			c2.4-8.8-2.5-15.6-12.4-15.6C-897.8,419.2-906.8,425.3-909.5,435.4z"/>
		<path class="st3" d="M-1005,472.1c-3.4,0-3.9-2.2-3.4-3.4l1.8-5.2c-2.1,2.2-3.5,4.1-5.6,6.3c-1.6,1.7-2.7,2.3-5.5,2.3
			c-4,0-4-2.3-3.5-3.6c1.4-3.9,2.7-7.5,4.1-11.4c0.5-1.3,2.5-3.2,5.6-3.1c2.8,0,3.5,2,2.9,3.3l-2.1,5.7c2.3-2.4,4.1-4.4,6.2-7
			c1.3-1.5,3.5-2.2,6.3-2c1.6,0,4.7,0.8,3.8,3.5c-1.4,3.8-2.7,7.2-4.1,11.1C-999.1,469.8-1001.5,472.1-1005,472.1"/>
		<path class="st3" d="M-1030.1,472.1c-2.9,0-4.6-1.6-3.8-3.7c1.3-3.1,2.3-6.3,3.4-9.4c-0.6-0.2-2.5-0.2-3.3,0
			c-1.2,3.2-2.3,6.4-3.5,9.6c-1.2,3.3-3.5,3.6-5.3,3.5c-1.6-0.1-5-0.7-4-3.3c1.3-3.6,2.7-7.4,4-11c0.6-1.6,2.8-3.8,7.3-3.8
			c2.8,0,7.6,0,10.4,0c4.3,0.1,5.5,2.8,4.6,5.1l-3.4,9.4C-1024.3,469.9-1027.2,472.1-1030.1,472.1"/>
		<path class="st3" d="M-978,477.2c-2.7-0.1-3.1-2.8-2.3-5.1c-4.3,0-6.6,0.1-10.9,0.1c-4.6,0-5.1-3-4.1-5.3c1.3-3.6,2.1-5.9,3.4-9.5
			c0.9-2.6,3.4-3.4,5.9-3.3c2.6,0,3.4,1.6,2.8,3.3l-3.6,9.8h3.7c1.2-3.3,2-6.6,3.2-9.8c0.8-1.9,2.3-3.3,5.7-3.2
			c3.1,0.1,4.3,1.9,3.8,3.1c-1.2,3.3-2.2,6.6-3.4,9.9c1.7-0.1,3.1,0.3,2.2,2.9c-0.5,1.3-1,2.7-1.5,4
			C-973.7,475.4-975.1,477.2-978,477.2"/>
		<path class="st3" d="M-933.3,464.6c0.9,0,1.5,0.9,1.2,2c-0.5,1.6-1.2,2-2.6,2c-1.2,0-1.4-1.1-1.1-2.2
			C-935.4,465.5-934.5,464.6-933.3,464.6 M-938.4,460c2,0,2.1-0.6,4.1-0.6c2,0,3.2,0.7,2.7,2.7c-3.4-0.6-9.7,0-11.6,4.9
			c-1.3,3.4-0.9,6,3.2,6c0.2,0,0.5,0,0.7,0c3.2,0,4.3-1.3,5.6-2.6c-0.1,1.8,1.4,2.8,3.6,2.8c0.1,0,0.2,0,0.4,0
			c2.9,0,6.3-1.5,7.1-4.3c0.8-2.6,1.6-5.1,2.4-7.7c1.6-5.2-2.5-7.7-7.9-7.7c-2.4,0-10.4,0.5-11.5,4C-940,458.8-939.6,460-938.4,460z
			"/>
		<path class="st3" d="M-952.3,477.3c-2.7-0.1-2.7-2.9-1.9-5.3c-4.3,0-6.6,0.1-10.9,0.1c-4.6,0-5.1-3-4.1-5.3
			c1.3-3.6,2.1-5.9,3.4-9.5c0.9-2.6,3.4-3.4,5.9-3.3c2.6,0,3.5,1.6,2.8,3.3l-3.6,9.8h3.7c1.2-3.3,2-6.6,3.2-9.8
			c0.8-1.9,2.3-3.3,5.7-3.2c3.1,0.1,4.3,1.9,3.8,3.1c-1.2,3.3-2.2,6.6-3.4,9.9c1.7-0.1,3.1,0.3,2.2,2.9c-0.5,1.3-1,2.7-1.5,4
			C-947.7,475.4-949.5,477.3-952.3,477.3"/>
		<path class="st4" d="M-929,441.9c1.6-2,2.9-6.3,3.2-9.6c0.1-1.6-1.4-1.7-2.9,0c-3.1,3.5-4.8,6.8-6,9.8
			C-932.6,442.1-931.3,442-929,441.9 M-948,449.9c-5.5,0-4.8-7.7,0.8-7.7c4.5-8.9,13.4-21.3,25.1-22.4c13.8-0.2,11.2,12.3,7.6,21.4
			c3.2,0,4.8,2.6,4.2,5.2c-0.9,3-3.7,3.6-6.8,3.6C-927.9,449.9-937.3,449.9-948,449.9z"/>
		<path class="st3" d="M-1086.5,367.8c-1.5,0.4-6.4,1.7-8,4.4c-0.6-0.3-1-0.7-1-1.3C-1095.2,369-1089.4,367.9-1086.5,367.8"/>
		<path class="st5" d="M-1076.1,364.2c-0.3-0.2-2.2-3.7-3.7-2.4c-1.5,1.2,2.3,2.8,2.3,2.8L-1076.1,364.2z"/>
		<path class="st3" d="M-1088.2,365.9c0.8-0.3,4.6-1.7,9.1-0.6c-0.7-0.4-7-3-8.9-0.3C-1088.2,365.3-1088.3,365.6-1088.2,365.9"/>
		<path class="st3" d="M-1106.9,410.1c-3.8-6.9-10.4-11-18.1-13.3c-2.4-0.5-4.4-0.7-5.8-0.8c-0.7,5.4,1.7,12.8,6.5,19.4
			c0.5-2.7,1.2-8-1.1-13.3c3.5,5.1,3.4,11,3.5,16.3c0.2,1.8,2.1,3.4,3.4,3.4c1.1-2.5-0.1-13.7-2.4-20.1c4.1,7.1,5.3,17.3,4.9,22.3h0
			c1.8-4.6,2.7-7.5,1.8-13.3c-0.8-3.5-2.2-7.1-3.3-9.1c1.3,1.2,2.3,2.8,3,4.3L-1106.9,410.1z"/>
	</g>
</g>
</svg>
